<?xml version="1.0" encoding="UTF-8"?>
<svg xmlns="http://www.w3.org/2000/svg" xmlns:xlink="http://www.w3.org/1999/xlink" width="375pt" height="374.999991pt" viewBox="0 0 375 374.999991" version="1.2">
<defs>
<clipPath id="clip1">
  <path d="M 165 1.355469 L 290 1.355469 L 290 151 L 165 151 Z M 165 1.355469 "/>
</clipPath>
<clipPath id="clip2">
  <path d="M 80.28125 132.214844 L 294.648438 132.214844 L 294.648438 373.074219 L 80.28125 373.074219 Z M 80.28125 132.214844 "/>
</clipPath>
<clipPath id="clip3">
  <path d="M 86 1.355469 L 210 1.355469 L 210 151 L 86 151 Z M 86 1.355469 "/>
</clipPath>
</defs>
<g id="surface1">
<g clip-path="url(#clip1)" clip-rule="nonzero">
<path style=" stroke:none;fill-rule:nonzero;fill:rgb(0%,42.749023%,82.749939%);fill-opacity:1;" d="M 289.089844 1.359375 L 209.53125 150.421875 L 165.820312 150.488281 L 245.425781 1.359375 L 289.089844 1.359375 "/>
</g>
<g clip-path="url(#clip2)" clip-rule="nonzero">
<path style=" stroke:none;fill-rule:nonzero;fill:rgb(89.019775%,56.858826%,26.669312%);fill-opacity:1;" d="M 166.246094 149.214844 C 169.328125 145.300781 173.453125 144.410156 178.136719 144.410156 C 184.324219 144.410156 190.511719 144.410156 196.703125 144.410156 C 203.164062 144.410156 208.792969 146.789062 210.710938 153.527344 C 211.410156 155.988281 211.453125 158.835938 211.347656 161.667969 C 203.667969 159.921875 195.671875 158.996094 187.460938 158.996094 C 179.351562 158.996094 171.449219 159.902344 163.851562 161.609375 C 163.851562 161.140625 163.851562 160.675781 163.851562 160.210938 C 163.851562 156.347656 163.6875 152.464844 166.246094 149.214844 M 223.210938 165.101562 C 223.210938 162.90625 223.210938 160.707031 223.210938 158.511719 C 223.210938 152.789062 222.160156 147.332031 218.765625 142.570312 C 214.21875 136.183594 206.78125 132.285156 198.914062 132.285156 C 191.277344 132.285156 183.636719 132.285156 175.996094 132.285156 C 167.371094 132.285156 159.753906 136.898438 155.160156 144.054688 C 152.21875 148.632812 151.714844 153.949219 151.714844 159.21875 C 151.714844 161.179688 151.714844 163.140625 151.714844 165.101562 C 110.097656 179.804688 80.28125 219.441406 80.28125 266.039062 C 80.28125 325.160156 128.265625 373.085938 187.460938 373.085938 C 246.660156 373.085938 294.648438 325.160156 294.648438 266.039062 C 294.648438 219.441406 264.828125 179.804688 223.210938 165.101562 "/>
</g>
<path style=" stroke:none;fill-rule:nonzero;fill:rgb(96.078491%,64.709473%,28.62854%);fill-opacity:1;" d="M 278.804688 266.378906 C 278.804688 316.757812 237.910156 357.601562 187.460938 357.601562 C 137.015625 357.601562 96.121094 316.757812 96.121094 266.378906 C 96.121094 215.996094 137.015625 175.152344 187.460938 175.152344 C 237.910156 175.152344 278.804688 215.996094 278.804688 266.378906 "/>
<path style=" stroke:none;fill-rule:nonzero;fill:rgb(100%,100%,100%);fill-opacity:1;" d="M 276.445312 266.378906 C 276.289062 297.230469 260.167969 325.960938 233.898438 342.203125 C 207.34375 358.613281 173.160156 359.359375 145.652344 344.847656 C 118.570312 330.558594 100.675781 302.472656 98.652344 272.039062 C 96.609375 241.230469 111.351562 211.148438 136.578125 193.453125 C 162.101562 175.554688 196.164062 172.652344 224.484375 185.53125 C 252.222656 198.140625 271.898438 224.996094 275.757812 255.148438 C 276.234375 258.871094 276.425781 262.625 276.445312 266.378906 C 276.460938 269.414062 281.179688 269.414062 281.164062 266.378906 C 281.011719 236.265625 266.472656 208.164062 242.171875 190.40625 C 217.597656 172.457031 184.6875 168.132812 156.089844 178.179688 C 128.179688 187.984375 106.40625 211.179688 97.738281 239.324219 C 88.777344 268.410156 95.320312 300.429688 113.894531 324.308594 C 132.398438 348.097656 162.207031 361.210938 192.191406 359.835938 C 222.070312 358.464844 249.644531 342.1875 266.039062 317.371094 C 275.988281 302.316406 281.074219 284.363281 281.164062 266.378906 C 281.179688 263.335938 276.460938 263.339844 276.445312 266.378906 "/>
<g clip-path="url(#clip3)" clip-rule="nonzero">
<path style=" stroke:none;fill-rule:nonzero;fill:rgb(0%,58.428955%,100%);fill-opacity:1;" d="M 86.398438 1.359375 L 165.957031 150.421875 L 209.667969 150.488281 L 130.0625 1.359375 L 86.398438 1.359375 "/>
</g>
<path style=" stroke:none;fill-rule:nonzero;fill:rgb(78.819275%,53.329468%,23.529053%);fill-opacity:1;" d="M 138.070312 333.175781 L 138.09375 333.101562 L 138.027344 333.144531 L 154.183594 276.011719 L 165.5625 272.308594 L 154.144531 276 L 107.449219 239.265625 L 107.53125 239.265625 L 107.464844 239.214844 L 166.863281 236.902344 L 173.898438 246.558594 L 166.863281 236.863281 L 187.414062 181.160156 L 187.445312 181.234375 L 187.472656 181.160156 L 208.027344 236.863281 L 201.121094 246.371094 L 208.0625 236.851562 L 267.464844 239.15625 L 267.398438 239.210938 L 267.480469 239.214844 L 220.785156 275.949219 L 209.90625 272.429688 L 220.808594 275.980469 L 236.964844 333.109375 L 236.898438 333.066406 L 236.917969 333.144531 L 187.507812 300.144531 L 187.496094 288.503906 L 187.484375 300.175781 L 138.070312 333.175781 M 187.472656 265.175781 L 187.472656 265.222656 L 187.472656 265.175781 M 187.472656 265.175781 L 187.425781 265.1875 L 187.429688 265.191406 L 187.472656 265.175781 "/>
<path style=" stroke:none;fill-rule:nonzero;fill:rgb(78.039551%,46.669006%,24.308777%);fill-opacity:1;" d="M 187.488281 190.421875 L 187.464844 190.355469 L 169.160156 239.964844 L 187.464844 265.179688 L 187.488281 265.148438 L 187.488281 190.421875 "/>
<path style=" stroke:none;fill-rule:nonzero;fill:rgb(89.019775%,57.649231%,28.62854%);fill-opacity:1;" d="M 187.488281 190.421875 L 187.515625 190.355469 L 205.820312 239.964844 L 187.515625 265.179688 L 187.488281 265.148438 L 187.488281 190.421875 "/>
<path style=" stroke:none;fill-rule:nonzero;fill:rgb(78.039551%,46.669006%,24.308777%);fill-opacity:1;" d="M 116.316406 242.101562 L 116.246094 242.105469 L 157.832031 274.820312 L 187.5 265.226562 L 187.472656 265.195312 L 116.316406 242.101562 "/>
<path style=" stroke:none;fill-rule:nonzero;fill:rgb(89.019775%,57.649231%,28.62854%);fill-opacity:1;" d="M 116.316406 242.101562 L 116.261719 242.058594 L 169.164062 240 L 187.515625 265.179688 L 187.472656 265.195312 L 116.316406 242.101562 "/>
<path style=" stroke:none;fill-rule:nonzero;fill:rgb(78.039551%,46.669006%,24.308777%);fill-opacity:1;" d="M 143.535156 325.671875 L 143.515625 325.742188 L 187.523438 296.351562 L 187.554688 265.210938 L 187.515625 265.222656 L 143.535156 325.671875 "/>
<path style=" stroke:none;fill-rule:nonzero;fill:rgb(89.019775%,57.649231%,28.62854%);fill-opacity:1;" d="M 143.535156 325.671875 L 143.476562 325.714844 L 157.867188 274.832031 L 187.515625 265.179688 L 187.515625 265.222656 L 143.535156 325.671875 "/>
<path style=" stroke:none;fill-rule:nonzero;fill:rgb(78.039551%,46.669006%,24.308777%);fill-opacity:1;" d="M 231.53125 325.644531 L 231.59375 325.683594 L 217.203125 274.804688 L 187.554688 265.148438 L 187.554688 265.195312 L 231.53125 325.644531 "/>
<path style=" stroke:none;fill-rule:nonzero;fill:rgb(89.019775%,57.649231%,28.62854%);fill-opacity:1;" d="M 231.53125 325.644531 L 231.550781 325.714844 L 187.546875 296.324219 L 187.515625 265.179688 L 187.554688 265.195312 L 231.53125 325.644531 "/>
<path style=" stroke:none;fill-rule:nonzero;fill:rgb(78.039551%,46.669006%,24.308777%);fill-opacity:1;" d="M 258.695312 242.054688 L 258.753906 242.007812 L 205.851562 239.953125 L 187.5 265.128906 L 187.539062 265.148438 L 258.695312 242.054688 "/>
<path style=" stroke:none;fill-rule:nonzero;fill:rgb(89.019775%,57.649231%,28.62854%);fill-opacity:1;" d="M 258.695312 242.054688 L 258.769531 242.058594 L 217.179688 274.773438 L 187.515625 265.179688 L 187.539062 265.148438 L 258.695312 242.054688 "/>
</g>
</svg>
