<?xml version="1.0" encoding="UTF-8"?>
<svg xmlns="http://www.w3.org/2000/svg" xmlns:xlink="http://www.w3.org/1999/xlink" width="375pt" height="374.999991pt" viewBox="0 0 375 374.999991" version="1.2">
<defs>
<clipPath id="clip1">
  <path d="M 165 1.207031 L 289 1.207031 L 289 151 L 165 151 Z M 165 1.207031 "/>
</clipPath>
<clipPath id="clip2">
  <path d="M 80.210938 132.515625 L 294.402344 132.515625 L 294.402344 373.957031 L 80.210938 373.957031 Z M 80.210938 132.515625 "/>
</clipPath>
<clipPath id="clip3">
  <path d="M 86 1.207031 L 210 1.207031 L 210 151 L 86 151 Z M 86 1.207031 "/>
</clipPath>
</defs>
<g id="surface1">
<g clip-path="url(#clip1)" clip-rule="nonzero">
<path style=" stroke:none;fill-rule:nonzero;fill:rgb(82.749939%,0%,19.219971%);fill-opacity:1;" d="M 288.851562 1.210938 L 209.359375 150.765625 L 165.683594 150.828125 L 245.222656 1.210938 L 288.851562 1.210938 "/>
</g>
<g clip-path="url(#clip2)" clip-rule="nonzero">
<path style=" stroke:none;fill-rule:nonzero;fill:rgb(100%,78.42865%,0%);fill-opacity:1;" d="M 166.109375 149.550781 C 169.183594 145.625 173.3125 144.730469 177.988281 144.730469 C 184.171875 144.730469 190.355469 144.730469 196.539062 144.730469 C 202.996094 144.730469 208.621094 147.113281 210.535156 153.882812 C 211.234375 156.347656 211.277344 159.207031 211.171875 162.042969 C 203.496094 160.292969 195.511719 159.363281 187.308594 159.363281 C 179.199219 159.363281 171.308594 160.273438 163.714844 161.984375 C 163.714844 161.519531 163.714844 161.050781 163.714844 160.582031 C 163.714844 156.707031 163.550781 152.8125 166.109375 149.550781 M 223.027344 165.492188 C 223.027344 163.289062 223.027344 161.085938 223.027344 158.878906 C 223.027344 153.136719 221.976562 147.660156 218.585938 142.882812 C 214.042969 136.480469 206.613281 132.570312 198.75 132.570312 C 191.117188 132.570312 183.484375 132.570312 175.851562 132.570312 C 167.230469 132.570312 159.621094 137.195312 155.03125 144.375 C 152.09375 148.96875 151.585938 154.300781 151.585938 159.589844 C 151.585938 161.558594 151.585938 163.523438 151.585938 165.492188 C 110.003906 180.242188 80.210938 220.007812 80.210938 266.761719 C 80.210938 326.074219 128.160156 374.15625 187.308594 374.15625 C 246.453125 374.15625 294.402344 326.074219 294.402344 266.761719 C 294.402344 220.007812 264.609375 180.238281 223.027344 165.492188 "/>
</g>
<path style=" stroke:none;fill-rule:nonzero;fill:rgb(97.648621%,81.568909%,0%);fill-opacity:1;" d="M 278.574219 267.101562 C 278.574219 317.644531 237.714844 358.621094 187.308594 358.621094 C 136.902344 358.621094 96.039062 317.644531 96.039062 267.101562 C 96.039062 216.550781 136.902344 175.574219 187.308594 175.574219 C 237.714844 175.574219 278.574219 216.550781 278.574219 267.101562 "/>
<path style=" stroke:none;fill-rule:nonzero;fill:rgb(100%,100%,100%);fill-opacity:1;" d="M 276.21875 267.101562 C 276.0625 298.054688 259.953125 326.878906 233.703125 343.171875 C 207.171875 359.636719 173.015625 360.386719 145.53125 345.824219 C 118.46875 331.488281 100.589844 303.3125 98.570312 272.78125 C 96.527344 241.871094 111.261719 211.6875 136.464844 193.9375 C 161.964844 175.976562 196 173.066406 224.300781 185.984375 C 252.011719 198.640625 271.675781 225.582031 275.53125 255.832031 C 276.007812 259.566406 276.199219 263.335938 276.21875 267.101562 C 276.230469 270.148438 280.949219 270.148438 280.929688 267.101562 C 280.777344 236.886719 266.253906 208.695312 241.96875 190.878906 C 217.417969 172.871094 184.535156 168.53125 155.960938 178.609375 C 128.074219 188.449219 106.316406 211.722656 97.65625 239.957031 C 88.703125 269.136719 95.238281 301.265625 113.796875 325.222656 C 132.289062 349.089844 162.070312 362.246094 192.035156 360.863281 C 221.882812 359.488281 249.4375 343.160156 265.816406 318.261719 C 275.761719 303.15625 280.839844 285.144531 280.929688 267.101562 C 280.949219 264.050781 276.230469 264.050781 276.21875 267.101562 "/>
<g clip-path="url(#clip3)" clip-rule="nonzero">
<path style=" stroke:none;fill-rule:nonzero;fill:rgb(100%,0%,18.429565%);fill-opacity:1;" d="M 86.324219 1.210938 L 165.816406 150.765625 L 209.492188 150.828125 L 129.953125 1.210938 L 86.324219 1.210938 "/>
</g>
<path style=" stroke:none;fill-rule:nonzero;fill:rgb(90.589905%,70.588684%,3.919983%);fill-opacity:1;" d="M 137.957031 335.050781 L 137.980469 334.972656 L 137.910156 335.015625 L 154.054688 277.699219 L 165.425781 273.980469 L 154.015625 277.683594 L 107.359375 240.828125 L 107.4375 240.824219 L 107.375 240.773438 L 166.726562 238.460938 L 173.757812 248.144531 L 166.722656 238.417969 L 187.261719 182.53125 L 187.289062 182.609375 L 187.316406 182.53125 L 207.855469 238.417969 L 200.953125 247.960938 L 207.890625 238.40625 L 267.242188 240.722656 L 267.179688 240.769531 L 267.257812 240.773438 L 220.605469 277.632812 L 209.730469 274.101562 L 220.625 277.664062 L 236.769531 334.984375 L 236.703125 334.9375 L 236.726562 335.015625 L 187.351562 301.90625 L 187.339844 290.230469 L 187.328125 301.9375 L 137.957031 335.050781 M 187.316406 266.824219 L 187.316406 266.871094 L 187.316406 266.824219 M 187.316406 266.824219 L 187.273438 266.835938 L 187.316406 266.824219 "/>
<path style=" stroke:none;fill-rule:nonzero;fill:rgb(100%,73.728943%,0%);fill-opacity:1;" d="M 187.332031 191.816406 L 187.308594 191.746094 L 169.019531 241.519531 L 187.308594 266.816406 L 187.332031 266.78125 L 187.332031 191.816406 "/>
<path style=" stroke:none;fill-rule:nonzero;fill:rgb(100%,85.488892%,0%);fill-opacity:1;" d="M 187.332031 191.816406 L 187.359375 191.746094 L 205.648438 241.519531 L 187.359375 266.816406 L 187.332031 266.78125 L 187.332031 191.816406 "/>
<path style=" stroke:none;fill-rule:nonzero;fill:rgb(100%,73.728943%,0%);fill-opacity:1;" d="M 116.21875 243.664062 L 116.148438 243.664062 L 157.699219 276.492188 L 187.34375 266.863281 L 187.316406 266.832031 L 116.21875 243.664062 "/>
<path style=" stroke:none;fill-rule:nonzero;fill:rgb(100%,85.488892%,0%);fill-opacity:1;" d="M 116.21875 243.664062 L 116.164062 243.617188 L 169.019531 241.554688 L 187.359375 266.816406 L 187.316406 266.832031 L 116.21875 243.664062 "/>
<path style=" stroke:none;fill-rule:nonzero;fill:rgb(100%,73.728943%,0%);fill-opacity:1;" d="M 143.417969 327.507812 L 143.398438 327.578125 L 187.371094 298.09375 L 187.398438 266.847656 L 187.359375 266.859375 L 143.417969 327.507812 "/>
<path style=" stroke:none;fill-rule:nonzero;fill:rgb(100%,85.488892%,0%);fill-opacity:1;" d="M 143.417969 327.507812 L 143.355469 327.550781 L 157.734375 276.5 L 187.359375 266.816406 L 187.359375 266.859375 L 143.417969 327.507812 "/>
<path style=" stroke:none;fill-rule:nonzero;fill:rgb(100%,73.728943%,0%);fill-opacity:1;" d="M 231.339844 327.480469 L 231.402344 327.519531 L 217.023438 276.46875 L 187.398438 266.785156 L 187.398438 266.832031 L 231.339844 327.480469 "/>
<path style=" stroke:none;fill-rule:nonzero;fill:rgb(100%,85.488892%,0%);fill-opacity:1;" d="M 231.339844 327.480469 L 231.359375 327.550781 L 187.390625 298.0625 L 187.359375 266.816406 L 187.398438 266.832031 L 231.339844 327.480469 "/>
<path style=" stroke:none;fill-rule:nonzero;fill:rgb(100%,73.728943%,0%);fill-opacity:1;" d="M 258.484375 243.613281 L 258.539062 243.570312 L 205.683594 241.507812 L 187.34375 266.769531 L 187.382812 266.78125 L 258.484375 243.613281 "/>
<path style=" stroke:none;fill-rule:nonzero;fill:rgb(100%,85.488892%,0%);fill-opacity:1;" d="M 258.484375 243.613281 L 258.554688 243.617188 L 217.003906 276.441406 L 187.359375 266.816406 L 187.382812 266.78125 L 258.484375 243.613281 "/>
</g>
</svg>
