<?xml version="1.0" encoding="UTF-8"?>
<svg xmlns="http://www.w3.org/2000/svg" xmlns:xlink="http://www.w3.org/1999/xlink" width="375pt" height="374.999991pt" viewBox="0 0 375 374.999991" version="1.2">
<defs>
<clipPath id="clip1">
  <path d="M 165 1.394531 L 289 1.394531 L 289 151 L 165 151 Z M 165 1.394531 "/>
</clipPath>
<clipPath id="clip2">
  <path d="M 80.488281 132.007812 L 293.957031 132.007812 L 293.957031 372.863281 L 80.488281 372.863281 Z M 80.488281 132.007812 "/>
</clipPath>
<clipPath id="clip3">
  <path d="M 86 1.394531 L 210 1.394531 L 210 151 L 86 151 Z M 86 1.394531 "/>
</clipPath>
</defs>
<g id="surface1">
<g clip-path="url(#clip1)" clip-rule="nonzero">
<path style=" stroke:none;fill-rule:nonzero;fill:rgb(82.749939%,0%,19.219971%);fill-opacity:1;" d="M 288.421875 1.699219 L 209.199219 150.539062 L 165.667969 150.601562 L 244.941406 1.699219 L 288.421875 1.699219 "/>
</g>
<g clip-path="url(#clip2)" clip-rule="nonzero">
<path style=" stroke:none;fill-rule:nonzero;fill:rgb(66.668701%,67.059326%,67.83905%);fill-opacity:1;" d="M 166.09375 149.332031 C 169.160156 145.421875 173.273438 144.535156 177.9375 144.535156 C 184.097656 144.535156 190.257812 144.535156 196.421875 144.535156 C 202.859375 144.535156 208.464844 146.910156 210.375 153.640625 C 211.070312 156.09375 211.109375 158.941406 211.007812 161.765625 C 203.359375 160.023438 195.398438 159.097656 187.222656 159.097656 C 179.144531 159.097656 171.273438 160.003906 163.707031 161.707031 C 163.707031 161.242188 163.707031 160.777344 163.707031 160.3125 C 163.707031 156.457031 163.546875 152.574219 166.09375 149.332031 M 222.820312 165.195312 C 222.820312 163.003906 222.820312 160.808594 222.820312 158.613281 C 222.820312 152.898438 221.769531 147.449219 218.394531 142.695312 C 213.867188 136.320312 206.460938 132.429688 198.625 132.429688 C 191.019531 132.429688 183.410156 132.429688 175.804688 132.429688 C 167.214844 132.429688 159.628906 137.035156 155.054688 144.183594 C 152.128906 148.753906 151.625 154.058594 151.625 159.324219 C 151.625 161.28125 151.625 163.238281 151.625 165.195312 C 110.183594 179.875 80.488281 219.453125 80.488281 265.980469 C 80.488281 325.011719 128.273438 372.863281 187.222656 372.863281 C 246.167969 372.863281 293.957031 325.011719 293.957031 265.980469 C 293.957031 219.453125 264.261719 179.875 222.820312 165.195312 "/>
</g>
<path style=" stroke:none;fill-rule:nonzero;fill:rgb(78.819275%,78.819275%,78.819275%);fill-opacity:1;" d="M 278.179688 266.316406 C 278.179688 316.621094 237.457031 357.402344 187.222656 357.402344 C 136.988281 357.402344 96.261719 316.621094 96.261719 266.316406 C 96.261719 216.011719 136.988281 175.230469 187.222656 175.230469 C 237.457031 175.230469 278.179688 216.011719 278.179688 266.316406 "/>
<path style=" stroke:none;fill-rule:nonzero;fill:rgb(100%,100%,100%);fill-opacity:1;" d="M 275.832031 266.316406 C 275.675781 297.121094 259.625 325.808594 233.460938 342.027344 C 207.019531 358.414062 172.976562 359.15625 145.585938 344.664062 C 118.617188 330.398438 100.796875 302.355469 98.785156 271.96875 C 96.746094 241.210938 111.429688 211.171875 136.554688 193.503906 C 161.964844 175.632812 195.886719 172.734375 224.089844 185.59375 C 251.707031 198.183594 271.300781 224.996094 275.148438 255.101562 C 275.625 258.820312 275.8125 262.570312 275.832031 266.316406 C 275.847656 269.347656 280.546875 269.351562 280.53125 266.316406 C 280.378906 236.25 265.898438 208.191406 241.703125 190.460938 C 217.234375 172.539062 184.457031 168.21875 155.980469 178.25 C 128.1875 188.042969 106.503906 211.203125 97.871094 239.304688 C 88.953125 268.34375 95.464844 300.320312 113.960938 324.160156 C 132.386719 347.914062 162.074219 361.007812 191.933594 359.632812 C 221.683594 358.265625 249.140625 342.011719 265.464844 317.234375 C 275.375 302.199219 280.4375 284.277344 280.53125 266.316406 C 280.546875 263.28125 275.847656 263.28125 275.832031 266.316406 "/>
<g clip-path="url(#clip3)" clip-rule="nonzero">
<path style=" stroke:none;fill-rule:nonzero;fill:rgb(100%,0%,23.139954%);fill-opacity:1;" d="M 86.582031 1.699219 L 165.804688 150.539062 L 209.332031 150.601562 L 130.0625 1.699219 L 86.582031 1.699219 "/>
</g>
<path style=" stroke:none;fill-rule:nonzero;fill:rgb(64.709473%,64.709473%,64.709473%);fill-opacity:1;" d="M 138.039062 332.773438 L 138.058594 332.699219 L 137.992188 332.742188 L 154.082031 275.699219 L 165.414062 272 L 154.042969 275.6875 L 107.542969 239.007812 L 107.625 239.003906 L 107.558594 238.953125 L 166.710938 236.648438 L 173.71875 246.289062 L 166.710938 236.609375 L 187.179688 180.988281 L 187.203125 181.066406 L 187.230469 180.988281 L 207.699219 236.609375 L 200.824219 246.105469 L 207.738281 236.597656 L 266.886719 238.902344 L 266.820312 238.953125 L 266.902344 238.953125 L 220.402344 275.632812 L 209.570312 272.121094 L 220.425781 275.664062 L 236.515625 332.710938 L 236.449219 332.664062 L 236.472656 332.742188 L 187.265625 299.796875 L 187.253906 288.171875 L 187.246094 299.824219 L 138.039062 332.773438 M 187.230469 264.875 L 187.230469 264.925781 L 187.230469 264.875 M 187.230469 264.875 L 187.1875 264.890625 L 187.230469 264.875 "/>
<path style=" stroke:none;fill-rule:nonzero;fill:rgb(63.139343%,63.139343%,63.139343%);fill-opacity:1;" d="M 187.246094 188.996094 L 187.222656 188.925781 L 168.996094 238.460938 L 187.222656 263.636719 L 187.246094 263.605469 L 187.246094 188.996094 "/>
<path style=" stroke:none;fill-rule:nonzero;fill:rgb(78.819275%,78.819275%,78.819275%);fill-opacity:1;" d="M 187.246094 188.996094 L 187.273438 188.925781 L 205.5 238.460938 L 187.273438 263.636719 L 187.246094 263.605469 L 187.246094 188.996094 "/>
<path style=" stroke:none;fill-rule:nonzero;fill:rgb(63.139343%,63.139343%,63.139343%);fill-opacity:1;" d="M 116.371094 240.59375 L 116.300781 240.597656 L 157.714844 273.265625 L 187.257812 263.683594 L 187.234375 263.652344 L 116.371094 240.59375 "/>
<path style=" stroke:none;fill-rule:nonzero;fill:rgb(78.819275%,78.819275%,78.819275%);fill-opacity:1;" d="M 116.371094 240.59375 L 116.316406 240.550781 L 168.996094 238.5 L 187.273438 263.636719 L 187.234375 263.652344 L 116.371094 240.59375 "/>
<path style=" stroke:none;fill-rule:nonzero;fill:rgb(63.139343%,63.139343%,63.139343%);fill-opacity:1;" d="M 143.480469 324.042969 L 143.460938 324.109375 L 187.285156 294.761719 L 187.3125 263.667969 L 187.273438 263.679688 L 143.480469 324.042969 "/>
<path style=" stroke:none;fill-rule:nonzero;fill:rgb(78.819275%,78.819275%,78.819275%);fill-opacity:1;" d="M 143.480469 324.042969 L 143.417969 324.082031 L 157.75 273.277344 L 187.273438 263.636719 L 187.273438 263.679688 L 143.480469 324.042969 "/>
<path style=" stroke:none;fill-rule:nonzero;fill:rgb(63.139343%,63.139343%,63.139343%);fill-opacity:1;" d="M 231.105469 324.011719 L 231.164062 324.050781 L 216.839844 273.246094 L 187.3125 263.609375 L 187.3125 263.652344 L 231.105469 324.011719 "/>
<path style=" stroke:none;fill-rule:nonzero;fill:rgb(78.819275%,78.819275%,78.819275%);fill-opacity:1;" d="M 231.105469 324.011719 L 231.125 324.082031 L 187.304688 294.734375 L 187.273438 263.636719 L 187.3125 263.652344 L 231.105469 324.011719 "/>
<path style=" stroke:none;fill-rule:nonzero;fill:rgb(63.139343%,63.139343%,63.139343%);fill-opacity:1;" d="M 258.15625 240.546875 L 258.214844 240.503906 L 205.535156 238.449219 L 187.257812 263.589844 L 187.296875 263.605469 L 258.15625 240.546875 "/>
<path style=" stroke:none;fill-rule:nonzero;fill:rgb(78.819275%,78.819275%,78.819275%);fill-opacity:1;" d="M 258.15625 240.546875 L 258.230469 240.550781 L 216.816406 273.214844 L 187.273438 263.636719 L 187.296875 263.605469 L 258.15625 240.546875 "/>
</g>
</svg>
