<?xml version="1.0" encoding="UTF-8"?>
<svg xmlns="http://www.w3.org/2000/svg" xmlns:xlink="http://www.w3.org/1999/xlink" width="224.87999pt" height="225pt" viewBox="0 0 224.87999 225" version="1.2">
<defs>
<clipPath id="clip1">
  <path d="M 34 0.0585938 L 139 0.0585938 L 139 87 L 34 87 Z M 34 0.0585938 "/>
</clipPath>
<clipPath id="clip2">
  <path d="M 121 121 L 224.761719 121 L 224.761719 224.9375 L 121 224.9375 Z M 121 121 "/>
</clipPath>
<clipPath id="clip3">
  <path d="M 0 0.0585938 L 224.761719 0.0585938 L 224.761719 224.9375 L 0 224.9375 Z M 0 0.0585938 "/>
</clipPath>
</defs>
<g id="surface1">
<path style=" stroke:none;fill-rule:nonzero;fill:rgb(87.449646%,94.119263%,99.609375%);fill-opacity:1;" d="M 2.953125 198.992188 C 4.496094 166.9375 31.679688 141.332031 64.871094 141.332031 L 108.117188 141.332031 C 141.304688 141.332031 168.488281 166.9375 170.03125 198.992188 Z M 2.953125 198.992188 "/>
<path style=" stroke:none;fill-rule:nonzero;fill:rgb(27.839661%,53.329468%,78.039551%);fill-opacity:1;" d="M 108.117188 144.214844 C 138.710938 144.214844 163.949219 167.011719 166.925781 196.109375 L 6.058594 196.109375 C 9.035156 167.011719 34.273438 144.214844 64.871094 144.214844 L 108.117188 144.214844 M 108.117188 138.449219 L 64.871094 138.449219 C 29.042969 138.449219 0 166.847656 0 201.875 L 172.984375 201.875 C 172.984375 166.847656 143.941406 138.449219 108.117188 138.449219 Z M 108.117188 138.449219 "/>
<path style=" stroke:none;fill-rule:nonzero;fill:rgb(100%,100%,100%);fill-opacity:1;" d="M 86.492188 158.628906 C 68.753906 158.628906 61.714844 143.488281 60.542969 140.621094 L 60.542969 109.097656 L 112.441406 109.097656 L 112.441406 140.628906 C 111.269531 143.488281 104.230469 158.628906 86.492188 158.628906 Z M 86.492188 158.628906 "/>
<path style=" stroke:none;fill-rule:nonzero;fill:rgb(27.839661%,53.329468%,78.039551%);fill-opacity:1;" d="M 109.558594 111.980469 L 109.558594 140.035156 C 108.039062 143.433594 101.523438 155.746094 86.492188 155.746094 C 71.4375 155.746094 64.921875 143.402344 63.425781 140.035156 L 63.425781 111.980469 L 109.558594 111.980469 M 115.324219 106.214844 L 57.660156 106.214844 L 57.660156 141.167969 C 57.660156 141.167969 64.96875 161.519531 86.492188 161.519531 C 108.015625 161.519531 115.324219 141.167969 115.324219 141.167969 Z M 115.324219 106.214844 "/>
<path style=" stroke:none;fill-rule:nonzero;fill:rgb(71.369934%,86.268616%,99.609375%);fill-opacity:1;" d="M 123.5625 96.027344 C 116.972656 96.027344 111.617188 90.667969 111.617188 84.085938 C 111.617188 77.5 116.972656 72.144531 123.5625 72.144531 C 133.507812 72.144531 135.503906 74.824219 135.503906 79.144531 C 135.503906 86.355469 129.601562 96.027344 123.5625 96.027344 Z M 49.421875 96.027344 C 43.382812 96.027344 37.480469 86.355469 37.480469 79.144531 C 37.480469 74.816406 39.480469 72.144531 49.421875 72.144531 C 56.011719 72.144531 61.371094 77.5 61.371094 84.085938 C 61.371094 90.667969 56.011719 96.027344 49.421875 96.027344 Z M 49.421875 96.027344 "/>
<path style=" stroke:none;fill-rule:nonzero;fill:rgb(27.839661%,53.329468%,78.039551%);fill-opacity:1;" d="M 123.5625 75.019531 C 132.621094 75.019531 132.621094 77.113281 132.621094 79.136719 C 132.621094 85.15625 127.453125 93.144531 123.5625 93.144531 C 118.5625 93.144531 114.503906 89.078125 114.503906 84.085938 C 114.503906 79.089844 118.5625 75.019531 123.5625 75.019531 M 49.421875 75.019531 C 54.421875 75.019531 58.480469 79.085938 58.480469 84.078125 C 58.480469 89.070312 54.414062 93.136719 49.421875 93.136719 C 45.53125 93.144531 40.363281 85.15625 40.363281 79.136719 C 40.363281 77.113281 40.363281 75.019531 49.421875 75.019531 M 123.5625 69.253906 C 115.375 69.253906 108.738281 75.890625 108.738281 84.078125 C 108.738281 92.265625 115.375 98.902344 123.5625 98.902344 C 131.75 98.902344 138.386719 87.324219 138.386719 79.136719 C 138.386719 70.949219 131.75 69.253906 123.5625 69.253906 Z M 49.421875 69.253906 C 41.234375 69.253906 34.597656 70.949219 34.597656 79.136719 C 34.597656 87.324219 41.234375 98.910156 49.421875 98.910156 C 57.609375 98.910156 64.246094 92.273438 64.246094 84.085938 C 64.246094 75.898438 57.617188 69.253906 49.421875 69.253906 Z M 49.421875 69.253906 "/>
<path style=" stroke:none;fill-rule:nonzero;fill:rgb(100%,100%,100%);fill-opacity:1;" d="M 86.492188 135.566406 C 83.148438 135.566406 79.953125 134.273438 77.496094 131.925781 L 76.976562 131.429688 L 76.285156 131.234375 C 60.226562 126.691406 49.011719 111.878906 49.011719 95.195312 L 49.011719 48.289062 C 49.011719 39.269531 56.347656 31.933594 65.363281 31.933594 L 107.621094 31.933594 C 116.636719 31.933594 123.972656 39.269531 123.972656 48.289062 L 123.972656 95.203125 C 123.972656 111.882812 112.757812 126.695312 96.699219 131.238281 L 96.007812 131.4375 L 95.488281 131.933594 C 93.03125 134.273438 89.835938 135.566406 86.492188 135.566406 Z M 86.492188 135.566406 "/>
<path style=" stroke:none;fill-rule:nonzero;fill:rgb(27.839661%,53.329468%,78.039551%);fill-opacity:1;" d="M 107.621094 34.820312 C 115.046875 34.820312 121.089844 40.863281 121.089844 48.289062 L 121.089844 95.203125 C 121.089844 110.597656 110.734375 124.273438 95.910156 128.460938 L 94.53125 128.851562 L 93.492188 129.84375 C 91.578125 131.671875 89.09375 132.679688 86.492188 132.679688 C 83.890625 132.679688 81.40625 131.671875 79.492188 129.84375 L 78.453125 128.851562 L 77.074219 128.460938 C 62.25 124.273438 51.894531 110.597656 51.894531 95.203125 L 51.894531 48.289062 C 51.894531 40.863281 57.9375 34.820312 65.363281 34.820312 L 107.621094 34.820312 M 107.621094 29.050781 L 65.363281 29.050781 C 54.742188 29.050781 46.128906 37.660156 46.128906 48.289062 L 46.128906 95.203125 C 46.128906 113.683594 58.5625 129.222656 75.507812 134.011719 C 78.367188 136.746094 82.226562 138.449219 86.492188 138.449219 C 90.757812 138.449219 94.617188 136.746094 97.476562 134.011719 C 114.421875 129.222656 126.855469 113.683594 126.855469 95.203125 L 126.855469 48.289062 C 126.855469 37.660156 118.242188 29.050781 107.621094 29.050781 Z M 107.621094 29.050781 "/>
<path style=" stroke:none;fill-rule:nonzero;fill:rgb(71.369934%,86.268616%,99.609375%);fill-opacity:1;" d="M 123.972656 83.667969 L 123.972656 63.488281 C 123.972656 43.402344 111.1875 37.972656 110.640625 37.753906 L 108.664062 36.953125 L 107.3125 38.613281 C 107.1875 38.769531 93.890625 54.839844 74.960938 54.839844 C 73.4375 54.839844 71.910156 54.785156 70.398438 54.742188 C 68.871094 54.695312 67.367188 54.640625 65.914062 54.640625 C 60.855469 54.640625 49.011719 54.640625 49.011719 69.253906 L 49.011719 83.667969 L 47.777344 83.667969 C 45.234375 79.210938 37.480469 64.359375 37.480469 49.511719 C 37.480469 22.09375 57.632812 2.941406 86.492188 2.941406 C 104.242188 2.941406 112.433594 18.054688 112.769531 18.695312 L 113.453125 19.992188 L 114.914062 20.210938 C 123.753906 21.476562 135.503906 26.144531 135.503906 51.957031 C 135.503906 65.386719 127.789062 79.40625 125.246094 83.667969 Z M 123.972656 83.667969 "/>
<g clip-path="url(#clip1)" clip-rule="nonzero">
<path style=" stroke:none;fill-rule:nonzero;fill:rgb(27.839661%,53.329468%,78.039551%);fill-opacity:1;" d="M 86.492188 5.828125 C 102.417969 5.828125 109.914062 19.476562 110.207031 20.027344 L 111.574219 22.644531 L 114.5 23.066406 C 122.941406 24.273438 132.621094 28.648438 132.621094 51.957031 C 132.621094 60 129.652344 68.34375 126.855469 74.410156 L 126.855469 63.488281 C 126.855469 41.484375 112.347656 35.332031 111.730469 35.082031 L 107.769531 33.476562 L 105.078125 36.800781 C 104.949219 36.945312 92.605469 51.957031 74.960938 51.957031 C 73.464844 51.957031 71.96875 51.910156 70.492188 51.855469 C 68.933594 51.804688 67.394531 51.757812 65.914062 51.757812 C 61.015625 51.757812 46.128906 51.757812 46.128906 69.253906 L 46.128906 73.90625 C 43.328125 67.4375 40.363281 58.476562 40.363281 49.515625 C 40.363281 23.789062 59.332031 5.828125 86.492188 5.828125 M 86.492188 0.0585938 C 55.585938 0.0585938 34.597656 21.203125 34.597656 49.511719 C 34.597656 68.261719 46.128906 86.550781 46.128906 86.550781 L 51.894531 86.550781 C 51.894531 86.550781 51.894531 74.414062 51.894531 69.253906 C 51.894531 58.925781 58.152344 57.527344 65.914062 57.527344 C 68.800781 57.527344 71.898438 57.722656 74.960938 57.722656 C 95.5625 57.722656 109.558594 40.421875 109.558594 40.421875 C 109.558594 40.421875 121.089844 45.109375 121.089844 63.488281 C 121.089844 69.160156 121.089844 86.550781 121.089844 86.550781 L 126.855469 86.550781 C 126.855469 86.550781 138.386719 69.039062 138.386719 51.957031 C 138.386719 27.960938 128.566406 19.253906 115.324219 17.359375 C 115.324219 17.359375 106.292969 0.0585938 86.492188 0.0585938 Z M 86.492188 0.0585938 "/>
</g>
<path style=" stroke:none;fill-rule:nonzero;fill:rgb(59.609985%,79.998779%,99.21875%);fill-opacity:1;" d="M 132.621094 222.058594 C 127.851562 222.058594 123.972656 218.175781 123.972656 213.40625 L 123.972656 132.679688 C 123.972656 127.914062 127.851562 124.03125 132.621094 124.03125 L 213.347656 124.03125 C 218.117188 124.03125 221.996094 127.914062 221.996094 132.679688 L 221.996094 213.40625 C 221.996094 218.175781 218.117188 222.058594 213.347656 222.058594 Z M 132.621094 222.058594 "/>
<g clip-path="url(#clip2)" clip-rule="nonzero">
<path style=" stroke:none;fill-rule:nonzero;fill:rgb(27.839661%,53.329468%,78.039551%);fill-opacity:1;" d="M 213.347656 126.914062 C 216.523438 126.914062 219.113281 129.503906 219.113281 132.679688 L 219.113281 213.40625 C 219.113281 216.585938 216.523438 219.175781 213.347656 219.175781 L 132.621094 219.175781 C 129.445312 219.175781 126.855469 216.585938 126.855469 213.40625 L 126.855469 132.679688 C 126.855469 129.503906 129.445312 126.914062 132.621094 126.914062 L 213.347656 126.914062 M 213.347656 121.148438 L 132.621094 121.148438 C 126.25 121.148438 121.089844 126.308594 121.089844 132.679688 L 121.089844 213.40625 C 121.089844 219.78125 126.25 224.941406 132.621094 224.941406 L 213.347656 224.941406 C 219.71875 224.941406 224.878906 219.78125 224.878906 213.40625 L 224.878906 132.679688 C 224.878906 126.308594 219.71875 121.148438 213.347656 121.148438 Z M 213.347656 121.148438 "/>
</g>
<g clip-path="url(#clip3)" clip-rule="nonzero">
<path style="fill:none;stroke-width:2;stroke-linecap:butt;stroke-linejoin:miter;stroke:rgb(100%,100%,100%);stroke-opacity:1;stroke-miterlimit:10;" d="M 27.000327 31.230717 L 29.769043 34.000111 L 36.00018 27.768975 " transform="matrix(5.766153,0,0,5.766153,-5.766153,-5.706109)"/>
</g>
</g>
</svg>
