<?xml version="1.0" encoding="UTF-8"?>
<svg xmlns="http://www.w3.org/2000/svg" xmlns:xlink="http://www.w3.org/1999/xlink" width="224.87999pt" height="225pt" viewBox="0 0 224.87999 225" version="1.2">
<defs>
<clipPath id="clip1">
  <path d="M 0.03125 7.65625 L 210.183594 7.65625 L 210.183594 220.726562 L 0.03125 220.726562 Z M 0.03125 7.65625 "/>
</clipPath>
<clipPath id="clip2">
  <path d="M 31 12.464844 L 224.761719 12.464844 L 224.761719 210.96875 L 31 210.96875 Z M 31 12.464844 "/>
</clipPath>
<clipPath id="clip3">
  <path d="M 2 4.148438 L 223 4.148438 L 223 204 L 2 204 Z M 2 4.148438 "/>
</clipPath>
</defs>
<g id="surface1">
<g clip-path="url(#clip1)" clip-rule="nonzero">
<path style=" stroke:none;fill-rule:nonzero;fill:rgb(36.859131%,78.819275%,79.998779%);fill-opacity:1;" d="M 171.800781 176.328125 L 188.136719 179.191406 L 110.578125 220.757812 L 0.03125 180.332031 L 41.699219 162.082031 C 26.074219 143.347656 16.300781 119.589844 16.300781 95.582031 C 16.300781 42.976562 64.03125 -0.21875 115.832031 9.09375 C 175.984375 19.910156 210.144531 37.984375 210.144531 90.585938 C 210.144531 122.128906 195.152344 155.035156 171.800781 176.328125 "/>
</g>
<g clip-path="url(#clip2)" clip-rule="nonzero">
<path style=" stroke:none;fill-rule:nonzero;fill:rgb(96.469116%,51.368713%,41.958618%);fill-opacity:1;" d="M 221.429688 57.0625 C 219.710938 55.140625 216.761719 54.972656 214.839844 56.6875 L 211.351562 59.796875 C 209.429688 61.511719 209.261719 64.460938 210.976562 66.382812 L 213.3125 68.996094 C 214.316406 70.121094 214.21875 71.851562 213.09375 72.855469 L 202.742188 82.082031 C 201.617188 83.089844 199.886719 82.988281 198.878906 81.863281 L 196.546875 79.25 C 194.832031 77.328125 191.878906 77.160156 189.957031 78.875 L 186.472656 81.984375 C 184.546875 83.699219 184.378906 86.644531 186.097656 88.566406 C 191.0625 94.132812 199.605469 94.621094 205.171875 89.65625 L 220.339844 76.128906 C 225.910156 71.164062 226.394531 62.625 221.429688 57.0625 Z M 189.765625 54.425781 C 201.246094 54.425781 210.550781 45.121094 210.550781 33.648438 C 210.550781 22.175781 201.246094 12.875 189.765625 12.875 C 178.285156 12.875 168.980469 22.175781 168.980469 33.648438 C 168.980469 45.121094 178.285156 54.425781 189.765625 54.425781 Z M 73.601562 71.058594 L 73.601562 59.953125 C 73.601562 58.464844 72.394531 57.261719 70.90625 57.261719 L 33.78125 57.261719 C 32.296875 57.261719 31.089844 58.464844 31.089844 59.953125 L 31.089844 74.757812 C 31.089844 76.242188 32.296875 77.449219 33.78125 77.449219 L 80.238281 77.449219 Z M 58.265625 44.804688 C 60.234375 44.804688 61.835938 43.207031 61.835938 41.242188 C 61.835938 39.277344 60.234375 37.679688 58.265625 37.679688 C 56.300781 37.679688 54.703125 39.277344 54.703125 41.242188 C 54.703125 43.207031 56.300781 44.804688 58.265625 44.804688 Z M 47.230469 44.804688 C 49.195312 44.804688 50.796875 43.207031 50.796875 41.242188 C 50.796875 39.277344 49.195312 37.679688 47.230469 37.679688 C 45.265625 37.679688 43.664062 39.277344 43.664062 41.242188 C 43.664062 43.207031 45.265625 44.804688 47.230469 44.804688 Z M 36.191406 44.804688 C 38.160156 44.804688 39.757812 43.207031 39.757812 41.242188 C 39.757812 39.277344 38.160156 37.679688 36.191406 37.679688 C 34.226562 37.679688 32.628906 39.277344 32.628906 41.242188 C 32.628906 43.207031 34.226562 44.804688 36.191406 44.804688 Z M 188.34375 142.507812 C 187.566406 131.515625 186.132812 114.355469 184.367188 107.328125 C 181.675781 96.613281 173.179688 86.1875 173.179688 86.1875 C 173.105469 86.191406 173.035156 86.199219 172.964844 86.203125 C 172.808594 85.296875 172.542969 84.566406 172.125 84.074219 C 168.722656 80.074219 158.867188 74.519531 152.066406 70.972656 C 148.152344 68.929688 143.96875 67.546875 139.683594 66.839844 L 137.585938 54.691406 L 123.847656 62.40625 C 123.847656 62.40625 123.191406 64.824219 122.519531 67.734375 C 122.296875 67.800781 122.078125 67.863281 121.855469 67.929688 C 116.285156 64.605469 109.007812 66.398438 105.160156 72.652344 C 101.546875 78.523438 97.253906 85.960938 93.074219 94.308594 C 86.898438 106.628906 82.679688 117.410156 80.308594 124 C 78.925781 127.835938 80.679688 132.101562 84.355469 133.871094 L 85.933594 134.632812 C 89.46875 136.335938 93.71875 135.21875 95.957031 132 L 99.671875 126.65625 C 99.71875 126.90625 99.757812 127.15625 99.804688 127.402344 L 106.75 164.925781 L 165.84375 175.285156 L 161.203125 146.890625 C 159.949219 139.222656 160.703125 131.359375 163.40625 124.070312 C 163.960938 122.585938 164.539062 120.996094 165.128906 119.339844 L 172.921875 148.890625 C 174.113281 153.402344 178.90625 155.933594 183.308594 154.375 C 186.964844 154.625 189.988281 152.183594 189.753906 148.617188 C 189.675781 147.460938 188.441406 143.890625 188.34375 142.507812 Z M 51.832031 144.726562 C 49.957031 144.726562 48.289062 145.503906 47.132812 146.910156 C 45.738281 148.609375 45.230469 151.054688 45.738281 153.617188 C 46.671875 158.3125 50.785156 162.132812 54.910156 162.132812 C 56.785156 162.132812 58.453125 161.355469 59.605469 159.949219 C 61.003906 158.25 61.511719 155.804688 61 153.242188 C 60.066406 148.546875 55.953125 144.726562 51.832031 144.726562 Z M 113.277344 204.140625 L 113.191406 204.136719 C 112.011719 204.136719 110.929688 205.523438 110.667969 207.363281 C 110.5 208.546875 110.722656 209.644531 111.265625 210.304688 C 111.570312 210.675781 111.964844 210.890625 112.398438 210.914062 L 112.484375 210.914062 C 113.660156 210.914062 114.746094 209.527344 115.007812 207.6875 C 115.175781 206.503906 114.953125 205.40625 114.410156 204.75 C 114.105469 204.375 113.710938 204.164062 113.277344 204.140625 Z M 112.640625 179.820312 L 149.304688 187.367188 L 115.425781 200.378906 Z M 112.640625 179.820312 "/>
</g>
<path style=" stroke:none;fill-rule:nonzero;fill:rgb(55.688477%,35.688782%,42.749023%);fill-opacity:1;" d="M 138.105469 57.511719 C 138.980469 57.386719 139.832031 57.144531 140.601562 56.714844 C 141.886719 56 142.914062 54.703125 143.019531 53.234375 C 143.128906 51.761719 142.136719 50.210938 140.6875 49.9375 C 140.566406 49.914062 140.445312 49.902344 140.324219 49.898438 C 141.851562 45.046875 143.378906 40.355469 142.136719 38.050781 C 140.703125 35.390625 130.214844 20.832031 117.957031 28.296875 C 112.699219 31.5 109.675781 37.371094 109.792969 43.515625 C 109.753906 43.488281 109.722656 43.457031 109.6875 43.433594 C 109.015625 42.992188 107.992188 42.878906 107.496094 43.511719 C 107.210938 43.867188 107.183594 44.363281 107.199219 44.820312 C 107.289062 47.0625 108.214844 49.179688 109.125 51.234375 C 109.476562 52.03125 110.019531 52.957031 110.890625 52.949219 C 110.933594 52.949219 110.976562 52.9375 111.019531 52.929688 C 112.722656 60.394531 116.222656 67.78125 121.816406 68.878906 C 128.882812 70.261719 135.808594 63.613281 138.105469 57.511719 Z M 184.160156 154.007812 L 156.199219 172.1875 L 150.046875 180.035156 C 150.046875 180.035156 145.460938 182.789062 143.578125 183.644531 C 141.699219 184.5 139.734375 185.609375 138.796875 185.609375 C 137.855469 185.609375 137.257812 184.15625 138.28125 183.304688 C 139.308594 182.449219 143.324219 180.035156 143.324219 180.035156 L 144.949219 178.519531 C 144.949219 178.519531 140.785156 179.53125 139.90625 180.035156 C 139.023438 180.542969 136.316406 185.007812 135.035156 185.609375 C 133.753906 186.207031 132.042969 186.632812 132.128906 185.609375 C 132.214844 184.582031 135.890625 177.921875 135.890625 177.921875 L 142.042969 172.285156 L 134.042969 178.007812 C 134.042969 178.007812 129.535156 184.613281 128.054688 185.179688 C 126.574219 185.75 122.792969 185.816406 126.753906 180.035156 C 126.753906 180.035156 129.621094 175.652344 132.332031 172.03125 L 129.160156 172.167969 L 124.785156 179.539062 C 124.460938 180.085938 123.851562 180.394531 123.21875 180.324219 C 122.109375 180.203125 121.449219 179.027344 121.929688 178.019531 L 123.027344 175.707031 C 119.9375 176.363281 118.429688 174.113281 118.964844 173.164062 C 119.570312 172.082031 125.121094 171.316406 125.121094 171.316406 L 126.351562 168.726562 L 138.257812 167.066406 C 141.515625 166.367188 148.222656 164.339844 148.222656 164.339844 L 171.03125 143.554688 C 179.835938 141.472656 183.691406 147.585938 185.101562 150.925781 C 185.578125 152.046875 185.179688 153.34375 184.160156 154.007812 "/>
<path style=" stroke:none;fill-rule:nonzero;fill:rgb(97.648621%,82.348633%,56.858826%);fill-opacity:1;" d="M 113.25 204.621094 C 112.3125 204.566406 111.371094 205.828125 111.144531 207.433594 C 110.917969 209.039062 111.492188 210.378906 112.425781 210.433594 C 113.359375 210.484375 114.304688 209.226562 114.53125 207.621094 C 114.757812 206.015625 114.183594 204.671875 113.25 204.621094 Z M 60.058594 153.429688 C 59.207031 149.15625 55.523438 145.6875 51.832031 145.6875 C 48.136719 145.6875 45.832031 149.15625 46.683594 153.429688 C 47.535156 157.703125 51.214844 161.171875 54.910156 161.171875 C 58.601562 161.171875 60.90625 157.703125 60.058594 153.429688 Z M 143.207031 183.820312 L 153.914062 186.050781 L 153.914062 191.746094 L 113.40625 210.75 C 112.339844 211.25 111.121094 211.324219 109.996094 210.957031 L 20.273438 181.550781 C 18.929688 181.109375 17.914062 179.988281 17.601562 178.605469 L 1.933594 108.484375 C 1.683594 107.355469 2.292969 106.210938 3.367188 105.789062 L 8.007812 103.972656 C 8.453125 103.796875 8.941406 103.765625 9.40625 103.878906 L 102.980469 126.238281 C 104.871094 126.691406 106.285156 128.25 106.554688 130.167969 L 113.222656 177.570312 L 121.929688 179.382812 C 122.152344 179.875 122.617188 180.257812 123.21875 180.324219 C 123.683594 180.375 124.140625 180.21875 124.476562 179.914062 L 126.546875 180.347656 C 125.691406 181.636719 125.242188 182.621094 125.078125 183.359375 L 113.777344 181.035156 L 116.214844 199.046875 L 145.894531 187.644531 L 135.277344 185.460938 C 135.933594 184.992188 136.847656 183.816406 137.707031 182.671875 L 138.8125 182.902344 C 138.597656 183.054688 138.414062 183.191406 138.28125 183.304688 C 137.257812 184.15625 137.855469 185.609375 138.796875 185.609375 C 139.671875 185.609375 141.445312 184.640625 143.207031 183.820312 Z M 133.792969 181.855469 L 131.59375 181.398438 C 130.804688 182.429688 129.957031 183.480469 129.242188 184.21875 L 132.367188 184.859375 C 132.664062 184.113281 133.214844 182.988281 133.792969 181.855469 Z M 216.832031 56.339844 C 216.546875 56.023438 214.964844 56.972656 213.292969 58.460938 C 211.625 59.953125 210.5 61.414062 210.78125 61.734375 C 211.0625 62.046875 212.648438 61.097656 214.316406 59.609375 C 215.988281 58.117188 217.113281 56.65625 216.832031 56.339844 Z M 222.722656 58.511719 C 220.410156 62.722656 216.722656 66.011719 212.273438 67.832031 L 210.976562 66.382812 C 209.261719 64.460938 209.429688 61.511719 211.351562 59.796875 L 214.839844 56.6875 C 216.761719 54.972656 219.710938 55.140625 221.429688 57.0625 Z M 189.765625 49.617188 C 198.574219 49.617188 205.742188 42.453125 205.742188 33.648438 C 205.742188 24.84375 198.574219 17.679688 189.765625 17.679688 C 180.953125 17.679688 173.789062 24.84375 173.789062 33.648438 C 173.789062 42.453125 180.953125 49.617188 189.765625 49.617188 Z M 38.398438 67.355469 C 38.398438 68.792969 39.566406 69.957031 41.003906 69.957031 C 42.441406 69.957031 43.609375 68.792969 43.609375 67.355469 C 43.609375 65.917969 42.441406 64.753906 41.003906 64.753906 C 39.566406 64.753906 38.398438 65.917969 38.398438 67.355469 Z M 49.4375 67.355469 C 49.4375 68.792969 50.601562 69.957031 52.039062 69.957031 C 53.480469 69.957031 54.644531 68.792969 54.644531 67.355469 C 54.644531 65.917969 53.480469 64.753906 52.039062 64.753906 C 50.601562 64.753906 49.4375 65.917969 49.4375 67.355469 Z M 65.683594 67.355469 C 65.683594 65.917969 64.515625 64.753906 63.078125 64.753906 C 61.640625 64.753906 60.472656 65.917969 60.472656 67.355469 C 60.472656 68.792969 61.640625 69.957031 63.078125 69.957031 C 64.515625 69.957031 65.683594 68.792969 65.683594 67.355469 Z M 33.589844 41.242188 C 33.589844 42.679688 34.753906 43.847656 36.191406 43.847656 C 37.632812 43.847656 38.796875 42.679688 38.796875 41.242188 C 38.796875 39.804688 37.632812 38.640625 36.191406 38.640625 C 34.753906 38.640625 33.589844 39.804688 33.589844 41.242188 Z M 44.625 41.242188 C 44.625 42.679688 45.792969 43.847656 47.230469 43.847656 C 48.667969 43.847656 49.835938 42.679688 49.835938 41.242188 C 49.835938 39.804688 48.667969 38.640625 47.230469 38.640625 C 45.792969 38.640625 44.625 39.804688 44.625 41.242188 Z M 55.664062 41.242188 C 55.664062 42.679688 56.828125 43.847656 58.265625 43.847656 C 59.707031 43.847656 60.871094 42.679688 60.871094 41.242188 C 60.871094 39.804688 59.707031 38.640625 58.265625 38.640625 C 56.828125 38.640625 55.664062 39.804688 55.664062 41.242188 Z M 25.667969 51.335938 L 19.035156 51.335938 L 25.667969 44.949219 L 25.667969 33.839844 C 25.667969 32.355469 26.875 31.148438 28.363281 31.148438 L 59.4375 31.148438 C 55.554688 30.050781 51.742188 28.976562 48.027344 27.929688 C 48.175781 27.804688 48.320312 27.675781 48.46875 27.554688 C 52.605469 28.722656 56.863281 29.921875 61.210938 31.148438 L 65.488281 31.148438 C 66.714844 31.148438 67.746094 31.96875 68.070312 33.085938 C 80.742188 36.660156 94.023438 40.40625 107.246094 44.136719 C 107.214844 44.296875 107.199219 44.457031 107.199219 44.621094 C 94.03125 40.910156 80.800781 37.179688 68.171875 33.613281 C 68.175781 33.6875 68.183594 33.765625 68.183594 33.839844 L 68.183594 48.644531 C 68.183594 48.738281 68.175781 48.832031 68.167969 48.925781 C 68.167969 48.925781 68.167969 48.925781 68.167969 48.921875 C 80.636719 52.441406 93.695312 56.125 106.703125 59.792969 C 106.554688 55.648438 110.238281 50.925781 110.402344 50.71875 C 110.40625 50.707031 110.417969 50.703125 110.425781 50.695312 C 110.421875 50.691406 110.417969 50.691406 110.414062 50.6875 C 109.859375 50.21875 109.328125 48.960938 109.21875 47.875 C 109.113281 46.808594 109.464844 46.3125 110.003906 46.746094 C 110.140625 47.933594 110.320312 49.304688 110.539062 50.632812 C 110.542969 50.632812 110.546875 50.632812 110.546875 50.632812 C 110.582031 50.816406 110.617188 51 110.648438 51.183594 C 109.988281 52.074219 106.980469 56.34375 107.199219 59.933594 C 109.527344 60.589844 111.859375 61.246094 114.179688 61.898438 C 114.285156 62.101562 114.390625 62.296875 114.5 62.492188 C 112.085938 61.8125 109.667969 61.128906 107.246094 60.445312 C 107.839844 64.363281 111.703125 65.058594 111.867188 65.089844 C 112 65.109375 112.085938 65.234375 112.066406 65.363281 C 112.046875 65.484375 111.945312 65.566406 111.828125 65.566406 C 111.816406 65.566406 111.804688 65.566406 111.789062 65.5625 C 111.746094 65.554688 107.347656 64.777344 106.753906 60.421875 C 106.75 60.382812 106.746094 60.34375 106.742188 60.304688 C 93.691406 56.625 80.589844 52.929688 68.074219 49.398438 C 67.746094 50.515625 66.714844 51.335938 65.488281 51.335938 Z M 135.710938 56.597656 C 135.957031 56.742188 136.242188 56.816406 136.570312 56.816406 C 137.105469 56.816406 137.753906 56.617188 138.503906 56.226562 C 139.257812 56.015625 140.015625 55.394531 140.386719 54.609375 C 140.878906 53.574219 140.515625 52.65625 139.574219 52.550781 C 138.636719 52.449219 137.476562 53.207031 136.988281 54.238281 C 136.574219 55.109375 136.773438 55.886719 137.398438 56.179688 C 136.789062 56.378906 136.296875 56.386719 135.960938 56.183594 C 135.316406 55.796875 135.359375 54.757812 135.363281 54.710938 C 135.371094 54.640625 135.65625 52.636719 137.742188 51.25 C 137.878906 51.046875 138.039062 50.855469 138.21875 50.6875 C 138.277344 50.632812 138.339844 50.585938 138.402344 50.535156 C 138.332031 50.453125 138.210938 50.417969 138.109375 50.472656 C 135.210938 51.980469 134.894531 54.554688 134.882812 54.664062 C 134.882812 54.667969 134.882812 54.667969 134.882812 54.671875 C 134.882812 54.671875 134.882812 54.671875 134.882812 54.675781 C 134.878906 54.730469 134.808594 56.050781 135.710938 56.597656 Z M 35.320312 78.382812 C 35.054688 78.371094 34.757812 78.023438 34.429688 77.449219 L 33.890625 77.449219 C 34.375 78.359375 34.824219 78.839844 35.296875 78.863281 C 35.75 78.882812 36.136719 78.507812 36.488281 77.714844 C 36.53125 77.617188 36.582031 77.539062 36.625 77.449219 L 36.085938 77.449219 C 36.074219 77.472656 36.058594 77.496094 36.046875 77.519531 C 35.796875 78.085938 35.542969 78.402344 35.320312 78.382812 Z M 21.0625 80.277344 C 21.542969 80.21875 21.84375 79.578125 22.066406 78.132812 C 22.882812 72.816406 26.003906 65.886719 28.351562 65.675781 C 29.15625 65.601562 29.84375 66.378906 30.394531 67.984375 C 30.636719 68.679688 30.867188 69.355469 31.089844 70.019531 L 31.089844 68.527344 C 31.011719 68.292969 30.929688 68.0625 30.851562 67.824219 C 30.214844 65.984375 29.359375 65.105469 28.308594 65.195312 C 25.515625 65.445312 22.359375 73.054688 21.589844 78.058594 C 21.335938 79.710938 21.039062 79.796875 21.003906 79.800781 C 20.550781 79.84375 19.507812 77.402344 18.75 75.609375 C 18.726562 75.554688 18.703125 75.5 18.679688 75.441406 C 18.617188 75.707031 18.550781 75.964844 18.488281 76.230469 C 19.644531 78.957031 20.320312 80.367188 21.0625 80.277344 Z M 93.324219 85.027344 C 92.253906 85.058594 91.996094 86.21875 91.785156 87.152344 C 91.644531 87.773438 91.5 88.414062 91.183594 88.519531 C 91.007812 88.578125 90.640625 88.519531 89.898438 87.898438 C 88.914062 87.078125 88.191406 86.054688 87.558594 85.152344 C 86.226562 83.261719 85.074219 81.625 82.269531 82.890625 C 81.542969 83.21875 80.78125 83.597656 80.042969 83.964844 C 76.839844 85.554688 73.53125 87.195312 72.132812 85.257812 C 71.453125 84.3125 71.292969 82.699219 71.125 80.992188 C 71.007812 79.804688 70.882812 78.550781 70.558594 77.449219 L 70.058594 77.449219 C 70.394531 78.523438 70.519531 79.789062 70.644531 81.039062 C 70.820312 82.8125 70.988281 84.488281 71.742188 85.535156 C 73.378906 87.808594 76.875 86.074219 80.253906 84.394531 C 80.988281 84.03125 81.75 83.652344 82.46875 83.328125 C 84.910156 82.226562 85.855469 83.570312 87.164062 85.429688 C 87.816406 86.355469 88.554688 87.40625 89.589844 88.269531 C 90.34375 88.898438 90.898438 89.121094 91.335938 88.976562 C 91.910156 88.78125 92.074219 88.042969 92.253906 87.257812 C 92.488281 86.214844 92.691406 85.527344 93.339844 85.507812 C 94.363281 85.472656 94.613281 85.976562 95.070312 86.878906 C 95.316406 87.359375 95.601562 87.917969 96.066406 88.515625 C 96.148438 88.359375 96.230469 88.203125 96.316406 88.046875 C 95.953125 87.546875 95.710938 87.074219 95.5 86.664062 C 95.023438 85.730469 94.644531 85.003906 93.324219 85.027344 Z M 62.035156 80.777344 C 61.507812 80.914062 60.863281 80.667969 60.0625 80.027344 C 58.929688 79.117188 58.234375 78.234375 57.773438 77.449219 L 57.222656 77.449219 C 57.699219 78.335938 58.449219 79.351562 59.757812 80.402344 C 60.6875 81.144531 61.46875 81.421875 62.15625 81.242188 C 63.28125 80.949219 63.859375 79.527344 64.46875 78.023438 C 64.546875 77.828125 64.625 77.636719 64.707031 77.449219 L 64.183594 77.449219 C 64.128906 77.582031 64.074219 77.710938 64.023438 77.84375 C 63.460938 79.234375 62.929688 80.546875 62.035156 80.777344 Z M 201.539062 112.304688 C 200.703125 112.417969 200 113.222656 199.316406 114.003906 C 198.648438 114.765625 197.9375 115.5625 197.261719 115.53125 C 196.832031 115.515625 196.402344 115.207031 195.941406 114.585938 C 194.9375 113.242188 194.480469 111.867188 194.113281 110.757812 C 193.617188 109.273438 193.226562 108.101562 191.796875 108.382812 C 190.703125 108.59375 190.460938 110.34375 190.226562 112.039062 C 190.078125 113.132812 189.890625 114.488281 189.460938 114.613281 C 189.324219 114.652344 188.984375 114.59375 188.273438 113.746094 C 187.234375 112.511719 186.476562 110.902344 185.8125 109.480469 C 185.253906 108.292969 184.738281 107.203125 184.132812 106.457031 C 184.214844 106.746094 184.292969 107.039062 184.367188 107.328125 C 184.414062 107.519531 184.460938 107.714844 184.507812 107.917969 C 184.792969 108.449219 185.078125 109.054688 185.375 109.6875 C 186.054688 111.132812 186.824219 112.773438 187.902344 114.054688 C 188.597656 114.882812 189.136719 115.207031 189.59375 115.074219 C 190.324219 114.863281 190.5 113.585938 190.703125 112.105469 C 190.902344 110.648438 191.128906 109 191.886719 108.851562 C 192.863281 108.664062 193.136719 109.347656 193.65625 110.910156 C 194.035156 112.050781 194.507812 113.46875 195.554688 114.871094 C 196.109375 115.617188 196.664062 115.988281 197.242188 116.011719 C 198.164062 116.042969 198.9375 115.167969 199.679688 114.316406 C 200.300781 113.605469 200.949219 112.867188 201.601562 112.78125 C 203.367188 112.539062 203.925781 115.390625 203.933594 115.425781 C 203.976562 115.625 204.601562 118.542969 205.675781 121.117188 C 205.746094 120.867188 205.824219 120.617188 205.894531 120.367188 C 204.96875 117.945312 204.414062 115.375 204.40625 115.332031 C 204.378906 115.195312 203.75 112.003906 201.539062 112.304688 Z M 84.21875 113.832031 C 58.617188 106.609375 34.285156 99.742188 16.316406 94.667969 C 16.3125 94.832031 16.308594 95 16.308594 95.164062 C 34.289062 100.242188 58.535156 107.085938 84.035156 114.28125 C 84.097656 114.132812 84.15625 113.984375 84.21875 113.832031 Z M 160.816406 135.414062 C 160.796875 135.578125 160.789062 135.742188 160.777344 135.902344 C 163.996094 136.808594 167.140625 137.695312 170.195312 138.550781 L 170.054688 138.011719 C 167.058594 137.171875 163.972656 136.300781 160.816406 135.414062 Z M 188.554688 143.707031 C 191.007812 144.394531 193.355469 145.050781 195.582031 145.675781 C 195.65625 145.53125 195.734375 145.386719 195.8125 145.242188 C 193.488281 144.589844 191.019531 143.898438 188.441406 143.175781 C 188.472656 143.34375 188.511719 143.519531 188.554688 143.707031 Z M 208.589844 72.621094 C 194.796875 68.78125 170.460938 61.941406 142.820312 54.15625 C 142.769531 54.3125 142.703125 54.460938 142.632812 54.605469 C 170.4375 62.433594 194.902344 69.308594 208.683594 73.144531 C 208.652344 72.96875 208.625 72.792969 208.589844 72.621094 Z M 185.898438 83.917969 C 186.183594 84.238281 187.765625 83.285156 189.4375 81.796875 C 191.105469 80.308594 192.230469 78.84375 191.949219 78.527344 C 191.664062 78.207031 190.082031 79.160156 188.410156 80.648438 C 186.742188 82.136719 185.617188 83.601562 185.898438 83.917969 Z M 185.910156 82.585938 C 178.121094 80.398438 169.347656 77.933594 159.925781 75.28125 C 159.355469 74.953125 158.78125 74.625 158.210938 74.300781 C 168.421875 77.175781 177.917969 79.84375 186.265625 82.183594 C 186.265625 82.1875 186.265625 82.1875 186.265625 82.1875 C 186.332031 82.117188 186.398438 82.046875 186.472656 81.984375 L 189.957031 78.875 C 191.878906 77.160156 194.832031 77.328125 196.546875 79.25 L 197.839844 80.699219 C 195.753906 85.085938 191.988281 88.445312 187.390625 90.019531 L 186.097656 88.566406 C 184.566406 86.855469 184.539062 84.328125 185.914062 82.582031 C 185.914062 82.582031 185.910156 82.585938 185.910156 82.585938 Z M 207.03125 87.996094 L 206.605469 88.375 C 207.851562 88.722656 209.035156 89.054688 210.128906 89.359375 C 210.128906 89.191406 210.128906 89.023438 210.125 88.859375 C 209.15625 88.589844 208.121094 88.300781 207.03125 87.996094 Z M 187.871094 136.183594 C 191.8125 137.289062 195.484375 138.316406 198.832031 139.253906 C 198.902344 139.105469 198.96875 138.957031 199.039062 138.8125 C 195.621094 137.855469 191.867188 136.804688 187.832031 135.671875 C 187.84375 135.84375 187.859375 136.011719 187.871094 136.183594 Z M 161.925781 128.894531 C 164.023438 129.484375 166.085938 130.066406 168.109375 130.632812 L 167.964844 130.09375 C 166.023438 129.546875 164.046875 128.992188 162.042969 128.425781 C 162.003906 128.582031 161.96875 128.738281 161.925781 128.894531 Z M 86.792969 107.726562 C 60.449219 100.296875 35.242188 93.179688 16.644531 87.929688 C 16.660156 87.765625 16.675781 87.601562 16.691406 87.441406 C 35.273438 92.6875 60.554688 99.824219 86.988281 107.28125 C 86.921875 107.433594 86.859375 107.578125 86.792969 107.726562 "/>
<g clip-path="url(#clip3)" clip-rule="nonzero">
<path style=" stroke:none;fill-rule:nonzero;fill:rgb(22.349548%,22.749329%,24.708557%);fill-opacity:1;" d="M 200.09375 84.199219 C 199.804688 84.097656 199.519531 83.996094 199.238281 83.878906 C 198.960938 83.761719 198.683594 83.644531 198.417969 83.503906 C 197.90625 83.242188 197.417969 82.941406 197.039062 82.507812 L 197.128906 82.363281 L 197.550781 81.5625 L 197.738281 81.152344 L 197.832031 80.945312 L 197.878906 80.84375 L 197.902344 80.789062 L 197.914062 80.765625 L 197.917969 80.753906 L 197.921875 80.746094 L 197.921875 80.742188 C 197.886719 80.722656 198.007812 80.78125 197.839844 80.699219 C 197.675781 80.621094 197.792969 80.679688 197.757812 80.664062 L 197.753906 80.664062 L 197.75 80.671875 L 197.746094 80.683594 L 197.730469 80.707031 L 197.703125 80.757812 L 197.648438 80.855469 L 197.535156 81.046875 L 197.320312 81.4375 L 196.851562 82.199219 L 196.351562 82.9375 L 195.820312 83.648438 C 195.089844 84.582031 194.289062 85.457031 193.394531 86.234375 C 192.519531 87.027344 191.558594 87.726562 190.546875 88.339844 L 189.777344 88.785156 L 188.984375 89.191406 L 188.179688 89.570312 L 187.765625 89.742188 L 187.5625 89.828125 L 187.457031 89.871094 L 187.40625 89.894531 L 187.367188 89.910156 L 187.363281 89.914062 L 187.359375 89.914062 C 187.375 89.960938 187.320312 89.8125 187.390625 90.019531 C 187.460938 90.222656 187.414062 90.074219 187.429688 90.121094 L 187.433594 90.117188 L 187.441406 90.117188 L 187.453125 90.113281 L 187.480469 90.105469 L 187.640625 90.054688 L 187.855469 89.984375 L 188.285156 89.839844 L 189.132812 89.511719 L 189.957031 89.128906 L 190.761719 88.707031 C 191.816406 88.113281 192.804688 87.394531 193.71875 86.589844 C 194.613281 85.773438 195.441406 84.875 196.144531 83.890625 L 196.65625 83.140625 L 196.910156 82.726562 C 197.027344 82.96875 197.199219 83.183594 197.394531 83.367188 C 197.632812 83.597656 197.914062 83.777344 198.199219 83.929688 C 198.488281 84.082031 198.789062 84.203125 199.101562 84.285156 C 199.414062 84.367188 199.734375 84.421875 200.0625 84.414062 C 200.105469 84.414062 200.148438 84.386719 200.164062 84.339844 C 200.183594 84.285156 200.152344 84.21875 200.09375 84.199219 Z M 215.289062 68.132812 C 215.050781 67.929688 214.796875 67.753906 214.527344 67.605469 C 214.492188 67.585938 214.453125 67.589844 214.421875 67.617188 C 214.382812 67.648438 214.378906 67.707031 214.410156 67.746094 C 214.601562 67.984375 214.816406 68.199219 215.003906 68.421875 C 215.191406 68.644531 215.371094 68.867188 215.511719 69.105469 C 215.648438 69.339844 215.746094 69.597656 215.800781 69.859375 C 215.851562 70.125 215.847656 70.394531 215.765625 70.667969 L 215.765625 70.671875 C 215.757812 70.714844 215.769531 70.761719 215.808594 70.789062 C 215.855469 70.824219 215.921875 70.816406 215.960938 70.769531 C 216.167969 70.5 216.242188 70.144531 216.222656 69.808594 C 216.207031 69.472656 216.09375 69.148438 215.921875 68.859375 C 215.75 68.578125 215.53125 68.335938 215.289062 68.132812 Z M 222.722656 58.511719 C 222.5625 58.425781 222.675781 58.492188 222.640625 58.472656 L 222.636719 58.480469 L 222.613281 58.515625 L 222.523438 58.65625 L 222.402344 58.839844 L 222.164062 59.21875 L 221.664062 59.949219 L 221.140625 60.660156 L 220.589844 61.351562 C 219.835938 62.257812 219.023438 63.117188 218.136719 63.886719 C 217.265625 64.679688 216.320312 65.386719 215.332031 66.027344 L 214.582031 66.496094 L 213.8125 66.929688 L 213.03125 67.34375 L 212.628906 67.535156 L 212.332031 67.679688 L 212.28125 67.707031 L 212.257812 67.71875 L 212.242188 67.722656 L 212.234375 67.730469 C 212.253906 67.773438 212.191406 67.628906 212.273438 67.832031 C 212.355469 68.03125 212.296875 67.886719 212.316406 67.929688 L 212.320312 67.929688 L 212.328125 67.925781 L 212.339844 67.921875 L 212.367188 67.910156 L 212.417969 67.890625 L 212.734375 67.773438 L 213.152344 67.609375 L 213.972656 67.242188 L 214.777344 66.832031 L 215.558594 66.386719 C 216.589844 65.769531 217.554688 65.042969 218.457031 64.246094 C 219.347656 63.4375 220.179688 62.5625 220.90625 61.605469 L 221.4375 60.878906 L 221.933594 60.128906 L 222.386719 59.351562 L 222.597656 58.953125 L 222.699219 58.753906 L 222.75 58.65625 L 222.777344 58.605469 L 222.800781 58.5625 L 222.800781 58.558594 C 222.765625 58.539062 222.882812 58.601562 222.722656 58.511719 Z M 189.765625 22.257812 C 189.632812 22.257812 189.523438 22.367188 189.523438 22.496094 L 189.523438 34.128906 C 189.523438 34.199219 189.554688 34.265625 189.609375 34.3125 L 194.789062 38.734375 C 194.835938 38.769531 194.890625 38.792969 194.945312 38.792969 C 195.011719 38.792969 195.082031 38.761719 195.128906 38.707031 C 195.214844 38.605469 195.203125 38.453125 195.101562 38.367188 L 190.003906 34.019531 L 190.003906 22.496094 C 190.003906 22.367188 189.898438 22.257812 189.765625 22.257812 Z M 198.503906 19.949219 C 196.808594 19.015625 194.945312 18.398438 193.027344 18.121094 C 189.207031 17.566406 185.160156 18.386719 181.921875 20.539062 C 178.675781 22.65625 176.230469 25.957031 175.171875 29.683594 C 174.078125 33.398438 174.460938 37.5 176.109375 40.984375 C 177.753906 44.472656 180.675781 47.363281 184.230469 48.886719 C 186.003906 49.648438 187.910156 50.085938 189.828125 50.179688 C 191.75 50.316406 193.6875 50.039062 195.515625 49.460938 C 195.566406 49.445312 195.59375 49.394531 195.578125 49.347656 C 195.5625 49.296875 195.511719 49.273438 195.460938 49.289062 C 193.648438 49.835938 191.734375 50.082031 189.84375 49.925781 C 187.953125 49.8125 186.085938 49.359375 184.363281 48.589844 C 180.890625 47.078125 178.042969 44.238281 176.449219 40.824219 C 174.859375 37.414062 174.5 33.414062 175.585938 29.796875 C 176.628906 26.179688 179.023438 22.980469 182.179688 20.9375 C 185.320312 18.84375 189.242188 18.027344 192.964844 18.558594 C 194.828125 18.816406 196.648438 19.414062 198.304688 20.3125 C 199.960938 21.214844 201.441406 22.429688 202.675781 23.855469 C 205.152344 26.703125 206.53125 30.457031 206.527344 34.234375 C 206.546875 38.015625 205.121094 41.78125 202.613281 44.628906 C 202.574219 44.675781 202.578125 44.742188 202.621094 44.78125 C 202.667969 44.824219 202.734375 44.820312 202.777344 44.773438 C 205.351562 41.917969 206.855469 38.101562 206.878906 34.238281 C 206.902344 30.375 205.503906 26.523438 202.976562 23.59375 C 201.714844 22.132812 200.203125 20.878906 198.503906 19.949219 Z M 57.777344 58.011719 L 42.824219 57.988281 L 35.34375 57.988281 C 34.6875 57.96875 33.984375 58.171875 33.457031 58.59375 C 32.921875 59.003906 32.523438 59.601562 32.378906 60.261719 C 32.300781 60.589844 32.300781 60.941406 32.304688 61.242188 L 32.308594 62.179688 L 32.308594 64.046875 L 32.324219 71.519531 L 32.332031 75.257812 L 32.332031 75.722656 C 32.339844 75.894531 32.347656 76.058594 32.378906 76.222656 C 32.4375 76.554688 32.554688 76.875 32.722656 77.164062 C 33.054688 77.746094 33.597656 78.195312 34.226562 78.425781 C 34.542969 78.539062 34.875 78.601562 35.207031 78.605469 L 36.144531 78.605469 L 38.011719 78.601562 L 41.753906 78.597656 L 49.230469 78.585938 L 79.148438 78.503906 C 79.195312 78.503906 79.238281 78.460938 79.238281 78.410156 C 79.238281 78.359375 79.199219 78.320312 79.148438 78.320312 L 49.230469 78.234375 L 41.753906 78.226562 L 38.011719 78.21875 L 36.144531 78.21875 L 35.210938 78.214844 C 34.921875 78.214844 34.632812 78.15625 34.363281 78.058594 C 33.824219 77.859375 33.351562 77.464844 33.066406 76.964844 C 32.925781 76.710938 32.824219 76.4375 32.777344 76.152344 C 32.746094 76.011719 32.742188 75.867188 32.734375 75.722656 L 32.738281 75.257812 L 32.742188 71.519531 L 32.753906 64.046875 L 32.757812 62.179688 L 32.761719 61.242188 C 32.757812 60.921875 32.761719 60.644531 32.828125 60.363281 C 33.070312 59.238281 34.171875 58.386719 35.34375 58.457031 L 42.824219 58.457031 L 57.777344 58.4375 L 65.257812 58.425781 L 68.996094 58.417969 L 70.867188 58.414062 L 71.800781 58.414062 C 72.113281 58.417969 72.429688 58.402344 72.707031 58.441406 C 73.871094 58.578125 74.835938 59.644531 74.855469 60.816406 L 74.867188 64.546875 L 74.894531 72.023438 C 74.894531 72.058594 74.910156 72.101562 74.9375 72.128906 L 79.941406 76.886719 C 79.984375 76.925781 80.050781 76.925781 80.09375 76.882812 C 80.136719 76.839844 80.136719 76.773438 80.09375 76.730469 L 75.195312 71.957031 L 75.226562 64.546875 L 75.226562 60.800781 C 75.203125 59.457031 74.101562 58.230469 72.761719 58.066406 C 72.421875 58.015625 72.109375 58.035156 71.800781 58.03125 L 70.867188 58.03125 L 68.996094 58.027344 L 65.257812 58.019531 Z M 18.070312 52.523438 L 35.5 52.527344 L 52.933594 52.5 L 61.648438 52.488281 L 63.828125 52.488281 C 64.191406 52.480469 64.546875 52.503906 64.945312 52.449219 C 65.328125 52.394531 65.699219 52.261719 66.03125 52.054688 C 66.691406 51.652344 67.179688 50.96875 67.335938 50.210938 C 67.375 50.019531 67.398438 49.824219 67.398438 49.632812 L 67.402344 49.085938 L 67.398438 47.996094 L 67.363281 39.289062 L 67.347656 34.933594 C 67.371094 34.183594 67.089844 33.40625 66.558594 32.863281 C 66.035156 32.316406 65.285156 31.992188 64.527344 32.003906 C 64.464844 32.003906 64.414062 32.050781 64.417969 32.113281 C 64.417969 32.171875 64.464844 32.222656 64.527344 32.222656 C 65.226562 32.21875 65.914062 32.519531 66.386719 33.027344 C 66.871094 33.535156 67.117188 34.226562 67.089844 34.933594 L 67.070312 39.289062 L 67.039062 47.996094 L 67.039062 49.085938 L 67.035156 49.628906 C 67.03125 49.800781 67.015625 49.96875 66.980469 50.132812 C 66.839844 50.796875 66.414062 51.390625 65.835938 51.742188 C 65.546875 51.917969 65.222656 52.035156 64.890625 52.082031 C 64.5625 52.128906 64.191406 52.105469 63.828125 52.109375 L 61.648438 52.105469 L 52.933594 52.09375 L 35.5 52.070312 L 18.632812 52.070312 L 24.855469 46.0625 C 24.894531 46.023438 24.917969 45.96875 24.917969 45.910156 L 24.898438 34.902344 C 24.863281 34.03125 25.300781 33.191406 26.015625 32.714844 C 26.375 32.484375 26.789062 32.332031 27.214844 32.308594 C 27.644531 32.285156 28.125 32.300781 28.578125 32.292969 L 34.082031 32.285156 L 56.109375 32.203125 C 56.160156 32.203125 56.199219 32.164062 56.199219 32.113281 C 56.199219 32.0625 56.160156 32.019531 56.109375 32.019531 L 34.082031 31.9375 L 28.578125 31.929688 C 28.113281 31.933594 27.675781 31.917969 27.1875 31.9375 C 26.695312 31.964844 26.222656 32.140625 25.808594 32.402344 C 24.984375 32.941406 24.476562 33.929688 24.515625 34.902344 L 24.496094 45.820312 L 17.914062 52.136719 C 17.871094 52.175781 17.847656 52.234375 17.847656 52.296875 C 17.847656 52.425781 17.945312 52.523438 18.070312 52.523438 Z M 103.773438 33.332031 C 104.402344 34.65625 105.574219 35.429688 107.011719 35.613281 C 106.117188 36.730469 105.878906 38.347656 106.414062 39.640625 C 106.703125 40.335938 107.355469 40.992188 108.109375 41.460938 C 107.652344 41.976562 107.367188 42.691406 107.367188 43.484375 C 107.367188 45.050781 108.472656 46.320312 109.835938 46.320312 C 109.878906 46.320312 109.914062 46.308594 109.953125 46.304688 C 109.875 45.429688 109.820312 44.582031 109.792969 43.777344 C 109.785156 43.601562 109.789062 43.429688 109.789062 43.253906 C 109.84375 43.257812 109.894531 43.269531 109.949219 43.269531 C 110.832031 43.269531 111.667969 42.578125 112.085938 41.601562 C 112.195312 41.367188 112.277344 41.109375 112.332031 40.839844 C 112.398438 40.84375 112.457031 40.855469 112.519531 40.855469 C 113.800781 40.855469 114.839844 39.820312 114.839844 38.539062 C 114.839844 38.382812 114.824219 38.230469 114.792969 38.085938 C 116.222656 38.128906 117.902344 37.410156 118.367188 36.054688 C 118.972656 36.707031 119.914062 37.011719 120.796875 36.835938 C 121.679688 36.664062 122.710938 36.21875 123.085938 35.378906 C 124.242188 36.699219 127.007812 37.859375 128.550781 36.941406 C 127.726562 39.367188 128.527344 41.742188 130.9375 42.257812 C 131.675781 44.015625 133.257812 45.160156 135.089844 45.589844 C 134.070312 47.058594 135.722656 50.078125 137.234375 50.890625 C 137.417969 50.992188 137.617188 51.074219 137.820312 51.140625 C 137.941406 50.976562 138.070312 50.824219 138.21875 50.6875 C 138.875 50.078125 139.8125 49.769531 140.6875 49.9375 C 141.132812 50.019531 141.539062 50.226562 141.878906 50.515625 C 142.652344 50.042969 143.300781 49.390625 143.65625 48.609375 C 145.949219 48.261719 148.1875 45.367188 148.460938 43.007812 C 149.914062 43.480469 151.664062 42.890625 152.613281 41.617188 C 153.5625 40.339844 153.71875 38.378906 152.871094 37.09375 C 153.734375 36.214844 154.109375 34.871094 153.816406 33.695312 C 153.527344 32.519531 152.457031 32.058594 151.304688 31.769531 C 152.339844 29.625 151.546875 26.273438 149.84375 24.75 C 150.6875 23.5 150.898438 21.84375 150.394531 20.460938 C 149.886719 19.078125 148.722656 18.082031 147.308594 17.761719 C 147.589844 16.550781 147.285156 15.230469 146.511719 14.304688 C 145.738281 13.378906 144.46875 13.121094 143.261719 13.226562 C 143.753906 11.664062 141.867188 9.757812 140.285156 9.722656 C 139.515625 7.046875 135.972656 5.898438 133.417969 7.027344 C 132.902344 6.148438 132.34375 5.230469 131.453125 4.753906 C 130.566406 4.277344 128.632812 4.84375 128.148438 5.78125 C 127.441406 4.746094 126.160156 4.167969 124.910156 4.320312 C 123.664062 4.46875 122.371094 4.75 121.839844 5.933594 C 120.238281 5.1875 117.976562 5.480469 116.609375 6.707031 C 114.511719 7.058594 112.910156 9.464844 113.382812 11.558594 C 111.277344 11.4375 109.84375 13.199219 108.839844 15.136719 C 107.648438 15.074219 106.585938 16.125 106.191406 17.292969 C 105.796875 18.460938 106.199219 19.820312 106.324219 21.03125 C 104.71875 21.042969 103.402344 22.628906 103.085938 24.257812 C 102.765625 25.882812 103.496094 27.449219 103.921875 29.023438 C 103.199219 30.34375 103.144531 32.007812 103.773438 33.332031 Z M 111.558594 202.921875 L 99.933594 199.257812 L 88.292969 195.632812 L 65.015625 188.394531 L 41.707031 181.238281 L 30.054688 177.664062 L 18.386719 174.128906 C 18.339844 174.113281 18.289062 174.140625 18.273438 174.191406 C 18.257812 174.238281 18.285156 174.289062 18.335938 174.304688 L 29.957031 177.972656 L 41.597656 181.601562 L 64.871094 188.851562 L 88.175781 196.011719 L 99.828125 199.59375 L 111.496094 203.128906 C 111.550781 203.144531 111.613281 203.113281 111.628906 203.058594 C 111.648438 203 111.617188 202.941406 111.558594 202.921875 Z M 153.871094 185.949219 L 113.375 202.757812 L 103.238281 132.445312 C 103.226562 132.351562 103.160156 132.273438 103.066406 132.25 L 2.988281 105.859375 C 2.941406 105.847656 2.890625 105.875 2.875 105.921875 C 2.863281 105.972656 2.894531 106.023438 2.941406 106.035156 L 102.796875 132.664062 L 113.035156 203.050781 C 113.039062 203.066406 113.042969 203.085938 113.046875 203.097656 C 113.089844 203.195312 113.199219 203.242188 113.292969 203.199219 L 153.957031 186.152344 C 154.011719 186.128906 154.039062 186.066406 154.015625 186.007812 C 153.992188 185.953125 153.929688 185.925781 153.871094 185.949219 Z M 130.359375 127.660156 C 130.414062 127.628906 130.429688 127.5625 130.398438 127.511719 C 129.523438 126.046875 128.726562 124.546875 127.996094 123.015625 C 127.269531 121.480469 126.613281 119.914062 126.054688 118.3125 C 125.472656 116.71875 124.996094 115.085938 124.589844 113.4375 C 124.1875 111.789062 123.859375 110.117188 123.617188 108.433594 C 123.609375 108.386719 123.566406 108.347656 123.519531 108.351562 C 123.46875 108.355469 123.429688 108.402344 123.433594 108.453125 C 123.574219 110.15625 123.828125 111.855469 124.195312 113.527344 C 124.558594 115.203125 125.042969 116.851562 125.601562 118.472656 C 126.179688 120.082031 126.84375 121.671875 127.613281 123.199219 C 128.382812 124.734375 129.253906 126.214844 130.214844 127.628906 C 130.25 127.675781 130.3125 127.691406 130.359375 127.660156 Z M 146.128906 176.925781 C 145.972656 177.011719 145.84375 177.121094 145.722656 177.238281 C 145.597656 177.351562 145.492188 177.480469 145.386719 177.613281 C 145.289062 177.746094 145.195312 177.886719 145.117188 178.035156 C 145.042969 178.1875 144.96875 178.339844 144.929688 178.511719 C 144.921875 178.539062 144.925781 178.566406 144.945312 178.59375 C 144.976562 178.636719 145.039062 178.644531 145.082031 178.609375 C 145.21875 178.507812 145.335938 178.390625 145.449219 178.273438 C 145.566406 178.15625 145.664062 178.027344 145.769531 177.90625 C 145.867188 177.777344 145.964844 177.648438 146.050781 177.507812 C 146.136719 177.371094 146.222656 177.230469 146.289062 177.070312 C 146.300781 177.039062 146.300781 177.003906 146.285156 176.972656 C 146.25 176.914062 146.183594 176.894531 146.128906 176.925781 Z M 123.101562 175.925781 C 123.332031 175.554688 123.53125 175.171875 123.730469 174.785156 C 123.933594 174.402344 124.113281 174.007812 124.292969 173.613281 C 124.46875 173.21875 124.640625 172.820312 124.796875 172.414062 C 124.953125 172.007812 125.105469 171.605469 125.230469 171.183594 C 125.242188 171.144531 125.230469 171.101562 125.191406 171.082031 C 125.148438 171.054688 125.089844 171.066406 125.0625 171.109375 C 124.832031 171.480469 124.628906 171.863281 124.425781 172.25 C 124.222656 172.632812 124.039062 173.023438 123.855469 173.414062 C 123.675781 173.808594 123.503906 174.207031 123.34375 174.609375 C 123.183594 175.015625 123.027344 175.417969 122.902344 175.835938 C 122.886719 175.882812 122.90625 175.933594 122.949219 175.960938 C 123 175.992188 123.070312 175.980469 123.101562 175.925781 Z M 129.28125 170.621094 C 129.226562 170.609375 129.171875 170.644531 129.160156 170.699219 C 129.128906 170.832031 129.113281 170.949219 129.09375 171.070312 L 128.976562 171.75 C 128.960938 171.867188 128.9375 171.984375 128.925781 172.117188 L 128.925781 172.121094 C 128.921875 172.152344 128.929688 172.179688 128.949219 172.203125 C 128.988281 172.253906 129.0625 172.265625 129.113281 172.226562 C 129.230469 172.136719 129.316406 172.015625 129.378906 171.890625 C 129.449219 171.765625 129.488281 171.625 129.511719 171.484375 C 129.527344 171.339844 129.53125 171.195312 129.5 171.054688 C 129.46875 170.917969 129.425781 170.78125 129.339844 170.660156 C 129.324219 170.640625 129.304688 170.628906 129.28125 170.621094 Z M 132.597656 172.089844 C 133 171.613281 133.378906 171.125 133.792969 170.679688 C 134.207031 170.234375 134.648438 169.816406 135.160156 169.523438 C 135.65625 169.207031 136.226562 169.027344 136.816406 168.902344 C 137.40625 168.773438 138.023438 168.710938 138.640625 168.617188 C 138.691406 168.609375 138.730469 168.566406 138.730469 168.511719 C 138.734375 168.453125 138.6875 168.402344 138.625 168.398438 C 138.003906 168.378906 137.375 168.390625 136.742188 168.484375 C 136.109375 168.574219 135.472656 168.777344 134.910156 169.113281 C 134.355469 169.464844 133.882812 169.917969 133.488281 170.414062 C 133.089844 170.910156 132.753906 171.441406 132.449219 171.984375 C 132.425781 172.023438 132.433594 172.070312 132.46875 172.101562 C 132.507812 172.132812 132.566406 172.128906 132.597656 172.089844 Z M 143.84375 171.671875 C 143.632812 171.773438 143.4375 171.910156 143.253906 172.054688 C 143.074219 172.203125 142.90625 172.367188 142.765625 172.554688 C 142.621094 172.742188 142.496094 172.9375 142.410156 173.160156 C 142.398438 173.191406 142.402344 173.226562 142.425781 173.257812 C 142.460938 173.296875 142.519531 173.300781 142.558594 173.265625 L 143.058594 172.832031 C 143.226562 172.699219 143.386719 172.558594 143.554688 172.425781 C 143.722656 172.292969 143.894531 172.167969 144.066406 172.039062 C 144.234375 171.910156 144.414062 171.789062 144.59375 171.648438 C 144.625 171.625 144.644531 171.582031 144.636719 171.542969 C 144.625 171.480469 144.570312 171.441406 144.507812 171.449219 C 144.273438 171.488281 144.054688 171.570312 143.84375 171.671875 Z M 106.648438 93.140625 C 106.796875 93.328125 106.960938 93.5 107.15625 93.632812 C 107.191406 93.65625 107.238281 93.660156 107.277344 93.640625 C 107.328125 93.609375 107.347656 93.542969 107.320312 93.488281 L 107 92.910156 C 106.902344 92.714844 106.800781 92.527344 106.710938 92.332031 C 106.617188 92.140625 106.539062 91.941406 106.453125 91.742188 L 106.207031 91.125 C 106.195312 91.09375 106.164062 91.070312 106.128906 91.066406 C 106.078125 91.058594 106.03125 91.09375 106.023438 91.148438 C 106 91.382812 106.015625 91.621094 106.0625 91.855469 C 106.101562 92.089844 106.179688 92.316406 106.277344 92.535156 C 106.378906 92.75 106.496094 92.957031 106.648438 93.140625 Z M 133.949219 80.207031 C 133.980469 80.164062 133.972656 80.101562 133.929688 80.066406 C 133.886719 80.027344 133.816406 80.03125 133.777344 80.078125 C 133.195312 80.742188 132.546875 81.339844 131.828125 81.835938 C 131.113281 82.335938 130.339844 82.757812 129.523438 83.0625 C 128.714844 83.386719 127.859375 83.59375 126.992188 83.707031 C 126.125 83.816406 125.238281 83.8125 124.359375 83.707031 C 124.316406 83.703125 124.273438 83.730469 124.261719 83.777344 C 124.25 83.824219 124.277344 83.875 124.328125 83.886719 C 125.203125 84.113281 126.125 84.175781 127.03125 84.109375 C 127.941406 84.042969 128.839844 83.824219 129.695312 83.511719 C 130.546875 83.175781 131.355469 82.738281 132.078125 82.179688 C 132.804688 81.625 133.449219 80.960938 133.949219 80.207031 Z M 174.402344 138.988281 C 174.648438 138.871094 174.882812 138.757812 175.128906 138.667969 C 175.371094 138.582031 175.617188 138.503906 175.867188 138.449219 C 176.117188 138.390625 176.371094 138.355469 176.625 138.328125 C 176.882812 138.304688 177.144531 138.300781 177.414062 138.300781 C 177.457031 138.300781 177.5 138.273438 177.515625 138.230469 C 177.542969 138.175781 177.515625 138.109375 177.457031 138.085938 C 177.195312 137.972656 176.910156 137.917969 176.621094 137.902344 C 176.328125 137.882812 176.039062 137.917969 175.757812 137.980469 C 175.476562 138.054688 175.199219 138.15625 174.953125 138.304688 C 174.703125 138.449219 174.472656 138.625 174.289062 138.84375 C 174.265625 138.871094 174.257812 138.910156 174.273438 138.945312 C 174.300781 138.992188 174.355469 139.011719 174.402344 138.988281 Z M 176.5625 139.164062 C 175.796875 139.265625 175.058594 139.53125 174.390625 139.90625 C 173.722656 140.28125 173.109375 140.742188 172.554688 141.265625 C 172.289062 141.515625 172.046875 141.789062 171.816406 142.074219 C 171.890625 141.703125 172 141.34375 172.152344 141 C 172.464844 140.304688 172.960938 139.675781 173.652344 139.324219 C 173.699219 139.296875 173.722656 139.234375 173.703125 139.183594 C 173.679688 139.128906 173.617188 139.101562 173.5625 139.125 C 172.785156 139.429688 172.167969 140.089844 171.804688 140.832031 C 171.460938 141.519531 171.285156 142.277344 171.25 143.039062 C 171.238281 143.085938 171.234375 143.144531 171.238281 143.210938 C 171.238281 143.21875 171.234375 143.226562 171.234375 143.234375 L 171.238281 143.234375 C 171.238281 143.253906 171.238281 143.273438 171.242188 143.296875 C 171.261719 143.402344 171.351562 143.484375 171.460938 143.488281 C 171.589844 143.488281 171.691406 143.390625 171.695312 143.261719 L 171.695312 143.242188 C 171.695312 143.207031 171.699219 143.179688 171.699219 143.148438 C 171.707031 143.117188 171.714844 143.085938 171.730469 143.058594 C 171.761719 142.988281 171.804688 142.914062 171.847656 142.839844 C 171.9375 142.691406 172.042969 142.546875 172.152344 142.40625 C 172.375 142.128906 172.625 141.863281 172.882812 141.605469 C 173.402344 141.101562 173.980469 140.648438 174.605469 140.285156 C 175.234375 139.925781 175.902344 139.628906 176.613281 139.507812 C 177.320312 139.382812 178.058594 139.421875 178.75 139.660156 C 178.792969 139.675781 178.84375 139.65625 178.863281 139.613281 C 178.886719 139.566406 178.863281 139.511719 178.816406 139.488281 C 178.125 139.171875 177.328125 139.066406 176.5625 139.164062 Z M 165.15625 119.652344 C 165.046875 119.246094 164.921875 118.839844 164.785156 118.4375 C 164.640625 118.042969 164.496094 117.644531 164.308594 117.257812 C 164.292969 117.222656 164.253906 117.199219 164.214844 117.207031 C 164.164062 117.210938 164.128906 117.257812 164.132812 117.308594 C 164.183594 117.734375 164.277344 118.148438 164.367188 118.5625 C 164.441406 118.867188 164.527344 119.171875 164.617188 119.476562 C 164.445312 119.476562 164.277344 119.480469 164.117188 119.472656 C 163.863281 119.453125 163.628906 119.394531 163.40625 119.253906 C 163.367188 119.226562 163.3125 119.230469 163.277344 119.257812 C 163.230469 119.296875 163.222656 119.367188 163.257812 119.414062 C 163.453125 119.652344 163.761719 119.8125 164.0625 119.863281 C 164.363281 119.929688 164.648438 119.933594 164.914062 119.953125 C 164.941406 119.957031 164.96875 119.953125 164.996094 119.945312 C 165.121094 119.914062 165.195312 119.785156 165.160156 119.660156 Z M 172.035156 84.214844 C 172.046875 84.164062 172.015625 84.117188 171.964844 84.105469 C 171.253906 83.949219 170.496094 84.035156 169.804688 84.273438 C 169.109375 84.511719 168.480469 84.910156 167.925781 85.390625 C 167.390625 85.882812 166.929688 86.449219 166.542969 87.058594 C 166.160156 87.664062 165.84375 88.300781 165.574219 88.957031 C 165.554688 89.007812 165.570312 89.0625 165.617188 89.09375 C 165.667969 89.125 165.734375 89.109375 165.765625 89.054688 C 166.136719 88.457031 166.492188 87.855469 166.898438 87.292969 C 167.300781 86.730469 167.734375 86.195312 168.246094 85.746094 C 168.742188 85.28125 169.324219 84.914062 169.949219 84.652344 C 170.574219 84.390625 171.253906 84.253906 171.941406 84.289062 C 171.984375 84.289062 172.027344 84.261719 172.035156 84.214844 Z M 163.671875 115.257812 C 163.71875 115.234375 163.734375 115.179688 163.707031 115.132812 C 162.625 113.1875 161.800781 111.109375 161.238281 108.964844 C 160.6875 106.816406 160.390625 104.605469 160.414062 102.390625 C 160.414062 100.175781 160.726562 97.96875 161.300781 95.828125 C 161.878906 93.691406 162.726562 91.617188 163.828125 89.683594 C 163.855469 89.632812 163.839844 89.570312 163.789062 89.539062 C 163.738281 89.503906 163.671875 89.519531 163.640625 89.574219 C 162.441406 91.472656 161.515625 93.546875 160.890625 95.714844 C 160.265625 97.878906 159.949219 100.132812 159.933594 102.386719 C 159.9375 104.644531 160.238281 106.902344 160.847656 109.070312 C 161.457031 111.238281 162.367188 113.320312 163.550781 115.226562 C 163.578125 115.269531 163.632812 115.28125 163.671875 115.257812 Z M 107.902344 118.730469 C 107.644531 117.730469 107.382812 116.726562 107.09375 115.730469 C 107.082031 115.683594 107.035156 115.65625 106.988281 115.664062 C 106.9375 115.671875 106.902344 115.71875 106.914062 115.769531 C 107.089844 116.792969 107.296875 117.808594 107.507812 118.824219 C 107.71875 119.839844 107.953125 120.851562 108.175781 121.863281 L 108.902344 124.882812 C 109.160156 125.890625 109.417969 126.890625 109.707031 127.886719 C 109.722656 127.941406 109.773438 127.976562 109.828125 127.964844 C 109.890625 127.957031 109.929688 127.898438 109.917969 127.839844 C 109.742188 126.820312 109.53125 125.800781 109.316406 124.785156 L 108.640625 121.753906 C 108.394531 120.746094 108.160156 119.738281 107.902344 118.730469 Z M 110.605469 84.253906 C 110.558594 84.242188 110.503906 84.265625 110.488281 84.3125 C 109.730469 86.511719 108.984375 88.714844 108.324219 90.945312 C 108.148438 91.527344 107.984375 92.109375 107.824219 92.695312 C 107.722656 92.164062 107.621094 91.636719 107.535156 91.105469 C 107.441406 90.523438 107.359375 89.941406 107.296875 89.355469 C 107.234375 88.773438 107.191406 88.1875 107.15625 87.597656 C 107.125 87.011719 107.113281 86.417969 107.101562 85.824219 C 107.097656 85.78125 107.070312 85.742188 107.023438 85.734375 C 106.976562 85.726562 106.925781 85.757812 106.917969 85.808594 C 106.8125 86.402344 106.765625 87.003906 106.75 87.601562 C 106.734375 88.207031 106.761719 88.808594 106.820312 89.40625 C 106.886719 90.007812 106.976562 90.601562 107.117188 91.1875 C 107.253906 91.773438 107.421875 92.351562 107.644531 92.910156 C 107.664062 92.953125 107.707031 92.976562 107.75 92.976562 C 107.332031 94.546875 106.957031 96.132812 106.648438 97.734375 C 106.230469 100.03125 105.949219 102.359375 105.910156 104.699219 C 105.863281 107.035156 106.0625 109.382812 106.566406 111.664062 C 106.578125 111.71875 106.632812 111.757812 106.691406 111.746094 C 106.75 111.738281 106.792969 111.679688 106.78125 111.621094 C 106.378906 109.339844 106.257812 107.019531 106.335938 104.710938 C 106.414062 102.398438 106.691406 100.097656 107.121094 97.824219 C 107.53125 95.546875 108.097656 93.296875 108.714844 91.058594 C 109.332031 88.824219 110.003906 86.597656 110.664062 84.371094 C 110.679688 84.324219 110.652344 84.273438 110.605469 84.253906 Z M 137.277344 60.414062 C 137.574219 60.503906 137.789062 60.726562 137.9375 60.980469 C 138.082031 61.238281 138.15625 61.539062 138.210938 61.859375 C 138.269531 62.183594 138.300781 62.527344 138.410156 62.875 C 138.515625 63.214844 138.6875 63.574219 138.996094 63.796875 C 139.03125 63.824219 139.082031 63.828125 139.121094 63.800781 C 139.171875 63.765625 139.183594 63.695312 139.152344 63.644531 L 139.148438 63.644531 C 138.96875 63.382812 138.878906 63.085938 138.820312 62.773438 L 138.683594 61.777344 C 138.617188 61.4375 138.515625 61.058594 138.273438 60.753906 C 138.046875 60.453125 137.683594 60.207031 137.292969 60.234375 C 137.253906 60.234375 137.222656 60.257812 137.210938 60.296875 C 137.195312 60.347656 137.222656 60.398438 137.273438 60.414062 Z M 136.148438 61.894531 C 136.109375 61.90625 136.082031 61.945312 136.085938 61.988281 C 136.085938 62.039062 136.128906 62.078125 136.179688 62.074219 L 136.183594 62.074219 C 136.597656 62.054688 136.976562 62.277344 137.230469 62.582031 C 137.480469 62.886719 137.628906 63.285156 137.726562 63.703125 C 137.832031 64.121094 137.917969 64.574219 138.03125 65.003906 C 138.140625 65.441406 138.257812 65.878906 138.402344 66.308594 C 138.417969 66.355469 138.464844 66.386719 138.515625 66.382812 C 138.574219 66.378906 138.621094 66.324219 138.617188 66.261719 C 138.582031 65.8125 138.515625 65.367188 138.449219 64.921875 C 138.378906 64.472656 138.304688 64.039062 138.191406 63.585938 C 138.074219 63.136719 137.894531 62.660156 137.523438 62.304688 C 137.175781 61.957031 136.636719 61.738281 136.148438 61.894531 Z M 135.296875 64.019531 C 135.265625 64.035156 135.242188 64.066406 135.242188 64.101562 C 135.238281 64.152344 135.277344 64.195312 135.328125 64.199219 L 135.335938 64.199219 C 135.78125 64.222656 136.121094 64.53125 136.316406 64.890625 C 136.421875 65.074219 136.488281 65.289062 136.546875 65.511719 C 136.609375 65.734375 136.652344 65.972656 136.730469 66.214844 C 136.742188 66.257812 136.773438 66.285156 136.816406 66.292969 C 136.878906 66.304688 136.9375 66.261719 136.945312 66.203125 C 136.984375 65.953125 136.992188 65.699219 136.96875 65.4375 C 136.945312 65.175781 136.875 64.90625 136.738281 64.660156 C 136.597656 64.410156 136.390625 64.195312 136.128906 64.070312 C 135.875 63.941406 135.554688 63.898438 135.296875 64.019531 Z M 134.035156 65.253906 C 133.996094 65.257812 133.960938 65.285156 133.949219 65.320312 C 133.933594 65.371094 133.960938 65.421875 134.011719 65.4375 C 134.613281 65.640625 135.007812 66.164062 135.203125 66.734375 C 135.304688 67.023438 135.355469 67.335938 135.398438 67.65625 L 135.503906 68.648438 C 135.507812 68.695312 135.542969 68.734375 135.589844 68.746094 C 135.648438 68.757812 135.707031 68.71875 135.71875 68.660156 L 135.71875 68.65625 C 135.789062 68.324219 135.824219 67.980469 135.824219 67.632812 C 135.828125 67.28125 135.777344 66.921875 135.65625 66.578125 C 135.53125 66.226562 135.328125 65.90625 135.046875 65.660156 C 134.769531 65.417969 134.402344 65.242188 134.035156 65.253906 Z M 132.679688 66.457031 C 132.640625 66.464844 132.609375 66.5 132.605469 66.542969 C 132.601562 66.59375 132.640625 66.636719 132.691406 66.640625 L 132.695312 66.640625 C 133.097656 66.671875 133.417969 66.96875 133.597656 67.3125 C 133.785156 67.664062 133.90625 68.09375 134.042969 68.507812 L 134.433594 69.765625 C 134.566406 70.1875 134.683594 70.609375 134.824219 71.03125 C 134.839844 71.074219 134.882812 71.109375 134.933594 71.105469 C 134.996094 71.105469 135.042969 71.050781 135.039062 70.992188 C 135.011719 70.542969 134.9375 70.097656 134.847656 69.65625 C 134.761719 69.21875 134.636719 68.785156 134.5 68.359375 C 134.347656 67.941406 134.222656 67.507812 133.945312 67.097656 C 133.679688 66.695312 133.191406 66.359375 132.679688 66.457031 Z M 139.921875 69.230469 C 139.945312 68.402344 139.882812 67.570312 139.703125 66.765625 C 139.695312 66.722656 139.652344 66.691406 139.605469 66.695312 C 139.554688 66.699219 139.515625 66.742188 139.519531 66.792969 C 139.582031 67.601562 139.585938 68.40625 139.515625 69.207031 C 139.449219 70.003906 139.324219 70.800781 139.109375 71.570312 C 138.921875 72.347656 138.644531 73.101562 138.316406 73.832031 C 137.992188 74.5625 137.59375 75.265625 137.152344 75.945312 C 137.125 75.988281 137.132812 76.050781 137.171875 76.085938 C 137.21875 76.125 137.285156 76.121094 137.328125 76.074219 C 137.871094 75.453125 138.324219 74.753906 138.703125 74.019531 C 139.078125 73.277344 139.359375 72.492188 139.578125 71.691406 C 139.769531 70.882812 139.898438 70.058594 139.921875 69.230469 Z M 121.171875 70.066406 C 121.429688 69.949219 121.714844 69.871094 122 69.792969 C 122.046875 69.78125 122.074219 69.734375 122.066406 69.6875 C 122.058594 69.640625 122.011719 69.605469 121.960938 69.613281 C 121.667969 69.660156 121.367188 69.714844 121.074219 69.828125 C 120.785156 69.9375 120.472656 70.121094 120.316406 70.449219 C 120.160156 70.777344 120.203125 71.128906 120.257812 71.429688 C 120.316406 71.738281 120.410156 72.023438 120.46875 72.304688 C 120.730469 73.429688 120.632812 74.597656 120.378906 75.746094 C 120.148438 76.894531 119.800781 78.066406 119.765625 79.292969 C 119.753906 79.902344 119.796875 80.519531 119.945312 81.117188 C 120.101562 81.710938 120.335938 82.28125 120.664062 82.792969 C 120.695312 82.839844 120.757812 82.855469 120.808594 82.832031 C 120.863281 82.800781 120.882812 82.738281 120.855469 82.683594 C 120.316406 81.640625 120.109375 80.46875 120.191406 79.3125 C 120.261719 78.152344 120.59375 77.023438 120.847656 75.84375 C 121.082031 74.667969 121.199219 73.398438 120.863281 72.207031 C 120.785156 71.90625 120.679688 71.628906 120.617188 71.351562 C 120.546875 71.078125 120.515625 70.804688 120.609375 70.578125 C 120.695312 70.355469 120.917969 70.183594 121.171875 70.066406 Z M 122.03125 61.761719 C 122.191406 61.8125 122.359375 61.828125 122.539062 61.847656 C 122.714844 61.875 122.890625 61.867188 123.066406 61.871094 C 123.765625 61.871094 124.4375 61.632812 125 61.214844 C 125.476562 60.867188 125.859375 60.402344 126.265625 59.933594 C 125.871094 60.011719 125.476562 60.078125 125.078125 60.125 C 124.355469 60.210938 123.628906 60.242188 122.902344 60.238281 C 122.179688 60.214844 121.453125 60.167969 120.738281 60.054688 C 120.4375 60.011719 120.140625 59.953125 119.847656 59.890625 C 120.039062 60.515625 120.515625 61.003906 121.066406 61.339844 C 121.371094 61.511719 121.695312 61.667969 122.03125 61.761719 Z M 122.484375 62.304688 C 122.296875 62.28125 122.09375 62.257812 121.902344 62.191406 C 121.523438 62.074219 121.167969 61.898438 120.847656 61.675781 C 120.527344 61.449219 120.238281 61.179688 120.011719 60.855469 C 119.8125 60.550781 119.667969 60.203125 119.632812 59.847656 C 119.289062 59.769531 118.953125 59.679688 118.621094 59.574219 C 118.574219 59.5625 118.546875 59.507812 118.558594 59.460938 C 118.574219 59.417969 118.617188 59.390625 118.660156 59.394531 C 119.371094 59.5 120.074219 59.59375 120.785156 59.652344 C 121.492188 59.714844 122.199219 59.761719 122.910156 59.757812 C 123.617188 59.777344 124.328125 59.75 125.039062 59.703125 C 125.746094 59.660156 126.453125 59.582031 127.164062 59.5 C 127.222656 59.492188 127.277344 59.535156 127.285156 59.59375 C 127.292969 59.648438 127.257812 59.699219 127.207031 59.714844 C 127.019531 59.765625 126.832031 59.800781 126.644531 59.84375 C 126.457031 60.128906 126.265625 60.421875 126.054688 60.707031 C 125.824219 61.007812 125.566406 61.296875 125.265625 61.550781 C 124.660156 62.050781 123.863281 62.34375 123.074219 62.347656 C 122.875 62.339844 122.679688 62.339844 122.484375 62.304688 Z M 119.144531 53.371094 L 119.34375 51.269531 C 119.347656 51.226562 119.320312 51.179688 119.277344 51.171875 C 119.226562 51.160156 119.175781 51.1875 119.164062 51.238281 C 118.988281 51.925781 118.855469 52.621094 118.742188 53.316406 C 118.625 54.015625 118.550781 54.71875 118.472656 55.425781 C 118.453125 55.777344 118.398438 56.125 118.441406 56.523438 C 118.46875 56.925781 118.730469 57.359375 119.09375 57.542969 C 119.445312 57.746094 119.859375 57.804688 120.230469 57.769531 C 120.605469 57.726562 120.953125 57.621094 121.289062 57.503906 C 121.335938 57.484375 121.371094 57.433594 121.359375 57.378906 C 121.347656 57.320312 121.292969 57.28125 121.230469 57.292969 C 120.550781 57.421875 119.832031 57.53125 119.320312 57.183594 C 119.070312 57.007812 118.921875 56.78125 118.898438 56.472656 C 118.867188 56.171875 118.925781 55.816406 118.949219 55.464844 C 119 54.769531 119.078125 54.070312 119.144531 53.371094 Z M 111.714844 46.234375 C 111.90625 45.882812 112.117188 45.558594 112.367188 45.265625 C 112.617188 44.976562 112.890625 44.707031 113.191406 44.476562 C 113.492188 44.242188 113.820312 44.046875 114.164062 43.875 C 114.507812 43.710938 114.875 43.585938 115.257812 43.488281 C 115.304688 43.476562 115.339844 43.433594 115.339844 43.386719 C 115.339844 43.324219 115.292969 43.273438 115.234375 43.273438 C 114.816406 43.257812 114.394531 43.339844 114 43.484375 C 113.601562 43.621094 113.230469 43.839844 112.894531 44.097656 C 112.566406 44.359375 112.269531 44.671875 112.042969 45.023438 C 111.808594 45.375 111.628906 45.761719 111.542969 46.167969 C 111.535156 46.207031 111.554688 46.25 111.589844 46.269531 C 111.636719 46.292969 111.691406 46.277344 111.714844 46.234375 Z M 126.734375 43.574219 C 127.339844 43.738281 127.921875 43.964844 128.449219 44.292969 C 128.988281 44.601562 129.46875 45.003906 129.898438 45.457031 C 130.328125 45.90625 130.691406 46.425781 130.996094 46.980469 C 131.023438 47.023438 131.078125 47.046875 131.128906 47.03125 C 131.1875 47.011719 131.21875 46.949219 131.195312 46.894531 C 130.984375 46.265625 130.644531 45.6875 130.214844 45.171875 C 129.789062 44.660156 129.265625 44.230469 128.695312 43.878906 C 128.109375 43.550781 127.480469 43.304688 126.824219 43.179688 C 126.171875 43.058594 125.496094 43.039062 124.847656 43.15625 C 124.804688 43.164062 124.773438 43.203125 124.773438 43.246094 C 124.773438 43.296875 124.8125 43.339844 124.863281 43.339844 C 125.5 43.339844 126.128906 43.417969 126.734375 43.574219 Z M 116.226562 51.230469 C 116.476562 51.203125 116.722656 51.148438 116.96875 51.109375 C 117.210938 51.050781 117.453125 50.992188 117.695312 50.925781 C 117.734375 50.914062 117.761719 50.875 117.761719 50.832031 C 117.757812 50.78125 117.714844 50.742188 117.664062 50.746094 L 117.660156 50.746094 C 117.167969 50.769531 116.683594 50.8125 116.195312 50.824219 C 115.707031 50.839844 115.222656 50.84375 114.738281 50.828125 C 114.257812 50.8125 113.777344 50.773438 113.292969 50.722656 C 112.816406 50.664062 112.332031 50.582031 111.871094 50.46875 L 111.863281 50.464844 C 111.8125 50.453125 111.761719 50.476562 111.738281 50.523438 C 111.710938 50.574219 111.730469 50.640625 111.785156 50.667969 C 112.246094 50.90625 112.734375 51.035156 113.226562 51.140625 C 113.71875 51.242188 114.222656 51.289062 114.726562 51.308594 C 115.226562 51.316406 115.730469 51.300781 116.226562 51.230469 Z M 123.613281 49.96875 C 123.566406 49.945312 123.511719 49.957031 123.476562 49.996094 C 123.4375 50.042969 123.445312 50.113281 123.492188 50.148438 C 123.96875 50.535156 124.511719 50.78125 125.082031 50.972656 C 125.648438 51.160156 126.242188 51.261719 126.839844 51.300781 C 127.433594 51.320312 128.035156 51.300781 128.617188 51.179688 C 128.910156 51.140625 129.191406 51.046875 129.480469 50.980469 C 129.761719 50.890625 130.039062 50.789062 130.308594 50.683594 C 130.351562 50.664062 130.375 50.625 130.367188 50.578125 C 130.355469 50.53125 130.308594 50.496094 130.257812 50.503906 L 130.253906 50.507812 C 129.683594 50.613281 129.125 50.730469 128.558594 50.78125 C 127.992188 50.839844 127.429688 50.84375 126.863281 50.820312 C 126.304688 50.785156 125.746094 50.695312 125.199219 50.5625 C 124.65625 50.425781 124.113281 50.230469 123.621094 49.972656 Z M 111.828125 67.8125 C 110.457031 67.8125 109.34375 66.695312 109.34375 65.324219 C 109.34375 63.953125 110.457031 62.839844 111.828125 62.839844 C 113.203125 62.839844 114.316406 63.953125 114.316406 65.324219 C 114.316406 66.695312 113.203125 67.8125 111.828125 67.8125 "/>
</g>
</g>
</svg>
