<?xml version="1.0" encoding="UTF-8"?>
<svg xmlns="http://www.w3.org/2000/svg" xmlns:xlink="http://www.w3.org/1999/xlink" width="224.87999pt" height="225pt" viewBox="0 0 224.87999 225" version="1.2">
<defs>
<clipPath id="clip1">
  <path d="M 29 0.0585938 L 156 0.0585938 L 156 224.9375 L 29 224.9375 Z M 29 0.0585938 "/>
</clipPath>
<clipPath id="clip2">
  <path d="M 60.0625 42.21875 L 196.160156 42.21875 L 196.160156 103.503906 L 60.0625 103.503906 Z M 60.0625 42.21875 "/>
</clipPath>
<clipPath id="clip3">
  <path d="M 60.0625 127.132812 L 196.160156 127.132812 L 196.160156 188.417969 L 60.0625 188.417969 Z M 60.0625 127.132812 "/>
</clipPath>
</defs>
<g id="surface1">
<path style=" stroke:none;fill-rule:nonzero;fill:rgb(54.508972%,42.749023%,92.939758%);fill-opacity:1;" d="M 138.367188 2.851562 L 45.703125 2.851562 C 38.046875 2.851562 31.816406 9.074219 31.816406 16.722656 L 31.816406 208.277344 C 31.816406 215.925781 38.046875 222.148438 45.703125 222.148438 L 138.367188 222.148438 C 146.023438 222.148438 152.257812 215.925781 152.257812 208.277344 L 152.257812 188.390625 L 145.054688 188.390625 L 145.054688 205.625 C 145.054688 210.019531 141.488281 213.59375 137.101562 213.59375 L 46.96875 213.59375 C 42.582031 213.59375 39.015625 210.019531 39.015625 205.625 L 39.015625 18.445312 C 39.015625 16.316406 39.839844 14.316406 41.34375 12.8125 C 42.84375 11.304688 44.839844 10.476562 46.964844 10.476562 C 46.964844 10.476562 46.96875 10.476562 46.96875 10.476562 L 65.585938 10.480469 C 67.171875 10.480469 68.585938 11.429688 69.1875 12.898438 L 70.8125 16.878906 C 71.882812 19.496094 74.351562 20.710938 78.582031 20.710938 L 104.222656 20.710938 C 108.449219 20.710938 110.917969 19.496094 111.988281 16.878906 L 113.617188 12.902344 C 113.617188 12.898438 113.617188 12.898438 113.617188 12.898438 C 114.21875 11.429688 115.628906 10.480469 117.214844 10.480469 L 137.101562 10.476562 L 137.105469 10.476562 C 139.230469 10.476562 141.226562 11.304688 142.730469 12.8125 C 144.230469 14.316406 145.054688 16.316406 145.054688 18.445312 L 145.054688 42.253906 L 152.257812 42.253906 L 152.257812 16.722656 C 152.257812 9.074219 146.023438 2.851562 138.367188 2.851562 "/>
<path style=" stroke:none;fill-rule:nonzero;fill:rgb(54.508972%,42.749023%,92.939758%);fill-opacity:1;" d="M 152.253906 127.144531 L 152.253906 103.503906 L 145.054688 103.503906 L 145.054688 127.144531 L 152.253906 127.144531 "/>
<g clip-path="url(#clip1)" clip-rule="nonzero">
<path style=" stroke:none;fill-rule:nonzero;fill:rgb(10.198975%,9.408569%,38.038635%);fill-opacity:1;" d="M 152.257812 188.390625 L 152.257812 208.277344 C 152.257812 215.925781 146.023438 222.148438 138.367188 222.148438 L 45.703125 222.148438 C 38.046875 222.148438 31.816406 215.925781 31.816406 208.277344 L 31.816406 16.726562 C 31.816406 9.074219 38.046875 2.851562 45.703125 2.851562 L 138.367188 2.851562 C 146.023438 2.851562 152.257812 9.074219 152.257812 16.726562 L 152.257812 42.253906 L 155.054688 42.253906 L 155.054688 16.726562 C 155.054688 7.535156 147.566406 0.0585938 138.367188 0.0585938 L 45.703125 0.0585938 C 36.503906 0.0585938 29.015625 7.535156 29.015625 16.726562 L 29.015625 208.277344 C 29.015625 217.464844 36.503906 224.941406 45.703125 224.941406 L 138.367188 224.941406 C 147.566406 224.941406 155.054688 217.464844 155.054688 208.277344 L 155.054688 188.390625 L 152.257812 188.390625 "/>
</g>
<path style=" stroke:none;fill-rule:nonzero;fill:rgb(10.198975%,9.408569%,38.038635%);fill-opacity:1;" d="M 152.253906 103.503906 L 152.253906 127.144531 L 155.054688 127.144531 L 155.054688 103.503906 L 152.253906 103.503906 "/>
<path style=" stroke:none;fill-rule:nonzero;fill:rgb(100%,100%,100%);fill-opacity:1;" d="M 140.742188 14.777344 C 139.769531 13.800781 138.476562 13.265625 137.105469 13.265625 L 137.101562 13.265625 L 117.21875 13.269531 C 116.773438 13.269531 116.378906 13.539062 116.207031 13.953125 L 114.582031 17.929688 C 113.046875 21.679688 109.660156 23.5 104.222656 23.5 L 78.582031 23.5 C 73.21875 23.5 69.734375 21.625 68.222656 17.933594 L 66.597656 13.953125 C 66.425781 13.539062 66.027344 13.269531 65.582031 13.269531 L 46.96875 13.265625 C 46.964844 13.265625 46.964844 13.265625 46.964844 13.265625 C 45.589844 13.265625 44.300781 13.800781 43.328125 14.777344 C 42.351562 15.757812 41.816406 17.058594 41.816406 18.445312 L 41.816406 205.625 C 41.816406 208.480469 44.125 210.804688 46.96875 210.804688 L 137.101562 210.804688 C 139.945312 210.804688 142.253906 208.480469 142.253906 205.625 L 142.253906 188.390625 L 79.5625 188.390625 C 75.355469 188.390625 72.058594 185.921875 72.058594 182.765625 L 72.058594 163.703125 L 60.617188 154.515625 C 60.15625 154.144531 59.980469 153.523438 60.175781 152.964844 C 60.375 152.410156 60.902344 152.035156 61.496094 152.035156 L 72.058594 152.035156 L 72.058594 133.789062 C 72.058594 130.714844 75.339844 127.144531 79.5625 127.144531 L 142.253906 127.144531 L 142.253906 103.503906 L 79.5625 103.503906 C 75.355469 103.503906 72.058594 101.03125 72.058594 97.875 L 72.058594 78.8125 L 60.617188 69.625 C 60.15625 69.253906 59.980469 68.632812 60.175781 68.074219 C 60.375 67.519531 60.902344 67.144531 61.496094 67.144531 L 72.058594 67.144531 L 72.058594 48.894531 C 72.058594 45.824219 75.339844 42.253906 79.5625 42.253906 L 142.253906 42.253906 L 142.253906 18.445312 C 142.253906 17.058594 141.71875 15.757812 140.742188 14.777344 "/>
<path style=" stroke:none;fill-rule:nonzero;fill:rgb(10.198975%,9.408569%,38.038635%);fill-opacity:1;" d="M 142.730469 12.8125 C 141.226562 11.304688 139.230469 10.476562 137.105469 10.476562 L 137.101562 10.476562 L 117.214844 10.480469 C 115.628906 10.480469 114.21875 11.433594 113.617188 12.898438 C 113.617188 12.898438 113.617188 12.898438 113.617188 12.902344 L 111.988281 16.878906 C 110.917969 19.492188 108.449219 20.710938 104.222656 20.710938 L 78.582031 20.710938 C 74.351562 20.710938 71.882812 19.492188 70.8125 16.878906 L 69.1875 12.898438 C 68.585938 11.433594 67.171875 10.480469 65.585938 10.480469 L 46.96875 10.476562 C 46.96875 10.476562 46.964844 10.476562 46.964844 10.476562 C 44.839844 10.476562 42.84375 11.304688 41.34375 12.8125 C 39.839844 14.316406 39.015625 16.316406 39.015625 18.441406 L 39.015625 205.625 C 39.015625 210.019531 42.582031 213.59375 46.96875 213.59375 L 137.101562 213.59375 C 141.488281 213.59375 145.054688 210.019531 145.054688 205.625 L 145.054688 188.390625 L 142.257812 188.390625 L 142.257812 205.625 C 142.257812 208.480469 139.945312 210.804688 137.101562 210.804688 L 46.96875 210.804688 C 44.125 210.804688 41.816406 208.480469 41.816406 205.625 L 41.816406 18.441406 C 41.816406 17.058594 42.351562 15.757812 43.328125 14.777344 C 44.300781 13.800781 45.589844 13.265625 46.964844 13.265625 C 46.964844 13.265625 46.964844 13.265625 46.96875 13.265625 L 65.582031 13.269531 C 66.027344 13.269531 66.425781 13.539062 66.597656 13.953125 L 68.222656 17.929688 C 69.734375 21.628906 73.21875 23.5 78.582031 23.5 L 104.222656 23.5 C 109.660156 23.5 113.046875 21.679688 114.582031 17.929688 L 116.207031 13.953125 C 116.378906 13.539062 116.773438 13.269531 117.21875 13.269531 L 137.101562 13.265625 L 137.105469 13.265625 C 138.476562 13.265625 139.769531 13.800781 140.742188 14.777344 C 141.71875 15.757812 142.257812 17.058594 142.257812 18.445312 L 142.257812 42.253906 L 145.054688 42.253906 L 145.054688 18.445312 C 145.054688 16.316406 144.230469 14.316406 142.730469 12.8125 "/>
<path style=" stroke:none;fill-rule:nonzero;fill:rgb(10.198975%,9.408569%,38.038635%);fill-opacity:1;" d="M 145.054688 127.144531 L 145.054688 103.503906 L 142.257812 103.503906 L 142.257812 127.144531 L 145.054688 127.144531 "/>
<path style=" stroke:none;fill-rule:nonzero;fill:rgb(100%,100%,100%);fill-opacity:1;" d="M 165.53125 59.378906 L 163.570312 54.871094 L 161.613281 59.375 C 161.394531 59.898438 160.886719 60.269531 160.296875 60.324219 L 155.390625 60.777344 L 159.085938 64.003906 C 159.535156 64.40625 159.71875 65 159.589844 65.566406 L 158.507812 70.328125 L 162.757812 67.824219 C 163.007812 67.679688 163.285156 67.601562 163.566406 67.601562 C 163.851562 67.601562 164.136719 67.679688 164.390625 67.832031 L 168.632812 70.328125 L 167.550781 65.550781 C 167.417969 65 167.605469 64.40625 168.042969 64.015625 L 171.753906 60.777344 L 166.84375 60.328125 C 166.265625 60.269531 165.761719 59.90625 165.53125 59.378906 "/>
<path style=" stroke:none;fill-rule:nonzero;fill:rgb(38.038635%,92.939758%,88.238525%);fill-opacity:1;" d="M 175.703125 61.039062 L 170.4375 65.632812 L 171.976562 72.417969 C 172.117188 73.035156 171.878906 73.679688 171.363281 74.054688 C 171.082031 74.257812 170.75 74.363281 170.417969 74.363281 C 170.136719 74.363281 169.859375 74.289062 169.609375 74.140625 L 163.570312 70.585938 L 157.535156 74.140625 C 156.984375 74.460938 156.300781 74.429688 155.785156 74.058594 C 155.269531 73.6875 155.027344 73.046875 155.164062 72.425781 L 156.703125 65.632812 L 151.4375 61.039062 C 150.957031 60.621094 150.773438 59.960938 150.96875 59.355469 C 151.164062 58.75 151.703125 58.320312 152.339844 58.257812 L 159.328125 57.613281 L 162.105469 51.222656 C 162.355469 50.640625 162.933594 50.261719 163.570312 50.261719 C 164.207031 50.261719 164.785156 50.636719 165.035156 51.222656 L 167.8125 57.613281 L 174.800781 58.257812 C 175.4375 58.320312 175.976562 58.75 176.171875 59.355469 C 176.367188 59.960938 176.179688 60.621094 175.703125 61.039062 Z M 173.277344 83.402344 L 92.609375 83.402344 C 91.835938 83.402344 91.207031 82.78125 91.207031 82.007812 C 91.207031 81.238281 91.835938 80.613281 92.609375 80.613281 L 173.277344 80.613281 C 174.054688 80.613281 174.679688 81.238281 174.679688 82.007812 C 174.679688 82.78125 174.054688 83.402344 173.277344 83.402344 Z M 163.570312 92.410156 L 92.609375 92.410156 C 91.835938 92.410156 91.207031 91.789062 91.207031 91.015625 C 91.207031 90.246094 91.835938 89.621094 92.609375 89.621094 L 163.570312 89.621094 C 164.34375 89.621094 164.972656 90.246094 164.972656 91.015625 C 164.972656 91.789062 164.34375 92.410156 163.570312 92.410156 Z M 89.746094 59.355469 C 89.941406 58.75 90.480469 58.320312 91.117188 58.257812 L 98.105469 57.613281 L 100.878906 51.222656 C 101.132812 50.640625 101.707031 50.261719 102.34375 50.261719 C 102.984375 50.261719 103.558594 50.636719 103.8125 51.222656 L 106.589844 57.613281 L 113.574219 58.257812 C 114.214844 58.320312 114.75 58.75 114.945312 59.355469 C 115.144531 59.960938 114.957031 60.621094 114.476562 61.039062 L 109.214844 65.632812 L 110.753906 72.417969 C 110.894531 73.035156 110.652344 73.679688 110.136719 74.054688 C 109.855469 74.257812 109.527344 74.363281 109.191406 74.363281 C 108.914062 74.363281 108.636719 74.289062 108.386719 74.140625 L 102.34375 70.585938 L 96.3125 74.140625 C 95.757812 74.460938 95.078125 74.429688 94.5625 74.058594 C 94.046875 73.6875 93.800781 73.046875 93.9375 72.425781 L 95.480469 65.632812 L 90.214844 61.039062 C 89.734375 60.621094 89.550781 59.960938 89.746094 59.355469 Z M 121.605469 59.355469 C 121.800781 58.75 122.339844 58.320312 122.976562 58.257812 L 129.964844 57.613281 L 132.742188 51.222656 C 132.992188 50.640625 133.570312 50.261719 134.207031 50.261719 C 134.84375 50.261719 135.421875 50.640625 135.671875 51.226562 L 138.449219 57.613281 L 145.433594 58.257812 C 146.074219 58.320312 146.613281 58.75 146.808594 59.355469 C 147 59.960938 146.816406 60.621094 146.335938 61.039062 L 141.074219 65.632812 L 142.613281 72.417969 C 142.753906 73.035156 142.511719 73.679688 141.996094 74.054688 C 141.71875 74.257812 141.386719 74.363281 141.054688 74.363281 C 140.773438 74.363281 140.496094 74.289062 140.246094 74.140625 L 134.207031 70.585938 L 128.171875 74.140625 C 127.617188 74.460938 126.925781 74.429688 126.414062 74.054688 C 125.898438 73.679688 125.660156 73.035156 125.800781 72.417969 L 127.339844 65.632812 L 122.074219 61.039062 C 121.59375 60.621094 121.410156 59.960938 121.605469 59.355469 Z M 188.925781 45.042969 L 79.5625 45.042969 C 76.878906 45.042969 74.859375 47.378906 74.859375 48.898438 L 74.859375 68.539062 C 74.859375 69.3125 74.234375 69.933594 73.460938 69.933594 L 65.464844 69.933594 L 74.335938 77.058594 C 74.667969 77.324219 74.859375 77.722656 74.859375 78.144531 L 74.859375 97.875 C 74.859375 99.386719 77.058594 100.710938 79.5625 100.710938 L 188.925781 100.710938 C 191.429688 100.710938 193.628906 99.386719 193.628906 97.875 L 193.628906 48.898438 C 193.628906 47.378906 191.605469 45.042969 188.925781 45.042969 "/>
<path style=" stroke:none;fill-rule:nonzero;fill:rgb(100%,100%,100%);fill-opacity:1;" d="M 98.363281 65.566406 L 97.285156 70.328125 L 101.535156 67.824219 C 101.78125 67.679688 102.0625 67.601562 102.34375 67.601562 C 102.628906 67.601562 102.914062 67.679688 103.167969 67.832031 L 107.410156 70.328125 L 106.324219 65.550781 C 106.195312 65 106.382812 64.40625 106.816406 64.015625 L 110.527344 60.777344 L 105.621094 60.328125 C 105.042969 60.269531 104.539062 59.90625 104.304688 59.378906 L 102.347656 54.871094 L 100.390625 59.375 C 100.167969 59.898438 99.664062 60.269531 99.074219 60.324219 L 94.164062 60.777344 L 97.863281 64.003906 C 98.308594 64.40625 98.496094 65 98.363281 65.566406 "/>
<path style=" stroke:none;fill-rule:nonzero;fill:rgb(100%,100%,100%);fill-opacity:1;" d="M 130.222656 65.566406 L 129.144531 70.328125 L 133.394531 67.824219 C 133.640625 67.679688 133.921875 67.601562 134.203125 67.601562 C 134.488281 67.601562 134.773438 67.679688 135.027344 67.832031 L 139.269531 70.328125 L 138.1875 65.550781 C 138.054688 65 138.242188 64.40625 138.679688 64.015625 L 142.386719 60.777344 L 137.480469 60.328125 C 136.898438 60.269531 136.398438 59.90625 136.164062 59.378906 L 134.207031 54.871094 L 132.25 59.375 C 132.015625 59.90625 131.511719 60.269531 130.933594 60.324219 L 126.027344 60.777344 L 129.722656 64.003906 C 130.167969 64.40625 130.359375 65 130.222656 65.566406 "/>
<g clip-path="url(#clip2)" clip-rule="nonzero">
<path style=" stroke:none;fill-rule:nonzero;fill:rgb(10.198975%,9.408569%,38.038635%);fill-opacity:1;" d="M 193.628906 97.875 C 193.628906 99.386719 191.429688 100.710938 188.925781 100.710938 L 79.5625 100.710938 C 77.058594 100.710938 74.859375 99.386719 74.859375 97.875 L 74.859375 78.144531 C 74.859375 77.722656 74.667969 77.324219 74.335938 77.058594 L 65.464844 69.933594 L 73.460938 69.933594 C 74.234375 69.933594 74.859375 69.3125 74.859375 68.539062 L 74.859375 48.894531 C 74.859375 47.378906 76.878906 45.042969 79.5625 45.042969 L 188.925781 45.042969 C 191.605469 45.042969 193.628906 47.378906 193.628906 48.894531 Z M 188.925781 42.253906 L 79.5625 42.253906 C 75.339844 42.253906 72.0625 45.824219 72.0625 48.894531 L 72.0625 67.144531 L 61.496094 67.144531 C 60.902344 67.144531 60.375 67.519531 60.175781 68.074219 C 59.980469 68.632812 60.15625 69.253906 60.617188 69.625 L 72.0625 78.8125 L 72.0625 97.875 C 72.0625 101.03125 75.355469 103.5 79.5625 103.5 L 188.925781 103.5 C 193.128906 103.5 196.425781 101.03125 196.425781 97.875 L 196.425781 48.894531 C 196.425781 45.824219 193.148438 42.253906 188.925781 42.253906 "/>
</g>
<path style=" stroke:none;fill-rule:nonzero;fill:rgb(10.198975%,9.408569%,38.038635%);fill-opacity:1;" d="M 94.164062 60.777344 L 99.074219 60.324219 C 99.664062 60.269531 100.167969 59.898438 100.390625 59.375 L 102.347656 54.871094 L 104.304688 59.378906 C 104.539062 59.910156 105.042969 60.273438 105.621094 60.328125 L 110.527344 60.777344 L 106.816406 64.015625 C 106.382812 64.40625 106.195312 64.996094 106.324219 65.554688 L 107.410156 70.328125 L 103.167969 67.832031 C 102.914062 67.679688 102.628906 67.601562 102.34375 67.601562 C 102.0625 67.601562 101.78125 67.679688 101.535156 67.824219 L 97.285156 70.328125 L 98.363281 65.566406 C 98.496094 64.996094 98.308594 64.40625 97.863281 64.003906 Z M 93.9375 72.425781 C 93.800781 73.046875 94.046875 73.6875 94.5625 74.058594 C 95.078125 74.429688 95.757812 74.460938 96.3125 74.140625 L 102.34375 70.585938 L 108.386719 74.140625 C 108.636719 74.289062 108.914062 74.363281 109.191406 74.363281 C 109.527344 74.363281 109.855469 74.257812 110.136719 74.054688 C 110.652344 73.679688 110.894531 73.035156 110.753906 72.417969 L 109.214844 65.632812 L 114.476562 61.039062 C 114.957031 60.621094 115.144531 59.960938 114.945312 59.355469 C 114.75 58.75 114.214844 58.320312 113.574219 58.257812 L 106.589844 57.613281 L 103.8125 51.222656 C 103.558594 50.640625 102.984375 50.261719 102.34375 50.261719 C 101.710938 50.261719 101.132812 50.640625 100.878906 51.222656 L 98.105469 57.613281 L 91.117188 58.257812 C 90.480469 58.320312 89.941406 58.75 89.746094 59.355469 C 89.550781 59.960938 89.734375 60.621094 90.214844 61.039062 L 95.480469 65.632812 L 93.9375 72.425781 "/>
<path style=" stroke:none;fill-rule:nonzero;fill:rgb(10.198975%,9.408569%,38.038635%);fill-opacity:1;" d="M 130.933594 60.324219 C 131.511719 60.273438 132.015625 59.910156 132.25 59.375 L 134.207031 54.871094 L 136.164062 59.378906 C 136.398438 59.910156 136.902344 60.273438 137.480469 60.328125 L 142.386719 60.777344 L 138.675781 64.015625 C 138.242188 64.40625 138.054688 64.996094 138.183594 65.554688 L 139.269531 70.328125 L 135.027344 67.832031 C 134.773438 67.679688 134.488281 67.601562 134.203125 67.601562 C 133.921875 67.601562 133.644531 67.679688 133.394531 67.824219 L 129.144531 70.328125 L 130.222656 65.566406 C 130.359375 64.996094 130.167969 64.40625 129.722656 64.003906 L 126.027344 60.777344 Z M 127.339844 65.632812 L 125.800781 72.417969 C 125.660156 73.035156 125.898438 73.679688 126.414062 74.054688 C 126.925781 74.429688 127.617188 74.460938 128.171875 74.140625 L 134.207031 70.585938 L 140.246094 74.140625 C 140.496094 74.289062 140.773438 74.363281 141.050781 74.363281 C 141.386719 74.363281 141.71875 74.257812 141.996094 74.054688 C 142.511719 73.679688 142.753906 73.035156 142.613281 72.417969 L 141.074219 65.632812 L 146.335938 61.039062 C 146.816406 60.621094 147.003906 59.960938 146.804688 59.355469 C 146.613281 58.75 146.074219 58.320312 145.433594 58.257812 L 138.449219 57.613281 L 135.671875 51.222656 C 135.421875 50.640625 134.84375 50.261719 134.207031 50.261719 C 133.570312 50.261719 132.992188 50.640625 132.742188 51.222656 L 129.964844 57.613281 L 122.976562 58.257812 C 122.339844 58.320312 121.800781 58.75 121.605469 59.355469 C 121.410156 59.960938 121.59375 60.621094 122.074219 61.039062 L 127.339844 65.632812 "/>
<path style=" stroke:none;fill-rule:nonzero;fill:rgb(10.198975%,9.408569%,38.038635%);fill-opacity:1;" d="M 168.042969 64.015625 C 167.605469 64.40625 167.417969 64.996094 167.550781 65.554688 L 168.632812 70.328125 L 164.390625 67.832031 C 164.136719 67.679688 163.851562 67.601562 163.570312 67.601562 C 163.285156 67.601562 163.007812 67.679688 162.757812 67.824219 L 158.507812 70.328125 L 159.589844 65.566406 C 159.722656 64.996094 159.535156 64.40625 159.085938 64.003906 L 155.390625 60.777344 L 160.296875 60.324219 C 160.886719 60.269531 161.394531 59.898438 161.613281 59.375 L 163.570312 54.871094 L 165.53125 59.378906 C 165.761719 59.910156 166.265625 60.273438 166.84375 60.328125 L 171.753906 60.777344 Z M 174.800781 58.257812 L 167.8125 57.613281 L 165.035156 51.222656 C 164.785156 50.640625 164.207031 50.261719 163.570312 50.261719 C 162.933594 50.261719 162.355469 50.640625 162.105469 51.222656 L 159.328125 57.613281 L 152.339844 58.257812 C 151.703125 58.320312 151.164062 58.75 150.96875 59.355469 C 150.773438 59.960938 150.957031 60.621094 151.4375 61.039062 L 156.703125 65.632812 L 155.164062 72.425781 C 155.027344 73.046875 155.269531 73.6875 155.785156 74.058594 C 156.300781 74.429688 156.984375 74.460938 157.535156 74.140625 L 163.570312 70.585938 L 169.609375 74.140625 C 169.859375 74.289062 170.136719 74.363281 170.417969 74.363281 C 170.75 74.363281 171.082031 74.257812 171.363281 74.054688 C 171.878906 73.679688 172.117188 73.035156 171.976562 72.417969 L 170.4375 65.632812 L 175.703125 61.039062 C 176.179688 60.621094 176.367188 59.960938 176.171875 59.355469 C 175.976562 58.75 175.4375 58.320312 174.800781 58.257812 "/>
<path style=" stroke:none;fill-rule:nonzero;fill:rgb(10.198975%,9.408569%,38.038635%);fill-opacity:1;" d="M 173.277344 80.613281 L 92.609375 80.613281 C 91.835938 80.613281 91.207031 81.238281 91.207031 82.007812 C 91.207031 82.78125 91.835938 83.402344 92.609375 83.402344 L 173.277344 83.402344 C 174.050781 83.402344 174.679688 82.78125 174.679688 82.007812 C 174.679688 81.238281 174.050781 80.613281 173.277344 80.613281 "/>
<path style=" stroke:none;fill-rule:nonzero;fill:rgb(10.198975%,9.408569%,38.038635%);fill-opacity:1;" d="M 163.570312 89.621094 L 92.609375 89.621094 C 91.835938 89.621094 91.207031 90.246094 91.207031 91.015625 C 91.207031 91.789062 91.835938 92.410156 92.609375 92.410156 L 163.570312 92.410156 C 164.34375 92.410156 164.96875 91.789062 164.96875 91.015625 C 164.96875 90.246094 164.34375 89.621094 163.570312 89.621094 "/>
<path style=" stroke:none;fill-rule:nonzero;fill:rgb(96.859741%,82.348633%,16.468811%);fill-opacity:1;" d="M 173.277344 168.292969 L 92.609375 168.292969 C 91.835938 168.292969 91.207031 167.671875 91.207031 166.898438 C 91.207031 166.128906 91.835938 165.503906 92.609375 165.503906 L 173.277344 165.503906 C 174.054688 165.503906 174.679688 166.128906 174.679688 166.898438 C 174.679688 167.671875 174.054688 168.292969 173.277344 168.292969 Z M 163.570312 177.300781 L 92.609375 177.300781 C 91.835938 177.300781 91.207031 176.679688 91.207031 175.90625 C 91.207031 175.136719 91.835938 174.511719 92.609375 174.511719 L 163.570312 174.511719 C 164.34375 174.511719 164.96875 175.136719 164.96875 175.90625 C 164.96875 176.679688 164.34375 177.300781 163.570312 177.300781 Z M 89.746094 145.636719 C 89.945312 145.035156 90.480469 144.605469 91.117188 144.546875 L 98.105469 143.898438 L 100.878906 137.507812 C 101.132812 136.925781 101.707031 136.546875 102.34375 136.546875 C 102.984375 136.546875 103.558594 136.925781 103.8125 137.507812 L 106.589844 143.898438 L 113.574219 144.542969 C 114.210938 144.605469 114.75 145.035156 114.945312 145.636719 C 115.144531 146.238281 114.960938 146.902344 114.484375 147.320312 L 109.214844 151.917969 L 110.753906 158.707031 C 110.894531 159.324219 110.652344 159.964844 110.140625 160.339844 C 109.859375 160.542969 109.527344 160.648438 109.195312 160.648438 C 108.914062 160.648438 108.636719 160.574219 108.386719 160.429688 L 102.34375 156.871094 L 96.3125 160.425781 C 95.757812 160.746094 95.070312 160.714844 94.5625 160.34375 C 94.046875 159.972656 93.800781 159.332031 93.9375 158.714844 L 95.480469 151.917969 L 90.214844 147.328125 C 89.730469 146.902344 89.550781 146.238281 89.746094 145.636719 Z M 121.605469 145.636719 C 121.804688 145.035156 122.339844 144.605469 122.976562 144.546875 L 129.964844 143.898438 L 132.742188 137.507812 C 132.992188 136.925781 133.570312 136.546875 134.207031 136.546875 C 134.84375 136.546875 135.421875 136.925781 135.671875 137.511719 L 138.449219 143.898438 L 145.433594 144.542969 C 146.070312 144.605469 146.609375 145.035156 146.804688 145.636719 C 147.003906 146.238281 146.820312 146.902344 146.34375 147.320312 L 141.074219 151.917969 L 142.613281 158.707031 C 142.753906 159.324219 142.511719 159.964844 142 160.339844 C 141.71875 160.542969 141.386719 160.648438 141.054688 160.648438 C 140.773438 160.648438 140.496094 160.574219 140.246094 160.429688 L 134.207031 156.871094 L 128.171875 160.425781 C 127.613281 160.746094 126.925781 160.714844 126.414062 160.339844 C 125.898438 159.964844 125.660156 159.324219 125.800781 158.703125 L 127.339844 151.917969 L 122.074219 147.328125 C 121.59375 146.902344 121.410156 146.238281 121.605469 145.636719 Z M 188.921875 129.933594 L 79.5625 129.933594 C 76.878906 129.933594 74.859375 132.269531 74.859375 133.789062 L 74.859375 153.429688 C 74.859375 154.203125 74.234375 154.824219 73.460938 154.824219 L 65.464844 154.824219 L 74.335938 161.949219 C 74.667969 162.214844 74.859375 162.613281 74.859375 163.035156 L 74.859375 182.765625 C 74.859375 184.277344 77.058594 185.601562 79.5625 185.601562 L 188.921875 185.601562 C 191.429688 185.601562 193.625 184.277344 193.625 182.765625 L 193.625 133.789062 C 193.625 132.269531 191.605469 129.933594 188.921875 129.933594 "/>
<path style=" stroke:none;fill-rule:nonzero;fill:rgb(100%,100%,100%);fill-opacity:1;" d="M 98.363281 151.851562 L 97.285156 156.613281 L 101.535156 154.109375 C 101.78125 153.964844 102.0625 153.890625 102.34375 153.890625 C 102.628906 153.890625 102.914062 153.964844 103.167969 154.117188 L 107.410156 156.613281 L 106.324219 151.839844 C 106.195312 151.285156 106.382812 150.691406 106.816406 150.300781 L 110.527344 147.066406 L 105.621094 146.613281 C 105.042969 146.558594 104.539062 146.195312 104.304688 145.664062 L 102.347656 141.15625 L 100.390625 145.660156 C 100.167969 146.183594 99.664062 146.554688 99.074219 146.609375 L 94.164062 147.066406 L 97.863281 150.289062 C 98.308594 150.691406 98.496094 151.285156 98.363281 151.851562 "/>
<path style=" stroke:none;fill-rule:nonzero;fill:rgb(100%,100%,100%);fill-opacity:1;" d="M 130.222656 151.851562 L 129.144531 156.613281 L 133.394531 154.109375 C 133.640625 153.964844 133.921875 153.890625 134.203125 153.890625 C 134.488281 153.890625 134.773438 153.964844 135.027344 154.117188 L 139.269531 156.613281 L 138.183594 151.839844 C 138.054688 151.285156 138.242188 150.691406 138.675781 150.300781 L 142.386719 147.066406 L 137.480469 146.613281 C 136.898438 146.558594 136.398438 146.195312 136.164062 145.664062 L 134.207031 141.15625 L 132.25 145.660156 C 132.015625 146.195312 131.511719 146.558594 130.933594 146.609375 L 126.023438 147.066406 L 129.722656 150.289062 C 130.167969 150.691406 130.359375 151.285156 130.222656 151.851562 "/>
<g clip-path="url(#clip3)" clip-rule="nonzero">
<path style=" stroke:none;fill-rule:nonzero;fill:rgb(10.198975%,9.408569%,38.038635%);fill-opacity:1;" d="M 193.628906 182.765625 C 193.628906 184.277344 191.429688 185.601562 188.925781 185.601562 L 79.5625 185.601562 C 77.058594 185.601562 74.859375 184.277344 74.859375 182.765625 L 74.859375 163.035156 C 74.859375 162.613281 74.667969 162.214844 74.335938 161.949219 L 65.464844 154.824219 L 73.460938 154.824219 C 74.234375 154.824219 74.859375 154.203125 74.859375 153.429688 L 74.859375 133.789062 C 74.859375 132.269531 76.878906 129.933594 79.5625 129.933594 L 188.925781 129.933594 C 191.605469 129.933594 193.628906 132.269531 193.628906 133.789062 Z M 152.257812 127.144531 L 79.5625 127.144531 C 75.339844 127.144531 72.058594 130.714844 72.058594 133.789062 L 72.058594 152.035156 L 61.496094 152.035156 C 60.902344 152.035156 60.375 152.410156 60.175781 152.964844 C 59.980469 153.523438 60.15625 154.144531 60.617188 154.515625 L 72.058594 163.703125 L 72.058594 182.765625 C 72.058594 185.921875 75.355469 188.390625 79.5625 188.390625 L 188.925781 188.390625 C 193.128906 188.390625 196.425781 185.921875 196.425781 182.765625 L 196.425781 133.789062 C 196.425781 130.714844 193.148438 127.144531 188.925781 127.144531 L 152.257812 127.144531 "/>
</g>
<path style=" stroke:none;fill-rule:nonzero;fill:rgb(10.198975%,9.408569%,38.038635%);fill-opacity:1;" d="M 94.164062 147.066406 L 99.074219 146.609375 C 99.664062 146.554688 100.167969 146.183594 100.390625 145.660156 L 102.347656 141.15625 L 104.304688 145.664062 C 104.539062 146.195312 105.042969 146.558594 105.621094 146.613281 L 110.527344 147.066406 L 106.816406 150.300781 C 106.382812 150.691406 106.195312 151.285156 106.324219 151.839844 L 107.410156 156.613281 L 103.167969 154.117188 C 102.914062 153.964844 102.628906 153.890625 102.34375 153.890625 C 102.0625 153.890625 101.78125 153.964844 101.535156 154.109375 L 97.285156 156.613281 L 98.363281 151.851562 C 98.496094 151.285156 98.308594 150.691406 97.863281 150.289062 Z M 93.9375 158.714844 C 93.800781 159.332031 94.046875 159.972656 94.5625 160.34375 C 95.070312 160.714844 95.757812 160.746094 96.3125 160.425781 L 102.34375 156.871094 L 108.386719 160.429688 C 108.636719 160.574219 108.914062 160.648438 109.195312 160.648438 C 109.527344 160.648438 109.859375 160.542969 110.140625 160.339844 C 110.652344 159.964844 110.894531 159.324219 110.753906 158.707031 L 109.214844 151.917969 L 114.484375 147.320312 C 114.960938 146.902344 115.144531 146.238281 114.945312 145.636719 C 114.75 145.035156 114.210938 144.605469 113.574219 144.542969 L 106.589844 143.898438 L 103.8125 137.507812 C 103.558594 136.925781 102.984375 136.546875 102.34375 136.546875 C 101.707031 136.546875 101.132812 136.925781 100.878906 137.507812 L 98.105469 143.898438 L 91.117188 144.546875 C 90.480469 144.605469 89.945312 145.035156 89.746094 145.636719 C 89.550781 146.238281 89.730469 146.902344 90.214844 147.328125 L 95.480469 151.917969 L 93.9375 158.714844 "/>
<path style=" stroke:none;fill-rule:nonzero;fill:rgb(10.198975%,9.408569%,38.038635%);fill-opacity:1;" d="M 130.933594 146.609375 C 131.511719 146.558594 132.015625 146.195312 132.25 145.660156 L 134.207031 141.15625 L 136.164062 145.664062 C 136.398438 146.195312 136.902344 146.558594 137.480469 146.613281 L 142.386719 147.066406 L 138.675781 150.300781 C 138.242188 150.691406 138.054688 151.285156 138.183594 151.839844 L 139.265625 156.613281 L 135.027344 154.117188 C 134.773438 153.964844 134.488281 153.890625 134.203125 153.890625 C 133.921875 153.890625 133.644531 153.964844 133.394531 154.109375 L 129.144531 156.613281 L 130.222656 151.851562 C 130.359375 151.285156 130.167969 150.691406 129.722656 150.289062 L 126.023438 147.066406 Z M 127.339844 151.917969 L 125.800781 158.703125 C 125.660156 159.324219 125.898438 159.964844 126.414062 160.339844 C 126.925781 160.714844 127.613281 160.746094 128.171875 160.425781 L 134.207031 156.871094 L 140.246094 160.429688 C 140.496094 160.574219 140.773438 160.648438 141.054688 160.648438 C 141.386719 160.648438 141.71875 160.542969 142 160.339844 C 142.511719 159.964844 142.753906 159.324219 142.613281 158.707031 L 141.074219 151.917969 L 146.34375 147.320312 C 146.820312 146.902344 147 146.238281 146.804688 145.636719 C 146.609375 145.03125 146.070312 144.605469 145.433594 144.542969 L 138.449219 143.898438 L 135.671875 137.511719 C 135.421875 136.925781 134.84375 136.546875 134.207031 136.546875 C 133.566406 136.546875 132.992188 136.925781 132.742188 137.507812 L 129.964844 143.898438 L 122.972656 144.546875 C 122.339844 144.605469 121.804688 145.03125 121.605469 145.636719 C 121.410156 146.238281 121.59375 146.902344 122.074219 147.328125 L 127.339844 151.917969 "/>
<path style=" stroke:none;fill-rule:nonzero;fill:rgb(10.198975%,9.408569%,38.038635%);fill-opacity:1;" d="M 173.277344 165.503906 L 92.609375 165.503906 C 91.835938 165.503906 91.207031 166.128906 91.207031 166.898438 C 91.207031 167.671875 91.835938 168.292969 92.609375 168.292969 L 173.277344 168.292969 C 174.050781 168.292969 174.679688 167.671875 174.679688 166.898438 C 174.679688 166.128906 174.050781 165.503906 173.277344 165.503906 "/>
<path style=" stroke:none;fill-rule:nonzero;fill:rgb(10.198975%,9.408569%,38.038635%);fill-opacity:1;" d="M 163.570312 174.511719 L 92.609375 174.511719 C 91.835938 174.511719 91.207031 175.136719 91.207031 175.90625 C 91.207031 176.679688 91.835938 177.300781 92.609375 177.300781 L 163.570312 177.300781 C 164.34375 177.300781 164.96875 176.679688 164.96875 175.90625 C 164.96875 175.136719 164.34375 174.511719 163.570312 174.511719 "/>
</g>
</svg>
