<?xml version="1.0" encoding="UTF-8"?>
<svg xmlns="http://www.w3.org/2000/svg" xmlns:xlink="http://www.w3.org/1999/xlink" width="224.87999pt" height="225pt" viewBox="0 0 224.87999 225" version="1.2">
<defs>
<clipPath id="clip1">
  <path d="M 1.8125 1.875 L 222.828125 1.875 L 222.828125 222.886719 L 1.8125 222.886719 Z M 1.8125 1.875 "/>
</clipPath>
</defs>
<g id="surface1">
<g clip-path="url(#clip1)" clip-rule="nonzero">
<path style=" stroke:none;fill-rule:nonzero;fill:rgb(21.958923%,16.859436%,45.098877%);fill-opacity:1;" d="M 222.828125 112.382812 C 222.828125 173.414062 173.351562 222.886719 112.320312 222.886719 C 51.289062 222.886719 1.8125 173.414062 1.8125 112.382812 C 1.8125 51.347656 51.289062 1.875 112.320312 1.875 C 173.351562 1.875 222.828125 51.347656 222.828125 112.382812 "/>
</g>
<path style=" stroke:none;fill-rule:nonzero;fill:rgb(27.839661%,18.818665%,50.19989%);fill-opacity:1;" d="M 207.925781 112.382812 C 207.925781 165.183594 165.121094 207.988281 112.320312 207.988281 C 59.519531 207.988281 16.714844 165.183594 16.714844 112.382812 C 16.714844 59.578125 59.519531 16.773438 112.320312 16.773438 C 165.121094 16.773438 207.925781 59.578125 207.925781 112.382812 "/>
<path style=" stroke:none;fill-rule:nonzero;fill:rgb(21.958923%,16.859436%,45.098877%);fill-opacity:1;" d="M 181.070312 150.445312 L 173.519531 142.898438 L 173.519531 68.035156 C 173.519531 64.96875 171.035156 62.480469 167.96875 62.480469 L 56.671875 62.480469 C 56.671875 62.480469 56.671875 62.480469 56.667969 62.480469 L 56.644531 62.480469 C 53.578125 62.480469 51.089844 64.96875 51.089844 68.035156 L 51.089844 137.753906 L 51.121094 137.753906 L 51.121094 144.851562 C 51.121094 145.234375 51.160156 145.609375 51.234375 145.96875 C 51.296875 146.285156 51.390625 146.59375 51.503906 146.886719 C 51.539062 146.972656 51.574219 147.054688 51.609375 147.136719 C 51.832031 147.628906 52.125 148.082031 52.476562 148.484375 C 53.492188 149.660156 54.996094 150.40625 56.671875 150.40625 L 97.472656 150.40625 L 97.472656 168.761719 L 80.621094 168.761719 C 78.871094 168.761719 77.449219 170.148438 77.386719 171.882812 C 77.382812 171.886719 77.382812 171.890625 77.382812 171.894531 C 77.382812 171.929688 77.382812 171.964844 77.382812 172 C 77.382812 172.113281 77.386719 172.222656 77.398438 172.332031 C 77.40625 172.386719 77.410156 172.441406 77.417969 172.492188 C 77.429688 172.546875 77.4375 172.601562 77.449219 172.652344 C 77.457031 172.707031 77.46875 172.757812 77.484375 172.808594 C 77.492188 172.835938 77.496094 172.859375 77.503906 172.886719 C 77.519531 172.9375 77.535156 172.988281 77.550781 173.039062 C 77.601562 173.191406 77.664062 173.335938 77.738281 173.476562 C 77.773438 173.542969 77.8125 173.613281 77.851562 173.679688 C 77.863281 173.703125 77.878906 173.722656 77.894531 173.746094 C 77.921875 173.789062 77.949219 173.832031 77.980469 173.875 C 77.996094 173.898438 78.011719 173.917969 78.027344 173.9375 C 78.085938 174.023438 78.152344 174.101562 78.222656 174.179688 C 78.242188 174.199219 78.257812 174.214844 78.277344 174.234375 C 78.457031 174.421875 78.65625 174.589844 78.875 174.730469 C 78.984375 174.800781 79.097656 174.863281 79.21875 174.921875 C 79.3125 174.964844 79.410156 175.007812 79.507812 175.042969 C 79.855469 175.167969 80.230469 175.238281 80.621094 175.238281 L 144.019531 175.238281 C 144.410156 175.238281 144.785156 175.167969 145.132812 175.042969 C 145.234375 175.007812 145.328125 174.964844 145.425781 174.921875 C 145.542969 174.863281 145.65625 174.800781 145.765625 174.730469 C 145.984375 174.589844 146.1875 174.421875 146.363281 174.234375 C 146.382812 174.214844 146.398438 174.199219 146.417969 174.179688 C 146.488281 174.101562 146.554688 174.023438 146.617188 173.9375 C 146.632812 173.917969 146.648438 173.898438 146.660156 173.875 C 146.691406 173.832031 146.71875 173.789062 146.75 173.746094 C 146.761719 173.722656 146.777344 173.703125 146.789062 173.679688 C 146.832031 173.613281 146.867188 173.542969 146.90625 173.476562 C 146.976562 173.335938 147.039062 173.191406 147.089844 173.039062 C 147.105469 172.988281 147.121094 172.9375 147.136719 172.886719 C 147.144531 172.859375 147.148438 172.835938 147.15625 172.808594 C 147.171875 172.757812 147.183594 172.707031 147.195312 172.652344 C 147.203125 172.601562 147.214844 172.546875 147.222656 172.492188 C 147.230469 172.441406 147.238281 172.386719 147.242188 172.332031 C 147.253906 172.222656 147.257812 172.113281 147.257812 172 C 147.257812 171.964844 147.257812 171.929688 147.257812 171.894531 C 147.257812 171.890625 147.257812 171.886719 147.257812 171.882812 C 147.195312 170.148438 145.769531 168.761719 144.019531 168.761719 L 127.167969 168.761719 L 127.167969 150.40625 L 165.320312 150.40625 L 173.214844 158.300781 C 173.261719 158.34375 173.304688 158.386719 173.355469 158.429688 C 173.378906 158.453125 173.402344 158.472656 173.425781 158.492188 C 173.496094 158.554688 173.570312 158.613281 173.644531 158.667969 C 173.695312 158.703125 173.746094 158.738281 173.796875 158.773438 C 173.898438 158.84375 174.003906 158.902344 174.113281 158.960938 C 174.140625 158.972656 174.164062 158.988281 174.191406 159 C 174.246094 159.027344 174.300781 159.054688 174.355469 159.078125 C 174.46875 159.125 174.582031 159.167969 174.691406 159.203125 C 174.808594 159.242188 174.921875 159.273438 175.039062 159.296875 C 175.125 159.316406 175.214844 159.332031 175.300781 159.347656 C 175.476562 159.371094 175.65625 159.382812 175.835938 159.382812 C 176.011719 159.382812 176.1875 159.371094 176.363281 159.347656 C 176.394531 159.339844 176.421875 159.335938 176.453125 159.332031 C 176.621094 159.304688 176.789062 159.261719 176.953125 159.210938 C 176.96875 159.207031 176.984375 159.199219 177 159.195312 C 177.039062 159.183594 177.074219 159.167969 177.113281 159.15625 C 177.132812 159.148438 177.15625 159.140625 177.175781 159.132812 C 177.289062 159.089844 177.402344 159.039062 177.511719 158.980469 C 177.535156 158.96875 177.558594 158.957031 177.582031 158.945312 C 177.894531 158.777344 178.1875 158.5625 178.453125 158.300781 L 181.070312 155.683594 C 182.515625 154.234375 182.515625 151.890625 181.070312 150.445312 "/>
<path style=" stroke:none;fill-rule:nonzero;fill:rgb(100%,100%,100%);fill-opacity:1;" d="M 167.96875 143.925781 L 56.675781 143.925781 C 53.605469 143.925781 51.121094 141.4375 51.121094 138.371094 L 51.121094 61.554688 C 51.121094 58.488281 53.605469 56 56.675781 56 L 167.96875 56 C 171.035156 56 173.523438 58.488281 173.523438 61.554688 L 173.523438 138.371094 C 173.523438 141.4375 171.035156 143.925781 167.96875 143.925781 "/>
<path style=" stroke:none;fill-rule:nonzero;fill:rgb(90.19928%,90.589905%,90.979004%);fill-opacity:1;" d="M 167.96875 141.148438 L 56.675781 141.148438 C 53.605469 141.148438 51.121094 138.664062 51.121094 135.597656 L 51.121094 138.371094 C 51.121094 141.4375 53.605469 143.925781 56.675781 143.925781 L 167.96875 143.925781 C 171.035156 143.925781 173.523438 141.4375 173.523438 138.371094 L 173.523438 135.597656 C 173.523438 138.664062 171.035156 141.148438 167.96875 141.148438 "/>
<path style=" stroke:none;fill-rule:nonzero;fill:rgb(81.959534%,82.749939%,83.139038%);fill-opacity:1;" d="M 127.167969 162.28125 L 97.476562 162.28125 L 97.476562 143.925781 L 127.167969 143.925781 L 127.167969 162.28125 "/>
<path style=" stroke:none;fill-rule:nonzero;fill:rgb(73.728943%,74.508667%,75.289917%);fill-opacity:1;" d="M 127.167969 148.785156 L 97.476562 148.785156 L 97.476562 143.925781 L 127.167969 143.925781 L 127.167969 148.785156 "/>
<path style=" stroke:none;fill-rule:nonzero;fill:rgb(100%,100%,100%);fill-opacity:1;" d="M 144.019531 162.28125 L 80.621094 162.28125 C 78.832031 162.28125 77.382812 163.734375 77.382812 165.519531 C 77.382812 167.308594 78.832031 168.761719 80.621094 168.761719 L 144.019531 168.761719 C 145.808594 168.761719 147.261719 167.308594 147.261719 165.519531 C 147.261719 163.734375 145.808594 162.28125 144.019531 162.28125 "/>
<path style=" stroke:none;fill-rule:nonzero;fill:rgb(90.19928%,90.589905%,90.979004%);fill-opacity:1;" d="M 144.019531 165.519531 L 80.621094 165.519531 C 79.425781 165.519531 78.394531 164.867188 77.832031 163.902344 C 77.554688 164.378906 77.382812 164.929688 77.382812 165.519531 C 77.382812 167.308594 78.832031 168.761719 80.621094 168.761719 L 144.019531 168.761719 C 145.808594 168.761719 147.261719 167.308594 147.261719 165.519531 C 147.261719 164.929688 147.089844 164.378906 146.8125 163.902344 C 146.25 164.867188 145.214844 165.519531 144.019531 165.519531 "/>
<path style=" stroke:none;fill-rule:nonzero;fill:rgb(10.978699%,68.238831%,89.408875%);fill-opacity:1;" d="M 167.941406 56 L 56.644531 56 C 53.578125 56 51.09375 58.488281 51.09375 61.554688 L 51.09375 131.277344 L 173.492188 131.277344 L 173.492188 61.554688 C 173.492188 58.488281 171.007812 56 167.941406 56 "/>
<path style=" stroke:none;fill-rule:nonzero;fill:rgb(90.19928%,90.589905%,90.979004%);fill-opacity:1;" d="M 116.871094 137.988281 L 107.769531 137.988281 C 106.746094 137.988281 105.917969 137.160156 105.917969 136.136719 C 105.917969 135.113281 106.746094 134.285156 107.769531 134.285156 L 116.871094 134.285156 C 117.894531 134.285156 118.722656 135.113281 118.722656 136.136719 C 118.722656 137.160156 117.894531 137.988281 116.871094 137.988281 "/>
<path style=" stroke:none;fill-rule:nonzero;fill:rgb(0%,60.389709%,86.669922%);fill-opacity:1;" d="M 147.328125 124.414062 L 77.242188 124.414062 C 74.804688 124.414062 72.828125 122.4375 72.828125 119.996094 L 72.828125 72.90625 C 72.828125 70.46875 74.804688 68.492188 77.242188 68.492188 L 147.328125 68.492188 C 149.769531 68.492188 151.746094 70.46875 151.746094 72.90625 L 151.746094 119.996094 C 151.746094 122.4375 149.769531 124.414062 147.328125 124.414062 "/>
<path style=" stroke:none;fill-rule:nonzero;fill:rgb(81.959534%,82.749939%,83.139038%);fill-opacity:1;" d="M 147.328125 122.207031 L 77.242188 122.207031 C 74.804688 122.207031 72.828125 120.226562 72.828125 117.789062 L 72.828125 70.699219 C 72.828125 68.257812 74.804688 66.285156 77.242188 66.285156 L 147.328125 66.285156 C 149.769531 66.285156 151.746094 68.257812 151.746094 70.699219 L 151.746094 117.789062 C 151.746094 120.226562 149.769531 122.207031 147.328125 122.207031 "/>
<path style=" stroke:none;fill-rule:nonzero;fill:rgb(100%,100%,100%);fill-opacity:1;" d="M 147.328125 121.101562 L 77.242188 121.101562 C 74.804688 121.101562 72.828125 119.125 72.828125 116.6875 L 72.828125 69.59375 C 72.828125 67.15625 74.804688 65.179688 77.242188 65.179688 L 147.328125 65.179688 C 149.769531 65.179688 151.746094 67.15625 151.746094 69.59375 L 151.746094 116.6875 C 151.746094 119.125 149.769531 121.101562 147.328125 121.101562 "/>
<path style=" stroke:none;fill-rule:nonzero;fill:rgb(99.609375%,87.059021%,22.749329%);fill-opacity:1;" d="M 147.328125 65.179688 L 77.242188 65.179688 C 74.804688 65.179688 72.828125 67.15625 72.828125 69.59375 L 72.828125 77.503906 L 151.746094 77.503906 L 151.746094 69.59375 C 151.746094 67.15625 149.769531 65.179688 147.328125 65.179688 "/>
<path style=" stroke:none;fill-rule:nonzero;fill:rgb(90.589905%,67.83905%,15.289307%);fill-opacity:1;" d="M 134.28125 70.996094 C 134.28125 71.996094 133.472656 72.800781 132.476562 72.800781 C 131.476562 72.800781 130.671875 71.996094 130.671875 70.996094 C 130.671875 70 131.476562 69.191406 132.476562 69.191406 C 133.472656 69.191406 134.28125 70 134.28125 70.996094 "/>
<path style=" stroke:none;fill-rule:nonzero;fill:rgb(100%,100%,100%);fill-opacity:1;" d="M 81.851562 70.996094 C 81.851562 71.996094 81.046875 72.800781 80.046875 72.800781 C 79.050781 72.800781 78.242188 71.996094 78.242188 70.996094 C 78.242188 70 79.050781 69.191406 80.046875 69.191406 C 81.046875 69.191406 81.851562 70 81.851562 70.996094 "/>
<path style=" stroke:none;fill-rule:nonzero;fill:rgb(90.589905%,67.83905%,15.289307%);fill-opacity:1;" d="M 140.902344 70.996094 C 140.902344 71.996094 140.09375 72.800781 139.097656 72.800781 C 138.101562 72.800781 137.292969 71.996094 137.292969 70.996094 C 137.292969 70 138.101562 69.191406 139.097656 69.191406 C 140.09375 69.191406 140.902344 70 140.902344 70.996094 "/>
<path style=" stroke:none;fill-rule:nonzero;fill:rgb(90.589905%,67.83905%,15.289307%);fill-opacity:1;" d="M 147.523438 70.996094 C 147.523438 71.996094 146.71875 72.800781 145.71875 72.800781 C 144.722656 72.800781 143.914062 71.996094 143.914062 70.996094 C 143.914062 70 144.722656 69.191406 145.71875 69.191406 C 146.71875 69.191406 147.523438 70 147.523438 70.996094 "/>
<path style=" stroke:none;fill-rule:nonzero;fill:rgb(90.589905%,67.83905%,15.289307%);fill-opacity:1;" d="M 151.8125 76.03125 L 72.828125 76.03125 L 72.828125 77.503906 L 151.8125 77.503906 L 151.8125 76.03125 "/>
<path style=" stroke:none;fill-rule:nonzero;fill:rgb(81.959534%,82.749939%,83.139038%);fill-opacity:1;" d="M 101.410156 84.398438 L 79.546875 84.398438 C 78.84375 84.398438 78.277344 83.828125 78.277344 83.128906 C 78.277344 82.425781 78.84375 81.855469 79.546875 81.855469 L 101.410156 81.855469 C 102.113281 81.855469 102.683594 82.425781 102.683594 83.128906 C 102.683594 83.828125 102.113281 84.398438 101.410156 84.398438 "/>
<path style=" stroke:none;fill-rule:nonzero;fill:rgb(81.959534%,82.749939%,83.139038%);fill-opacity:1;" d="M 93.296875 89.058594 L 79.515625 89.058594 C 78.8125 89.058594 78.242188 88.488281 78.242188 87.785156 C 78.242188 87.085938 78.8125 86.515625 79.515625 86.515625 L 93.296875 86.515625 C 93.996094 86.515625 94.566406 87.085938 94.566406 87.785156 C 94.566406 88.488281 93.996094 89.058594 93.296875 89.058594 "/>
<path style=" stroke:none;fill-rule:nonzero;fill:rgb(81.959534%,82.749939%,83.139038%);fill-opacity:1;" d="M 101.410156 97.707031 L 79.546875 97.707031 C 78.84375 97.707031 78.277344 97.136719 78.277344 96.4375 C 78.277344 95.734375 78.84375 95.164062 79.546875 95.164062 L 101.410156 95.164062 C 102.113281 95.164062 102.683594 95.734375 102.683594 96.4375 C 102.683594 97.136719 102.113281 97.707031 101.410156 97.707031 "/>
<path style=" stroke:none;fill-rule:nonzero;fill:rgb(81.959534%,82.749939%,83.139038%);fill-opacity:1;" d="M 93.296875 102.367188 L 79.515625 102.367188 C 78.8125 102.367188 78.242188 101.796875 78.242188 101.09375 C 78.242188 100.394531 78.8125 99.824219 79.515625 99.824219 L 93.296875 99.824219 C 94 99.824219 94.566406 100.394531 94.566406 101.09375 C 94.566406 101.796875 94 102.367188 93.296875 102.367188 "/>
<path style=" stroke:none;fill-rule:nonzero;fill:rgb(81.959534%,82.749939%,83.139038%);fill-opacity:1;" d="M 101.410156 111.015625 L 79.546875 111.015625 C 78.84375 111.015625 78.277344 110.449219 78.277344 109.746094 C 78.277344 109.042969 78.84375 108.476562 79.546875 108.476562 L 101.410156 108.476562 C 102.113281 108.476562 102.683594 109.042969 102.683594 109.746094 C 102.683594 110.449219 102.113281 111.015625 101.410156 111.015625 "/>
<path style=" stroke:none;fill-rule:nonzero;fill:rgb(81.959534%,82.749939%,83.139038%);fill-opacity:1;" d="M 93.296875 115.675781 L 79.515625 115.675781 C 78.8125 115.675781 78.242188 115.105469 78.242188 114.40625 C 78.242188 113.703125 78.8125 113.132812 79.515625 113.132812 L 93.296875 113.132812 C 94 113.132812 94.566406 113.703125 94.566406 114.40625 C 94.566406 115.105469 94 115.675781 93.296875 115.675781 "/>
<path style=" stroke:none;fill-rule:nonzero;fill:rgb(81.959534%,82.749939%,83.139038%);fill-opacity:1;" d="M 107.222656 115.675781 L 97.675781 115.675781 C 96.972656 115.675781 96.402344 115.105469 96.402344 114.40625 C 96.402344 113.703125 96.972656 113.132812 97.675781 113.132812 L 107.222656 113.132812 C 107.921875 113.132812 108.492188 113.703125 108.492188 114.40625 C 108.492188 115.105469 107.921875 115.675781 107.222656 115.675781 "/>
<path style=" stroke:none;fill-rule:nonzero;fill:rgb(81.959534%,82.749939%,83.139038%);fill-opacity:1;" d="M 138.714844 84.398438 L 116.847656 84.398438 C 116.148438 84.398438 115.578125 83.828125 115.578125 83.128906 C 115.578125 82.425781 116.148438 81.855469 116.847656 81.855469 L 138.714844 81.855469 C 139.417969 81.855469 139.984375 82.425781 139.984375 83.128906 C 139.984375 83.828125 139.417969 84.398438 138.714844 84.398438 "/>
<path style=" stroke:none;fill-rule:nonzero;fill:rgb(81.959534%,82.749939%,83.139038%);fill-opacity:1;" d="M 130.597656 89.058594 L 116.816406 89.058594 C 116.113281 89.058594 115.546875 88.488281 115.546875 87.785156 C 115.546875 87.085938 116.113281 86.515625 116.816406 86.515625 L 130.597656 86.515625 C 131.300781 86.515625 131.867188 87.085938 131.867188 87.785156 C 131.867188 88.488281 131.300781 89.058594 130.597656 89.058594 "/>
<path style=" stroke:none;fill-rule:nonzero;fill:rgb(81.959534%,82.749939%,83.139038%);fill-opacity:1;" d="M 138.714844 97.707031 L 116.847656 97.707031 C 116.148438 97.707031 115.578125 97.136719 115.578125 96.4375 C 115.578125 95.734375 116.148438 95.164062 116.847656 95.164062 L 138.714844 95.164062 C 139.417969 95.164062 139.984375 95.734375 139.984375 96.4375 C 139.984375 97.136719 139.417969 97.707031 138.714844 97.707031 "/>
<path style=" stroke:none;fill-rule:nonzero;fill:rgb(81.959534%,82.749939%,83.139038%);fill-opacity:1;" d="M 130.597656 102.367188 L 116.816406 102.367188 C 116.113281 102.367188 115.546875 101.796875 115.546875 101.097656 C 115.546875 100.394531 116.113281 99.824219 116.816406 99.824219 L 130.597656 99.824219 C 131.300781 99.824219 131.867188 100.394531 131.867188 101.097656 C 131.867188 101.796875 131.300781 102.367188 130.597656 102.367188 "/>
<path style=" stroke:none;fill-rule:nonzero;fill:rgb(81.959534%,82.749939%,83.139038%);fill-opacity:1;" d="M 138.714844 111.015625 L 116.847656 111.015625 C 116.148438 111.015625 115.578125 110.449219 115.578125 109.746094 C 115.578125 109.042969 116.148438 108.476562 116.847656 108.476562 L 138.714844 108.476562 C 139.417969 108.476562 139.984375 109.042969 139.984375 109.746094 C 139.984375 110.449219 139.417969 111.015625 138.714844 111.015625 "/>
<path style=" stroke:none;fill-rule:nonzero;fill:rgb(81.959534%,82.749939%,83.139038%);fill-opacity:1;" d="M 130.597656 115.675781 L 116.816406 115.675781 C 116.113281 115.675781 115.546875 115.109375 115.546875 114.40625 C 115.546875 113.703125 116.113281 113.136719 116.816406 113.136719 L 130.597656 113.136719 C 131.300781 113.136719 131.867188 113.703125 131.867188 114.40625 C 131.867188 115.109375 131.300781 115.675781 130.597656 115.675781 "/>
<path style=" stroke:none;fill-rule:nonzero;fill:rgb(81.959534%,82.749939%,83.139038%);fill-opacity:1;" d="M 144.523438 115.675781 L 134.976562 115.675781 C 134.277344 115.675781 133.707031 115.109375 133.707031 114.40625 C 133.707031 113.703125 134.277344 113.136719 134.976562 113.136719 L 144.523438 113.136719 C 145.226562 113.136719 145.792969 113.703125 145.792969 114.40625 C 145.792969 115.109375 145.226562 115.675781 144.523438 115.675781 "/>
<path style=" stroke:none;fill-rule:nonzero;fill:rgb(81.959534%,82.749939%,83.139038%);fill-opacity:1;" d="M 165.992188 136.136719 L 161.390625 131.535156 C 161.457031 131.449219 161.519531 131.363281 161.582031 131.277344 L 120.132812 131.277344 C 124.785156 137.679688 132.335938 141.84375 140.855469 141.84375 C 146.59375 141.84375 151.890625 139.957031 156.15625 136.773438 L 160.753906 141.371094 C 160.75 141.398438 160.742188 141.421875 160.734375 141.449219 C 160.707031 141.5625 160.683594 141.679688 160.667969 141.796875 C 160.660156 141.851562 160.652344 141.910156 160.648438 141.964844 C 160.640625 142.058594 160.632812 142.148438 160.632812 142.242188 C 160.628906 142.300781 160.628906 142.359375 160.632812 142.417969 C 160.640625 142.714844 160.679688 143.007812 160.757812 143.296875 C 160.765625 143.324219 160.773438 143.355469 160.78125 143.382812 C 160.835938 143.570312 160.90625 143.75 160.992188 143.925781 L 167.96875 143.925781 C 169.644531 143.925781 171.148438 143.183594 172.167969 142.007812 C 172.515625 141.605469 172.808594 141.148438 173.03125 140.65625 C 173.042969 140.636719 173.050781 140.613281 173.0625 140.589844 L 169.566406 137.09375 C 168.597656 136.125 167.226562 135.804688 165.992188 136.136719 "/>
<path style=" stroke:none;fill-rule:nonzero;fill:rgb(0%,60.389709%,86.669922%);fill-opacity:1;" d="M 151.746094 93.054688 L 151.746094 117.789062 C 151.746094 120.226562 149.769531 122.207031 147.328125 122.207031 L 115.953125 122.207031 C 116.746094 125.527344 118.183594 128.597656 120.132812 131.277344 L 161.582031 131.277344 C 164.652344 127.054688 166.464844 121.859375 166.464844 116.238281 C 166.464844 105.988281 160.441406 97.144531 151.746094 93.054688 "/>
<path style=" stroke:none;fill-rule:nonzero;fill:rgb(81.959534%,82.749939%,83.139038%);fill-opacity:1;" d="M 151.746094 117.789062 L 151.746094 93.054688 C 149.75 92.117188 147.613281 91.429688 145.378906 91.03125 C 143.910156 90.765625 142.402344 90.632812 140.859375 90.632812 C 126.714844 90.632812 115.25 102.09375 115.25 116.238281 C 115.25 117.386719 115.328125 118.519531 115.472656 119.628906 C 115.589844 120.503906 115.75 121.363281 115.953125 122.207031 L 147.328125 122.207031 C 149.769531 122.207031 151.746094 120.230469 151.746094 117.789062 "/>
<path style=" stroke:none;fill-rule:nonzero;fill:rgb(89.408875%,23.919678%,56.858826%);fill-opacity:1;" d="M 161.496094 137.480469 L 153.589844 129.574219 L 158.824219 124.339844 L 166.730469 132.246094 L 161.496094 137.480469 "/>
<path style=" stroke:none;fill-rule:nonzero;fill:rgb(65.489197%,16.079712%,45.098877%);fill-opacity:1;" d="M 153.589844 129.574219 L 161.492188 137.480469 L 162.941406 136.035156 L 155.035156 128.128906 L 153.589844 129.574219 "/>
<path style=" stroke:none;fill-rule:nonzero;fill:rgb(99.609375%,87.059021%,22.749329%);fill-opacity:1;" d="M 173.214844 151.820312 L 161.714844 140.320312 C 160.269531 138.875 160.269531 136.53125 161.714844 135.085938 L 164.332031 132.464844 C 165.777344 131.019531 168.121094 131.019531 169.566406 132.464844 L 181.070312 143.96875 C 182.515625 145.414062 182.515625 147.757812 181.070312 149.203125 L 178.453125 151.820312 C 177.003906 153.265625 174.664062 153.265625 173.214844 151.820312 "/>
<path style=" stroke:none;fill-rule:nonzero;fill:rgb(90.589905%,67.83905%,15.289307%);fill-opacity:1;" d="M 175.636719 149.398438 L 164.136719 137.898438 C 162.6875 136.453125 162.6875 134.109375 164.132812 132.664062 L 164.34375 132.457031 C 164.339844 132.460938 164.335938 132.464844 164.332031 132.464844 L 161.714844 135.085938 C 160.269531 136.53125 160.269531 138.875 161.714844 140.320312 L 173.214844 151.820312 C 174.660156 153.265625 177.007812 153.265625 178.453125 151.820312 L 180.863281 149.410156 C 179.414062 150.847656 177.078125 150.84375 175.636719 149.398438 "/>
<path style=" stroke:none;fill-rule:nonzero;fill:rgb(93.728638%,35.289001%,61.569214%);fill-opacity:1;" d="M 140.855469 130.621094 C 130.359375 130.621094 121.847656 122.109375 121.847656 111.609375 C 121.847656 101.109375 130.359375 92.597656 140.855469 92.597656 C 151.359375 92.597656 159.871094 101.109375 159.871094 111.609375 C 159.871094 122.109375 151.359375 130.621094 140.855469 130.621094 Z M 140.855469 86.003906 C 126.714844 86.003906 115.25 97.46875 115.25 111.609375 C 115.25 125.75 126.714844 137.214844 140.855469 137.214844 C 155 137.214844 166.464844 125.75 166.464844 111.609375 C 166.464844 97.46875 155 86.003906 140.855469 86.003906 "/>
<path style=" stroke:none;fill-rule:nonzero;fill:rgb(89.408875%,23.919678%,56.858826%);fill-opacity:1;" d="M 140.859375 130.621094 C 130.359375 130.621094 121.847656 122.109375 121.847656 111.609375 C 121.847656 101.109375 130.359375 92.597656 140.859375 92.597656 C 151.359375 92.597656 159.871094 101.109375 159.871094 111.609375 C 159.871094 122.109375 151.359375 130.621094 140.859375 130.621094 Z M 140.859375 89.703125 C 128.757812 89.703125 118.953125 99.511719 118.953125 111.609375 C 118.953125 123.707031 128.757812 133.515625 140.859375 133.515625 C 152.957031 133.515625 162.765625 123.707031 162.765625 111.609375 C 162.765625 99.511719 152.957031 89.703125 140.859375 89.703125 "/>
<path style=" stroke:none;fill-rule:nonzero;fill:rgb(100%,100%,100%);fill-opacity:1;" d="M 140.859375 130.621094 C 130.359375 130.621094 121.847656 122.109375 121.847656 111.609375 C 121.847656 101.109375 130.359375 92.597656 140.859375 92.597656 C 151.359375 92.597656 159.871094 101.109375 159.871094 111.609375 C 159.871094 122.109375 151.359375 130.621094 140.859375 130.621094 "/>
<path style=" stroke:none;fill-rule:nonzero;fill:rgb(73.728943%,74.508667%,75.289917%);fill-opacity:1;" d="M 147.730469 107.589844 L 129.011719 107.589844 C 128.019531 107.589844 127.214844 106.785156 127.214844 105.792969 C 127.214844 104.800781 128.019531 104 129.011719 104 L 147.730469 104 C 148.722656 104 149.527344 104.800781 149.527344 105.792969 C 149.527344 106.785156 148.722656 107.589844 147.730469 107.589844 "/>
<path style=" stroke:none;fill-rule:nonzero;fill:rgb(73.728943%,74.508667%,75.289917%);fill-opacity:1;" d="M 140.449219 120.765625 L 129.011719 120.765625 C 128.019531 120.765625 127.214844 119.960938 127.214844 118.96875 C 127.214844 117.976562 128.019531 117.171875 129.011719 117.171875 L 140.449219 117.171875 C 141.441406 117.171875 142.246094 117.976562 142.246094 118.96875 C 142.246094 119.960938 141.441406 120.765625 140.449219 120.765625 "/>
<path style=" stroke:none;fill-rule:nonzero;fill:rgb(73.728943%,74.508667%,75.289917%);fill-opacity:1;" d="M 152.40625 114.175781 L 128.964844 114.175781 C 127.972656 114.175781 127.167969 113.375 127.167969 112.382812 C 127.167969 111.390625 127.972656 110.585938 128.964844 110.585938 L 152.40625 110.585938 C 153.394531 110.585938 154.199219 111.390625 154.199219 112.382812 C 154.199219 113.375 153.394531 114.175781 152.40625 114.175781 "/>
</g>
</svg>
