<?xml version="1.0" encoding="UTF-8"?>
<svg xmlns="http://www.w3.org/2000/svg" xmlns:xlink="http://www.w3.org/1999/xlink" width="224.87999pt" height="225pt" viewBox="0 0 224.87999 225" version="1.2">
<defs>
<clipPath id="clip1">
  <path d="M 0 33.09375 L 223 33.09375 L 223 192 L 0 192 Z M 0 33.09375 "/>
</clipPath>
<clipPath id="clip2">
  <path d="M 98.742188 59.570312 L 224.050781 59.570312 L 224.050781 139.667969 L 98.742188 139.667969 Z M 98.742188 59.570312 "/>
</clipPath>
<clipPath id="clip3">
  <path d="M 3.195312 33.1875 L 218.414062 33.1875 L 218.414062 192.007812 L 3.195312 192.007812 Z M 3.195312 33.1875 "/>
</clipPath>
</defs>
<g id="surface1">
<g clip-path="url(#clip1)" clip-rule="nonzero">
<path style=" stroke:none;fill-rule:nonzero;fill:rgb(100%,100%,100%);fill-opacity:1;" d="M 91.105469 67.9375 C 86.347656 67.714844 84.125 65.933594 83.140625 64.917969 C 77.363281 58.941406 82.125 45.558594 88.695312 38.726562 C 90.410156 36.945312 94.15625 33.101562 98.691406 33.703125 C 100.4375 33.925781 101.773438 34.753906 102.597656 35.390625 C 103.488281 35.324219 104.949219 35.355469 106.503906 35.960938 C 110.40625 37.484375 110.882812 41.140625 115.390625 47.65625 C 118.882812 52.679688 120.121094 52.679688 120.40625 54.902344 C 121.042969 59.640625 115.960938 64.089844 112.628906 66.539062 C 112.5 67.585938 112.3125 68.605469 112.058594 69.558594 C 112.089844 69.714844 112.089844 69.84375 112.089844 70.003906 C 112.089844 70.703125 111.804688 71.335938 111.359375 71.78125 C 111.230469 72.132812 111.105469 72.449219 110.980469 72.765625 C 110.980469 72.734375 111.011719 72.703125 111.011719 72.703125 C 111.773438 72.863281 112.753906 73.179688 113.804688 73.785156 C 115.453125 74.707031 116.46875 75.882812 117.039062 76.644531 C 119.613281 76.710938 123.484375 77.21875 127.359375 79.410156 C 133.070312 82.683594 135.929688 88.121094 138.5625 95.082031 C 141.453125 102.710938 145.195312 115.167969 146.53125 132.300781 C 146.308594 134.304688 145.769531 137.164062 144.371094 140.308594 C 142.785156 143.839844 140.785156 146.351562 139.324219 147.90625 L 140.433594 111.703125 C 139.992188 124.324219 139.546875 136.941406 139.070312 149.558594 C 140.910156 148.382812 145.863281 145.621094 152.402344 146.160156 C 154.242188 146.320312 163.324219 147.113281 166.179688 153.789062 C 168.148438 158.398438 166.054688 163.226562 164.433594 165.960938 C 170.625 166.851562 176.082031 167.835938 180.621094 168.949219 C 176.433594 161.226562 177.066406 150.957031 182.941406 142.980469 C 187.320312 141.804688 193.351562 140.660156 200.558594 140.691406 C 200.9375 140.691406 201.320312 140.691406 201.699219 140.722656 C 208.269531 140.722656 213.824219 141.804688 217.921875 142.886719 C 224.746094 152.136719 224.492188 164.46875 217.921875 172.320312 C 212.238281 179.121094 202.683594 181.472656 194.367188 179.375 C 186.9375 186.367188 148.277344 191.707031 101.679688 191.707031 C 50.222656 191.707031 8.417969 185.191406 7.71875 177.117188 C 6.511719 177.308594 5.242188 177.40625 4.542969 177.179688 C 4.289062 177.085938 4.097656 176.957031 4.035156 176.800781 C 3.625 175.910156 5.8125 174.035156 6.988281 173.113281 C 6.988281 172.222656 6.925781 170.664062 6.511719 168.789062 C 5.75 165.167969 4.480469 163.769531 3.941406 160.429688 C 3.78125 159.414062 3.59375 157.761719 3.84375 155.664062 C 2.925781 154.421875 1.019531 151.59375 0.734375 147.589844 C 0.226562 140.851562 4.574219 136.242188 5.304688 135.480469 C 3.6875 130.203125 5.339844 124.734375 9.242188 121.972656 C 13.144531 119.207031 19.144531 119.332031 21.621094 121.972656 C 22.921875 123.335938 22.160156 124.226562 23.8125 126.484375 C 25.460938 128.707031 27.242188 129.21875 28.382812 130.234375 C 28.414062 130.265625 28.445312 130.296875 28.476562 130.332031 C 28.511719 130.363281 28.542969 130.394531 28.605469 130.457031 C 28.921875 130.808594 29.175781 131.1875 29.335938 131.726562 C 29.558594 132.429688 29.527344 133.03125 29.460938 133.351562 C 29.398438 133.890625 29.273438 134.429688 29.050781 134.90625 C 28.859375 135.382812 28.574219 135.796875 28.222656 136.148438 C 25.367188 138.945312 18.828125 135.480469 18.066406 136.972656 C 18.035156 137.101562 18.035156 137.226562 18.003906 137.324219 C 18.035156 137.515625 18.097656 137.738281 18.257812 137.992188 C 18.828125 138.914062 20.191406 140.152344 21.273438 141.390625 C 23.589844 144.03125 26.035156 148.414062 26.511719 156.078125 C 29.050781 157.03125 29.9375 158.238281 30.257812 159.191406 C 31.050781 161.417969 29.273438 163.449219 27.558594 167.867188 C 31.429688 167.074219 35.84375 166.375 40.636719 165.707031 C 38.859375 162.71875 36.761719 157.886719 38.699219 153.3125 C 41.269531 147.207031 49.082031 145.96875 51.460938 145.585938 C 60.667969 144.09375 67.871094 149.242188 69.714844 150.671875 L 69.679688 149.527344 C 68.125 148.382812 66.15625 146.574219 64.539062 143.996094 C 60.125 136.972656 61.523438 129.375 61.96875 127.3125 C 62.664062 122.289062 63.683594 115.550781 65.171875 107.539062 C 68.125 91.871094 69.714844 88.5 72.15625 85.734375 C 74.1875 83.414062 78.980469 78.996094 89.078125 77.664062 C 89.296875 77.089844 90.15625 75.308594 92.121094 74.355469 C 92.917969 73.976562 93.679688 73.847656 94.25 73.816406 M 94.25 73.816406 C 92.597656 71.71875 91.648438 69.589844 91.105469 67.9375 "/>
</g>
<path style=" stroke:none;fill-rule:nonzero;fill:rgb(95.689392%,69.40918%,34.118652%);fill-opacity:1;" d="M 130.816406 153.726562 L 110.34375 154.582031 L 77.773438 153.726562 C 80.695312 155.917969 84.089844 158.175781 87.902344 160.335938 C 94.3125 163.960938 100.375 166.4375 105.582031 168.121094 C 106.628906 165.292969 107.675781 162.496094 108.722656 159.667969 L 111.074219 165.230469 Z M 217.921875 142.886719 C 213.824219 141.773438 208.269531 140.722656 201.667969 140.597656 C 201.289062 140.597656 200.90625 140.566406 200.523438 140.566406 C 193.320312 140.566406 187.289062 141.675781 182.90625 142.851562 C 177.035156 150.832031 176.398438 161.128906 180.589844 168.824219 C 181.257812 170.03125 182.019531 171.207031 182.90625 172.253906 C 185.921875 175.847656 189.988281 178.199219 194.398438 179.3125 C 202.746094 181.410156 212.269531 179.058594 217.953125 172.253906 C 224.492188 164.46875 224.746094 152.167969 217.921875 142.886719 Z M 30.222656 159.160156 C 29.875 158.207031 28.988281 156.996094 26.476562 156.042969 C 26.035156 148.382812 23.589844 143.996094 21.242188 141.359375 C 20.160156 140.152344 18.796875 138.914062 18.226562 137.957031 C 18.066406 137.703125 17.972656 137.515625 17.972656 137.289062 C 17.941406 137.164062 17.972656 137.039062 18.035156 136.941406 C 18.796875 135.449219 25.367188 138.914062 28.191406 136.113281 C 28.542969 135.765625 28.828125 135.351562 29.019531 134.875 C 29.238281 134.398438 29.367188 133.859375 29.429688 133.316406 C 29.492188 132.746094 29.429688 132.207031 29.304688 131.699219 C 29.144531 131.15625 28.890625 130.773438 28.574219 130.425781 C 28.542969 130.394531 28.511719 130.332031 28.445312 130.296875 C 28.414062 130.265625 28.382812 130.234375 28.351562 130.203125 C 27.242188 129.1875 25.460938 128.679688 23.78125 126.453125 C 22.128906 124.226562 22.859375 123.335938 21.589844 121.941406 C 19.113281 119.300781 13.113281 119.171875 9.210938 121.941406 C 5.304688 124.703125 3.65625 130.140625 5.273438 135.449219 C 4.542969 136.210938 0.164062 140.820312 0.703125 147.558594 C 0.988281 151.5625 2.894531 154.390625 3.8125 155.632812 C 3.558594 157.730469 3.75 159.382812 3.910156 160.398438 C 4.449219 163.738281 5.71875 165.136719 6.480469 168.757812 C 6.859375 170.632812 6.925781 172.160156 6.957031 173.082031 C 5.78125 174.003906 3.625 175.847656 4.003906 176.769531 C 4.097656 176.957031 4.257812 177.085938 4.511719 177.148438 C 5.210938 177.40625 6.480469 177.277344 7.6875 177.085938 C 9.019531 176.894531 10.257812 176.578125 10.671875 176.449219 C 10.734375 176.992188 10.957031 177.816406 11.589844 178.390625 C 11.75 178.546875 11.941406 178.675781 12.128906 178.738281 C 13.179688 179.28125 14.574219 179.023438 15.527344 178.738281 C 16.097656 178.546875 16.511719 178.359375 16.636719 178.292969 C 18.765625 177.308594 19.78125 175.464844 20.128906 174.703125 C 20.257812 174.828125 20.859375 175.464844 21.875 175.75 C 22.226562 175.847656 22.605469 175.910156 23.050781 175.878906 C 23.335938 175.878906 23.621094 175.816406 23.875 175.75 C 24.859375 175.464844 25.460938 174.863281 25.621094 174.703125 C 25.8125 173.589844 26.128906 171.9375 26.730469 170.03125 C 26.988281 169.203125 27.242188 168.472656 27.527344 167.804688 C 29.238281 163.417969 31.019531 161.382812 30.222656 159.160156 Z M 138.46875 95.015625 C 135.832031 88.054688 133.007812 82.621094 127.261719 79.347656 C 123.390625 77.121094 119.515625 76.644531 116.945312 76.582031 C 116.375 75.820312 115.359375 74.644531 113.707031 73.722656 C 112.660156 73.117188 111.675781 72.800781 110.914062 72.640625 C 110.914062 72.671875 110.882812 72.703125 110.882812 72.703125 C 110.882812 72.734375 110.851562 72.765625 110.820312 72.832031 C 110.691406 73.179688 110.503906 73.847656 110.726562 74.609375 L 110.726562 74.644531 C 111.011719 75.628906 111.898438 76.390625 113.011719 76.613281 C 113.074219 78.265625 112.882812 80.585938 111.390625 82.527344 C 109.804688 84.625 107.964844 84.6875 105.996094 86.59375 C 104.757812 87.769531 103.328125 89.867188 102.789062 93.652344 C 101.265625 89.707031 99.234375 87.675781 97.550781 86.53125 C 95.835938 85.355469 93.679688 84.527344 92.535156 82.144531 C 92.027344 81.097656 91.902344 80.109375 91.867188 79.410156 C 92.3125 79.03125 93.042969 78.296875 93.550781 77.1875 C 94.21875 75.753906 94.15625 74.453125 94.121094 73.847656 C 93.582031 73.878906 92.820312 74.007812 91.996094 74.390625 C 90.027344 75.308594 89.171875 77.121094 88.949219 77.695312 C 78.855469 79.03125 74.0625 83.449219 72.027344 85.769531 C 69.617188 88.53125 68 91.902344 65.046875 107.570312 C 63.554688 115.550781 62.507812 122.320312 61.839844 127.34375 C 61.394531 129.410156 60 137.003906 64.410156 144.03125 C 66.03125 146.605469 68 148.382812 69.554688 149.558594 C 69.585938 149.59375 69.585938 149.59375 69.617188 149.625 C 69.238281 137.003906 68.886719 124.386719 68.507812 111.734375 L 140.246094 111.734375 L 139.132812 147.9375 C 140.59375 146.382812 142.625 143.871094 144.179688 140.34375 C 145.578125 137.195312 146.117188 134.335938 146.339844 132.332031 C 145.132812 115.105469 141.355469 102.644531 138.46875 95.015625 Z M 111.960938 69.496094 C 111.738281 68.285156 110.691406 67.363281 109.421875 67.363281 C 107.996094 67.363281 106.851562 68.507812 106.851562 69.9375 C 106.851562 71.371094 107.996094 72.515625 109.421875 72.515625 C 110.152344 72.515625 110.820312 72.195312 111.265625 71.71875 C 111.707031 71.242188 111.996094 70.636719 111.996094 69.9375 C 111.996094 69.78125 111.996094 69.621094 111.960938 69.496094 Z M 99.265625 70.828125 C 99.265625 72.257812 98.121094 73.402344 96.695312 73.402344 C 95.265625 73.402344 94.121094 72.257812 94.121094 70.828125 C 94.121094 69.398438 95.265625 68.253906 96.695312 68.253906 C 98.121094 68.253906 99.265625 69.429688 99.265625 70.828125 "/>
<g clip-path="url(#clip2)" clip-rule="nonzero">
<path style=" stroke:none;fill-rule:nonzero;fill:rgb(98.81897%,47.44873%,36.468506%);fill-opacity:1;" d="M 105.675781 125.945312 C 101.964844 125.945312 98.949219 128.964844 98.949219 132.683594 C 98.949219 136.402344 101.964844 139.421875 105.675781 139.421875 C 109.390625 139.421875 112.40625 136.433594 112.40625 132.683594 C 112.40625 128.933594 109.390625 125.945312 105.675781 125.945312 Z M 212.714844 103.535156 C 213.222656 104.839844 214.460938 108.496094 213.160156 112.691406 C 210.777344 120.285156 202.398438 122.191406 202.015625 122.289062 L 201.984375 122.289062 C 201.160156 122.226562 194.398438 121.683594 190.652344 115.835938 C 187.667969 111.195312 187.765625 105.0625 190.875 100.230469 C 190.113281 99.847656 184.429688 96.894531 183.097656 90.40625 C 181.925781 84.71875 184.558594 78.679688 189.765625 75.246094 C 187.414062 67.332031 192.113281 60.5 196.683594 59.863281 C 200.84375 59.289062 206.523438 63.613281 207.605469 70.796875 C 208.046875 70.828125 218.492188 71.464844 222.523438 79.28125 C 226.394531 86.753906 222.839844 98.101562 212.714844 103.535156 "/>
</g>
<g clip-path="url(#clip3)" clip-rule="nonzero">
<path style=" stroke:none;fill-rule:nonzero;fill:rgb(39.99939%,21.569824%,9.408569%);fill-opacity:1;" d="M 218.332031 142.757812 C 218.269531 142.535156 218.015625 142.410156 217.792969 142.472656 C 212.648438 144.09375 207.320312 144.984375 201.921875 145.144531 C 202.269531 134.527344 202.460938 123.75 202.429688 113.101562 C 202.398438 101.945312 202.144531 90.632812 201.699219 79.472656 C 201.699219 79.253906 201.507812 79.0625 201.253906 79.0625 C 201.035156 79.0625 200.84375 79.253906 200.84375 79.507812 C 201.320312 90.632812 201.539062 101.945312 201.574219 113.101562 C 201.605469 123.75 201.414062 134.527344 201.0625 145.175781 C 200.9375 145.175781 200.8125 145.175781 200.683594 145.175781 C 194.683594 145.207031 188.714844 144.285156 182.972656 142.472656 C 182.75 142.410156 182.527344 142.535156 182.429688 142.757812 C 182.367188 142.980469 182.496094 143.203125 182.71875 143.300781 C 188.429688 145.109375 194.367188 146.03125 200.367188 146.03125 C 200.460938 146.03125 200.589844 146.03125 200.683594 146.03125 C 200.90625 146.03125 201.160156 146.03125 201.382812 146 C 201.414062 146 201.414062 146 201.445312 146.03125 C 201.476562 146.03125 201.507812 146.03125 201.539062 146 C 207.128906 145.871094 212.648438 144.984375 217.984375 143.300781 C 218.269531 143.234375 218.394531 142.980469 218.332031 142.757812 Z M 21.496094 135.320312 C 21.398438 135.542969 21.496094 135.765625 21.714844 135.859375 C 22.414062 136.148438 23.589844 136.527344 24.988281 136.527344 C 25.589844 136.527344 26.222656 136.464844 26.890625 136.304688 C 27.746094 136.085938 28.542969 135.734375 29.273438 135.226562 C 29.460938 135.097656 29.527344 134.84375 29.398438 134.652344 C 29.273438 134.460938 29.019531 134.398438 28.828125 134.527344 C 28.160156 134.972656 27.429688 135.289062 26.699219 135.480469 C 24.703125 135.988281 22.921875 135.449219 22.066406 135.097656 C 21.84375 135.003906 21.589844 135.097656 21.496094 135.320312 Z M 18.988281 127.34375 C 19.019531 127.34375 19.019531 127.34375 18.988281 127.34375 C 19.210938 127.34375 19.398438 127.152344 19.398438 126.929688 C 19.398438 126.453125 19.621094 126.039062 20.003906 125.847656 C 20.511719 125.59375 21.175781 125.785156 21.527344 126.324219 C 21.652344 126.515625 21.90625 126.546875 22.097656 126.421875 C 22.289062 126.292969 22.320312 126.039062 22.191406 125.847656 C 21.589844 124.992188 20.480469 124.671875 19.589844 125.117188 C 18.921875 125.46875 18.511719 126.167969 18.542969 126.960938 C 18.574219 127.152344 18.765625 127.34375 18.988281 127.34375 Z M 29.460938 133.316406 C 29.492188 133 29.558594 132.394531 29.335938 131.699219 C 29.144531 131.125 28.828125 130.679688 28.605469 130.425781 C 28.574219 130.394531 28.542969 130.332031 28.476562 130.296875 C 28.445312 130.265625 28.414062 130.234375 28.382812 130.203125 C 27.460938 130.457031 26.953125 131.441406 27.207031 132.269531 C 27.460938 133.191406 28.511719 133.699219 29.460938 133.316406 Z M 23.496094 175.71875 C 23.429688 175.941406 23.589844 176.164062 23.8125 176.226562 C 23.84375 176.226562 23.875 176.226562 23.90625 176.226562 C 24.097656 176.226562 24.257812 176.101562 24.320312 175.910156 C 24.414062 175.496094 24.476562 175.085938 24.511719 174.636719 C 24.542969 174.066406 24.542969 173.460938 24.445312 172.890625 C 24.414062 172.667969 24.191406 172.507812 23.972656 172.542969 C 23.75 172.574219 23.589844 172.796875 23.621094 173.019531 C 23.683594 173.527344 23.71875 174.066406 23.652344 174.574219 C 23.652344 174.957031 23.589844 175.339844 23.496094 175.71875 Z M 22.128906 172.828125 C 21.972656 173.335938 21.8125 173.875 21.714844 174.386719 C 21.621094 174.828125 21.558594 175.304688 21.496094 175.75 C 21.460938 175.972656 21.621094 176.195312 21.875 176.195312 L 21.90625 176.195312 C 22.128906 176.195312 22.289062 176.039062 22.320312 175.816406 C 22.351562 175.371094 22.445312 174.957031 22.511719 174.511719 C 22.605469 174.003906 22.765625 173.527344 22.921875 173.050781 C 22.988281 172.828125 22.890625 172.605469 22.667969 172.507812 C 22.445312 172.507812 22.191406 172.605469 22.128906 172.828125 Z M 7.589844 174.671875 C 7.558594 174.449219 7.335938 174.289062 7.113281 174.320312 C 6.640625 174.417969 5.75 174.671875 4.988281 175.464844 C 4.574219 175.910156 4.289062 176.449219 4.132812 177.054688 C 4.070312 177.277344 4.195312 177.5 4.417969 177.5625 C 4.449219 177.5625 4.480469 177.5625 4.511719 177.5625 C 4.703125 177.5625 4.863281 177.4375 4.925781 177.246094 C 5.019531 176.929688 5.179688 176.449219 5.589844 176.003906 C 6.164062 175.371094 6.859375 175.179688 7.242188 175.113281 C 7.464844 175.113281 7.625 174.925781 7.589844 174.671875 Z M 13.082031 176.164062 C 12.734375 176.515625 12.449219 176.894531 12.226562 177.308594 C 12.003906 177.753906 11.84375 178.230469 11.75 178.707031 C 11.71875 178.929688 11.875 179.152344 12.097656 179.183594 C 12.128906 179.183594 12.128906 179.183594 12.164062 179.183594 C 12.351562 179.183594 12.542969 179.023438 12.574219 178.835938 C 12.640625 178.421875 12.765625 178.039062 12.957031 177.691406 C 13.144531 177.339844 13.367188 177.023438 13.65625 176.738281 C 13.8125 176.578125 13.8125 176.324219 13.65625 176.132812 C 13.496094 176.003906 13.242188 176.003906 13.082031 176.164062 Z M 16.035156 175.527344 C 15.65625 176.132812 15.402344 176.800781 15.242188 177.5 C 15.144531 177.914062 15.113281 178.324219 15.113281 178.769531 C 15.113281 178.992188 15.304688 179.183594 15.527344 179.183594 C 15.75 179.183594 15.941406 178.992188 15.941406 178.769531 C 15.941406 178.421875 15.972656 178.039062 16.035156 177.691406 C 16.160156 177.085938 16.382812 176.515625 16.699219 176.003906 C 16.828125 175.816406 16.765625 175.5625 16.574219 175.433594 C 16.414062 175.273438 16.160156 175.339844 16.035156 175.527344 Z M 25.527344 157.378906 C 25.304688 157.285156 25.082031 157.378906 24.988281 157.601562 C 24.511719 158.652344 24.066406 159.765625 23.683594 160.84375 C 23.621094 161.003906 23.589844 161.195312 23.527344 161.351562 C 23.621094 160.015625 23.621094 158.652344 23.589844 157.316406 C 23.589844 157.09375 23.398438 156.902344 23.144531 156.902344 C 22.921875 156.902344 22.730469 157.09375 22.730469 157.347656 C 22.828125 160.972656 22.511719 164.5625 21.75 168.089844 C 21.273438 170.316406 20.574219 172.507812 19.75 174.636719 C 19.652344 174.863281 19.78125 175.085938 19.972656 175.179688 C 20.035156 175.210938 20.066406 175.210938 20.128906 175.210938 C 20.289062 175.210938 20.445312 175.113281 20.511719 174.957031 C 21.367188 172.796875 22.035156 170.539062 22.542969 168.28125 C 22.542969 168.25 22.542969 168.21875 22.574219 168.15625 C 23.019531 165.769531 23.652344 163.417969 24.445312 161.160156 C 24.828125 160.082031 25.242188 159.03125 25.71875 157.984375 C 25.84375 157.730469 25.746094 157.472656 25.527344 157.378906 Z M 17.019531 156.933594 C 16.796875 156.839844 16.574219 156.933594 16.480469 157.15625 C 14.859375 160.8125 14.066406 164.371094 14.160156 167.710938 C 14.160156 167.898438 14.160156 168.058594 14.195312 168.28125 C 14.257812 169.777344 14.320312 171.617188 13.304688 173.398438 C 13.273438 171.585938 12.988281 169.871094 12.414062 168.28125 C 12.066406 167.265625 11.65625 166.503906 11.242188 165.738281 C 10.734375 164.785156 10.226562 163.832031 9.75 162.335938 C 9.335938 161.003906 9.050781 159.605469 8.957031 158.207031 C 8.925781 157.984375 8.734375 157.792969 8.511719 157.824219 C 8.289062 157.855469 8.097656 158.046875 8.128906 158.269531 C 8.257812 159.730469 8.542969 161.195312 8.988281 162.59375 C 9.464844 164.148438 10.003906 165.167969 10.511719 166.121094 C 10.925781 166.882812 11.304688 167.613281 11.65625 168.566406 C 12.320312 170.378906 12.574219 172.414062 12.480469 174.574219 C 11.941406 175.179688 11.304688 175.6875 10.574219 176.132812 C 10.386719 176.261719 10.320312 176.515625 10.417969 176.703125 C 10.480469 176.832031 10.640625 176.894531 10.765625 176.894531 C 10.828125 176.894531 10.925781 176.863281 10.988281 176.832031 C 11.84375 176.324219 12.542969 175.71875 13.144531 175.050781 C 13.179688 175.019531 13.210938 174.988281 13.242188 174.925781 C 13.527344 174.605469 13.75 174.257812 13.972656 173.910156 C 15.210938 171.84375 15.113281 169.710938 15.050781 168.1875 C 15.050781 167.996094 15.050781 167.804688 15.019531 167.644531 C 14.925781 164.4375 15.6875 161.003906 17.273438 157.445312 C 17.335938 157.285156 17.242188 157.03125 17.019531 156.933594 Z M 9.625 145.96875 C 10.003906 146.03125 10.386719 146.0625 10.765625 146.0625 C 12.414062 146.0625 14.097656 145.460938 15.527344 144.316406 C 17.429688 142.757812 18.574219 140.4375 18.671875 137.957031 C 18.671875 137.769531 18.542969 137.609375 18.351562 137.578125 C 18.351562 137.515625 18.382812 137.449219 18.382812 137.386719 C 18.414062 137.261719 18.414062 137.132812 18.445312 137.003906 L 17.621094 136.878906 C 17.621094 136.972656 17.589844 137.101562 17.558594 137.226562 C 17.242188 138.945312 16.257812 140.5 14.796875 141.488281 C 13.433594 142.410156 11.8125 142.726562 10.320312 142.410156 C 7.589844 141.804688 5.65625 139.230469 5.65625 136.304688 C 7.71875 137.992188 9.242188 138.785156 10.257812 138.785156 C 10.574219 138.785156 10.859375 138.722656 11.082031 138.5625 C 11.910156 138.023438 11.8125 136.8125 11.6875 135.128906 C 11.527344 133.285156 11.304688 130.742188 12.226562 127.820312 C 12.542969 126.769531 12.988281 125.785156 13.527344 124.832031 C 13.65625 124.640625 13.558594 124.386719 13.367188 124.257812 C 13.179688 124.132812 12.925781 124.226562 12.796875 124.417969 C 12.226562 125.4375 11.78125 126.484375 11.433594 127.566406 C 10.480469 130.648438 10.703125 133.285156 10.859375 135.195312 C 10.988281 136.527344 11.050781 137.578125 10.640625 137.832031 C 10.320312 138.054688 9.210938 138.179688 5.558594 135.097656 C 5.558594 135.097656 5.527344 135.097656 5.527344 135.066406 C 5.496094 135.035156 5.496094 135.035156 5.464844 135.035156 C 5.433594 135.035156 5.402344 135.003906 5.402344 135.003906 L 5.339844 135.003906 C 5.304688 135.003906 5.273438 135.003906 5.273438 135.003906 C 5.242188 135.003906 5.210938 135.003906 5.179688 135.035156 C 5.148438 135.035156 5.148438 135.066406 5.113281 135.066406 C 5.082031 135.066406 5.082031 135.097656 5.050781 135.128906 C 5.050781 135.128906 5.019531 135.128906 5.019531 135.160156 C 5.019531 135.160156 5.019531 135.195312 4.988281 135.195312 C 4.988281 135.226562 4.957031 135.226562 4.957031 135.257812 C 4.957031 135.289062 4.925781 135.320312 4.925781 135.351562 L 4.925781 135.382812 C 4.480469 139.007812 6.796875 142.441406 10.195312 143.171875 C 10.640625 143.265625 11.050781 143.300781 11.496094 143.300781 C 12.796875 143.300781 14.160156 142.886719 15.304688 142.125 C 16.257812 141.488281 17.050781 140.597656 17.589844 139.613281 C 17.175781 141.167969 16.289062 142.601562 15.019531 143.617188 C 13.464844 144.886719 11.558594 145.429688 9.78125 145.109375 C 6.355469 144.507812 3.941406 140.882812 4.386719 137.070312 C 4.417969 136.847656 4.257812 136.625 4.003906 136.59375 C 3.78125 136.5625 3.558594 136.71875 3.527344 136.972656 C 3.050781 141.265625 5.78125 145.269531 9.625 145.96875 Z M 109.898438 63.421875 C 109.074219 63.457031 108.25 63.582031 107.421875 63.742188 C 106.660156 63.898438 105.867188 64.121094 105.136719 64.375 C 104.914062 64.441406 104.820312 64.695312 104.882812 64.917969 C 104.949219 65.074219 105.105469 65.203125 105.265625 65.203125 C 105.296875 65.203125 105.359375 65.203125 105.390625 65.171875 C 105.742188 65.042969 106.089844 64.949219 106.4375 64.820312 C 106.4375 64.949219 106.4375 65.074219 106.46875 65.234375 C 106.628906 65.773438 107.136719 66.125 107.710938 66.125 C 108.3125 66.125 108.757812 65.710938 108.945312 65.234375 C 109.074219 64.886719 109.011719 64.566406 108.945312 64.34375 C 109.265625 64.3125 109.613281 64.28125 109.929688 64.25 C 110.152344 64.25 110.34375 64.027344 110.3125 63.804688 C 110.34375 63.582031 110.152344 63.421875 109.898438 63.421875 Z M 99.421875 65.109375 C 98.664062 64.917969 97.867188 64.820312 97.074219 64.820312 C 96.40625 64.820312 95.742188 64.917969 95.105469 65.109375 C 94.882812 65.171875 94.757812 65.394531 94.820312 65.617188 C 94.882812 65.808594 95.042969 65.933594 95.234375 65.933594 C 95.265625 65.933594 95.296875 65.933594 95.328125 65.933594 C 95.648438 65.839844 95.996094 65.773438 96.34375 65.742188 C 96.3125 65.871094 96.3125 66.027344 96.378906 66.21875 C 96.535156 66.761719 97.042969 67.109375 97.613281 67.109375 C 98.152344 67.109375 98.757812 66.761719 98.851562 66.21875 C 98.882812 66.09375 98.851562 65.964844 98.820312 65.839844 C 98.980469 65.871094 99.105469 65.902344 99.265625 65.933594 C 99.488281 65.996094 99.710938 65.871094 99.773438 65.648438 C 99.804688 65.394531 99.644531 65.171875 99.421875 65.109375 Z M 101.136719 71.082031 C 101.359375 71.78125 102.027344 72.226562 102.726562 72.226562 C 102.757812 72.226562 102.789062 72.226562 102.820312 72.226562 C 103.488281 72.195312 104.089844 71.71875 104.3125 71.082031 C 104.375 70.859375 104.28125 70.636719 104.058594 70.542969 C 103.835938 70.480469 103.613281 70.574219 103.519531 70.796875 C 103.421875 71.113281 103.105469 71.371094 102.789062 71.371094 C 102.410156 71.402344 102.089844 71.148438 101.964844 70.796875 C 101.898438 70.574219 101.644531 70.449219 101.421875 70.542969 C 101.167969 70.636719 101.042969 70.859375 101.136719 71.082031 Z M 105.421875 73.847656 C 105.074219 74.167969 104.34375 74.738281 103.234375 74.832031 C 102.183594 74.929688 101.359375 74.515625 100.980469 74.261719 C 100.789062 74.132812 100.535156 74.199219 100.40625 74.390625 C 100.28125 74.578125 100.34375 74.832031 100.535156 74.960938 C 100.980469 75.246094 101.804688 75.660156 102.949219 75.660156 C 103.074219 75.660156 103.167969 75.660156 103.296875 75.660156 C 104.660156 75.566406 105.582031 74.867188 105.996094 74.453125 C 106.152344 74.292969 106.183594 74.039062 106.027344 73.847656 C 105.835938 73.691406 105.582031 73.691406 105.421875 73.847656 Z M 111.074219 60.976562 C 110.214844 61.007812 109.390625 61.101562 108.566406 61.292969 C 106.757812 61.738281 105.105469 62.566406 103.644531 63.804688 C 103.453125 63.964844 103.453125 64.21875 103.582031 64.410156 C 103.679688 64.503906 103.773438 64.566406 103.898438 64.566406 C 103.996094 64.566406 104.089844 64.535156 104.152344 64.472656 C 105.519531 63.328125 107.074219 62.53125 108.722656 62.121094 C 109.484375 61.929688 110.28125 61.832031 111.074219 61.800781 C 111.296875 61.800781 111.484375 61.613281 111.484375 61.390625 C 111.484375 61.132812 111.296875 60.976562 111.074219 60.976562 Z M 97.421875 64.058594 C 98.535156 64.3125 99.613281 64.726562 100.597656 65.265625 C 100.664062 65.296875 100.726562 65.328125 100.789062 65.328125 C 100.949219 65.328125 101.074219 65.265625 101.167969 65.109375 C 101.265625 64.917969 101.203125 64.660156 101.011719 64.535156 C 99.933594 63.964844 98.789062 63.519531 97.613281 63.230469 C 95.933594 62.851562 94.1875 62.789062 92.441406 63.074219 C 92.21875 63.105469 92.058594 63.328125 92.09375 63.550781 C 92.121094 63.773438 92.34375 63.933594 92.566406 63.898438 C 94.21875 63.644531 95.835938 63.707031 97.421875 64.058594 Z M 115.867188 85.035156 C 114.753906 84.273438 113.519531 83.703125 112.183594 83.414062 C 111.960938 83.351562 111.738281 83.511719 111.675781 83.734375 C 111.613281 83.957031 111.773438 84.179688 111.996094 84.242188 C 113.199219 84.527344 114.34375 85.035156 115.359375 85.734375 C 116.375 86.433594 117.230469 87.324219 117.898438 88.375 C 117.960938 88.5 118.121094 88.566406 118.246094 88.566406 C 118.28125 88.566406 118.28125 88.566406 118.3125 88.566406 C 118.46875 88.53125 118.597656 88.40625 118.660156 88.246094 C 119.230469 85.992188 119.359375 83.703125 118.976562 81.414062 C 118.691406 79.664062 118.121094 77.980469 117.328125 76.390625 C 117.230469 76.199219 116.976562 76.105469 116.753906 76.199219 C 116.566406 76.296875 116.46875 76.550781 116.566406 76.773438 C 117.359375 78.265625 117.867188 79.886719 118.152344 81.539062 C 118.4375 83.414062 118.40625 85.292969 118.054688 87.136719 C 117.453125 86.339844 116.691406 85.640625 115.867188 85.035156 Z M 89.296875 77.886719 C 89.457031 77.695312 89.425781 77.441406 89.234375 77.28125 C 89.042969 77.121094 88.789062 77.152344 88.632812 77.34375 C 87.550781 78.648438 86.15625 80.808594 85.648438 83.734375 C 85.394531 85.195312 85.394531 86.6875 85.648438 88.183594 C 85.679688 88.3125 85.742188 88.4375 85.871094 88.5 C 85.933594 88.53125 85.996094 88.53125 86.0625 88.53125 C 86.125 88.53125 86.1875 88.5 86.25 88.46875 C 87.425781 87.800781 88.566406 87.101562 89.648438 86.339844 C 90.695312 85.609375 91.742188 84.816406 92.726562 83.957031 C 92.917969 83.796875 92.917969 83.542969 92.789062 83.351562 C 92.632812 83.160156 92.378906 83.160156 92.1875 83.289062 C 91.234375 84.117188 90.1875 84.878906 89.171875 85.609375 C 88.25 86.246094 87.332031 86.847656 86.378906 87.386719 C 86.21875 86.179688 86.25 85.003906 86.472656 83.828125 C 86.980469 81.125 88.28125 79.09375 89.296875 77.886719 Z M 83.332031 64.566406 C 84.949219 66.21875 87.332031 67.171875 90.441406 67.429688 C 90.347656 67.171875 90.28125 66.886719 90.21875 66.632812 C 89.488281 66.476562 88.886719 66.1875 88.347656 65.742188 C 87.042969 64.695312 86.535156 62.882812 86.566406 61.640625 C 86.601562 60.878906 86.855469 60.339844 87.234375 60.054688 C 87.804688 59.671875 88.695312 59.832031 89.902344 60.59375 C 90.089844 60.722656 90.15625 60.976562 90.027344 61.164062 C 89.902344 61.355469 89.648438 61.421875 89.457031 61.292969 C 88.1875 60.5 87.773438 60.65625 87.679688 60.722656 C 87.550781 60.816406 87.394531 61.101562 87.363281 61.640625 C 87.332031 62.660156 87.742188 64.183594 88.820312 65.042969 C 89.296875 65.425781 89.902344 65.679688 90.566406 65.773438 C 90.726562 65.808594 90.886719 65.933594 90.917969 66.09375 C 91.042969 66.601562 91.171875 67.109375 91.363281 67.617188 C 91.363281 67.652344 91.390625 67.652344 91.390625 67.679688 C 92.09375 69.78125 93.136719 71.71875 94.472656 73.433594 C 95.964844 75.34375 99.867188 79.730469 103.550781 79.410156 C 106.152344 79.1875 108.789062 76.550781 110.4375 72.578125 C 110.4375 72.578125 110.46875 72.480469 110.503906 72.449219 C 110.660156 72.101562 110.753906 71.78125 110.851562 71.496094 C 111.105469 70.765625 111.328125 70.035156 111.519531 69.304688 C 111.738281 68.382812 111.929688 67.363281 112.089844 66.347656 C 112.28125 65.011719 112.34375 63.644531 112.34375 62.277344 C 112.34375 62.152344 112.375 62.054688 112.46875 61.992188 C 113.167969 61.324219 115.359375 58.878906 114.851562 55.953125 C 114.753906 55.445312 114.597656 54.902344 114.34375 54.394531 C 114.246094 54.207031 114.3125 53.949219 114.535156 53.824219 C 114.722656 53.726562 114.976562 53.792969 115.105469 54.015625 C 115.390625 54.585938 115.613281 55.191406 115.707031 55.792969 C 116.246094 58.941406 114.089844 61.546875 113.199219 62.4375 C 113.199219 63.457031 113.136719 64.472656 113.042969 65.457031 C 116.628906 62.691406 120.40625 58.78125 119.867188 54.808594 C 119.707031 53.664062 119.296875 53.1875 118.28125 52.042969 C 117.484375 51.152344 116.40625 49.914062 114.914062 47.753906 C 113.328125 45.496094 112.25 43.523438 111.359375 41.96875 C 109.644531 38.949219 108.628906 37.136719 106.21875 36.214844 C 105.074219 35.769531 103.835938 35.609375 102.503906 35.675781 C 102.410156 35.675781 102.3125 35.644531 102.21875 35.578125 C 101.042969 34.691406 99.804688 34.148438 98.535156 33.988281 C 94.21875 33.511719 90.632812 37.199219 88.917969 38.949219 C 82.027344 46.066406 78.03125 59.070312 83.332031 64.566406 Z M 82.726562 65.171875 C 79.996094 62.34375 79.300781 57.667969 80.757812 51.980469 C 82.058594 46.992188 84.855469 41.9375 88.28125 38.410156 C 90.121094 36.53125 93.902344 32.625 98.664062 33.257812 C 100.058594 33.449219 101.390625 33.988281 102.628906 34.910156 C 104.027344 34.847656 105.328125 35.039062 106.535156 35.515625 C 109.234375 36.566406 110.375 38.597656 112.089844 41.648438 C 112.976562 43.207031 114.058594 45.148438 115.613281 47.371094 C 117.074219 49.5 118.152344 50.707031 118.914062 51.566406 C 119.992188 52.773438 120.5 53.378906 120.691406 54.777344 C 121.167969 58.433594 118.46875 62.566406 112.882812 66.695312 C 112.753906 67.679688 112.566406 68.667969 112.34375 69.589844 C 112.152344 70.351562 111.929688 71.148438 111.644531 71.878906 C 111.550781 72.195312 111.421875 72.515625 111.265625 72.863281 C 111.265625 72.894531 111.230469 72.957031 111.199219 73.023438 C 111.105469 73.277344 110.980469 73.53125 110.851562 73.785156 C 111.042969 74.292969 111.328125 74.769531 111.675781 75.152344 C 112.089844 75.597656 112.628906 75.945312 113.199219 76.167969 C 113.421875 76.261719 113.519531 76.488281 113.453125 76.710938 C 113.390625 76.867188 113.230469 76.996094 113.074219 76.996094 C 113.011719 76.996094 112.976562 76.996094 112.914062 76.964844 C 112.214844 76.710938 111.582031 76.296875 111.074219 75.753906 C 110.789062 75.46875 110.566406 75.121094 110.375 74.769531 C 108.597656 78.078125 106.152344 80.109375 103.613281 80.332031 C 103.453125 80.332031 103.296875 80.363281 103.136719 80.363281 C 99.742188 80.363281 96.378906 77.121094 94.535156 74.960938 C 94.472656 75.660156 94.3125 76.453125 93.933594 77.3125 C 93.519531 78.203125 92.917969 79.03125 92.152344 79.695312 C 92.09375 79.761719 91.964844 79.792969 91.867188 79.792969 C 91.742188 79.792969 91.648438 79.730469 91.550781 79.632812 C 91.390625 79.472656 91.425781 79.1875 91.582031 79.03125 C 92.25 78.457031 92.789062 77.726562 93.136719 76.929688 C 93.679688 75.753906 93.710938 74.675781 93.679688 73.910156 C 92.378906 72.226562 91.328125 70.320312 90.632812 68.253906 C 87.234375 68.0625 84.535156 67.015625 82.726562 65.171875 Z M 89.457031 62.976562 C 89.519531 63.042969 89.617188 63.074219 89.710938 63.074219 C 89.835938 63.074219 89.964844 63.007812 90.058594 62.914062 C 91.867188 60.464844 93.835938 59.035156 95.933594 58.621094 C 96.851562 58.433594 97.679688 58.496094 98.472656 58.527344 C 99.613281 58.59375 100.789062 58.65625 102.152344 58.019531 C 103.582031 57.382812 104.789062 56.175781 105.675781 54.492188 C 105.773438 54.300781 105.710938 54.046875 105.519531 53.917969 C 105.328125 53.824219 105.074219 53.886719 104.949219 54.078125 C 104.121094 55.601562 103.074219 56.652344 101.804688 57.226562 C 100.628906 57.765625 99.644531 57.703125 98.535156 57.636719 C 97.679688 57.605469 96.820312 57.542969 95.773438 57.734375 C 93.457031 58.179688 91.328125 59.734375 89.394531 62.34375 C 89.234375 62.566406 89.296875 62.851562 89.457031 62.976562 Z M 105.421875 46.035156 C 105.929688 48.355469 106.121094 50.773438 105.964844 53.15625 C 105.964844 53.347656 106.089844 53.539062 106.28125 53.601562 C 107.390625 53.855469 109.011719 54.425781 110.535156 55.730469 C 111.390625 56.492188 112.121094 57.382812 112.660156 58.402344 C 112.726562 58.527344 112.882812 58.621094 113.042969 58.621094 C 113.074219 58.621094 113.074219 58.621094 113.105469 58.621094 C 113.296875 58.59375 113.421875 58.464844 113.453125 58.273438 L 114.027344 54.9375 C 114.058594 54.714844 113.898438 54.492188 113.675781 54.460938 C 113.453125 54.425781 113.230469 54.585938 113.199219 54.808594 L 112.820312 57.035156 C 112.3125 56.335938 111.738281 55.667969 111.105469 55.09375 C 109.613281 53.792969 107.996094 53.15625 106.820312 52.871094 C 106.945312 50.519531 106.757812 48.167969 106.25 45.878906 C 105.675781 43.300781 104.722656 40.824219 103.421875 38.535156 C 103.296875 38.34375 103.042969 38.25 102.851562 38.375 C 102.660156 38.503906 102.566406 38.757812 102.695312 38.949219 C 103.964844 41.140625 104.882812 43.523438 105.421875 46.035156 Z M 40.953125 165.453125 C 41.492188 166.375 42.03125 167.105469 42.382812 167.613281 L 42.445312 167.710938 C 47.683594 175.148438 56.191406 177.023438 59.746094 177.5 C 60.253906 177.179688 60.917969 176.769531 61.710938 176.164062 C 62.730469 175.402344 63.523438 174.703125 64.253906 174.066406 C 65.777344 172.730469 66.855469 171.777344 68.507812 171.84375 C 68.695312 171.84375 68.949219 171.9375 69.554688 172.09375 C 69.808594 172.160156 70.09375 172.253906 70.472656 172.351562 C 72.1875 172.828125 74 173.367188 75.839844 173.972656 C 75.902344 174.003906 80.503906 175.6875 85.394531 176.386719 C 87.742188 176.738281 90.28125 176.355469 92.980469 175.371094 C 93.011719 175.339844 93.011719 175.304688 93.042969 175.273438 C 94.027344 174.289062 95.359375 172.605469 95.964844 170.125 C 96.503906 167.964844 96.25 166.054688 95.964844 164.847656 C 95.902344 164.625 96.058594 164.402344 96.28125 164.339844 C 96.503906 164.277344 96.726562 164.4375 96.789062 164.660156 C 97.105469 165.960938 97.359375 167.996094 96.789062 170.316406 C 96.34375 172.128906 95.519531 173.558594 94.695312 174.636719 C 97.136719 173.496094 99.679688 171.808594 102.25 169.648438 C 102.25 169.648438 102.28125 169.648438 102.28125 169.617188 C 102.28125 169.617188 102.28125 169.617188 102.3125 169.617188 L 110.660156 164.660156 C 110.851562 164.53125 111.105469 164.59375 111.230469 164.816406 C 111.359375 165.007812 111.296875 165.261719 111.074219 165.390625 L 102.914062 170.1875 C 102.949219 171.808594 103.265625 173.367188 103.929688 174.828125 C 104.40625 175.910156 105.074219 176.894531 105.835938 177.785156 L 145.070312 176.003906 C 147.039062 175.972656 157.070312 175.433594 162.71875 167.613281 C 163.003906 167.199219 163.480469 166.53125 163.988281 165.675781 C 165.765625 162.65625 167.511719 158.140625 165.703125 153.882812 C 163.925781 149.75 159.164062 147.113281 152.277344 146.507812 C 146.433594 146 141.769531 148.257812 139.390625 149.71875 C 139.355469 150.863281 139.324219 151.976562 139.261719 153.121094 C 139.261719 153.34375 139.101562 153.5 138.878906 153.535156 C 137.261719 153.660156 135.578125 153.820312 133.898438 153.914062 L 113.835938 164.085938 C 113.769531 164.117188 113.707031 164.117188 113.644531 164.117188 C 113.484375 164.117188 113.359375 164.023438 113.265625 163.894531 C 113.167969 163.703125 113.230469 163.449219 113.453125 163.324219 L 131.738281 154.042969 C 131.386719 154.074219 131.039062 154.105469 130.660156 154.105469 C 124.5625 154.519531 118.40625 154.773438 112.3125 154.902344 C 111.738281 154.902344 111.199219 154.929688 110.628906 154.929688 L 109.074219 159.796875 C 109.011719 159.984375 108.851562 160.082031 108.660156 160.082031 C 108.628906 160.082031 108.566406 160.082031 108.535156 160.050781 C 108.3125 159.984375 108.183594 159.730469 108.25 159.507812 L 109.710938 154.929688 C 109.484375 154.929688 109.296875 154.929688 109.074219 154.929688 C 107.519531 154.964844 105.929688 154.964844 104.28125 154.964844 C 102.949219 154.964844 101.582031 154.964844 100.152344 154.929688 C 92.726562 154.867188 85.203125 154.582031 77.773438 154.074219 C 77.265625 154.042969 76.757812 154.011719 76.25 153.976562 L 82.789062 156.679688 C 83.011719 156.773438 83.109375 156.996094 83.011719 157.222656 C 82.949219 157.378906 82.789062 157.472656 82.632812 157.472656 C 82.570312 157.472656 82.535156 157.472656 82.472656 157.445312 L 73.679688 153.851562 C 72.347656 153.753906 71.015625 153.628906 69.679688 153.535156 C 69.457031 153.5 69.300781 153.34375 69.300781 153.121094 L 69.238281 150.832031 C 66.570312 148.828125 59.808594 144.601562 51.460938 145.96875 C 44.859375 147.019531 40.667969 149.558594 39.015625 153.4375 C 37.238281 157.699219 39.082031 162.335938 40.953125 165.453125 Z M 70.0625 150.546875 C 70.0625 150.578125 70.0625 150.578125 70.0625 150.609375 L 70.125 152.738281 C 71.332031 152.835938 72.570312 152.929688 73.808594 153.023438 C 75.140625 153.121094 76.503906 153.214844 77.871094 153.3125 C 85.265625 153.789062 92.789062 154.074219 100.1875 154.167969 C 103.390625 154.203125 106.3125 154.203125 109.105469 154.167969 C 110.183594 154.167969 111.230469 154.136719 112.28125 154.105469 C 118.375 153.976562 124.53125 153.726562 130.59375 153.3125 C 131.613281 153.246094 132.628906 153.183594 133.644531 153.089844 L 133.707031 153.058594 C 133.832031 152.992188 133.960938 152.992188 134.054688 153.058594 C 135.515625 152.960938 136.976562 152.835938 138.371094 152.707031 C 138.402344 151.660156 138.4375 150.640625 138.46875 149.59375 C 138.4375 149.496094 138.4375 149.402344 138.46875 149.339844 C 138.914062 136.910156 139.355469 124.484375 139.800781 112.023438 L 128.054688 112.023438 C 128.054688 112.023438 128.054688 112.023438 128.023438 112.023438 L 69.046875 112.023438 Z M 104.820312 177.847656 C 104.152344 177.023438 103.613281 176.132812 103.203125 175.179688 C 102.597656 173.8125 102.21875 172.351562 102.121094 170.824219 C 96.089844 175.71875 90.25 177.945312 85.265625 177.214844 C 80.28125 176.480469 75.585938 174.765625 75.554688 174.765625 C 73.710938 174.160156 71.933594 173.621094 70.253906 173.144531 C 69.871094 173.050781 69.585938 172.953125 69.332031 172.890625 C 68.917969 172.761719 68.601562 172.667969 68.507812 172.667969 C 67.171875 172.605469 66.285156 173.398438 64.824219 174.703125 C 64.09375 175.339844 63.300781 176.039062 62.253906 176.832031 C 60.824219 177.882812 59.871094 178.421875 59.269531 178.707031 C 59.171875 178.769531 59.046875 178.835938 58.984375 178.867188 C 59.492188 179.089844 60.855469 179.28125 64 179.375 C 64.03125 179.375 64.0625 179.375 64.09375 179.375 C 64.125 179.375 64.1875 179.375 64.222656 179.375 C 64.441406 179.375 64.699219 179.375 64.953125 179.375 C 65.96875 179.3125 66.855469 178.835938 67.269531 178.105469 C 67.492188 177.722656 67.554688 177.277344 67.523438 176.769531 C 67.492188 176.546875 67.679688 176.324219 67.902344 176.324219 C 68.125 176.324219 68.347656 176.480469 68.347656 176.703125 C 68.410156 177.371094 68.285156 177.976562 68 178.515625 C 67.808594 178.867188 67.554688 179.152344 67.238281 179.40625 C 73.746094 179.40625 85.171875 179.023438 104.820312 177.847656 Z M 39.9375 165.355469 C 37.398438 160.84375 36.828125 156.617188 38.289062 153.121094 C 40.0625 148.925781 44.445312 146.253906 51.332031 145.144531 C 59.492188 143.839844 66.15625 147.589844 69.203125 149.78125 L 69.203125 149.496094 L 68.15625 111.671875 C 68.15625 111.546875 68.1875 111.449219 68.285156 111.355469 C 68.347656 111.257812 68.472656 111.226562 68.570312 111.226562 L 75.871094 111.226562 L 75.871094 100.101562 C 75.871094 99.878906 76.0625 99.691406 76.285156 99.691406 C 76.503906 99.691406 76.695312 99.878906 76.695312 100.101562 L 76.695312 111.226562 L 101.773438 111.226562 L 101.773438 96.671875 C 101.773438 96.445312 101.964844 96.257812 102.183594 96.257812 C 102.410156 96.257812 102.597656 96.445312 102.597656 96.671875 L 102.597656 111.226562 L 127.613281 111.226562 L 126.277344 101.914062 C 126.246094 101.691406 126.40625 101.46875 126.628906 101.4375 C 126.851562 101.40625 127.070312 101.566406 127.101562 101.789062 L 128.46875 111.226562 L 140.339844 111.226562 C 140.46875 111.226562 140.5625 111.257812 140.625 111.355469 C 140.6875 111.449219 140.753906 111.546875 140.753906 111.671875 C 140.308594 124.035156 139.863281 136.402344 139.417969 148.765625 C 141.992188 147.238281 146.625 145.207031 152.339844 145.714844 C 159.546875 146.351562 164.558594 149.148438 166.464844 153.566406 C 168.304688 157.886719 166.78125 162.402344 165.003906 165.578125 C 171.003906 166.4375 176.273438 167.421875 180.621094 168.472656 C 180.84375 168.535156 180.972656 168.757812 180.941406 168.980469 C 180.90625 169.171875 180.71875 169.300781 180.527344 169.300781 C 180.496094 169.300781 180.464844 169.300781 180.429688 169.300781 C 176.019531 168.21875 170.65625 167.234375 164.558594 166.375 C 164.082031 167.136719 163.671875 167.742188 163.386719 168.121094 C 157.671875 176.070312 147.960938 176.832031 145.101562 176.863281 L 105.710938 178.644531 C 85.804688 179.851562 74.21875 180.234375 67.457031 180.234375 C 66.632812 180.234375 65.902344 180.234375 65.203125 180.199219 C 65.015625 180.234375 64.824219 180.234375 64.664062 180.234375 C 64.441406 180.234375 64.1875 180.199219 63.96875 180.167969 L 63.933594 180.167969 C 58.09375 179.976562 58.03125 179.375 57.96875 178.929688 C 57.9375 178.582031 58.15625 178.359375 58.570312 178.132812 C 54.445312 177.4375 46.730469 175.210938 41.777344 168.1875 L 41.714844 168.089844 C 41.398438 167.644531 40.921875 166.945312 40.414062 166.121094 C 35.75 166.757812 31.460938 167.457031 27.652344 168.25 C 27.621094 168.25 27.589844 168.25 27.558594 168.25 C 27.367188 168.25 27.175781 168.121094 27.144531 167.898438 C 27.113281 167.679688 27.242188 167.457031 27.460938 167.421875 C 31.175781 166.660156 35.398438 165.960938 39.9375 165.355469 Z M 194.652344 179.089844 C 194.8125 179.246094 194.8125 179.535156 194.621094 179.691406 C 187.003906 186.875 147.894531 192.121094 101.679688 192.121094 C 76.789062 192.121094 53.332031 190.59375 35.621094 187.863281 C 22.957031 185.890625 7.78125 182.457031 7.335938 177.179688 L 7.335938 176.929688 C 7.335938 176.703125 7.527344 176.515625 7.75 176.515625 C 7.972656 176.515625 8.164062 176.703125 8.164062 176.929688 L 8.164062 177.117188 C 8.320312 178.800781 11.304688 183.21875 35.75 187.035156 C 53.429688 189.769531 76.855469 191.292969 101.679688 191.292969 C 146.976562 191.292969 186.6875 186.050781 194.082031 179.058594 C 194.238281 178.898438 194.492188 178.898438 194.652344 179.089844 "/>
</g>
</g>
</svg>
