<?xml version="1.0" encoding="UTF-8"?>
<svg xmlns="http://www.w3.org/2000/svg" xmlns:xlink="http://www.w3.org/1999/xlink" width="224.87999pt" height="225pt" viewBox="0 0 224.87999 225" version="1.2">
<defs>
<clipPath id="clip1">
  <path d="M 0 87 L 166 87 L 166 201.328125 L 0 201.328125 Z M 0 87 "/>
</clipPath>
<clipPath id="clip2">
  <path d="M 56 23.671875 L 134 23.671875 L 134 84 L 56 84 Z M 56 23.671875 "/>
</clipPath>
<clipPath id="clip3">
  <path d="M 58 23.671875 L 224.761719 23.671875 L 224.761719 103 L 58 103 Z M 58 23.671875 "/>
</clipPath>
<clipPath id="clip4">
  <path d="M 132 79 L 224.761719 79 L 224.761719 107 L 132 107 Z M 132 79 "/>
</clipPath>
</defs>
<g id="surface1">
<g clip-path="url(#clip1)" clip-rule="nonzero">
<path style=" stroke:none;fill-rule:nonzero;fill:rgb(13.328552%,13.328552%,18.03894%);fill-opacity:1;" d="M 8.242188 201.34375 C 3.816406 201.34375 0.214844 197.742188 0.214844 193.316406 L 0.214844 95.386719 C 0.214844 90.960938 3.816406 87.359375 8.242188 87.359375 L 157.214844 87.359375 C 161.640625 87.359375 165.242188 90.960938 165.242188 95.386719 L 165.242188 193.316406 C 165.242188 197.742188 161.640625 201.34375 157.214844 201.34375 L 8.242188 201.34375 "/>
</g>
<path style=" stroke:none;fill-rule:nonzero;fill:rgb(25.099182%,74.899292%,73.728943%);fill-opacity:1;" d="M 154.203125 193.316406 C 154.203125 195.351562 152.554688 196.996094 150.523438 196.996094 L 11.105469 196.996094 C 9.070312 196.996094 7.421875 195.351562 7.421875 193.316406 L 7.421875 95.386719 C 7.421875 93.355469 9.070312 91.707031 11.105469 91.707031 L 150.523438 91.707031 C 152.554688 91.707031 154.203125 93.355469 154.203125 95.386719 L 154.203125 193.316406 "/>
<path style=" stroke:none;fill-rule:nonzero;fill:rgb(74.899292%,50.588989%,16.079712%);fill-opacity:1;" d="M 116.238281 139.464844 L 108.027344 138.507812 L 109.21875 128.957031 L 109.21875 124.894531 L 99.640625 128 L 96.582031 118.871094 L 87.535156 122.160156 L 80.8125 115.28125 L 74.089844 122.160156 L 65.046875 118.871094 L 61.988281 128 L 52.40625 124.894531 L 52.40625 128.957031 L 53.597656 138.507812 L 45.386719 139.464844 L 45.386719 143.523438 L 50.617188 151.609375 L 45.386719 155.632812 L 45.386719 159.691406 L 53.597656 164.714844 L 52.410156 170.203125 L 52.410156 174.261719 L 61.988281 175.222656 L 65.046875 184.347656 L 74.089844 181.054688 L 80.8125 187.9375 L 87.535156 181.054688 L 96.582031 184.347656 L 99.636719 175.222656 L 109.21875 174.261719 L 109.21875 170.203125 L 108.027344 164.714844 L 116.238281 159.691406 L 116.238281 155.632812 L 111.011719 151.609375 L 116.238281 143.523438 L 116.238281 139.464844 "/>
<path style=" stroke:none;fill-rule:nonzero;fill:rgb(97.24884%,61.178589%,13.328552%);fill-opacity:1;" d="M 111.011719 147.550781 L 116.238281 139.464844 L 108.027344 134.449219 L 109.21875 124.894531 L 99.636719 123.9375 L 96.582031 114.8125 L 87.535156 118.105469 L 80.8125 111.21875 L 74.089844 118.105469 L 65.046875 114.8125 L 61.988281 123.9375 L 52.40625 124.894531 L 53.597656 134.449219 L 45.386719 139.464844 L 50.617188 147.550781 L 45.386719 155.632812 L 53.597656 160.652344 L 52.410156 170.203125 L 61.988281 171.164062 L 65.046875 180.289062 L 74.089844 176.996094 L 80.8125 183.882812 L 87.535156 176.996094 L 96.582031 180.289062 L 99.640625 171.164062 L 109.21875 170.203125 L 108.027344 160.652344 L 116.238281 155.632812 L 111.011719 147.550781 "/>
<path style=" stroke:none;fill-rule:nonzero;fill:rgb(11.369324%,11.369324%,15.289307%);fill-opacity:1;" d="M 3.945312 157.234375 C 2.8125 157.234375 1.894531 158.152344 1.894531 159.285156 C 1.894531 160.417969 2.8125 161.335938 3.945312 161.335938 C 5.074219 161.335938 5.996094 160.417969 5.996094 159.285156 C 5.996094 158.152344 5.074219 157.234375 3.945312 157.234375 "/>
<path style=" stroke:none;fill-rule:nonzero;fill:rgb(44.709778%,12.939453%,34.118652%);fill-opacity:1;" d="M 3.945312 157.601562 C 3.015625 157.601562 2.261719 158.355469 2.261719 159.285156 C 2.261719 160.214844 3.015625 160.96875 3.945312 160.96875 C 4.875 160.96875 5.628906 160.214844 5.628906 159.285156 C 5.628906 158.355469 4.875 157.601562 3.945312 157.601562 "/>
<path style=" stroke:none;fill-rule:nonzero;fill:rgb(28.62854%,7.839966%,20.388794%);fill-opacity:1;" d="M 3.945312 159.816406 C 3.691406 159.816406 3.476562 159.636719 3.425781 159.402344 C 3.714844 159.324219 3.933594 159.0625 3.945312 158.75 C 4.238281 158.75 4.476562 158.988281 4.476562 159.285156 C 4.476562 159.578125 4.238281 159.816406 3.945312 159.816406 "/>
<path style=" stroke:none;fill-rule:nonzero;fill:rgb(62.748718%,9.01947%,41.958618%);fill-opacity:1;" d="M 3.242188 159.425781 C 2.855469 159.425781 2.539062 159.109375 2.539062 158.722656 C 2.539062 158.332031 2.855469 158.019531 3.242188 158.019531 C 3.628906 158.019531 3.945312 158.332031 3.945312 158.722656 C 3.945312 158.734375 3.945312 158.742188 3.945312 158.75 C 3.648438 158.75 3.414062 158.988281 3.414062 159.285156 C 3.414062 159.324219 3.414062 159.363281 3.425781 159.402344 C 3.367188 159.417969 3.304688 159.425781 3.242188 159.425781 "/>
<path style=" stroke:none;fill-rule:nonzero;fill:rgb(50.19989%,6.669617%,32.548523%);fill-opacity:1;" d="M 3.425781 159.402344 C 3.414062 159.363281 3.414062 159.324219 3.414062 159.285156 C 3.414062 158.988281 3.648438 158.75 3.945312 158.75 C 3.933594 159.0625 3.714844 159.324219 3.425781 159.402344 "/>
<path style=" stroke:none;fill-rule:nonzero;fill:rgb(11.369324%,11.369324%,15.289307%);fill-opacity:1;" d="M 3.972656 127.371094 C 5.089844 127.371094 5.996094 128.273438 5.996094 129.390625 L 5.996094 153.085938 C 5.996094 154.207031 5.089844 155.109375 3.972656 155.109375 L 3.917969 155.109375 C 2.800781 155.109375 1.894531 154.207031 1.894531 153.085938 L 1.894531 129.390625 C 1.894531 128.273438 2.800781 127.371094 3.917969 127.371094 L 3.972656 127.371094 "/>
<path style=" stroke:none;fill-rule:nonzero;fill:rgb(26.669312%,33.329773%,41.958618%);fill-opacity:1;" d="M 5.515625 153.085938 C 5.515625 153.941406 4.824219 154.632812 3.972656 154.632812 L 3.917969 154.632812 C 3.066406 154.632812 2.371094 153.941406 2.371094 153.085938 L 2.371094 129.390625 C 2.371094 128.539062 3.066406 127.84375 3.917969 127.84375 L 3.972656 127.84375 C 4.824219 127.84375 5.515625 128.539062 5.515625 129.390625 L 5.515625 153.085938 "/>
<path style=" stroke:none;fill-rule:nonzero;fill:rgb(18.429565%,22.749329%,28.239441%);fill-opacity:1;" d="M 4.195312 153.90625 L 4.125 154.078125 L 3.945312 154.15625 L 3.765625 154.078125 C 3.671875 153.984375 3.671875 153.8125 3.765625 153.722656 L 3.945312 153.652344 L 4.125 153.722656 L 4.195312 153.90625 "/>
<path style=" stroke:none;fill-rule:nonzero;fill:rgb(18.429565%,22.749329%,28.239441%);fill-opacity:1;" d="M 3.945312 152.820312 C 3.804688 152.820312 3.691406 152.710938 3.691406 152.570312 C 3.691406 152.429688 3.804688 152.316406 3.945312 152.316406 C 4.082031 152.316406 4.195312 152.429688 4.195312 152.570312 C 4.195312 152.710938 4.082031 152.820312 3.945312 152.820312 Z M 3.945312 151.488281 C 3.804688 151.488281 3.691406 151.375 3.691406 151.238281 C 3.691406 151.097656 3.804688 150.984375 3.945312 150.984375 C 4.082031 150.984375 4.195312 151.097656 4.195312 151.238281 C 4.195312 151.375 4.082031 151.488281 3.945312 151.488281 Z M 3.945312 150.15625 C 3.804688 150.15625 3.691406 150.046875 3.691406 149.90625 C 3.691406 149.765625 3.804688 149.652344 3.945312 149.652344 C 4.082031 149.652344 4.195312 149.765625 4.195312 149.90625 C 4.195312 150.046875 4.082031 150.15625 3.945312 150.15625 Z M 3.945312 148.824219 C 3.804688 148.824219 3.691406 148.710938 3.691406 148.574219 C 3.691406 148.433594 3.804688 148.320312 3.945312 148.320312 C 4.082031 148.320312 4.195312 148.433594 4.195312 148.574219 C 4.195312 148.710938 4.082031 148.824219 3.945312 148.824219 Z M 3.945312 147.496094 C 3.804688 147.496094 3.691406 147.378906 3.691406 147.242188 C 3.691406 147.101562 3.804688 146.988281 3.945312 146.988281 C 4.082031 146.988281 4.195312 147.101562 4.195312 147.242188 C 4.195312 147.378906 4.082031 147.496094 3.945312 147.496094 Z M 3.945312 146.164062 C 3.804688 146.164062 3.691406 146.050781 3.691406 145.910156 C 3.691406 145.769531 3.804688 145.65625 3.945312 145.65625 C 4.082031 145.65625 4.195312 145.769531 4.195312 145.910156 C 4.195312 146.050781 4.082031 146.164062 3.945312 146.164062 Z M 3.945312 144.832031 C 3.804688 144.832031 3.691406 144.714844 3.691406 144.574219 C 3.691406 144.4375 3.804688 144.320312 3.945312 144.320312 C 4.082031 144.320312 4.195312 144.4375 4.195312 144.574219 C 4.195312 144.714844 4.082031 144.832031 3.945312 144.832031 Z M 3.945312 143.5 C 3.804688 143.5 3.691406 143.386719 3.691406 143.246094 C 3.691406 143.105469 3.804688 142.992188 3.945312 142.992188 C 4.082031 142.992188 4.195312 143.105469 4.195312 143.246094 C 4.195312 143.386719 4.082031 143.5 3.945312 143.5 Z M 3.945312 142.167969 C 3.804688 142.167969 3.691406 142.050781 3.691406 141.914062 C 3.691406 141.773438 3.804688 141.660156 3.945312 141.660156 C 4.082031 141.660156 4.195312 141.773438 4.195312 141.914062 C 4.195312 142.050781 4.082031 142.167969 3.945312 142.167969 Z M 3.945312 140.832031 C 3.804688 140.832031 3.691406 140.71875 3.691406 140.578125 C 3.691406 140.441406 3.804688 140.328125 3.945312 140.328125 C 4.082031 140.328125 4.195312 140.441406 4.195312 140.578125 C 4.195312 140.71875 4.082031 140.832031 3.945312 140.832031 Z M 3.945312 139.503906 C 3.804688 139.503906 3.691406 139.386719 3.691406 139.25 C 3.691406 139.109375 3.804688 138.992188 3.945312 138.992188 C 4.082031 138.992188 4.195312 139.109375 4.195312 139.25 C 4.195312 139.386719 4.082031 139.503906 3.945312 139.503906 Z M 3.945312 138.171875 C 3.804688 138.171875 3.691406 138.054688 3.691406 137.917969 C 3.691406 137.777344 3.804688 137.660156 3.945312 137.660156 C 4.082031 137.660156 4.195312 137.777344 4.195312 137.917969 C 4.195312 138.054688 4.082031 138.171875 3.945312 138.171875 Z M 3.945312 136.839844 C 3.804688 136.839844 3.691406 136.722656 3.691406 136.585938 C 3.691406 136.445312 3.804688 136.332031 3.945312 136.332031 C 4.082031 136.332031 4.195312 136.445312 4.195312 136.585938 C 4.195312 136.722656 4.082031 136.839844 3.945312 136.839844 Z M 3.945312 135.503906 C 3.804688 135.503906 3.691406 135.390625 3.691406 135.25 C 3.691406 135.113281 3.804688 134.996094 3.945312 134.996094 C 4.082031 134.996094 4.195312 135.113281 4.195312 135.25 C 4.195312 135.390625 4.082031 135.503906 3.945312 135.503906 Z M 3.945312 134.175781 C 3.804688 134.175781 3.691406 134.058594 3.691406 133.917969 C 3.691406 133.78125 3.804688 133.664062 3.945312 133.664062 C 4.082031 133.664062 4.195312 133.78125 4.195312 133.917969 C 4.195312 134.058594 4.082031 134.175781 3.945312 134.175781 Z M 3.945312 132.839844 C 3.804688 132.839844 3.691406 132.726562 3.691406 132.585938 C 3.691406 132.449219 3.804688 132.332031 3.945312 132.332031 C 4.082031 132.332031 4.195312 132.449219 4.195312 132.585938 C 4.195312 132.726562 4.082031 132.839844 3.945312 132.839844 Z M 3.945312 131.511719 C 3.804688 131.511719 3.691406 131.394531 3.691406 131.257812 C 3.691406 131.117188 3.804688 131.003906 3.945312 131.003906 C 4.082031 131.003906 4.195312 131.117188 4.195312 131.257812 C 4.195312 131.394531 4.082031 131.511719 3.945312 131.511719 Z M 3.945312 130.175781 C 3.804688 130.175781 3.691406 130.0625 3.691406 129.921875 C 3.691406 129.785156 3.804688 129.671875 3.945312 129.671875 C 4.082031 129.671875 4.195312 129.785156 4.195312 129.921875 C 4.195312 130.0625 4.082031 130.175781 3.945312 130.175781 "/>
<path style=" stroke:none;fill-rule:nonzero;fill:rgb(18.429565%,22.749329%,28.239441%);fill-opacity:1;" d="M 4.195312 128.589844 L 4.125 128.769531 L 3.945312 128.84375 L 3.765625 128.769531 C 3.671875 128.675781 3.671875 128.507812 3.765625 128.410156 L 3.945312 128.339844 L 4.121094 128.410156 L 4.195312 128.589844 "/>
<path style=" stroke:none;fill-rule:nonzero;fill:rgb(18.429565%,22.749329%,28.239441%);fill-opacity:1;" d="M 3.269531 153.144531 L 3.199219 153.324219 L 3.019531 153.394531 L 2.839844 153.324219 C 2.746094 153.226562 2.746094 153.058594 2.839844 152.964844 L 3.019531 152.890625 L 3.199219 152.964844 L 3.269531 153.144531 "/>
<path style=" stroke:none;fill-rule:nonzero;fill:rgb(18.429565%,22.749329%,28.239441%);fill-opacity:1;" d="M 3.019531 152.078125 C 2.878906 152.078125 2.765625 151.960938 2.765625 151.824219 C 2.765625 151.683594 2.878906 151.566406 3.019531 151.566406 C 3.160156 151.566406 3.269531 151.683594 3.269531 151.824219 C 3.269531 151.960938 3.160156 152.078125 3.019531 152.078125 Z M 3.019531 150.753906 C 2.878906 150.753906 2.765625 150.640625 2.765625 150.5 C 2.765625 150.359375 2.878906 150.25 3.019531 150.25 C 3.160156 150.25 3.269531 150.359375 3.269531 150.5 C 3.269531 150.640625 3.160156 150.753906 3.019531 150.753906 Z M 3.019531 149.429688 C 2.878906 149.429688 2.765625 149.320312 2.765625 149.179688 C 2.765625 149.039062 2.878906 148.925781 3.019531 148.925781 C 3.160156 148.925781 3.269531 149.039062 3.269531 149.179688 C 3.269531 149.320312 3.160156 149.429688 3.019531 149.429688 Z M 3.019531 148.109375 C 2.878906 148.109375 2.765625 147.996094 2.765625 147.855469 C 2.765625 147.714844 2.878906 147.601562 3.019531 147.601562 C 3.160156 147.601562 3.269531 147.714844 3.269531 147.855469 C 3.269531 147.996094 3.160156 148.109375 3.019531 148.109375 Z M 3.019531 146.789062 C 2.878906 146.789062 2.765625 146.671875 2.765625 146.53125 C 2.765625 146.398438 2.878906 146.28125 3.019531 146.28125 C 3.160156 146.28125 3.269531 146.398438 3.269531 146.53125 C 3.269531 146.671875 3.160156 146.789062 3.019531 146.789062 Z M 3.019531 145.46875 C 2.878906 145.46875 2.765625 145.351562 2.765625 145.214844 C 2.765625 145.074219 2.878906 144.960938 3.019531 144.960938 C 3.160156 144.960938 3.269531 145.074219 3.269531 145.214844 C 3.269531 145.351562 3.160156 145.46875 3.019531 145.46875 Z M 3.019531 144.144531 C 2.878906 144.144531 2.765625 144.03125 2.765625 143.890625 C 2.765625 143.75 2.878906 143.640625 3.019531 143.640625 C 3.160156 143.640625 3.269531 143.75 3.269531 143.890625 C 3.269531 144.03125 3.160156 144.144531 3.019531 144.144531 Z M 3.019531 142.820312 C 2.878906 142.820312 2.765625 142.710938 2.765625 142.566406 C 2.765625 142.429688 2.878906 142.316406 3.019531 142.316406 C 3.160156 142.316406 3.269531 142.429688 3.269531 142.566406 C 3.269531 142.710938 3.160156 142.820312 3.019531 142.820312 Z M 3.019531 141.5 C 2.878906 141.5 2.765625 141.386719 2.765625 141.246094 C 2.765625 141.109375 2.878906 140.992188 3.019531 140.992188 C 3.160156 140.992188 3.269531 141.109375 3.269531 141.246094 C 3.269531 141.386719 3.160156 141.5 3.019531 141.5 Z M 3.019531 140.179688 C 2.878906 140.179688 2.765625 140.0625 2.765625 139.925781 C 2.765625 139.785156 2.878906 139.671875 3.019531 139.671875 C 3.160156 139.671875 3.269531 139.785156 3.269531 139.925781 C 3.269531 140.0625 3.160156 140.179688 3.019531 140.179688 Z M 3.019531 138.855469 C 2.878906 138.855469 2.765625 138.742188 2.765625 138.601562 C 2.765625 138.460938 2.878906 138.351562 3.019531 138.351562 C 3.160156 138.351562 3.269531 138.460938 3.269531 138.601562 C 3.269531 138.742188 3.160156 138.855469 3.019531 138.855469 Z M 3.019531 137.53125 C 2.878906 137.53125 2.765625 137.421875 2.765625 137.28125 C 2.765625 137.140625 2.878906 137.027344 3.019531 137.027344 C 3.160156 137.027344 3.269531 137.140625 3.269531 137.28125 C 3.269531 137.421875 3.160156 137.53125 3.019531 137.53125 Z M 3.019531 136.210938 C 2.878906 136.210938 2.765625 136.097656 2.765625 135.960938 C 2.765625 135.820312 2.878906 135.703125 3.019531 135.703125 C 3.160156 135.703125 3.269531 135.820312 3.269531 135.960938 C 3.269531 136.097656 3.160156 136.210938 3.019531 136.210938 Z M 3.019531 134.890625 C 2.878906 134.890625 2.765625 134.777344 2.765625 134.636719 C 2.765625 134.5 2.878906 134.382812 3.019531 134.382812 C 3.160156 134.382812 3.269531 134.5 3.269531 134.636719 C 3.269531 134.777344 3.160156 134.890625 3.019531 134.890625 Z M 3.019531 133.566406 C 2.878906 133.566406 2.765625 133.453125 2.765625 133.3125 C 2.765625 133.175781 2.878906 133.0625 3.019531 133.0625 C 3.160156 133.0625 3.269531 133.175781 3.269531 133.3125 C 3.269531 133.453125 3.160156 133.566406 3.019531 133.566406 Z M 3.019531 132.246094 C 2.878906 132.246094 2.765625 132.132812 2.765625 131.996094 C 2.765625 131.851562 2.878906 131.742188 3.019531 131.742188 C 3.160156 131.742188 3.269531 131.851562 3.269531 131.996094 C 3.269531 132.132812 3.160156 132.246094 3.019531 132.246094 Z M 3.019531 130.921875 C 2.878906 130.921875 2.765625 130.8125 2.765625 130.671875 C 2.765625 130.53125 2.878906 130.417969 3.019531 130.417969 C 3.160156 130.417969 3.269531 130.53125 3.269531 130.671875 C 3.269531 130.8125 3.160156 130.921875 3.019531 130.921875 "/>
<path style=" stroke:none;fill-rule:nonzero;fill:rgb(18.429565%,22.749329%,28.239441%);fill-opacity:1;" d="M 3.269531 129.347656 L 3.199219 129.527344 L 3.019531 129.601562 L 2.839844 129.527344 C 2.746094 129.433594 2.746094 129.265625 2.839844 129.171875 L 3.019531 129.09375 L 3.199219 129.171875 L 3.269531 129.347656 "/>
<path style=" stroke:none;fill-rule:nonzero;fill:rgb(18.429565%,22.749329%,28.239441%);fill-opacity:1;" d="M 5 153.144531 L 4.925781 153.324219 L 4.746094 153.394531 L 4.566406 153.324219 C 4.472656 153.226562 4.472656 153.058594 4.566406 152.964844 L 4.746094 152.890625 L 4.925781 152.964844 L 5 153.144531 "/>
<path style=" stroke:none;fill-rule:nonzero;fill:rgb(18.429565%,22.749329%,28.239441%);fill-opacity:1;" d="M 4.746094 152.078125 C 4.605469 152.078125 4.492188 151.960938 4.492188 151.824219 C 4.492188 151.683594 4.605469 151.566406 4.746094 151.566406 C 4.886719 151.566406 5 151.683594 5 151.824219 C 5 151.960938 4.886719 152.078125 4.746094 152.078125 Z M 4.746094 150.753906 C 4.605469 150.753906 4.492188 150.640625 4.492188 150.5 C 4.492188 150.359375 4.605469 150.25 4.746094 150.25 C 4.886719 150.25 5 150.359375 5 150.5 C 5 150.640625 4.886719 150.753906 4.746094 150.753906 Z M 4.746094 149.429688 C 4.605469 149.429688 4.492188 149.320312 4.492188 149.179688 C 4.492188 149.039062 4.605469 148.925781 4.746094 148.925781 C 4.886719 148.925781 5 149.039062 5 149.179688 C 5 149.320312 4.886719 149.429688 4.746094 149.429688 Z M 4.746094 148.109375 C 4.605469 148.109375 4.492188 147.996094 4.492188 147.855469 C 4.492188 147.714844 4.605469 147.601562 4.746094 147.601562 C 4.886719 147.601562 5 147.714844 5 147.855469 C 5 147.996094 4.886719 148.109375 4.746094 148.109375 Z M 4.746094 146.789062 C 4.605469 146.789062 4.492188 146.671875 4.492188 146.53125 C 4.492188 146.398438 4.605469 146.28125 4.746094 146.28125 C 4.886719 146.28125 5 146.398438 5 146.53125 C 5 146.671875 4.886719 146.789062 4.746094 146.789062 Z M 4.746094 145.46875 C 4.605469 145.46875 4.492188 145.351562 4.492188 145.214844 C 4.492188 145.074219 4.605469 144.960938 4.746094 144.960938 C 4.886719 144.960938 5 145.074219 5 145.214844 C 5 145.351562 4.886719 145.46875 4.746094 145.46875 Z M 4.746094 144.144531 C 4.605469 144.144531 4.492188 144.03125 4.492188 143.890625 C 4.492188 143.75 4.605469 143.640625 4.746094 143.640625 C 4.886719 143.640625 5 143.75 5 143.890625 C 5 144.03125 4.886719 144.144531 4.746094 144.144531 Z M 4.746094 142.820312 C 4.605469 142.820312 4.492188 142.710938 4.492188 142.566406 C 4.492188 142.429688 4.605469 142.316406 4.746094 142.316406 C 4.886719 142.316406 5 142.429688 5 142.566406 C 5 142.710938 4.886719 142.820312 4.746094 142.820312 Z M 4.746094 141.5 C 4.605469 141.5 4.492188 141.386719 4.492188 141.246094 C 4.492188 141.109375 4.605469 140.992188 4.746094 140.992188 C 4.886719 140.992188 5 141.109375 5 141.246094 C 5 141.386719 4.886719 141.5 4.746094 141.5 Z M 4.746094 140.179688 C 4.605469 140.179688 4.492188 140.0625 4.492188 139.925781 C 4.492188 139.785156 4.605469 139.671875 4.746094 139.671875 C 4.886719 139.671875 5 139.785156 5 139.925781 C 5 140.0625 4.886719 140.179688 4.746094 140.179688 Z M 4.746094 138.855469 C 4.605469 138.855469 4.492188 138.742188 4.492188 138.601562 C 4.492188 138.460938 4.605469 138.351562 4.746094 138.351562 C 4.886719 138.351562 5 138.460938 5 138.601562 C 5 138.742188 4.886719 138.855469 4.746094 138.855469 Z M 4.746094 137.53125 C 4.605469 137.53125 4.492188 137.421875 4.492188 137.28125 C 4.492188 137.140625 4.605469 137.027344 4.746094 137.027344 C 4.886719 137.027344 5 137.140625 5 137.28125 C 5 137.421875 4.886719 137.53125 4.746094 137.53125 Z M 4.746094 136.210938 C 4.605469 136.210938 4.492188 136.097656 4.492188 135.960938 C 4.492188 135.820312 4.605469 135.703125 4.746094 135.703125 C 4.886719 135.703125 5 135.820312 5 135.960938 C 5 136.097656 4.886719 136.210938 4.746094 136.210938 Z M 4.746094 134.890625 C 4.605469 134.890625 4.492188 134.777344 4.492188 134.636719 C 4.492188 134.5 4.605469 134.382812 4.746094 134.382812 C 4.886719 134.382812 5 134.5 5 134.636719 C 5 134.777344 4.886719 134.890625 4.746094 134.890625 Z M 4.746094 133.566406 C 4.605469 133.566406 4.492188 133.453125 4.492188 133.3125 C 4.492188 133.175781 4.605469 133.0625 4.746094 133.0625 C 4.886719 133.0625 5 133.175781 5 133.3125 C 5 133.453125 4.886719 133.566406 4.746094 133.566406 Z M 4.746094 132.246094 C 4.605469 132.246094 4.492188 132.132812 4.492188 131.996094 C 4.492188 131.851562 4.605469 131.742188 4.746094 131.742188 C 4.886719 131.742188 5 131.851562 5 131.996094 C 5 132.132812 4.886719 132.246094 4.746094 132.246094 Z M 4.746094 130.921875 C 4.605469 130.921875 4.492188 130.8125 4.492188 130.671875 C 4.492188 130.53125 4.605469 130.417969 4.746094 130.417969 C 4.886719 130.417969 5 130.53125 5 130.671875 C 5 130.8125 4.886719 130.921875 4.746094 130.921875 "/>
<path style=" stroke:none;fill-rule:nonzero;fill:rgb(18.429565%,22.749329%,28.239441%);fill-opacity:1;" d="M 5 129.347656 L 4.925781 129.527344 L 4.746094 129.601562 L 4.566406 129.527344 C 4.472656 129.433594 4.472656 129.265625 4.566406 129.171875 L 4.746094 129.09375 L 4.925781 129.171875 L 5 129.347656 "/>
<path style=" stroke:none;fill-rule:nonzero;fill:rgb(8.628845%,8.239746%,11.369324%);fill-opacity:1;" d="M 162.066406 151.609375 L 156.96875 151.609375 C 156.0625 151.609375 155.328125 150.875 155.328125 149.96875 L 155.328125 139.46875 C 157.691406 139.726562 159.582031 139.8125 161.050781 139.8125 C 162.175781 139.8125 163.054688 139.761719 163.710938 139.699219 L 163.710938 149.96875 C 163.710938 150.875 162.976562 151.609375 162.066406 151.609375 "/>
<path style=" stroke:none;fill-rule:nonzero;fill:rgb(50.19989%,83.529663%,83.529663%);fill-opacity:1;" d="M 63.695312 196.996094 L 24.359375 196.996094 L 46.914062 145.886719 L 49.300781 149.578125 L 45.386719 155.632812 L 45.386719 159.691406 L 53.128906 164.425781 L 52.410156 170.203125 L 52.410156 174.261719 L 61.988281 175.222656 L 65.046875 184.347656 L 70.085938 182.511719 L 63.695312 196.996094 "/>
<path style=" stroke:none;fill-rule:nonzero;fill:rgb(85.488892%,68.238831%,23.919678%);fill-opacity:1;" d="M 65.046875 184.347656 L 61.988281 175.222656 L 52.410156 174.261719 L 52.410156 170.203125 L 61.988281 171.164062 L 65.046875 180.289062 L 72.222656 177.675781 L 70.085938 182.511719 L 65.046875 184.347656 M 53.128906 164.425781 L 45.386719 159.691406 L 45.386719 155.632812 L 53.597656 160.652344 L 53.128906 164.425781 M 49.300781 149.578125 L 46.914062 145.886719 L 47.980469 143.472656 L 50.617188 147.550781 L 49.300781 149.578125 "/>
<path style=" stroke:none;fill-rule:nonzero;fill:rgb(50.19989%,83.529663%,83.529663%);fill-opacity:1;" d="M 51.359375 135.816406 L 52.84375 132.453125 L 53.128906 134.734375 L 51.359375 135.816406 "/>
<path style=" stroke:none;fill-rule:nonzero;fill:rgb(85.488892%,68.238831%,23.919678%);fill-opacity:1;" d="M 53.128906 134.734375 L 52.84375 132.453125 L 53.238281 131.554688 L 53.597656 134.449219 L 53.128906 134.734375 "/>
<path style=" stroke:none;fill-rule:nonzero;fill:rgb(50.19989%,83.529663%,83.529663%);fill-opacity:1;" d="M 56.351562 124.5 L 69.328125 95.09375 C 71.328125 98.300781 74.421875 102.335938 79.164062 106.871094 C 82.648438 110.207031 87.074219 113.433594 92.03125 116.46875 L 87.535156 118.105469 L 80.8125 111.21875 L 74.089844 118.105469 L 65.046875 114.8125 L 61.988281 123.9375 L 56.351562 124.5 "/>
<path style=" stroke:none;fill-rule:nonzero;fill:rgb(98.429871%,76.469421%,28.239441%);fill-opacity:1;" d="M 65.046875 180.289062 L 61.988281 171.164062 L 52.410156 170.203125 L 53.128906 164.425781 L 53.597656 160.652344 L 45.386719 155.632812 L 49.300781 149.578125 L 50.617188 147.550781 L 47.980469 143.472656 L 51.359375 135.816406 L 53.128906 134.734375 L 53.597656 134.449219 L 53.238281 131.554688 L 56.351562 124.5 L 61.988281 123.9375 L 65.046875 114.8125 L 74.089844 118.105469 L 80.8125 111.21875 L 87.535156 118.105469 L 92.03125 116.46875 C 93.878906 117.601562 95.796875 118.707031 97.769531 119.78125 L 72.222656 177.675781 L 65.046875 180.289062 "/>
<path style=" stroke:none;fill-rule:nonzero;fill:rgb(50.19989%,83.529663%,83.529663%);fill-opacity:1;" d="M 79.792969 196.996094 L 69.53125 196.996094 L 75.792969 182.804688 L 80.8125 187.9375 L 86.246094 182.375 L 79.792969 196.996094 M 108.980469 130.859375 L 109.21875 128.957031 L 109.21875 125.453125 C 109.816406 125.726562 110.410156 125.992188 111.011719 126.253906 L 108.980469 130.859375 M 107.65625 124.742188 L 101.679688 124.140625 L 102.511719 122.257812 C 104.207031 123.113281 105.925781 123.9375 107.65625 124.742188 "/>
<path style=" stroke:none;fill-rule:nonzero;fill:rgb(85.488892%,68.238831%,23.919678%);fill-opacity:1;" d="M 80.8125 187.9375 L 75.792969 182.804688 L 77.027344 180.007812 L 80.8125 183.882812 L 87.535156 176.996094 L 88.472656 177.335938 L 86.246094 182.375 L 80.8125 187.9375 M 108.277344 132.453125 L 109.152344 125.425781 C 109.171875 125.433594 109.195312 125.445312 109.21875 125.453125 L 109.21875 128.957031 L 108.980469 130.859375 L 108.277344 132.453125 "/>
<path style=" stroke:none;fill-rule:nonzero;fill:rgb(98.429871%,76.469421%,28.239441%);fill-opacity:1;" d="M 80.8125 183.882812 L 77.027344 180.007812 L 101.679688 124.140625 L 107.65625 124.742188 C 108.152344 124.96875 108.652344 125.199219 109.152344 125.425781 L 108.277344 132.453125 L 88.472656 177.335938 L 87.535156 176.996094 L 80.8125 183.882812 "/>
<path style=" stroke:none;fill-rule:nonzero;fill:rgb(89.7995%,96.859741%,99.21875%);fill-opacity:1;" d="M 125.726562 180.402344 L 107.96875 158.832031 C 107.148438 157.835938 105.675781 157.691406 104.675781 158.515625 C 103.679688 159.335938 103.535156 160.8125 104.359375 161.804688 L 122.117188 183.375 L 125.726562 180.402344 "/>
<path style=" stroke:none;fill-rule:nonzero;fill:rgb(89.7995%,96.859741%,99.21875%);fill-opacity:1;" d="M 118.382812 184.507812 L 122.828125 180.847656 L 113.257812 174.539062 C 110.308594 172.738281 107.648438 173.382812 106.746094 174.753906 C 105.839844 176.121094 106.648438 177.292969 108.019531 178.195312 L 118.382812 184.507812 "/>
<path style=" stroke:none;fill-rule:nonzero;fill:rgb(89.7995%,96.859741%,99.21875%);fill-opacity:1;" d="M 129.34375 177.421875 L 117.890625 163.523438 C 117.070312 162.523438 115.59375 162.378906 114.601562 163.203125 C 113.601562 164.023438 113.457031 165.5 114.28125 166.492188 L 125.726562 180.402344 L 129.34375 177.421875 "/>
<path style=" stroke:none;fill-rule:nonzero;fill:rgb(89.7995%,96.859741%,99.21875%);fill-opacity:1;" d="M 132.953125 174.449219 L 122.316406 161.53125 C 121.496094 160.535156 120.019531 160.390625 119.023438 161.214844 C 118.023438 162.035156 117.882812 163.507812 118.703125 164.507812 L 129.34375 177.421875 L 132.953125 174.449219 "/>
<path style=" stroke:none;fill-rule:nonzero;fill:rgb(89.7995%,96.859741%,99.21875%);fill-opacity:1;" d="M 136.132812 171.835938 L 126.273438 159.859375 C 125.550781 158.980469 124.25 158.855469 123.375 159.578125 C 122.496094 160.300781 122.371094 161.597656 123.09375 162.472656 L 132.953125 174.449219 L 136.132812 171.835938 "/>
<path style=" stroke:none;fill-rule:nonzero;fill:rgb(89.7995%,96.859741%,99.21875%);fill-opacity:1;" d="M 136.910156 172.773438 C 137.960938 174.050781 138.472656 178.550781 137.195312 179.601562 L 126.777344 188.183594 C 125.503906 189.234375 120.890625 188.277344 119.839844 187 L 113.890625 181.546875 C 112.839844 180.269531 114.621094 178.554688 115.898438 177.503906 L 128.429688 167.1875 C 129.703125 166.132812 131.589844 166.320312 132.644531 167.59375 L 136.910156 172.773438 "/>
<path style=" stroke:none;fill-rule:nonzero;fill:rgb(89.7995%,96.859741%,99.21875%);fill-opacity:1;" d="M 141.785156 182.644531 L 128.886719 193.265625 L 124.738281 188.234375 L 137.640625 177.613281 L 141.785156 182.644531 "/>
<path style=" stroke:none;fill-rule:nonzero;fill:rgb(89.7995%,96.859741%,99.21875%);fill-opacity:1;" d="M 145.707031 184.578125 L 130.03125 197.484375 L 125.886719 192.453125 L 141.5625 179.546875 L 145.707031 184.578125 "/>
<path style=" stroke:none;fill-rule:nonzero;fill:rgb(9.799194%,9.408569%,12.939453%);fill-opacity:1;" d="M 163.710938 139.699219 L 163.710938 138.734375 C 163.710938 137.832031 162.976562 137.09375 162.066406 137.09375 L 156.96875 137.09375 C 156.0625 137.09375 155.328125 137.832031 155.328125 138.734375 L 155.328125 139.46875 C 154.964844 139.429688 154.589844 139.386719 154.203125 139.335938 L 154.203125 134.953125 C 157.867188 135.675781 161.074219 136.054688 163.699219 136.054688 C 164.234375 136.054688 164.75 136.039062 165.234375 136.007812 L 165.234375 139.46875 C 165.234375 139.46875 164.761719 139.597656 163.710938 139.699219 "/>
<path style=" stroke:none;fill-rule:nonzero;fill:rgb(18.818665%,54.899597%,54.508972%);fill-opacity:1;" d="M 154.203125 139.335938 C 151.019531 138.941406 147.058594 138.253906 142.207031 137.09375 C 134.015625 135.136719 122.441406 131.292969 111.011719 126.253906 L 113.609375 120.367188 C 113.84375 120.476562 114.078125 120.589844 114.308594 120.699219 C 129.394531 127.894531 143.683594 132.867188 154.203125 134.953125 L 154.203125 139.335938 "/>
<path style=" stroke:none;fill-rule:nonzero;fill:rgb(6.669617%,6.269836%,8.239746%);fill-opacity:1;" d="M 161.050781 139.8125 C 159.582031 139.8125 157.691406 139.726562 155.328125 139.46875 L 155.328125 138.734375 C 155.328125 137.832031 156.0625 137.09375 156.96875 137.09375 L 162.066406 137.09375 C 162.976562 137.09375 163.710938 137.832031 163.710938 138.734375 L 163.710938 139.699219 C 163.054688 139.761719 162.175781 139.8125 161.050781 139.8125 "/>
<path style=" stroke:none;fill-rule:nonzero;fill:rgb(9.799194%,9.408569%,12.939453%);fill-opacity:1;" d="M 71.066406 91.707031 L 67.429688 91.707031 C 66.074219 88.953125 65.769531 87.359375 65.769531 87.359375 L 68.582031 87.359375 C 68.964844 88.644531 69.8125 90.109375 71.066406 91.707031 "/>
<path style=" stroke:none;fill-rule:nonzero;fill:rgb(18.818665%,54.899597%,54.508972%);fill-opacity:1;" d="M 102.511719 122.257812 C 101.105469 121.554688 99.714844 120.832031 98.351562 120.097656 L 98.042969 119.167969 L 100.511719 113.570312 C 102.039062 114.429688 103.609375 115.28125 105.214844 116.128906 L 102.511719 122.257812 M 69.328125 95.09375 C 68.535156 93.832031 67.917969 92.691406 67.429688 91.707031 L 71.066406 91.707031 L 70.820312 91.707031 L 69.328125 95.09375 "/>
<path style=" stroke:none;fill-rule:nonzero;fill:rgb(71.759033%,44.709778%,9.408569%);fill-opacity:1;" d="M 98.351562 120.097656 C 98.160156 119.992188 97.964844 119.886719 97.769531 119.78125 L 98.042969 119.167969 L 98.351562 120.097656 "/>
<path style=" stroke:none;fill-rule:nonzero;fill:rgb(37.249756%,61.178589%,61.959839%);fill-opacity:1;" d="M 98.042969 119.167969 L 96.582031 114.8125 L 92.03125 116.46875 C 87.074219 113.433594 82.648438 110.207031 79.164062 106.871094 C 74.421875 102.335938 71.328125 98.300781 69.328125 95.09375 L 70.820312 91.707031 L 71.066406 91.707031 C 75.839844 97.757812 86.542969 105.757812 100.511719 113.570312 L 98.042969 119.167969 "/>
<path style=" stroke:none;fill-rule:nonzero;fill:rgb(72.549438%,56.079102%,20.779419%);fill-opacity:1;" d="M 97.769531 119.78125 C 95.796875 118.707031 93.878906 117.601562 92.03125 116.46875 L 96.582031 114.8125 L 98.042969 119.167969 L 97.769531 119.78125 "/>
<path style=" stroke:none;fill-rule:nonzero;fill:rgb(37.249756%,61.178589%,61.959839%);fill-opacity:1;" d="M 111.011719 126.253906 C 110.410156 125.992188 109.816406 125.726562 109.21875 125.453125 L 109.21875 124.894531 L 107.65625 124.742188 C 105.925781 123.9375 104.207031 123.113281 102.511719 122.257812 L 105.214844 116.128906 C 107.917969 117.5625 110.722656 118.976562 113.609375 120.367188 L 111.011719 126.253906 "/>
<path style=" stroke:none;fill-rule:nonzero;fill:rgb(63.139343%,50.19989%,17.248535%);fill-opacity:1;" d="M 109.21875 125.453125 C 109.195312 125.445312 109.171875 125.433594 109.152344 125.425781 L 109.21875 124.894531 L 109.21875 125.453125 "/>
<path style=" stroke:none;fill-rule:nonzero;fill:rgb(72.549438%,56.079102%,20.779419%);fill-opacity:1;" d="M 109.152344 125.425781 C 108.652344 125.199219 108.152344 124.96875 107.65625 124.742188 L 109.21875 124.894531 L 109.152344 125.425781 "/>
<path style=" stroke:none;fill-rule:nonzero;fill:rgb(13.328552%,13.328552%,18.03894%);fill-opacity:1;" d="M 192.457031 88.828125 L 89.890625 39.914062 L 68.660156 84.433594 C 65.546875 90.953125 85.988281 107.195312 114.308594 120.699219 C 142.632812 134.210938 168.113281 139.867188 171.226562 133.34375 L 192.457031 88.828125 "/>
<path style=" stroke:none;fill-rule:nonzero;fill:rgb(82.749939%,82.348633%,82.348633%);fill-opacity:1;" d="M 185.820312 102.746094 L 192.457031 88.828125 L 185.820312 102.746094 M 82.6875 55.007812 L 89.890625 39.914062 L 82.691406 55.007812 "/>
<path style=" stroke:none;fill-rule:nonzero;fill:rgb(10.978699%,10.5896%,14.898682%);fill-opacity:1;" d="M 185.820312 102.746094 L 172.367188 99.449219 L 180.21875 82.992188 L 170.871094 78.535156 L 192.457031 88.828125 L 185.820312 102.746094 M 154.898438 95.171875 L 142.847656 92.226562 L 153.359375 70.179688 L 164.324219 75.410156 L 154.898438 95.171875 M 134.214844 90.113281 L 129.796875 89.03125 L 82.6875 55.007812 L 89.890625 39.914062 L 145.503906 66.4375 L 134.214844 90.113281 "/>
<path style=" stroke:none;fill-rule:nonzero;fill:rgb(73.728943%,48.629761%,10.198975%);fill-opacity:1;" d="M 118.582031 111.742188 C 90.257812 98.234375 69.820312 81.996094 72.933594 75.46875 L 70.953125 79.617188 C 67.839844 86.144531 88.28125 102.378906 116.605469 115.890625 C 144.929688 129.394531 170.410156 135.054688 173.519531 128.535156 L 175.5 124.382812 C 172.386719 130.910156 146.90625 125.246094 118.582031 111.742188 "/>
<path style=" stroke:none;fill-rule:nonzero;fill:rgb(10.978699%,10.5896%,14.898682%);fill-opacity:1;" d="M 126.660156 126.171875 C 124.042969 125.101562 121.371094 123.949219 118.664062 122.722656 L 120.953125 117.910156 C 123.664062 119.140625 126.335938 120.292969 128.953125 121.363281 L 126.660156 126.171875 "/>
<path style=" stroke:none;fill-rule:nonzero;fill:rgb(82.749939%,82.348633%,82.348633%);fill-opacity:1;" d="M 153.359375 70.179688 L 145.503906 66.4375 L 153.359375 70.179688 "/>
<path style=" stroke:none;fill-rule:nonzero;fill:rgb(10.978699%,10.5896%,14.898682%);fill-opacity:1;" d="M 130.929688 117.21875 C 128.3125 116.144531 125.636719 114.992188 122.933594 113.765625 L 134.214844 90.113281 L 142.847656 92.226562 L 130.929688 117.21875 "/>
<path style=" stroke:none;fill-rule:nonzero;fill:rgb(9.01947%,8.628845%,11.759949%);fill-opacity:1;" d="M 142.847656 92.226562 L 134.214844 90.113281 L 145.503906 66.4375 L 153.359375 70.179688 L 142.847656 92.226562 "/>
<path style=" stroke:none;fill-rule:nonzero;fill:rgb(61.178589%,39.608765%,8.239746%);fill-opacity:1;" d="M 128.953125 121.363281 C 126.335938 120.292969 123.664062 119.140625 120.953125 117.910156 L 122.933594 113.765625 C 125.636719 114.992188 128.3125 116.144531 130.929688 117.21875 L 128.953125 121.363281 "/>
<path style=" stroke:none;fill-rule:nonzero;fill:rgb(10.978699%,10.5896%,14.898682%);fill-opacity:1;" d="M 155.335938 135.167969 C 150.375 134.257812 144.503906 132.664062 138.066406 130.464844 L 140.359375 125.660156 C 146.800781 127.855469 152.664062 129.445312 157.628906 130.355469 L 155.335938 135.167969 "/>
<path style=" stroke:none;fill-rule:nonzero;fill:rgb(82.749939%,82.348633%,82.348633%);fill-opacity:1;" d="M 170.871094 78.535156 L 164.324219 75.410156 L 170.871094 78.535156 "/>
<path style=" stroke:none;fill-rule:nonzero;fill:rgb(10.978699%,10.5896%,14.898682%);fill-opacity:1;" d="M 159.609375 126.210938 C 154.644531 125.296875 148.777344 123.710938 142.335938 121.511719 L 154.898438 95.171875 L 172.367188 99.449219 L 159.609375 126.210938 "/>
<path style=" stroke:none;fill-rule:nonzero;fill:rgb(9.01947%,8.628845%,11.759949%);fill-opacity:1;" d="M 172.367188 99.449219 L 154.898438 95.171875 L 164.324219 75.410156 L 170.871094 78.535156 L 180.21875 82.992188 L 172.367188 99.449219 "/>
<path style=" stroke:none;fill-rule:nonzero;fill:rgb(61.178589%,39.608765%,8.239746%);fill-opacity:1;" d="M 157.628906 130.355469 C 152.664062 129.445312 146.800781 127.855469 140.359375 125.660156 L 142.335938 121.511719 C 148.777344 123.710938 154.644531 125.296875 159.609375 126.210938 L 157.628906 130.355469 "/>
<path style=" stroke:none;fill-rule:nonzero;fill:rgb(63.139343%,43.139648%,14.898682%);fill-opacity:1;" d="M 194.355469 123.941406 C 191.09375 125.285156 189.542969 129.015625 190.886719 132.273438 C 190.886719 132.273438 196.289062 140.796875 195.339844 143.074219 C 194.390625 145.351562 209.335938 139.125 207.140625 138.207031 C 204.9375 137.292969 202.6875 127.410156 202.6875 127.410156 C 201.34375 124.152344 197.613281 122.601562 194.355469 123.941406 "/>
<g clip-path="url(#clip2)" clip-rule="nonzero">
<path style=" stroke:none;fill-rule:nonzero;fill:rgb(14.898682%,13.729858%,18.429565%);fill-opacity:1;" d="M 132.011719 83.574219 L 56.828125 27.765625 L 58.789062 23.65625 L 133.976562 79.464844 L 132.011719 83.574219 "/>
</g>
<g clip-path="url(#clip3)" clip-rule="nonzero">
<path style=" stroke:none;fill-rule:nonzero;fill:rgb(19.60907%,18.429565%,25.489807%);fill-opacity:1;" d="M 133.976562 79.464844 L 58.789062 23.65625 L 149.480469 46.949219 L 224.667969 102.761719 L 133.976562 79.464844 "/>
</g>
<g clip-path="url(#clip4)" clip-rule="nonzero">
<path style=" stroke:none;fill-rule:nonzero;fill:rgb(27.449036%,26.669312%,36.468506%);fill-opacity:1;" d="M 222.707031 106.871094 L 132.011719 83.574219 L 133.976562 79.464844 L 224.667969 102.761719 L 222.707031 106.871094 "/>
</g>
<path style=" stroke:none;fill-rule:nonzero;fill:rgb(74.899292%,55.288696%,11.759949%);fill-opacity:1;" d="M 192.484375 120.269531 C 192.304688 120.1875 192.144531 120.054688 192.019531 119.878906 C 186.46875 112.082031 193.363281 99.855469 195.707031 96.148438 L 141.574219 63.242188 C 141 62.898438 140.820312 62.148438 141.167969 61.574219 C 141.515625 61.003906 142.265625 60.824219 142.835938 61.167969 L 198.042969 94.726562 C 198.328125 94.898438 198.535156 95.183594 198.605469 95.511719 C 198.671875 95.839844 198.601562 96.183594 198.40625 96.457031 C 198.308594 96.597656 188.523438 110.78125 194 118.472656 C 194.386719 119.019531 194.257812 119.777344 193.714844 120.164062 C 193.339844 120.429688 192.871094 120.457031 192.484375 120.269531 "/>
<path style=" stroke:none;fill-rule:nonzero;fill:rgb(73.728943%,48.629761%,10.198975%);fill-opacity:1;" d="M 147.8125 64.882812 C 148.511719 63.421875 146.566406 61.035156 143.46875 59.558594 C 140.371094 58.082031 137.296875 58.070312 136.59375 59.53125 C 135.898438 60.996094 137.84375 63.378906 140.941406 64.855469 C 144.039062 66.335938 147.117188 66.347656 147.8125 64.882812 "/>
<path style=" stroke:none;fill-rule:nonzero;fill:rgb(73.728943%,48.629761%,10.198975%);fill-opacity:1;" d="M 198.617188 123.644531 C 199.890625 120.972656 198.757812 117.769531 196.082031 116.492188 C 193.40625 115.21875 190.207031 116.351562 188.933594 119.027344 C 187.65625 121.703125 188.789062 124.902344 191.464844 126.175781 C 194.136719 127.449219 197.339844 126.320312 198.617188 123.644531 "/>
</g>
</svg>
