<?xml version="1.0" encoding="UTF-8"?>
<svg xmlns="http://www.w3.org/2000/svg" xmlns:xlink="http://www.w3.org/1999/xlink" width="224.87999pt" height="225pt" viewBox="0 0 224.87999 225" version="1.2">
<defs>
<clipPath id="clip1">
  <path d="M 0.4375 101.355469 L 184.429688 101.355469 L 184.429688 208 L 0.4375 208 Z M 0.4375 101.355469 "/>
</clipPath>
<clipPath id="clip2">
  <path d="M 178.214844 155.1875 C 183.125 158.492188 184.980469 161.273438 183.78125 163.527344 C 183.351562 164.257812 182.601562 164.921875 181.527344 165.523438 L 110.921875 206.320312 L 110.859375 206.320312 C 108.007812 207.992188 104.457031 208.28125 100.210938 207.1875 C 97.148438 206.4375 93.695312 204.957031 89.855469 202.746094 L 9.277344 156.15625 C 4.816406 153.578125 2.039062 151.28125 0.945312 149.265625 C 0.902344 149.199219 0.851562 149.113281 0.785156 149.007812 C 0.335938 147.910156 0.390625 146.902344 0.945312 145.980469 C 1.375 145.292969 2.082031 144.648438 3.070312 144.046875 L 73.707031 103.222656 C 77.804688 100.90625 83.292969 101.3125 90.175781 104.449219 C 91.097656 105.09375 92.117188 105.714844 93.230469 106.316406 L 100.808594 110.695312 C 98.664062 112.921875 96.289062 115.011719 93.679688 116.972656 L 93.359375 116.777344 C 86.242188 112.660156 81.535156 111.261719 79.238281 112.59375 L 46.625 131.300781 C 45.828125 131.75 45.605469 132.382812 45.945312 133.199219 C 46.632812 134.679688 49.292969 136.761719 53.925781 139.445312 L 54.808594 139.941406 L 41.382812 147.71875 C 40.050781 148.449219 39.964844 149.15625 41.121094 149.84375 L 42.75 150.792969 L 41.382812 151.585938 C 40.050781 152.3125 39.964844 153.019531 41.121094 153.707031 L 54.746094 161.582031 L 48.167969 165.363281 C 47.394531 165.835938 47.394531 166.4375 48.167969 167.167969 C 48.574219 167.507812 49.175781 167.929688 49.96875 168.421875 L 71.164062 180.589844 C 73.523438 181.925781 75.304688 182.277344 76.503906 181.65625 L 83.003906 177.90625 L 93.90625 184.199219 C 95.066406 184.867188 96.289062 184.808594 97.574219 184.039062 L 97.640625 184.039062 L 114.589844 174.25 L 117.355469 175.828125 C 118.707031 176.621094 119.976562 177.320312 121.152344 177.921875 C 126.191406 180.367188 129.636719 181.074219 131.476562 180.046875 L 164.03125 161.339844 C 164.351562 161.144531 164.566406 160.941406 164.671875 160.726562 C 165.1875 159.871094 164.535156 158.675781 162.710938 157.152344 C 161.382812 156.015625 159.398438 154.6875 156.761719 153.160156 L 152.933594 150.957031 C 155.285156 148.953125 157.421875 146.824219 159.351562 144.5625 L 173.746094 152.871094 C 175.355469 153.816406 176.84375 154.585938 178.214844 155.1875 "/>
</clipPath>
<clipPath id="clip3">
  <path d="M -46.035156 181.398438 L 138.777344 288.308594 L 231.453125 127.789062 L 46.640625 20.878906 Z M -46.035156 181.398438 "/>
</clipPath>
<linearGradient id="linear0" gradientUnits="userSpaceOnUse" x1="-0.545646" y1="0" x2="1.545785" y2="0" gradientTransform="matrix(44.146519,-76.462758,76.390095,44.188508,70.299207,193.007671)">
<stop offset="0" style="stop-color:rgb(92.89856%,97.599792%,99.198914%);stop-opacity:1;"/>
<stop offset="0.25" style="stop-color:rgb(92.89856%,97.599792%,99.198914%);stop-opacity:1;"/>
<stop offset="0.3125" style="stop-color:rgb(92.738342%,97.599792%,99.198914%);stop-opacity:1;"/>
<stop offset="0.328125" style="stop-color:rgb(92.408752%,97.599792%,99.198914%);stop-opacity:1;"/>
<stop offset="0.335938" style="stop-color:rgb(92.050171%,97.473145%,99.198914%);stop-opacity:1;"/>
<stop offset="0.34375" style="stop-color:rgb(91.830444%,97.322083%,99.198914%);stop-opacity:1;"/>
<stop offset="0.351562" style="stop-color:rgb(91.641235%,97.299194%,99.198914%);stop-opacity:1;"/>
<stop offset="0.359375" style="stop-color:rgb(91.441345%,97.299194%,99.198914%);stop-opacity:1;"/>
<stop offset="0.367188" style="stop-color:rgb(91.227722%,97.299194%,99.198914%);stop-opacity:1;"/>
<stop offset="0.371094" style="stop-color:rgb(90.895081%,97.099304%,99.198914%);stop-opacity:1;"/>
<stop offset="0.375" style="stop-color:rgb(90.734863%,96.899414%,99.198914%);stop-opacity:1;"/>
<stop offset="0.382812" style="stop-color:rgb(90.666199%,96.899414%,99.198914%);stop-opacity:1;"/>
<stop offset="0.386719" style="stop-color:rgb(90.39917%,96.899414%,98.999023%);stop-opacity:1;"/>
<stop offset="0.390625" style="stop-color:rgb(90.19928%,96.899414%,98.799133%);stop-opacity:1;"/>
<stop offset="0.398438" style="stop-color:rgb(90.028381%,96.899414%,98.799133%);stop-opacity:1;"/>
<stop offset="0.40625" style="stop-color:rgb(89.828491%,96.730042%,98.799133%);stop-opacity:1;"/>
<stop offset="0.421875" style="stop-color:rgb(89.619446%,96.530151%,98.799133%);stop-opacity:1;"/>
<stop offset="0.429687" style="stop-color:rgb(89.266968%,96.499634%,98.799133%);stop-opacity:1;"/>
<stop offset="0.4375" style="stop-color:rgb(89.047241%,96.499634%,98.799133%);stop-opacity:1;"/>
<stop offset="0.445312" style="stop-color:rgb(88.83667%,96.499634%,98.799133%);stop-opacity:1;"/>
<stop offset="0.453125" style="stop-color:rgb(88.63678%,96.337891%,98.799133%);stop-opacity:1;"/>
<stop offset="0.460937" style="stop-color:rgb(88.442993%,96.138%,98.799133%);stop-opacity:1;"/>
<stop offset="0.464844" style="stop-color:rgb(88.043213%,96.099854%,98.799133%);stop-opacity:1;"/>
<stop offset="0.46875" style="stop-color:rgb(87.799072%,96.099854%,98.799133%);stop-opacity:1;"/>
<stop offset="0.484375" style="stop-color:rgb(87.649536%,96.099854%,98.640442%);stop-opacity:1;"/>
<stop offset="0.492187" style="stop-color:rgb(87.339783%,95.941162%,98.440552%);stop-opacity:1;"/>
<stop offset="0.5" style="stop-color:rgb(87.139893%,95.739746%,98.399353%);stop-opacity:1;"/>
<stop offset="0.507812" style="stop-color:rgb(86.950684%,95.698547%,98.399353%);stop-opacity:1;"/>
<stop offset="0.515625" style="stop-color:rgb(86.608887%,95.698547%,98.399353%);stop-opacity:1;"/>
<stop offset="0.523438" style="stop-color:rgb(86.357117%,95.698547%,98.399353%);stop-opacity:1;"/>
<stop offset="0.53125" style="stop-color:rgb(86.141968%,95.542908%,98.399353%);stop-opacity:1;"/>
<stop offset="0.539062" style="stop-color:rgb(85.942078%,95.343018%,98.399353%);stop-opacity:1;"/>
<stop offset="0.542969" style="stop-color:rgb(85.60791%,95.298767%,98.399353%);stop-opacity:1;"/>
<stop offset="0.546875" style="stop-color:rgb(85.317993%,95.298767%,98.399353%);stop-opacity:1;"/>
<stop offset="0.550781" style="stop-color:rgb(85.20813%,95.298767%,98.199463%);stop-opacity:1;"/>
<stop offset="0.554687" style="stop-color:rgb(85.099792%,95.298767%,97.999573%);stop-opacity:1;"/>
<stop offset="0.558594" style="stop-color:rgb(84.898376%,95.098877%,97.999573%);stop-opacity:1;"/>
<stop offset="0.5625" style="stop-color:rgb(84.698486%,94.898987%,97.999573%);stop-opacity:1;"/>
<stop offset="0.570312" style="stop-color:rgb(84.550476%,94.898987%,97.999573%);stop-opacity:1;"/>
<stop offset="0.578125" style="stop-color:rgb(84.350586%,94.898987%,97.999573%);stop-opacity:1;"/>
<stop offset="0.585938" style="stop-color:rgb(84.155273%,94.898987%,97.999573%);stop-opacity:1;"/>
<stop offset="0.59375" style="stop-color:rgb(83.955383%,94.898987%,97.999573%);stop-opacity:1;"/>
<stop offset="0.601562" style="stop-color:rgb(83.766174%,94.766235%,97.999573%);stop-opacity:1;"/>
<stop offset="0.605469" style="stop-color:rgb(83.422852%,94.566345%,97.999573%);stop-opacity:1;"/>
<stop offset="0.609375" style="stop-color:rgb(83.210754%,94.499207%,97.999573%);stop-opacity:1;"/>
<stop offset="0.617187" style="stop-color:rgb(83.154297%,94.499207%,97.853088%);stop-opacity:1;"/>
<stop offset="0.621094" style="stop-color:rgb(82.83844%,94.499207%,97.653198%);stop-opacity:1;"/>
<stop offset="0.625" style="stop-color:rgb(82.577515%,94.499207%,97.599792%);stop-opacity:1;"/>
<stop offset="0.640625" style="stop-color:rgb(82.487488%,94.334412%,97.599792%);stop-opacity:1;"/>
<stop offset="0.648438" style="stop-color:rgb(82.3349%,94.134521%,97.599792%);stop-opacity:1;"/>
<stop offset="0.65625" style="stop-color:rgb(82.13501%,94.099426%,97.599792%);stop-opacity:1;"/>
<stop offset="0.664062" style="stop-color:rgb(81.860352%,94.099426%,97.599792%);stop-opacity:1;"/>
<stop offset="0.671875" style="stop-color:rgb(81.660461%,94.099426%,97.599792%);stop-opacity:1;"/>
<stop offset="0.679687" style="stop-color:rgb(81.471252%,93.971252%,97.599792%);stop-opacity:1;"/>
<stop offset="0.6875" style="stop-color:rgb(81.271362%,93.771362%,97.599792%);stop-opacity:1;"/>
<stop offset="0.703125" style="stop-color:rgb(81.033325%,93.699646%,97.599792%);stop-opacity:1;"/>
<stop offset="0.710938" style="stop-color:rgb(80.703735%,93.699646%,97.599792%);stop-opacity:1;"/>
<stop offset="0.71875" style="stop-color:rgb(80.46875%,93.699646%,97.599792%);stop-opacity:1;"/>
<stop offset="0.75" style="stop-color:rgb(80.21698%,93.699646%,97.599792%);stop-opacity:1;"/>
<stop offset="0.875" style="stop-color:rgb(80.01709%,93.60199%,97.599792%);stop-opacity:1;"/>
<stop offset="1" style="stop-color:rgb(79.998779%,93.405151%,97.599792%);stop-opacity:1;"/>
</linearGradient>
<clipPath id="clip4">
  <path d="M 45.46875 112 L 165 112 L 165 161 L 45.46875 161 Z M 45.46875 112 "/>
</clipPath>
<clipPath id="clip5">
  <path d="M 152.933594 150.957031 L 156.761719 153.160156 C 159.398438 154.6875 161.382812 156.015625 162.710938 157.152344 C 164.535156 158.675781 165.1875 159.871094 164.671875 160.726562 C 164.417969 160.0625 163.765625 159.3125 162.710938 158.472656 C 161.382812 157.335938 159.398438 156.007812 156.761719 154.480469 L 152 151.746094 C 152.3125 151.484375 152.625 151.21875 152.933594 150.957031 Z M 45.945312 133.199219 C 45.605469 132.382812 45.828125 131.75 46.625 131.300781 L 79.238281 112.59375 C 81.535156 111.261719 86.242188 112.660156 93.359375 116.777344 L 93.679688 116.972656 C 93.363281 117.214844 93.035156 117.457031 92.703125 117.695312 C 85.953125 113.886719 81.464844 112.636719 79.238281 113.945312 L 46.625 132.617188 C 46.34375 132.8125 46.121094 133.003906 45.945312 133.199219 "/>
</clipPath>
<clipPath id="clip6">
  <path d="M 45.605469 111.246094 L 45.605469 160.726562 L 165.1875 160.742188 L 165.1875 111.261719 Z M 45.605469 111.246094 "/>
</clipPath>
<linearGradient id="linear1" gradientUnits="userSpaceOnUse" x1="-0.00525996" y1="0" x2="1.002142" y2="0" gradientTransform="matrix(118.644959,0.0160985,0,118.757813,46.229411,136.406598)">
<stop offset="0" style="stop-color:rgb(34.899902%,77.999878%,94.099426%);stop-opacity:1;"/>
<stop offset="0.125" style="stop-color:rgb(34.899902%,77.999878%,94.099426%);stop-opacity:1;"/>
<stop offset="0.1875" style="stop-color:rgb(34.899902%,77.999878%,94.099426%);stop-opacity:1;"/>
<stop offset="0.203125" style="stop-color:rgb(34.899902%,77.999878%,94.099426%);stop-opacity:1;"/>
<stop offset="0.210938" style="stop-color:rgb(34.899902%,77.999878%,94.099426%);stop-opacity:1;"/>
<stop offset="0.214844" style="stop-color:rgb(35.267639%,78.367615%,93.93158%);stop-opacity:1;"/>
<stop offset="0.21875" style="stop-color:rgb(35.635376%,78.735352%,93.763733%);stop-opacity:1;"/>
<stop offset="0.222656" style="stop-color:rgb(36.026001%,78.926086%,93.93158%);stop-opacity:1;"/>
<stop offset="0.226563" style="stop-color:rgb(36.416626%,79.116821%,94.099426%);stop-opacity:1;"/>
<stop offset="0.230469" style="stop-color:rgb(37.205505%,79.556274%,94.099426%);stop-opacity:1;"/>
<stop offset="0.234375" style="stop-color:rgb(37.995911%,79.997253%,94.099426%);stop-opacity:1;"/>
<stop offset="0.238281" style="stop-color:rgb(38.775635%,80.197144%,93.899536%);stop-opacity:1;"/>
<stop offset="0.242188" style="stop-color:rgb(39.556885%,80.39856%,93.699646%);stop-opacity:1;"/>
<stop offset="0.246094" style="stop-color:rgb(40.336609%,80.778503%,93.699646%);stop-opacity:1;"/>
<stop offset="0.25" style="stop-color:rgb(41.117859%,81.158447%,93.699646%);stop-opacity:1;"/>
<stop offset="0.253906" style="stop-color:rgb(41.856384%,81.349182%,93.699646%);stop-opacity:1;"/>
<stop offset="0.257813" style="stop-color:rgb(42.59491%,81.539917%,93.699646%);stop-opacity:1;"/>
<stop offset="0.261719" style="stop-color:rgb(43.566895%,81.768799%,93.537903%);stop-opacity:1;"/>
<stop offset="0.265625" style="stop-color:rgb(44.540405%,81.999207%,93.377686%);stop-opacity:1;"/>
<stop offset="0.269531" style="stop-color:rgb(45.620728%,82.350159%,93.338013%);stop-opacity:1;"/>
<stop offset="0.273438" style="stop-color:rgb(46.702576%,82.701111%,93.299866%);stop-opacity:1;"/>
<stop offset="0.277344" style="stop-color:rgb(47.625732%,82.899475%,93.299866%);stop-opacity:1;"/>
<stop offset="0.28125" style="stop-color:rgb(48.550415%,83.099365%,93.299866%);stop-opacity:1;"/>
<stop offset="0.285156" style="stop-color:rgb(49.719238%,83.480835%,93.299866%);stop-opacity:1;"/>
<stop offset="0.289063" style="stop-color:rgb(50.889587%,83.862305%,93.299866%);stop-opacity:1;"/>
<stop offset="0.292969" style="stop-color:rgb(51.817322%,84.25293%,93.299866%);stop-opacity:1;"/>
<stop offset="0.296875" style="stop-color:rgb(52.745056%,84.643555%,93.299866%);stop-opacity:1;"/>
<stop offset="0.300781" style="stop-color:rgb(53.909302%,85.03418%,93.499756%);stop-opacity:1;"/>
<stop offset="0.304688" style="stop-color:rgb(55.073547%,85.424805%,93.699646%);stop-opacity:1;"/>
<stop offset="0.308594" style="stop-color:rgb(56.20575%,85.813904%,93.699646%);stop-opacity:1;"/>
<stop offset="0.3125" style="stop-color:rgb(57.339478%,86.204529%,93.699646%);stop-opacity:1;"/>
<stop offset="0.316406" style="stop-color:rgb(58.842468%,86.643982%,93.699646%);stop-opacity:1;"/>
<stop offset="0.320313" style="stop-color:rgb(60.345459%,87.084961%,93.699646%);stop-opacity:1;"/>
<stop offset="0.324219" style="stop-color:rgb(61.477661%,87.42981%,93.899536%);stop-opacity:1;"/>
<stop offset="0.328125" style="stop-color:rgb(62.609863%,87.774658%,94.099426%);stop-opacity:1;"/>
<stop offset="0.332031" style="stop-color:rgb(63.949585%,88.160706%,94.299316%);stop-opacity:1;"/>
<stop offset="0.335938" style="stop-color:rgb(65.290833%,88.546753%,94.499207%);stop-opacity:1;"/>
<stop offset="0.339844" style="stop-color:rgb(66.287231%,88.937378%,94.499207%);stop-opacity:1;"/>
<stop offset="0.34375" style="stop-color:rgb(67.285156%,89.328003%,94.499207%);stop-opacity:1;"/>
<stop offset="0.347656" style="stop-color:rgb(68.606567%,89.718628%,94.499207%);stop-opacity:1;"/>
<stop offset="0.351563" style="stop-color:rgb(69.927979%,90.109253%,94.499207%);stop-opacity:1;"/>
<stop offset="0.355469" style="stop-color:rgb(71.400452%,90.548706%,94.894409%);stop-opacity:1;"/>
<stop offset="0.359375" style="stop-color:rgb(72.872925%,90.989685%,95.289612%);stop-opacity:1;"/>
<stop offset="0.375" style="stop-color:rgb(72.885132%,90.994263%,95.294189%);stop-opacity:1;"/>
<stop offset="0.5" style="stop-color:rgb(72.898865%,90.99884%,95.298767%);stop-opacity:1;"/>
<stop offset="1" style="stop-color:rgb(72.898865%,90.99884%,95.298767%);stop-opacity:1;"/>
</linearGradient>
<clipPath id="clip7">
  <path d="M 47.398438 161.242188 L 56.40625 161.242188 L 56.40625 167.683594 L 47.398438 167.683594 Z M 47.398438 161.242188 "/>
</clipPath>
<clipPath id="clip8">
  <path d="M 56.304688 162.480469 L 48.167969 167.167969 C 47.394531 166.4375 47.394531 165.835938 48.167969 165.363281 L 54.746094 161.582031 L 56.304688 162.480469 "/>
</clipPath>
</defs>
<g id="surface1">
<path style=" stroke:none;fill-rule:evenodd;fill:rgb(12.548828%,15.289307%,33.729553%);fill-opacity:1;" d="M 189.3125 146.980469 L 187.125 152.453125 L 163.53125 138.914062 C 164.265625 137.761719 164.953125 136.582031 165.589844 135.371094 L 177.734375 142.34375 C 179.105469 143.136719 180.371094 143.824219 181.527344 144.402344 C 184.789062 145.992188 187.382812 146.851562 189.3125 146.980469 Z M 107.851562 101.566406 C 107.042969 102.894531 106.175781 104.1875 105.246094 105.445312 L 87.410156 95.207031 L 88.085938 93.371094 L 131.269531 68.417969 C 131.003906 69.96875 130.867188 71.585938 130.867188 73.28125 C 130.867188 76.875 131.484375 80.136719 132.714844 83.066406 L 122.953125 88.671875 L 117.164062 85.320312 C 116.070312 84.675781 115.210938 85.085938 114.589844 86.546875 L 114.558594 86.609375 L 112.628906 91.34375 C 112.140625 92.769531 111.597656 94.164062 111.003906 95.527344 L 107 97.816406 C 106.207031 98.242188 105.980469 98.875 106.324219 99.714844 C 106.574219 100.253906 107.082031 100.867188 107.851562 101.566406 Z M 216.527344 78.820312 L 214.050781 85.128906 L 203.5 79.042969 C 201.117188 77.710938 199.316406 77.378906 198.09375 78.046875 L 181.175781 87.769531 C 180.402344 88.242188 180.402344 88.84375 181.175781 89.574219 C 181.582031 89.914062 182.183594 90.335938 182.976562 90.828125 L 204.171875 103 C 205.007812 103.46875 205.769531 103.824219 206.457031 104.0625 L 203.402344 111.789062 L 168.371094 91.679688 C 170.464844 89.375 171.953125 86.570312 172.84375 83.261719 C 174.324219 77.683594 173.660156 72.324219 170.851562 67.195312 C 169.4375 64.640625 167.695312 62.515625 165.625 60.820312 C 165.242188 60.175781 164.828125 59.554688 164.382812 58.953125 C 162.582031 56.570312 160.609375 54.894531 158.464844 53.929688 C 158.03125 53.753906 157.585938 53.605469 157.128906 53.480469 L 157.53125 53.253906 C 158.691406 52.589844 159.945312 52.160156 161.296875 51.96875 C 161.683594 51.878906 162.082031 51.835938 162.488281 51.835938 C 163.707031 51.730469 165.027344 51.792969 166.441406 52.03125 C 168.675781 52.417969 171.121094 53.222656 173.777344 54.445312 C 175.085938 55.027344 176.445312 55.722656 177.863281 56.539062 C 178.078125 56.644531 178.3125 56.765625 178.570312 56.890625 L 216.527344 78.820312 "/>
<path style=" stroke:none;fill-rule:evenodd;fill:rgb(15.289307%,31.369019%,65.489197%);fill-opacity:1;" d="M 120.445312 20.863281 L 217.425781 76.597656 L 216.527344 78.820312 L 178.570312 56.890625 C 178.3125 56.765625 178.078125 56.644531 177.863281 56.539062 C 176.445312 55.722656 175.085938 55.027344 173.777344 54.445312 C 171.121094 53.222656 168.675781 52.417969 166.441406 52.03125 C 165.027344 51.792969 163.707031 51.730469 162.488281 51.835938 C 162.082031 51.835938 161.683594 51.878906 161.296875 51.96875 C 159.945312 52.160156 158.691406 52.589844 157.53125 53.253906 L 157.128906 53.480469 C 156.035156 53.179688 154.894531 53.027344 153.703125 53.027344 C 153.46875 53.050781 153.234375 53.0625 153 53.0625 L 147.238281 53.0625 C 146.789062 53.039062 146.339844 53.007812 145.890625 52.964844 C 145.394531 52.964844 144.925781 52.996094 144.472656 53.0625 C 143.746094 53.148438 143.027344 53.296875 142.316406 53.511719 C 139.703125 54.371094 137.355469 56.164062 135.273438 58.890625 C 133.222656 61.664062 131.886719 64.839844 131.269531 68.417969 L 88.085938 93.371094 L 117.710938 19.316406 L 117.839844 19.414062 L 120.445312 20.863281 "/>
<path style=" stroke:none;fill-rule:evenodd;fill:rgb(37.249756%,71.369934%,78.039551%);fill-opacity:1;" d="M 0.785156 149.007812 C 0.851562 149.113281 0.902344 149.199219 0.945312 149.265625 C 2.039062 151.28125 4.816406 153.578125 9.277344 156.15625 L 89.855469 202.746094 C 93.695312 204.957031 97.148438 206.4375 100.210938 207.1875 C 104.457031 208.28125 108.007812 207.992188 110.859375 206.320312 L 110.921875 206.320312 L 181.527344 165.523438 C 182.601562 164.921875 183.351562 164.257812 183.78125 163.527344 C 184.640625 165.417969 183.886719 167.070312 181.527344 168.488281 L 110.859375 209.3125 C 108.007812 210.945312 104.457031 211.234375 100.210938 210.183594 C 97.148438 209.363281 93.695312 207.851562 89.855469 205.640625 L 9.277344 159.117188 C 4.796875 156.5625 2.019531 154.265625 0.945312 152.226562 C 0.328125 151.046875 0.269531 149.972656 0.785156 149.007812 Z M 140.339844 159.375 L 139.183594 160.050781 L 134.582031 162.707031 L 127.554688 166.765625 L 123.144531 169.308594 L 121.476562 170.273438 L 120.125 171.046875 L 118.707031 171.867188 L 117.101562 172.800781 L 114.589844 174.25 L 97.640625 184.039062 L 97.574219 184.039062 C 96.289062 184.808594 95.066406 184.867188 93.90625 184.199219 L 83.003906 177.90625 L 56.304688 162.480469 L 54.746094 161.582031 L 41.121094 153.707031 C 39.964844 153.019531 40.050781 152.3125 41.382812 151.585938 L 42.75 150.792969 L 93.90625 180.335938 C 95.066406 181 96.289062 180.945312 97.574219 180.175781 L 97.640625 180.175781 L 145.019531 152.808594 L 145.085938 152.808594 L 145.789062 152.355469 C 146.9375 151.625 148.046875 150.867188 149.121094 150.085938 C 149.460938 149.839844 149.792969 149.59375 150.117188 149.34375 C 152.644531 147.4375 154.957031 145.398438 157.050781 143.226562 C 158.40625 141.824219 159.671875 140.363281 160.847656 138.847656 C 161.105469 138.507812 161.363281 138.167969 161.617188 137.820312 C 162.433594 136.714844 163.199219 135.582031 163.917969 134.421875 C 164.96875 132.730469 165.917969 130.980469 166.765625 129.175781 L 170.464844 120.046875 C 171.175781 120.707031 171.316406 121.644531 170.878906 122.863281 L 166.765625 133.039062 C 166.390625 133.832031 166 134.609375 165.589844 135.371094 C 164.953125 136.582031 164.265625 137.761719 163.53125 138.914062 C 163.300781 139.273438 163.066406 139.632812 162.824219 139.992188 C 161.757812 141.570312 160.597656 143.09375 159.351562 144.5625 C 157.421875 146.824219 155.285156 148.953125 152.933594 150.957031 C 152.625 151.21875 152.3125 151.484375 152 151.746094 C 150.785156 152.734375 149.519531 153.691406 148.203125 154.609375 C 147.496094 155.109375 146.769531 155.597656 146.03125 156.074219 C 145.953125 156.121094 145.871094 156.167969 145.789062 156.21875 L 145.085938 156.671875 L 145.019531 156.671875 L 144.8125 156.785156 Z M 186.257812 156.796875 C 188.1875 156.414062 189.59375 155.203125 190.472656 153.160156 L 219.679688 80.492188 C 221.734375 75.40625 218.21875 70.222656 209.128906 64.941406 L 128.582031 18.417969 C 124.765625 16.230469 121.59375 14.941406 119.0625 14.554688 C 121.957031 13.996094 126.105469 15.28125 131.507812 18.417969 L 212.054688 64.941406 C 221.167969 70.222656 224.6875 75.40625 222.605469 80.492188 L 193.398438 153.160156 C 192.175781 156.101562 189.796875 157.3125 186.257812 156.796875 "/>
<path style=" stroke:none;fill-rule:evenodd;fill:rgb(96.078491%,98.81897%,99.609375%);fill-opacity:1;" d="M 206.457031 104.0625 L 214.050781 85.128906 L 216.527344 78.820312 L 217.425781 76.597656 L 120.445312 20.863281 L 118.675781 19.800781 L 118.609375 19.800781 L 116.199219 18.417969 L 85.382812 95.496094 L 104.476562 106.460938 C 103.335938 107.921875 102.113281 109.335938 100.808594 110.695312 L 93.230469 106.316406 C 92.117188 105.714844 91.097656 105.09375 90.175781 104.449219 L 87.730469 102.644531 C 84.171875 99.640625 82.296875 96.925781 82.101562 94.496094 C 82.101562 94.476562 82.101562 94.445312 82.101562 94.402344 C 82.101562 94.1875 82.101562 93.996094 82.101562 93.824219 C 82.101562 93.628906 82.101562 93.4375 82.101562 93.242188 C 82.125 92.449219 82.316406 91.664062 82.683594 90.894531 L 111.855469 18.191406 C 113.058594 15.382812 115.3125 14.15625 118.609375 14.519531 C 118.761719 14.519531 118.910156 14.53125 119.0625 14.554688 C 121.59375 14.941406 124.765625 16.230469 128.582031 18.417969 L 209.128906 64.941406 C 218.21875 70.222656 221.734375 75.40625 219.679688 80.492188 L 190.472656 153.160156 C 189.59375 155.203125 188.1875 156.414062 186.257812 156.796875 C 186.214844 156.796875 186.160156 156.796875 186.097656 156.796875 C 185.988281 156.820312 185.871094 156.839844 185.742188 156.863281 C 185.675781 156.863281 185.625 156.882812 185.582031 156.925781 C 185.515625 156.925781 185.464844 156.925781 185.421875 156.925781 L 179.855469 155.867188 C 179.75 155.800781 179.609375 155.746094 179.4375 155.703125 L 178.214844 155.1875 C 176.84375 154.585938 175.355469 153.816406 173.746094 152.871094 L 159.351562 144.5625 C 160.597656 143.09375 161.757812 141.570312 162.824219 139.992188 L 186.578125 153.644531 L 187.125 152.453125 L 189.3125 146.980469 L 203.402344 111.789062 L 206.457031 104.0625 "/>
<path style=" stroke:none;fill-rule:evenodd;fill:rgb(23.919678%,37.649536%,71.369934%);fill-opacity:1;" d="M 187.125 152.453125 L 186.578125 153.644531 L 162.824219 139.992188 C 163.066406 139.632812 163.300781 139.273438 163.53125 138.914062 Z M 88.085938 93.371094 L 87.410156 95.207031 L 105.246094 105.445312 C 104.992188 105.789062 104.734375 106.125 104.476562 106.460938 L 85.382812 95.496094 L 116.199219 18.417969 L 118.609375 19.800781 L 117.839844 19.414062 L 117.710938 19.316406 L 88.085938 93.371094 "/>
<path style=" stroke:none;fill-rule:evenodd;fill:rgb(16.859436%,22.749329%,56.858826%);fill-opacity:1;" d="M 111.003906 95.527344 C 110.082031 97.617188 109.03125 99.628906 107.851562 101.566406 C 107.082031 100.867188 106.574219 100.253906 106.324219 99.714844 C 105.980469 98.875 106.207031 98.242188 107 97.816406 Z M 214.050781 85.128906 L 206.457031 104.0625 C 205.769531 103.824219 205.007812 103.46875 204.171875 103 L 182.976562 90.828125 C 182.183594 90.335938 181.582031 89.914062 181.175781 89.574219 C 180.402344 88.84375 180.402344 88.242188 181.175781 87.769531 L 198.09375 78.046875 C 199.316406 77.378906 201.117188 77.710938 203.5 79.042969 Z M 203.402344 111.789062 L 189.3125 146.980469 C 187.382812 146.851562 184.789062 145.992188 181.527344 144.402344 C 180.371094 143.824219 179.105469 143.136719 177.734375 142.34375 L 165.589844 135.371094 C 166 134.609375 166.390625 133.832031 166.765625 133.039062 L 170.878906 122.863281 C 171.316406 121.644531 171.175781 120.707031 170.464844 120.046875 L 170.878906 119 C 171.394531 117.5625 171.105469 116.507812 170.015625 115.84375 L 122.953125 88.671875 L 132.714844 83.066406 C 133.375 84.65625 134.21875 86.148438 135.242188 87.546875 C 135.308594 87.632812 135.371094 87.71875 135.433594 87.800781 C 138.257812 92.535156 142.289062 95.710938 147.53125 97.332031 C 153.039062 99.003906 158.261719 98.480469 163.195312 95.753906 C 165.203125 94.632812 166.929688 93.277344 168.371094 91.679688 L 203.402344 111.789062 "/>
<path style=" stroke:none;fill-rule:evenodd;fill:rgb(45.878601%,63.919067%,86.268616%);fill-opacity:1;" d="M 53.054688 131.300781 C 53.378906 131.167969 53.753906 131.160156 54.183594 131.265625 C 54.269531 131.265625 54.386719 131.277344 54.535156 131.300781 L 54.410156 131.300781 L 57.945312 133.519531 L 58.109375 133.519531 L 58.332031 133.554688 L 58.109375 133.714844 L 57.945312 133.714844 L 54.410156 135.773438 C 53.980469 136.074219 53.527344 136.085938 53.054688 135.808594 L 53.054688 135.773438 L 49.582031 133.714844 C 49.457031 133.609375 49.355469 133.554688 49.292969 133.554688 C 49.355469 133.550781 49.433594 133.507812 49.519531 133.421875 Z M 121.890625 176.085938 C 121.914062 176.085938 121.988281 176.042969 122.117188 175.957031 L 123.40625 175.117188 C 123.917969 174.925781 124.371094 174.925781 124.753906 175.117188 L 128.519531 177.371094 C 128.519531 177.394531 128.464844 177.449219 128.359375 177.53125 L 128.292969 177.53125 L 126.945312 178.308594 C 126.535156 178.585938 126.148438 178.585938 125.785156 178.308594 L 122.246094 176.183594 C 122.03125 176.183594 121.914062 176.148438 121.890625 176.085938 Z M 139.710938 165.621094 C 139.734375 165.621094 139.777344 165.535156 139.839844 165.363281 L 143.476562 163.398438 C 143.90625 163.140625 144.355469 163.140625 144.824219 163.398438 L 148.496094 165.363281 L 148.625 165.621094 C 148.625 165.664062 148.582031 165.738281 148.496094 165.847656 L 148.363281 165.847656 L 144.824219 167.9375 C 144.355469 168.195312 143.90625 168.195312 143.476562 167.9375 L 139.839844 165.847656 C 139.777344 165.738281 139.734375 165.664062 139.710938 165.621094 Z M 139.132812 171.160156 L 139.132812 171.289062 C 138.792969 171.566406 138.394531 171.523438 137.941406 171.160156 L 129.675781 166.425781 C 129.570312 166.382812 129.472656 166.339844 129.386719 166.296875 C 129.472656 166.296875 129.570312 166.285156 129.675781 166.265625 L 133.214844 164.140625 C 133.707031 163.90625 134.160156 163.90625 134.566406 164.140625 L 142.769531 168.839844 C 142.855469 168.949219 142.894531 169.011719 142.894531 169.035156 C 142.917969 169.078125 142.941406 169.097656 142.960938 169.097656 C 142.917969 169.097656 142.851562 169.152344 142.769531 169.261719 Z M 146.050781 158.375 C 146.652344 158.160156 147.15625 158.160156 147.558594 158.375 L 154.027344 162.175781 L 154.316406 162.273438 C 154.316406 162.359375 154.21875 162.421875 154.027344 162.464844 L 150.519531 164.589844 L 150.617188 164.589844 C 150.101562 164.761719 149.640625 164.761719 149.234375 164.589844 L 149.234375 164.527344 L 142.703125 160.664062 C 142.597656 160.664062 142.511719 160.628906 142.445312 160.566406 C 142.511719 160.566406 142.597656 160.542969 142.703125 160.5 Z M 154.152344 158.054688 L 154.027344 158.054688 L 157.597656 160.117188 C 157.832031 160.246094 157.984375 160.308594 158.046875 160.308594 C 157.984375 160.332031 157.886719 160.394531 157.757812 160.5 L 156.277344 161.40625 C 155.851562 161.59375 155.386719 161.574219 154.894531 161.339844 L 151.421875 159.214844 C 151.316406 159.152344 151.230469 159.09375 151.164062 159.050781 C 151.230469 159.050781 151.316406 158.976562 151.421875 158.828125 L 152.773438 158.054688 L 152.898438 158.054688 C 153.308594 157.863281 153.726562 157.863281 154.152344 158.054688 Z M 120.125 171.046875 L 121.476562 170.273438 L 124.949219 172.191406 C 125.054688 172.320312 125.152344 172.382812 125.238281 172.382812 C 125.152344 172.445312 125.066406 172.480469 124.980469 172.480469 L 124.949219 172.480469 L 123.789062 173.347656 Z M 123.144531 169.308594 L 127.554688 166.765625 L 137.140625 172.09375 C 137.226562 172.175781 137.265625 172.277344 137.265625 172.382812 C 137.265625 172.445312 137.226562 172.5 137.140625 172.542969 L 137.140625 172.480469 L 133.441406 174.574219 L 133.441406 174.636719 C 133.074219 174.894531 132.636719 174.894531 132.121094 174.636719 L 132.121094 174.574219 Z M 118.707031 171.867188 L 122.503906 174.023438 L 121.34375 174.574219 C 121.304688 174.613281 121.238281 174.648438 121.152344 174.667969 C 120.832031 174.839844 120.46875 174.828125 120.058594 174.636719 L 120.058594 174.574219 L 117.101562 172.800781 Z M 134.582031 162.707031 L 139.183594 160.050781 C 139.25 160.066406 139.320312 160.089844 139.390625 160.117188 L 139.359375 160.117188 L 142.769531 162.175781 L 142.867188 162.175781 C 142.992188 162.238281 143.089844 162.273438 143.15625 162.273438 C 143.089844 162.402344 142.960938 162.5 142.769531 162.5625 L 139.359375 164.625 C 138.863281 164.902344 138.394531 164.902344 137.941406 164.625 Z M 144.8125 156.785156 L 145.503906 157.1875 L 145.628906 157.1875 C 145.71875 157.273438 145.769531 157.3125 145.789062 157.3125 C 145.769531 157.378906 145.675781 157.410156 145.503906 157.410156 L 141.964844 159.566406 C 141.640625 159.738281 141.332031 159.792969 141.03125 159.730469 C 140.925781 159.6875 140.796875 159.632812 140.644531 159.566406 L 140.339844 159.375 Z M 146.03125 156.074219 C 146.769531 155.597656 147.496094 155.109375 148.203125 154.609375 L 152 156.796875 C 152 156.882812 151.949219 156.949219 151.839844 156.992188 L 150.390625 157.765625 L 150.488281 157.765625 C 149.996094 158.042969 149.511719 158.042969 149.039062 157.765625 Z M 83.421875 119.066406 C 82.949219 119.277344 82.488281 119.277344 82.039062 119.066406 L 78.46875 117.003906 L 78.46875 117.101562 C 78.425781 116.972656 78.351562 116.875 78.242188 116.8125 C 78.351562 116.8125 78.425781 116.800781 78.46875 116.777344 L 79.914062 115.875 C 80.28125 115.621094 80.710938 115.621094 81.203125 115.875 L 84.707031 117.96875 C 84.882812 117.992188 84.964844 118.042969 84.964844 118.128906 L 83.324219 119.066406 Z M 85.222656 122.367188 L 80.652344 125.003906 L 78.46875 123.667969 C 78.425781 123.648438 78.402344 123.601562 78.402344 123.539062 L 78.46875 123.441406 L 82.101562 121.320312 C 82.597656 121.082031 83.066406 121.082031 83.519531 121.320312 L 83.421875 121.320312 Z M 68.125 132.25 L 63.71875 134.792969 L 55.695312 130.171875 L 55.695312 130.335938 C 55.585938 130.226562 55.511719 130.117188 55.46875 130.011719 C 55.511719 130.011719 55.585938 129.980469 55.695312 129.914062 L 59.199219 127.886719 C 59.546875 127.691406 59.875 127.671875 60.199219 127.820312 C 60.285156 127.820312 60.371094 127.84375 60.453125 127.886719 Z M 62.0625 135.757812 L 57.542969 138.367188 L 55.375 137.160156 C 55.246094 137.054688 55.179688 136.964844 55.179688 136.902344 L 55.375 136.871094 L 58.945312 134.742188 C 59.414062 134.550781 59.875 134.550781 60.328125 134.742188 Z M 88.828125 120.273438 L 86.523438 121.609375 L 84.515625 120.449219 L 84.515625 120.515625 C 84.453125 120.472656 84.410156 120.4375 84.386719 120.417969 C 84.410156 120.417969 84.453125 120.363281 84.515625 120.253906 L 86.09375 119.386719 C 86.136719 119.363281 86.1875 119.355469 86.253906 119.355469 C 86.59375 119.203125 86.949219 119.214844 87.3125 119.386719 Z M 77.277344 117.871094 C 77.363281 117.871094 77.484375 117.90625 77.632812 117.96875 L 81.589844 120.160156 C 81.589844 120.222656 81.457031 120.308594 81.203125 120.417969 L 81.203125 120.320312 L 77.632812 122.378906 L 77.664062 122.378906 C 77.214844 122.617188 76.753906 122.617188 76.28125 122.378906 L 72.644531 120.320312 L 72.644531 120.417969 C 72.625 120.308594 72.582031 120.222656 72.515625 120.160156 C 72.582031 120.160156 72.625 120.117188 72.644531 120.03125 L 76.28125 117.96875 C 76.6875 117.796875 77.019531 117.765625 77.277344 117.871094 Z M 67.175781 123.441406 L 70.683594 121.320312 C 71.070312 121.144531 71.390625 121.101562 71.648438 121.1875 C 71.796875 121.1875 71.90625 121.234375 71.96875 121.320312 L 78.402344 124.988281 C 78.449219 124.988281 78.511719 124.988281 78.597656 124.988281 C 78.511719 125.074219 78.449219 125.128906 78.402344 125.148438 L 74.671875 127.210938 C 74.285156 127.554688 73.867188 127.554688 73.417969 127.210938 L 67.046875 123.636719 L 67.046875 123.667969 C 66.964844 123.582031 66.921875 123.515625 66.921875 123.476562 Z M 73.769531 128.980469 L 69.316406 131.558594 C 69.289062 131.550781 69.261719 131.535156 69.234375 131.523438 L 69.234375 131.394531 L 61.484375 126.984375 L 61.484375 127.015625 C 61.355469 126.886719 61.28125 126.8125 61.257812 126.792969 C 61.28125 126.792969 61.355469 126.75 61.484375 126.660156 L 64.863281 124.539062 C 65.269531 124.386719 65.632812 124.355469 65.957031 124.441406 C 66.042969 124.441406 66.148438 124.472656 66.277344 124.539062 L 73.769531 128.980469 "/>
<path style=" stroke:none;fill-rule:evenodd;fill:rgb(92.939758%,97.648621%,99.609375%);fill-opacity:1;" d="M 53.054688 131.300781 L 49.519531 133.421875 C 49.433594 133.507812 49.355469 133.550781 49.292969 133.554688 C 49.355469 133.554688 49.457031 133.609375 49.582031 133.714844 L 53.054688 135.773438 L 53.054688 135.808594 C 53.527344 136.085938 53.980469 136.074219 54.410156 135.773438 L 57.945312 133.714844 L 58.109375 133.714844 L 58.332031 133.554688 L 58.109375 133.519531 L 57.945312 133.519531 L 54.410156 131.300781 L 54.535156 131.300781 C 54.386719 131.277344 54.269531 131.265625 54.183594 131.265625 C 53.753906 131.160156 53.378906 131.167969 53.054688 131.300781 Z M 121.890625 176.085938 C 121.914062 176.148438 122.03125 176.183594 122.246094 176.183594 L 125.785156 178.308594 C 126.148438 178.585938 126.535156 178.585938 126.945312 178.308594 L 128.292969 177.53125 L 128.359375 177.53125 C 128.464844 177.449219 128.519531 177.394531 128.519531 177.371094 L 124.753906 175.117188 C 124.371094 174.925781 123.917969 174.925781 123.40625 175.117188 L 122.117188 175.957031 C 121.988281 176.042969 121.914062 176.085938 121.890625 176.085938 Z M 139.132812 171.160156 L 142.769531 169.261719 C 142.851562 169.152344 142.917969 169.097656 142.960938 169.097656 C 142.941406 169.097656 142.917969 169.078125 142.894531 169.035156 C 142.894531 169.011719 142.855469 168.949219 142.769531 168.839844 L 134.566406 164.140625 C 134.160156 163.90625 133.707031 163.90625 133.214844 164.140625 L 129.675781 166.265625 C 129.570312 166.285156 129.472656 166.296875 129.386719 166.296875 C 129.472656 166.339844 129.570312 166.382812 129.675781 166.425781 L 137.941406 171.160156 C 138.394531 171.523438 138.792969 171.566406 139.132812 171.289062 Z M 139.710938 165.621094 C 139.734375 165.664062 139.777344 165.738281 139.839844 165.847656 L 143.476562 167.9375 C 143.90625 168.195312 144.355469 168.195312 144.824219 167.9375 L 148.363281 165.847656 L 148.496094 165.847656 C 148.582031 165.738281 148.625 165.664062 148.625 165.621094 L 148.496094 165.363281 L 144.824219 163.398438 C 144.355469 163.140625 143.90625 163.140625 143.476562 163.398438 L 139.839844 165.363281 C 139.777344 165.535156 139.734375 165.621094 139.710938 165.621094 Z M 154.152344 158.054688 C 153.726562 157.863281 153.308594 157.863281 152.898438 158.054688 L 152.773438 158.054688 L 151.421875 158.828125 C 151.316406 158.976562 151.230469 159.050781 151.164062 159.050781 C 151.230469 159.09375 151.316406 159.152344 151.421875 159.214844 L 154.894531 161.339844 C 155.386719 161.574219 155.851562 161.59375 156.277344 161.40625 L 157.757812 160.5 C 157.886719 160.394531 157.984375 160.332031 158.046875 160.308594 C 157.984375 160.308594 157.832031 160.246094 157.597656 160.117188 L 154.027344 158.054688 Z M 146.050781 158.375 L 142.703125 160.5 C 142.597656 160.542969 142.511719 160.566406 142.445312 160.566406 C 142.511719 160.628906 142.597656 160.664062 142.703125 160.664062 L 149.234375 164.527344 L 149.234375 164.589844 C 149.640625 164.761719 150.101562 164.761719 150.617188 164.589844 L 150.519531 164.589844 L 154.027344 162.464844 C 154.21875 162.421875 154.316406 162.359375 154.316406 162.273438 L 154.027344 162.175781 L 147.558594 158.375 C 147.15625 158.160156 146.652344 158.160156 146.050781 158.375 Z M 117.101562 172.800781 L 120.058594 174.574219 L 120.058594 174.636719 C 120.46875 174.828125 120.832031 174.839844 121.152344 174.667969 C 121.238281 174.648438 121.304688 174.613281 121.34375 174.574219 L 122.503906 174.023438 L 118.707031 171.867188 L 120.125 171.046875 L 123.789062 173.347656 L 124.949219 172.480469 L 124.980469 172.480469 C 125.066406 172.480469 125.152344 172.445312 125.238281 172.382812 C 125.152344 172.382812 125.054688 172.320312 124.949219 172.191406 L 121.476562 170.273438 L 123.144531 169.308594 L 132.121094 174.574219 L 132.121094 174.636719 C 132.636719 174.894531 133.074219 174.894531 133.441406 174.636719 L 133.441406 174.574219 L 137.140625 172.480469 L 137.140625 172.542969 C 137.226562 172.5 137.265625 172.445312 137.265625 172.382812 C 137.265625 172.277344 137.226562 172.175781 137.140625 172.09375 L 127.554688 166.765625 L 134.582031 162.707031 L 137.941406 164.625 C 138.394531 164.902344 138.863281 164.902344 139.359375 164.625 L 142.769531 162.5625 C 142.960938 162.5 143.089844 162.402344 143.15625 162.273438 C 143.089844 162.273438 142.992188 162.238281 142.867188 162.175781 L 142.769531 162.175781 L 139.359375 160.117188 L 139.390625 160.117188 C 139.320312 160.089844 139.25 160.066406 139.183594 160.050781 L 140.339844 159.375 L 140.644531 159.566406 C 140.796875 159.632812 140.925781 159.6875 141.03125 159.730469 C 141.332031 159.792969 141.640625 159.738281 141.964844 159.566406 L 145.503906 157.410156 C 145.675781 157.410156 145.769531 157.378906 145.789062 157.3125 C 145.769531 157.3125 145.71875 157.273438 145.628906 157.1875 L 145.503906 157.1875 L 144.8125 156.785156 L 145.019531 156.671875 L 145.085938 156.671875 L 145.789062 156.21875 C 145.871094 156.167969 145.953125 156.121094 146.03125 156.074219 L 149.039062 157.765625 C 149.511719 158.042969 149.996094 158.042969 150.488281 157.765625 L 150.390625 157.765625 L 151.839844 156.992188 C 151.949219 156.949219 152 156.882812 152 156.796875 L 148.203125 154.609375 C 149.519531 153.691406 150.785156 152.734375 152 151.746094 L 156.761719 154.480469 C 159.398438 156.007812 161.382812 157.335938 162.710938 158.472656 C 163.765625 159.3125 164.417969 160.0625 164.671875 160.726562 C 164.566406 160.941406 164.351562 161.144531 164.03125 161.339844 L 131.476562 180.046875 C 129.636719 181.074219 126.191406 180.367188 121.152344 177.921875 C 119.976562 177.320312 118.707031 176.621094 117.355469 175.828125 L 114.589844 174.25 Z M 83.421875 119.066406 L 83.324219 119.066406 L 84.964844 118.128906 C 84.964844 118.042969 84.882812 117.992188 84.707031 117.96875 L 81.203125 115.875 C 80.710938 115.621094 80.28125 115.621094 79.914062 115.875 L 78.46875 116.777344 C 78.425781 116.800781 78.351562 116.8125 78.242188 116.8125 C 78.351562 116.875 78.425781 116.972656 78.46875 117.101562 L 78.46875 117.003906 L 82.039062 119.066406 C 82.488281 119.277344 82.949219 119.277344 83.421875 119.066406 Z M 73.769531 128.980469 L 66.277344 124.539062 C 66.148438 124.472656 66.042969 124.441406 65.957031 124.441406 C 65.632812 124.355469 65.269531 124.386719 64.863281 124.539062 L 61.484375 126.660156 C 61.355469 126.75 61.28125 126.792969 61.257812 126.792969 C 61.28125 126.8125 61.355469 126.886719 61.484375 127.015625 L 61.484375 126.984375 L 69.234375 131.394531 L 69.234375 131.523438 C 69.261719 131.535156 69.289062 131.550781 69.316406 131.558594 L 68.125 132.25 L 60.453125 127.886719 C 60.371094 127.84375 60.285156 127.820312 60.199219 127.820312 C 59.875 127.671875 59.546875 127.691406 59.199219 127.886719 L 55.695312 129.914062 C 55.585938 129.980469 55.511719 130.011719 55.46875 130.011719 C 55.511719 130.117188 55.585938 130.226562 55.695312 130.335938 L 55.695312 130.171875 L 63.71875 134.792969 L 62.0625 135.757812 L 60.328125 134.742188 C 59.875 134.550781 59.414062 134.550781 58.945312 134.742188 L 55.375 136.871094 L 55.179688 136.902344 C 55.179688 136.964844 55.246094 137.054688 55.375 137.160156 L 57.542969 138.367188 L 54.808594 139.941406 L 53.925781 139.445312 C 49.292969 136.761719 46.632812 134.679688 45.945312 133.199219 C 46.121094 133.003906 46.34375 132.8125 46.625 132.617188 L 79.238281 113.945312 C 81.464844 112.636719 85.953125 113.886719 92.703125 117.695312 C 91.691406 118.429688 90.644531 119.144531 89.566406 119.835938 L 88.828125 120.273438 L 87.3125 119.386719 C 86.949219 119.214844 86.59375 119.203125 86.253906 119.355469 C 86.1875 119.355469 86.136719 119.363281 86.09375 119.386719 L 84.515625 120.253906 C 84.453125 120.363281 84.410156 120.417969 84.386719 120.417969 C 84.410156 120.4375 84.453125 120.472656 84.515625 120.515625 L 84.515625 120.449219 L 86.523438 121.609375 L 85.222656 122.367188 L 83.421875 121.320312 L 83.519531 121.320312 C 83.066406 121.082031 82.597656 121.082031 82.101562 121.320312 L 78.46875 123.441406 L 78.402344 123.539062 C 78.402344 123.601562 78.425781 123.648438 78.46875 123.667969 L 80.652344 125.003906 Z M 67.175781 123.441406 L 66.921875 123.476562 C 66.921875 123.515625 66.964844 123.582031 67.046875 123.667969 L 67.046875 123.636719 L 73.417969 127.210938 C 73.867188 127.554688 74.285156 127.554688 74.671875 127.210938 L 78.402344 125.148438 C 78.449219 125.128906 78.511719 125.074219 78.597656 124.988281 C 78.511719 124.988281 78.449219 124.988281 78.402344 124.988281 L 71.96875 121.320312 C 71.90625 121.234375 71.796875 121.1875 71.648438 121.1875 C 71.390625 121.101562 71.070312 121.144531 70.683594 121.320312 Z M 77.277344 117.871094 C 77.019531 117.765625 76.6875 117.796875 76.28125 117.96875 L 72.644531 120.03125 C 72.625 120.117188 72.582031 120.160156 72.515625 120.160156 C 72.582031 120.222656 72.625 120.308594 72.644531 120.417969 L 72.644531 120.320312 L 76.28125 122.378906 C 76.753906 122.617188 77.214844 122.617188 77.664062 122.378906 L 77.632812 122.378906 L 81.203125 120.320312 L 81.203125 120.417969 C 81.457031 120.308594 81.589844 120.222656 81.589844 120.160156 L 77.632812 117.96875 C 77.484375 117.90625 77.363281 117.871094 77.277344 117.871094 "/>
<g clip-path="url(#clip1)" clip-rule="nonzero">
<g clip-path="url(#clip2)" clip-rule="nonzero">
<g clip-path="url(#clip3)" clip-rule="nonzero">
<path style=" stroke:none;fill-rule:nonzero;fill:url(#linear0);" d="M -45.828125 181.488281 L 138.363281 288.035156 L 230.691406 128.121094 L 46.5 21.570312 Z M -45.828125 181.488281 "/>
</g>
</g>
</g>
<g clip-path="url(#clip4)" clip-rule="nonzero">
<g clip-path="url(#clip5)" clip-rule="nonzero">
<g clip-path="url(#clip6)" clip-rule="nonzero">
<path style=" stroke:none;fill-rule:nonzero;fill:url(#linear1);" d="M 45.605469 111.644531 L 45.605469 160.726562 L 165.128906 160.742188 L 165.128906 111.660156 Z M 45.605469 111.644531 "/>
</g>
</g>
</g>
<path style=" stroke:none;fill-rule:evenodd;fill:rgb(76.078796%,92.158508%,95.689392%);fill-opacity:1;" d="M 56.304688 162.480469 L 83.003906 177.90625 L 76.503906 181.65625 C 75.304688 182.277344 73.523438 181.925781 71.164062 180.589844 L 49.96875 168.421875 C 49.175781 167.929688 48.574219 167.507812 48.167969 167.167969 L 56.304688 162.480469 "/>
<g clip-path="url(#clip7)" clip-rule="nonzero">
<g clip-path="url(#clip8)" clip-rule="nonzero">
<path style=" stroke:none;fill-rule:nonzero;fill:rgb(44.309998%,81.568909%,88.62915%);fill-opacity:1;" d="M 47.394531 161.5625 L 47.382812 167.167969 L 56.304688 167.183594 L 56.316406 161.582031 Z M 47.394531 161.5625 "/>
</g>
</g>
<path style=" stroke:none;fill-rule:evenodd;fill:rgb(96.469116%,98.81897%,99.609375%);fill-opacity:1;" d="M 137.203125 134.101562 C 139.070312 135.257812 140.902344 136.417969 142.703125 137.578125 C 143.648438 136.632812 144.601562 135.675781 145.566406 134.710938 C 143.617188 133.421875 141.597656 132.136719 139.519531 130.847656 C 139.21875 131.386719 138.800781 132.007812 138.265625 132.714844 C 137.921875 133.253906 137.570312 133.714844 137.203125 134.101562 Z M 114.542969 151.070312 L 118.804688 153.515625 L 122.695312 151.261719 L 114.207031 146.335938 C 113.796875 146.703125 113.238281 147.203125 112.53125 147.832031 C 112.460938 147.902344 112.386719 147.972656 112.308594 148.042969 C 111.878906 148.40625 111.449219 148.738281 111.019531 149.039062 L 111.453125 149.296875 C 112.46875 149.875 113.480469 150.453125 114.492188 151.035156 Z M 105.441406 134.871094 C 105.292969 134.996094 105.148438 135.117188 105.003906 135.226562 L 110.152344 138.222656 L 110.117188 138.253906 L 127.234375 148.136719 L 131.09375 145.882812 L 107.773438 132.363281 C 107.511719 132.691406 107.242188 133.019531 106.949219 133.34375 C 106.53125 133.8125 106.074219 134.277344 105.582031 134.742188 C 105.535156 134.789062 105.484375 134.832031 105.441406 134.871094 Z M 108.125 147.332031 C 108.136719 147.328125 108.144531 147.320312 108.15625 147.316406 C 108.792969 146.914062 109.597656 146.476562 110.570312 146.011719 C 111.210938 145.714844 111.792969 145.445312 112.308594 145.207031 L 88.535156 131.460938 L 84.644531 133.746094 L 101.753906 143.597656 L 101.722656 143.628906 Z M 92.105469 144.773438 C 92.140625 144.761719 92.171875 144.746094 92.203125 144.726562 C 92.761719 144.382812 93.285156 144.101562 93.78125 143.886719 L 80.464844 136.128906 L 76.539062 138.414062 L 90.046875 146.238281 C 90.328125 145.992188 90.652344 145.742188 91.027344 145.480469 C 91.355469 145.253906 91.714844 145.015625 92.105469 144.773438 Z M 94.003906 146.433594 C 93.832031 146.582031 93.667969 146.730469 93.503906 146.867188 C 93.171875 147.160156 92.863281 147.421875 92.589844 147.65625 L 93.652344 148.300781 L 93.617188 148.332031 L 110.699219 158.183594 L 114.589844 155.929688 L 95.644531 144.984375 C 95.21875 145.367188 94.667969 145.851562 94.003906 146.433594 Z M 96.964844 126.082031 L 93.039062 128.371094 L 101.980469 133.519531 C 102.34375 133.203125 102.699219 132.914062 103.042969 132.652344 C 103.441406 132.347656 103.828125 132.078125 104.199219 131.847656 C 104.679688 131.539062 105.144531 131.292969 105.582031 131.105469 Z M 104.136719 118.871094 C 103.257812 119.792969 102.421875 120.761719 101.628906 121.769531 C 114.964844 129.429688 126.78125 136.558594 137.074219 143.148438 C 137.957031 142.351562 138.824219 141.484375 139.679688 140.539062 C 129.28125 133.820312 117.433594 126.597656 104.136719 118.871094 Z M 137.941406 114.75 L 137.941406 114.8125 C 143.5625 118.183594 149.191406 121.542969 154.832031 124.890625 C 155.710938 123.839844 156.597656 122.777344 157.5 121.703125 C 149.375 116.746094 140.710938 111.679688 131.507812 106.507812 C 131.082031 107.214844 130.492188 108.0625 129.742188 109.050781 C 129.507812 109.308594 129.304688 109.542969 129.128906 109.761719 C 132.046875 111.457031 134.984375 113.117188 137.941406 114.75 Z M 128.582031 106.992188 C 129.207031 106.453125 129.742188 106.035156 130.191406 105.734375 C 127.535156 104.230469 124.863281 102.730469 122.179688 101.230469 C 121.34375 102.195312 120.457031 103.203125 119.511719 104.253906 C 122 105.671875 124.457031 107.085938 126.878906 108.503906 C 127.375 108.03125 127.9375 107.527344 128.582031 106.992188 Z M 128.070312 126.40625 C 127.664062 126.941406 127.308594 127.394531 127.007812 127.757812 C 129.429688 129.261719 131.863281 130.785156 134.308594 132.328125 C 134.652344 131.964844 135.070312 131.609375 135.5625 131.265625 C 136.101562 130.816406 136.828125 130.300781 137.75 129.71875 C 135.046875 128.003906 132.28125 126.308594 129.453125 124.632812 C 129.109375 125.066406 128.648438 125.652344 128.070312 126.40625 Z M 127.746094 123.574219 C 124.914062 121.898438 122.019531 120.167969 119.0625 118.390625 C 118.742188 118.839844 118.320312 119.460938 117.804688 120.253906 C 117.402344 120.792969 117.023438 121.253906 116.679688 121.640625 C 119.363281 123.183594 122.054688 124.773438 124.753906 126.40625 C 125.292969 125.761719 125.976562 125.066406 126.8125 124.3125 C 127.15625 124.035156 127.46875 123.785156 127.746094 123.574219 Z M 138.265625 122.769531 C 137.792969 123.304688 137.355469 123.765625 136.945312 124.152344 C 140.871094 126.554688 144.824219 128.992188 148.816406 131.460938 C 149.738281 130.410156 150.703125 129.347656 151.710938 128.273438 C 147.871094 125.933594 143.882812 123.53125 139.746094 121.058594 C 139.335938 121.53125 138.84375 122.101562 138.265625 122.769531 Z M 135.496094 121.449219 C 136.207031 120.695312 136.890625 120.117188 137.558594 119.710938 C 130.890625 115.695312 123.863281 111.5625 116.488281 107.3125 C 115.542969 108.34375 114.527344 109.296875 113.433594 110.179688 C 119.566406 113.761719 125.753906 117.414062 131.992188 121.125 L 131.992188 121.1875 C 132.785156 121.617188 133.582031 122.082031 134.371094 122.574219 C 134.671875 122.230469 135.046875 121.855469 135.496094 121.449219 Z M 63.71875 134.792969 L 68.125 132.25 L 69.316406 131.558594 L 73.769531 128.980469 L 80.652344 125.003906 L 85.222656 122.367188 L 86.523438 121.609375 L 88.828125 120.273438 L 89.566406 119.835938 C 90.644531 119.144531 91.691406 118.429688 92.703125 117.695312 C 93.035156 117.457031 93.363281 117.214844 93.679688 116.972656 C 96.289062 115.011719 98.664062 112.921875 100.808594 110.695312 C 102.113281 109.335938 103.335938 107.921875 104.476562 106.460938 C 104.734375 106.125 104.992188 105.789062 105.246094 105.445312 C 106.175781 104.1875 107.042969 102.894531 107.851562 101.566406 C 109.03125 99.628906 110.082031 97.617188 111.003906 95.527344 C 111.597656 94.164062 112.140625 92.769531 112.628906 91.34375 L 114.558594 86.609375 L 114.589844 86.546875 C 115.210938 85.085938 116.070312 84.675781 117.164062 85.320312 L 122.953125 88.671875 L 170.015625 115.84375 C 171.105469 116.507812 171.394531 117.5625 170.878906 119 L 170.464844 120.046875 L 166.765625 129.175781 C 165.917969 130.980469 164.96875 132.730469 163.917969 134.421875 C 163.199219 135.582031 162.433594 136.714844 161.617188 137.820312 C 161.363281 138.167969 161.105469 138.507812 160.847656 138.847656 C 159.671875 140.363281 158.40625 141.824219 157.050781 143.226562 C 154.957031 145.398438 152.644531 147.4375 150.117188 149.34375 C 149.792969 149.59375 149.460938 149.839844 149.121094 150.085938 C 148.046875 150.867188 146.9375 151.625 145.789062 152.355469 L 145.085938 152.808594 L 145.019531 152.808594 L 97.640625 180.175781 L 97.574219 180.175781 C 96.289062 180.945312 95.066406 181 93.90625 180.335938 L 42.75 150.792969 L 41.121094 149.84375 C 39.964844 149.15625 40.050781 148.449219 41.382812 147.71875 L 54.808594 139.941406 L 57.542969 138.367188 L 62.0625 135.757812 L 63.71875 134.792969 "/>
<path style=" stroke:none;fill-rule:evenodd;fill:rgb(79.60968%,89.019775%,96.469116%);fill-opacity:1;" d="M 137.203125 134.101562 C 137.570312 133.714844 137.921875 133.253906 138.265625 132.714844 C 138.800781 132.007812 139.21875 131.386719 139.519531 130.847656 C 141.597656 132.136719 143.617188 133.421875 145.566406 134.710938 C 144.601562 135.675781 143.648438 136.632812 142.703125 137.578125 C 140.902344 136.417969 139.070312 135.257812 137.203125 134.101562 Z M 114.542969 151.070312 L 114.492188 151.035156 C 113.480469 150.453125 112.46875 149.875 111.453125 149.296875 L 111.019531 149.039062 C 111.449219 148.738281 111.878906 148.40625 112.308594 148.042969 C 112.386719 147.972656 112.460938 147.902344 112.53125 147.832031 C 113.238281 147.203125 113.796875 146.703125 114.207031 146.335938 L 122.695312 151.261719 L 118.804688 153.515625 Z M 94.003906 146.433594 C 94.667969 145.851562 95.21875 145.367188 95.644531 144.984375 L 114.589844 155.929688 L 110.699219 158.183594 L 93.617188 148.332031 L 93.652344 148.300781 L 92.589844 147.65625 C 92.863281 147.421875 93.171875 147.160156 93.503906 146.867188 C 93.667969 146.730469 93.832031 146.582031 94.003906 146.433594 Z M 92.105469 144.773438 C 91.714844 145.015625 91.355469 145.253906 91.027344 145.480469 C 90.652344 145.742188 90.328125 145.992188 90.046875 146.238281 L 76.539062 138.414062 L 80.464844 136.128906 L 93.78125 143.886719 C 93.285156 144.101562 92.761719 144.382812 92.203125 144.726562 C 92.171875 144.746094 92.140625 144.761719 92.105469 144.773438 Z M 108.125 147.332031 L 101.722656 143.628906 L 101.753906 143.597656 L 84.644531 133.746094 L 88.535156 131.460938 L 112.308594 145.207031 C 111.792969 145.445312 111.210938 145.714844 110.570312 146.011719 C 109.597656 146.476562 108.792969 146.914062 108.15625 147.316406 C 108.144531 147.320312 108.136719 147.328125 108.125 147.332031 Z M 105.441406 134.871094 C 105.484375 134.832031 105.535156 134.789062 105.582031 134.742188 C 106.074219 134.277344 106.53125 133.8125 106.949219 133.34375 C 107.242188 133.019531 107.511719 132.691406 107.773438 132.363281 L 131.09375 145.882812 L 127.234375 148.136719 L 110.117188 138.253906 L 110.152344 138.222656 L 105.003906 135.226562 C 105.148438 135.117188 105.292969 134.996094 105.441406 134.871094 Z M 96.964844 126.082031 L 105.582031 131.105469 C 105.144531 131.292969 104.679688 131.539062 104.199219 131.847656 C 103.828125 132.078125 103.441406 132.347656 103.042969 132.652344 C 102.699219 132.914062 102.34375 133.203125 101.980469 133.519531 L 93.039062 128.371094 Z M 104.136719 118.871094 C 117.433594 126.597656 129.28125 133.820312 139.679688 140.539062 C 138.824219 141.484375 137.957031 142.351562 137.074219 143.148438 C 126.78125 136.558594 114.964844 129.429688 101.628906 121.769531 C 102.421875 120.761719 103.257812 119.792969 104.136719 118.871094 Z M 135.496094 121.449219 C 135.046875 121.855469 134.671875 122.230469 134.371094 122.574219 C 133.582031 122.082031 132.785156 121.617188 131.992188 121.1875 L 131.992188 121.125 C 125.753906 117.414062 119.566406 113.761719 113.433594 110.179688 C 114.527344 109.296875 115.542969 108.34375 116.488281 107.3125 C 123.863281 111.5625 130.890625 115.695312 137.558594 119.710938 C 136.890625 120.117188 136.207031 120.695312 135.496094 121.449219 Z M 138.265625 122.769531 C 138.84375 122.101562 139.335938 121.53125 139.746094 121.058594 C 143.882812 123.53125 147.871094 125.933594 151.710938 128.273438 C 150.703125 129.347656 149.738281 130.410156 148.816406 131.460938 C 144.824219 128.992188 140.871094 126.554688 136.945312 124.152344 C 137.355469 123.765625 137.792969 123.304688 138.265625 122.769531 Z M 127.746094 123.574219 C 127.46875 123.785156 127.15625 124.035156 126.8125 124.3125 C 125.976562 125.066406 125.292969 125.761719 124.753906 126.40625 C 122.054688 124.773438 119.363281 123.183594 116.679688 121.640625 C 117.023438 121.253906 117.402344 120.792969 117.804688 120.253906 C 118.320312 119.460938 118.742188 118.839844 119.0625 118.390625 C 122.019531 120.167969 124.914062 121.898438 127.746094 123.574219 Z M 128.070312 126.40625 C 128.648438 125.652344 129.109375 125.066406 129.453125 124.632812 C 132.28125 126.308594 135.046875 128.003906 137.75 129.71875 C 136.828125 130.300781 136.101562 130.816406 135.5625 131.265625 C 135.070312 131.609375 134.652344 131.964844 134.308594 132.328125 C 131.863281 130.785156 129.429688 129.261719 127.007812 127.757812 C 127.308594 127.394531 127.664062 126.941406 128.070312 126.40625 Z M 128.582031 106.992188 C 127.9375 107.527344 127.375 108.03125 126.878906 108.503906 C 124.457031 107.085938 122 105.671875 119.511719 104.253906 C 120.457031 103.203125 121.34375 102.195312 122.179688 101.230469 C 124.863281 102.730469 127.535156 104.230469 130.191406 105.734375 C 129.742188 106.035156 129.207031 106.453125 128.582031 106.992188 Z M 137.941406 114.75 C 134.984375 113.117188 132.046875 111.457031 129.128906 109.761719 C 129.304688 109.542969 129.507812 109.308594 129.742188 109.050781 C 130.492188 108.0625 131.082031 107.214844 131.507812 106.507812 C 140.710938 111.679688 149.375 116.746094 157.5 121.703125 C 156.597656 122.777344 155.710938 123.839844 154.832031 124.890625 C 149.191406 121.542969 143.5625 118.183594 137.941406 114.8125 L 137.941406 114.75 "/>
<path style=" stroke:none;fill-rule:evenodd;fill:rgb(94.509888%,24.308777%,65.489197%);fill-opacity:1;" d="M 155.796875 77.464844 L 143.570312 59.789062 L 139.007812 81.203125 Z M 132.714844 83.066406 C 131.484375 80.136719 130.867188 76.875 130.867188 73.28125 C 130.867188 71.585938 131.003906 69.96875 131.269531 68.417969 C 131.886719 64.839844 133.222656 61.664062 135.273438 58.890625 C 137.355469 56.164062 139.703125 54.371094 142.316406 53.511719 C 143.027344 53.296875 143.746094 53.148438 144.472656 53.0625 C 144.925781 52.996094 145.394531 52.964844 145.890625 52.964844 C 146.339844 53.007812 146.789062 53.039062 147.238281 53.0625 C 149.488281 53.324219 151.550781 54.183594 153.414062 55.636719 C 153.605469 55.785156 153.792969 55.941406 153.976562 56.101562 C 154.914062 56.917969 155.796875 57.886719 156.632812 59.019531 C 157.148438 59.703125 157.621094 60.402344 158.046875 61.109375 C 160 64.542969 160.972656 68.601562 160.972656 73.28125 C 160.972656 77.960938 159.902344 82.066406 157.757812 85.59375 C 157.613281 85.84375 157.464844 86.082031 157.308594 86.320312 C 157.070312 86.707031 156.804688 87.09375 156.503906 87.480469 C 153.78125 91.085938 150.605469 93.082031 146.980469 93.46875 C 146.683594 93.511719 146.371094 93.53125 146.050781 93.53125 L 145.375 93.53125 C 145.203125 93.53125 145.019531 93.511719 144.824219 93.46875 C 143.96875 93.382812 143.132812 93.210938 142.316406 92.953125 C 139.722656 92.121094 137.429688 90.40625 135.433594 87.800781 C 135.371094 87.71875 135.308594 87.632812 135.242188 87.546875 C 134.21875 86.148438 133.375 84.65625 132.714844 83.066406 "/>
<path style=" stroke:none;fill-rule:evenodd;fill:rgb(88.62915%,9.408569%,49.409485%);fill-opacity:1;" d="M 165.625 60.820312 C 167.714844 64.359375 168.757812 68.492188 168.757812 73.21875 C 168.757812 78.882812 167.28125 83.660156 164.320312 87.546875 C 163.988281 87.980469 163.652344 88.394531 163.304688 88.78125 C 161.066406 91.296875 158.550781 92.804688 155.761719 93.308594 C 155.078125 93.457031 154.371094 93.53125 153.640625 93.53125 C 153.277344 93.53125 152.921875 93.5 152.578125 93.4375 L 146.980469 93.46875 C 150.605469 93.082031 153.78125 91.085938 156.503906 87.480469 C 156.804688 87.09375 157.070312 86.707031 157.308594 86.320312 C 157.464844 86.082031 157.613281 85.84375 157.757812 85.59375 C 159.902344 82.066406 160.972656 77.960938 160.972656 73.28125 C 160.972656 68.601562 160 64.542969 158.046875 61.109375 C 157.621094 60.402344 157.148438 59.703125 156.632812 59.019531 C 155.796875 57.886719 154.914062 56.917969 153.976562 56.101562 C 153.792969 55.941406 153.605469 55.785156 153.414062 55.636719 C 151.550781 54.183594 149.488281 53.324219 147.238281 53.0625 L 153 53.0625 C 153.234375 53.0625 153.46875 53.050781 153.703125 53.027344 C 154.894531 53.027344 156.035156 53.179688 157.128906 53.480469 C 157.585938 53.605469 158.03125 53.753906 158.464844 53.929688 C 160.609375 54.894531 162.582031 56.570312 164.382812 58.953125 C 164.828125 59.554688 165.242188 60.175781 165.625 60.820312 "/>
<path style=" stroke:none;fill-rule:evenodd;fill:rgb(9.799194%,13.729858%,25.489807%);fill-opacity:1;" d="M 168.371094 91.679688 C 166.929688 93.277344 165.203125 94.632812 163.195312 95.753906 C 158.261719 98.480469 153.039062 99.003906 147.53125 97.332031 C 142.289062 95.710938 138.257812 92.535156 135.433594 87.800781 C 137.429688 90.40625 139.722656 92.121094 142.316406 92.953125 C 143.132812 93.210938 143.96875 93.382812 144.824219 93.46875 C 145.019531 93.511719 145.203125 93.53125 145.375 93.53125 L 146.050781 93.53125 C 146.371094 93.53125 146.683594 93.511719 146.980469 93.46875 L 152.578125 93.4375 C 152.921875 93.5 153.277344 93.53125 153.640625 93.53125 C 154.371094 93.53125 155.078125 93.457031 155.761719 93.308594 C 158.550781 92.804688 161.066406 91.296875 163.304688 88.78125 C 163.652344 88.394531 163.988281 87.980469 164.320312 87.546875 C 167.28125 83.660156 168.757812 78.882812 168.757812 73.21875 C 168.757812 68.492188 167.714844 64.359375 165.625 60.820312 C 167.695312 62.515625 169.4375 64.640625 170.851562 67.195312 C 173.660156 72.324219 174.324219 77.683594 172.84375 83.261719 C 171.953125 86.570312 170.464844 89.375 168.371094 91.679688 "/>
<path style=" stroke:none;fill-rule:evenodd;fill:rgb(92.939758%,97.648621%,99.21875%);fill-opacity:1;" d="M 155.796875 77.464844 L 139.007812 81.203125 L 143.570312 59.789062 Z M 155.796875 77.464844 "/>
</g>
</svg>
