<?xml version="1.0" encoding="UTF-8"?>
<svg xmlns="http://www.w3.org/2000/svg" xmlns:xlink="http://www.w3.org/1999/xlink" width="224.87999pt" height="225pt" viewBox="0 0 224.87999 225" version="1.2">
<defs>
<clipPath id="clip1">
  <path d="M 0 0.574219 L 224.761719 0.574219 L 224.761719 180 L 0 180 Z M 0 0.574219 "/>
</clipPath>
<clipPath id="clip2">
  <path d="M 0 0.574219 L 224.761719 0.574219 L 224.761719 180 L 0 180 Z M 0 0.574219 "/>
</clipPath>
<clipPath id="clip3">
  <path d="M 37 207 L 188 207 L 188 224.707031 L 37 224.707031 Z M 37 207 "/>
</clipPath>
<clipPath id="clip4">
  <path d="M 37 207 L 188 207 L 188 224.707031 L 37 224.707031 Z M 37 207 "/>
</clipPath>
</defs>
<g id="surface1">
<path style=" stroke:none;fill-rule:nonzero;fill:rgb(41.958618%,86.669922%,86.669922%);fill-opacity:1;" d="M 207.445312 177.417969 L 17.445312 177.417969 C 8.878906 177.417969 1.933594 170.457031 1.933594 161.871094 L 1.933594 18.039062 C 1.933594 9.453125 8.878906 2.488281 17.445312 2.488281 L 207.445312 2.488281 C 216.011719 2.488281 222.957031 9.453125 222.957031 18.039062 L 222.957031 161.871094 C 222.957031 170.457031 216.011719 177.417969 207.445312 177.417969 "/>
<path style=" stroke:none;fill-rule:nonzero;fill:rgb(97.648621%,81.17981%,81.17981%);fill-opacity:1;" d="M 13.566406 124.941406 L 13.566406 19.984375 C 13.566406 16.765625 16.171875 14.152344 19.382812 14.152344 L 205.507812 14.152344 C 208.71875 14.152344 211.324219 16.765625 211.324219 19.984375 L 211.324219 124.941406 C 211.324219 128.160156 208.71875 130.769531 205.507812 130.769531 L 19.382812 130.769531 C 16.171875 130.769531 13.566406 128.160156 13.566406 124.941406 "/>
<path style=" stroke:none;fill-rule:nonzero;fill:rgb(97.648621%,65.489197%,65.489197%);fill-opacity:1;" d="M 192.828125 112.621094 L 109.894531 112.621094 C 104.691406 112.621094 100.472656 108.394531 100.472656 103.175781 L 100.472656 35.152344 C 100.472656 29.933594 104.691406 25.703125 109.894531 25.703125 L 192.828125 25.703125 C 198.03125 25.703125 202.25 29.933594 202.25 35.152344 L 202.25 103.175781 C 202.25 108.394531 198.03125 112.621094 192.828125 112.621094 "/>
<path style=" stroke:none;fill-rule:nonzero;fill:rgb(27.449036%,44.309998%,77.648926%);fill-opacity:1;" d="M 150.011719 44.328125 L 112.34375 59.207031 C 110.539062 59.917969 110.574219 62.492188 112.394531 63.15625 L 150.117188 76.917969 C 151.0625 77.261719 152.097656 77.261719 153.042969 76.917969 L 190.777344 63.152344 C 192.59375 62.488281 192.628906 59.921875 190.828125 59.210938 L 153.148438 44.328125 C 152.140625 43.929688 151.019531 43.929688 150.011719 44.328125 "/>
<path style=" stroke:none;fill-rule:nonzero;fill:rgb(21.569824%,38.42926%,79.998779%);fill-opacity:1;" d="M 150.703125 46.085938 L 113.03125 60.964844 C 112.980469 60.984375 112.890625 61.019531 112.894531 61.175781 C 112.894531 61.328125 112.984375 61.359375 113.039062 61.382812 L 150.761719 75.144531 C 151.289062 75.335938 151.871094 75.335938 152.398438 75.144531 L 190.136719 61.375 C 190.1875 61.359375 190.273438 61.324219 190.273438 61.175781 C 190.277344 61.023438 190.191406 60.988281 190.140625 60.96875 L 152.460938 46.085938 C 151.894531 45.863281 151.269531 45.863281 150.703125 46.085938 Z M 151.578125 79.066406 C 150.867188 79.066406 150.152344 78.941406 149.472656 78.695312 L 111.746094 64.933594 C 110.175781 64.359375 109.144531 62.902344 109.125 61.222656 C 109.101562 59.546875 110.09375 58.0625 111.652344 57.445312 L 149.320312 42.570312 C 150.777344 41.996094 152.382812 41.996094 153.839844 42.570312 L 191.519531 57.453125 C 193.078125 58.066406 194.066406 59.546875 194.046875 61.222656 C 194.023438 62.902344 192.996094 64.355469 191.425781 64.929688 L 153.6875 78.695312 C 153.007812 78.941406 152.296875 79.066406 151.578125 79.066406 "/>
<path style=" stroke:none;fill-rule:nonzero;fill:rgb(100%,91.758728%,57.249451%);fill-opacity:1;" d="M 192.160156 84.351562 L 192.160156 61.101562 C 192.160156 61.101562 192.160156 61.101562 192.160156 61.097656 C 192.265625 60.027344 191.476562 59.148438 190.402344 59.148438 L 153.480469 59.148438 C 152.460938 59.148438 151.535156 59.882812 151.433594 60.894531 C 151.316406 62.0625 152.226562 63.042969 153.367188 63.042969 L 187.332031 63.042969 C 187.851562 63.042969 188.277344 63.46875 188.277344 63.988281 L 188.277344 84.351562 C 187.074219 85.03125 186.25 86.308594 186.25 87.792969 L 186.25 94.074219 C 186.25 94.613281 186.6875 95.046875 187.21875 95.046875 L 193.214844 95.046875 C 193.75 95.046875 194.183594 94.613281 194.183594 94.074219 L 194.183594 87.792969 C 194.183594 86.308594 193.363281 85.03125 192.160156 84.351562 "/>
<path style=" stroke:none;fill-rule:nonzero;fill:rgb(27.449036%,44.309998%,77.648926%);fill-opacity:1;" d="M 153.042969 76.917969 C 152.097656 77.261719 151.0625 77.261719 150.117188 76.917969 L 127.984375 68.84375 L 127.984375 81.703125 C 127.984375 82.53125 128.523438 83.265625 129.339844 83.542969 C 134.59375 85.304688 154.265625 90.90625 173.894531 83.558594 C 174.671875 83.265625 175.175781 82.535156 175.175781 81.742188 L 175.175781 68.84375 L 153.042969 76.917969 "/>
<path style=" stroke:none;fill-rule:nonzero;fill:rgb(21.569824%,38.42926%,79.998779%);fill-opacity:1;" d="M 153.046875 76.917969 L 153.054688 76.917969 Z M 129.867188 71.542969 L 129.867188 81.703125 C 135.308594 83.550781 154.292969 88.878906 173.234375 81.789062 L 173.28125 71.546875 L 153.6875 78.695312 C 152.328125 79.1875 150.832031 79.1875 149.472656 78.695312 Z M 152.566406 89.136719 C 141.359375 89.136719 132.269531 86.515625 128.742188 85.335938 C 127.164062 84.804688 126.097656 83.34375 126.097656 81.703125 L 126.097656 68.84375 C 126.097656 68.226562 126.398438 67.648438 126.902344 67.296875 C 127.40625 66.941406 128.050781 66.855469 128.628906 67.066406 L 150.761719 75.140625 C 151.289062 75.335938 151.871094 75.335938 152.398438 75.140625 L 174.535156 67.066406 C 175.109375 66.855469 175.753906 66.941406 176.257812 67.296875 C 176.761719 67.648438 177.0625 68.226562 177.0625 68.84375 L 177.0625 81.742188 C 177.0625 83.324219 176.054688 84.765625 174.554688 85.328125 C 166.957031 88.171875 159.371094 89.136719 152.566406 89.136719 "/>
<path style=" stroke:none;fill-rule:nonzero;fill:rgb(87.838745%,92.158508%,98.81897%);fill-opacity:1;" d="M 1.933594 142.433594 L 1.933594 161.871094 C 1.933594 170.457031 8.878906 177.417969 17.445312 177.417969 L 207.445312 177.417969 C 216.011719 177.417969 222.957031 170.457031 222.957031 161.871094 L 222.957031 142.433594 L 1.933594 142.433594 "/>
<path style=" stroke:none;fill-rule:nonzero;fill:rgb(87.838745%,92.158508%,98.81897%);fill-opacity:1;" d="M 179.707031 223.09375 L 45.183594 223.09375 C 42.175781 223.09375 39.742188 220.652344 39.742188 217.640625 L 39.742188 214.941406 C 39.742188 211.929688 42.175781 209.488281 45.183594 209.488281 L 179.707031 209.488281 C 182.714844 209.488281 185.148438 211.929688 185.148438 214.941406 L 185.148438 217.640625 C 185.148438 220.652344 182.714844 223.09375 179.707031 223.09375 "/>
<path style=" stroke:none;fill-rule:nonzero;fill:rgb(41.958618%,86.669922%,86.669922%);fill-opacity:1;" d="M 66.949219 177.421875 L 59.128906 209.488281 L 165.761719 209.488281 L 157.941406 177.421875 L 66.949219 177.421875 "/>
<path style=" stroke:none;fill-rule:nonzero;fill:rgb(87.838745%,92.158508%,98.81897%);fill-opacity:1;" d="M 179.707031 223.09375 L 45.183594 223.09375 C 42.175781 223.09375 39.742188 220.652344 39.742188 217.640625 L 39.742188 214.941406 C 39.742188 211.929688 42.175781 209.488281 45.183594 209.488281 L 179.707031 209.488281 C 182.714844 209.488281 185.148438 211.929688 185.148438 214.941406 L 185.148438 217.640625 C 185.148438 220.652344 182.714844 223.09375 179.707031 223.09375 "/>
<path style=" stroke:none;fill-rule:nonzero;fill:rgb(41.958618%,86.669922%,86.669922%);fill-opacity:1;" d="M 66.949219 177.421875 L 59.128906 209.488281 L 165.761719 209.488281 L 157.941406 177.421875 L 66.949219 177.421875 "/>
<path style=" stroke:none;fill-rule:nonzero;fill:rgb(97.648621%,81.17981%,81.17981%);fill-opacity:1;" d="M 75.578125 61.542969 C 75.53125 61.542969 75.488281 61.550781 75.4375 61.550781 L 75.4375 59.453125 C 75.4375 47.195312 65.527344 37.257812 53.300781 37.257812 C 41.070312 37.257812 31.160156 47.195312 31.160156 59.453125 L 31.160156 61.550781 C 31.113281 61.550781 31.066406 61.542969 31.019531 61.542969 C 27.289062 61.542969 24.265625 64.574219 24.265625 68.3125 C 24.265625 69.988281 25.023438 71.558594 26.199219 72.75 C 28.304688 74.886719 30.101562 75.222656 31.746094 75.046875 C 34.03125 84.867188 42.808594 92.183594 53.300781 92.183594 C 63.789062 92.183594 72.570312 84.867188 74.855469 75.046875 C 76.535156 75.226562 78.375 74.871094 80.503906 72.609375 C 81.640625 71.398438 82.367188 69.828125 82.332031 68.167969 C 82.253906 64.496094 79.257812 61.542969 75.578125 61.542969 "/>
<path style=" stroke:none;fill-rule:nonzero;fill:rgb(97.648621%,65.489197%,65.489197%);fill-opacity:1;" d="M 58.660156 76.183594 L 49.113281 76.183594 C 48.59375 76.183594 48.171875 76.605469 48.171875 77.128906 L 48.171875 79.492188 C 48.171875 80.363281 48.542969 81.210938 49.230469 81.90625 C 50.054688 82.738281 51.261719 83.277344 52.585938 83.429688 C 52.636719 83.398438 54.269531 83.410156 55.230469 83.421875 C 56.535156 83.261719 57.730469 82.730469 58.542969 81.90625 C 59.230469 81.210938 59.605469 80.363281 59.605469 79.492188 L 59.605469 77.128906 C 59.605469 76.605469 59.183594 76.183594 58.660156 76.183594 "/>
<path style=" stroke:none;fill-rule:nonzero;fill:rgb(64.309692%,78.819275%,100%);fill-opacity:1;" d="M 28.441406 122.359375 L 28.441406 102.730469 C 28.441406 98.449219 31.4375 94.875 35.4375 93.980469 C 26.542969 95.296875 19.707031 102.957031 19.707031 112.238281 L 19.707031 130.773438 L 28.441406 130.773438 L 28.441406 122.359375 "/>
<path style=" stroke:none;fill-rule:nonzero;fill:rgb(64.309692%,78.819275%,100%);fill-opacity:1;" d="M 70.386719 93.761719 L 37.390625 93.761719 C 32.449219 93.761719 28.441406 97.777344 28.441406 102.730469 L 28.441406 130.773438 L 79.332031 130.773438 L 79.332031 102.730469 C 79.332031 97.777344 75.328125 93.761719 70.386719 93.761719 "/>
<path style=" stroke:none;fill-rule:nonzero;fill:rgb(64.309692%,78.819275%,100%);fill-opacity:1;" d="M 112.941406 169.644531 L 111.949219 169.644531 C 106.890625 169.644531 102.75 165.496094 102.75 160.425781 L 102.75 159.425781 C 102.75 154.355469 106.890625 150.207031 111.949219 150.207031 L 112.941406 150.207031 C 118 150.207031 122.140625 154.355469 122.140625 159.425781 L 122.140625 160.425781 C 122.140625 165.496094 118 169.644531 112.941406 169.644531 "/>
<g clip-path="url(#clip1)" clip-rule="nonzero">
<path style=" stroke:none;fill-rule:nonzero;fill:rgb(21.569824%,38.42926%,79.998779%);fill-opacity:1;" d="M 17.433594 4.382812 C 9.921875 4.382812 3.808594 10.511719 3.808594 18.042969 L 3.808594 161.871094 C 3.808594 169.402344 9.921875 175.53125 17.433594 175.53125 L 207.433594 175.53125 C 214.949219 175.53125 221.058594 169.402344 221.058594 161.871094 L 221.058594 18.042969 C 221.058594 10.511719 214.949219 4.382812 207.433594 4.382812 Z M 207.433594 179.308594 L 17.433594 179.308594 C 7.84375 179.308594 0.0390625 171.488281 0.0390625 161.871094 L 0.0390625 18.042969 C 0.0390625 8.425781 7.84375 0.601562 17.433594 0.601562 L 207.433594 0.601562 C 217.027344 0.601562 224.828125 8.425781 224.828125 18.042969 L 224.828125 161.871094 C 224.828125 171.488281 217.027344 179.308594 207.433594 179.308594 "/>
</g>
<path style=" stroke:none;fill-rule:nonzero;fill:rgb(27.449036%,44.309998%,77.648926%);fill-opacity:1;" d="M 42.199219 71.328125 C 40.828125 71.328125 39.71875 70.214844 39.71875 68.839844 L 39.71875 64.691406 C 39.71875 63.316406 40.828125 62.203125 42.199219 62.203125 C 43.570312 62.203125 44.683594 63.316406 44.683594 64.691406 L 44.683594 68.839844 C 44.683594 70.214844 43.570312 71.328125 42.199219 71.328125 "/>
<path style=" stroke:none;fill-rule:nonzero;fill:rgb(27.449036%,44.309998%,77.648926%);fill-opacity:1;" d="M 65.574219 71.328125 C 64.203125 71.328125 63.09375 70.214844 63.09375 68.839844 L 63.09375 64.691406 C 63.09375 63.316406 64.203125 62.203125 65.574219 62.203125 C 66.945312 62.203125 68.058594 63.316406 68.058594 64.691406 L 68.058594 68.839844 C 68.058594 70.214844 66.945312 71.328125 65.574219 71.328125 "/>
<path style=" stroke:none;fill-rule:nonzero;fill:rgb(97.648621%,65.489197%,65.489197%);fill-opacity:1;" d="M 55.195312 76.183594 L 49.113281 76.183594 C 48.59375 76.183594 48.171875 76.605469 48.171875 77.128906 L 48.171875 79.492188 C 48.171875 80.363281 48.542969 81.210938 49.230469 81.90625 C 50.054688 82.738281 51.261719 83.277344 52.585938 83.429688 L 52.585938 83.476562 L 55.191406 83.476562 L 55.191406 83.429688 C 56.511719 83.277344 57.722656 82.738281 58.542969 81.90625 C 59.230469 81.210938 59.605469 80.363281 59.605469 79.492188 L 59.605469 77.128906 C 59.605469 76.605469 59.183594 76.183594 58.660156 76.183594 L 55.195312 76.183594 "/>
<path style=" stroke:none;fill-rule:nonzero;fill:rgb(21.569824%,38.42926%,79.998779%);fill-opacity:1;" d="M 58.660156 77.363281 L 58.671875 77.363281 Z M 52.921875 82.296875 L 54.859375 82.296875 C 54.921875 82.277344 54.988281 82.261719 55.054688 82.253906 C 56.121094 82.132812 57.085938 81.703125 57.707031 81.074219 C 58.179688 80.601562 58.425781 80.054688 58.425781 79.492188 L 58.425781 77.363281 L 49.351562 77.363281 L 49.351562 79.492188 C 49.351562 80.054688 49.597656 80.601562 50.066406 81.074219 C 50.6875 81.703125 51.65625 82.132812 52.71875 82.253906 C 52.789062 82.261719 52.855469 82.277344 52.921875 82.296875 Z M 55.191406 84.65625 L 52.585938 84.65625 C 52.410156 84.65625 52.246094 84.621094 52.097656 84.554688 C 50.632812 84.316406 49.328125 83.679688 48.394531 82.738281 C 47.492188 81.828125 46.992188 80.671875 46.992188 79.492188 L 46.992188 77.128906 C 46.992188 75.957031 47.945312 75.003906 49.113281 75.003906 L 58.660156 75.003906 C 59.832031 75.003906 60.78125 75.957031 60.78125 77.128906 L 60.78125 79.492188 C 60.78125 80.671875 60.285156 81.828125 59.378906 82.738281 C 58.445312 83.6875 57.128906 84.324219 55.648438 84.558594 C 55.507812 84.621094 55.351562 84.65625 55.191406 84.65625 "/>
<path style=" stroke:none;fill-rule:nonzero;fill:rgb(27.449036%,44.309998%,77.648926%);fill-opacity:1;" d="M 46.214844 55.996094 L 25.839844 55.996094 C 24.96875 55.996094 24.265625 55.292969 24.265625 54.421875 L 24.265625 47.007812 C 24.265625 36.183594 33.019531 27.40625 43.816406 27.40625 L 55.597656 27.40625 C 58.1875 27.40625 60.289062 29.511719 60.289062 32.109375 L 60.289062 41.886719 C 60.289062 49.679688 53.988281 55.996094 46.214844 55.996094 "/>
<path style=" stroke:none;fill-rule:nonzero;fill:rgb(21.569824%,38.42926%,79.998779%);fill-opacity:1;" d="M 30.328125 128.882812 L 77.449219 128.882812 L 77.449219 102.730469 C 77.449219 98.828125 74.28125 95.652344 70.386719 95.652344 L 37.390625 95.652344 C 33.496094 95.652344 30.328125 98.828125 30.328125 102.730469 Z M 79.332031 132.660156 L 28.441406 132.660156 C 27.402344 132.660156 26.558594 131.816406 26.558594 130.773438 L 26.558594 102.730469 C 26.558594 96.742188 31.417969 91.871094 37.390625 91.871094 L 70.386719 91.871094 C 76.359375 91.871094 81.21875 96.742188 81.21875 102.730469 L 81.21875 130.773438 C 81.21875 131.816406 80.375 132.660156 79.332031 132.660156 "/>
<path style=" stroke:none;fill-rule:nonzero;fill:rgb(21.569824%,38.42926%,79.998779%);fill-opacity:1;" d="M 81.21875 122.46875 L 86.21875 125.800781 C 90.976562 128.972656 97.425781 127.675781 100.589844 122.90625 L 114.898438 101.355469 L 100.378906 91.679688 L 92.175781 104.046875 C 91.597656 104.925781 90.707031 105.523438 89.675781 105.730469 C 88.648438 105.9375 87.597656 105.730469 86.722656 105.148438 L 81.140625 101.425781 C 81.191406 101.855469 81.21875 102.289062 81.21875 102.730469 Z M 91.9375 131.316406 C 89.25 131.316406 86.535156 130.550781 84.132812 128.949219 L 78.289062 125.054688 C 77.761719 124.703125 77.449219 124.113281 77.449219 123.480469 L 77.449219 102.730469 C 77.449219 100.488281 76.414062 98.425781 74.609375 97.070312 C 73.792969 96.457031 73.613281 95.300781 74.203125 94.46875 C 74.789062 93.632812 75.933594 93.417969 76.785156 93.984375 L 88.808594 102 C 88.875 102.046875 88.996094 102.019531 89.039062 101.953125 L 97.242188 89.585938 C 97.800781 88.746094 98.648438 88.171875 99.636719 87.972656 C 100.625 87.773438 101.628906 87.972656 102.46875 88.53125 L 116.984375 98.210938 C 117.824219 98.769531 118.394531 99.621094 118.59375 100.613281 C 118.792969 101.601562 118.59375 102.609375 118.035156 103.449219 L 103.726562 125 C 101.007812 129.097656 96.515625 131.316406 91.9375 131.316406 "/>
<path style=" stroke:none;fill-rule:nonzero;fill:rgb(21.569824%,38.42926%,79.998779%);fill-opacity:1;" d="M 74.875 96.871094 C 74.558594 96.871094 74.234375 96.789062 73.9375 96.621094 C 73.917969 96.609375 73.871094 96.582031 73.855469 96.570312 C 73.421875 96.300781 73.101562 95.859375 72.996094 95.359375 C 72.886719 94.859375 72.972656 94.328125 73.257812 93.902344 C 73.832031 93.035156 75 92.796875 75.867188 93.371094 L 75.917969 93.40625 C 76.765625 93.96875 77.015625 95.105469 76.480469 95.976562 C 76.125 96.550781 75.507812 96.871094 74.875 96.871094 "/>
<path style=" stroke:none;fill-rule:nonzero;fill:rgb(21.569824%,38.42926%,79.998779%);fill-opacity:1;" d="M 21.59375 128.882812 L 26.558594 128.882812 L 26.558594 102.730469 C 26.558594 101.84375 26.667969 100.972656 26.875 100.136719 C 23.617188 103.191406 21.59375 107.53125 21.59375 112.238281 Z M 28.441406 132.664062 L 19.710938 132.664062 C 18.667969 132.664062 17.824219 131.816406 17.824219 130.773438 L 17.824219 112.238281 C 17.824219 102.226562 25.277344 93.574219 35.160156 92.113281 C 36.164062 91.964844 37.105469 92.636719 37.289062 93.636719 C 37.472656 94.636719 36.835938 95.605469 35.847656 95.824219 C 32.648438 96.539062 30.328125 99.445312 30.328125 102.730469 L 30.328125 130.773438 C 30.328125 131.816406 29.484375 132.664062 28.441406 132.664062 "/>
<path style=" stroke:none;fill-rule:nonzero;fill:rgb(64.309692%,78.819275%,100%);fill-opacity:1;" d="M 74.828125 94.949219 L 74.824219 94.949219 C 74.84375 94.960938 74.859375 94.972656 74.878906 94.980469 L 74.828125 94.949219 "/>
<path style=" stroke:none;fill-rule:nonzero;fill:rgb(64.309692%,78.819275%,100%);fill-opacity:1;" d="M 115.941406 99.78125 L 101.425781 90.105469 C 100.558594 89.527344 99.386719 89.765625 98.8125 90.632812 L 90.609375 103 C 89.980469 103.945312 88.710938 104.203125 87.765625 103.574219 L 75.742188 95.558594 C 77.917969 97.195312 79.332031 99.792969 79.332031 102.730469 L 79.332031 123.480469 L 85.175781 127.375 C 90.808594 131.128906 98.410156 129.597656 102.160156 123.953125 L 116.46875 102.402344 C 117.042969 101.535156 116.808594 100.359375 115.941406 99.78125 "/>
<path style=" stroke:none;fill-rule:nonzero;fill:rgb(64.309692%,78.819275%,100%);fill-opacity:1;" d="M 112.941406 169.644531 L 111.949219 169.644531 C 106.890625 169.644531 102.75 165.496094 102.75 160.425781 L 102.75 159.425781 C 102.75 154.355469 106.890625 150.207031 111.949219 150.207031 L 112.941406 150.207031 C 118 150.207031 122.140625 154.355469 122.140625 159.425781 L 122.140625 160.425781 C 122.140625 165.496094 118 169.644531 112.941406 169.644531 "/>
<g clip-path="url(#clip2)" clip-rule="nonzero">
<path style=" stroke:none;fill-rule:nonzero;fill:rgb(21.569824%,38.42926%,79.998779%);fill-opacity:1;" d="M 17.445312 4.351562 C 9.933594 4.351562 3.820312 10.480469 3.820312 18.011719 L 3.820312 161.839844 C 3.820312 169.375 9.933594 175.5 17.445312 175.5 L 207.445312 175.5 C 214.957031 175.5 221.070312 169.375 221.070312 161.839844 L 221.070312 18.011719 C 221.070312 10.480469 214.957031 4.351562 207.445312 4.351562 Z M 207.445312 179.28125 L 17.445312 179.28125 C 7.855469 179.28125 0.0507812 171.457031 0.0507812 161.839844 L 0.0507812 18.011719 C 0.0507812 8.394531 7.855469 0.574219 17.445312 0.574219 L 207.445312 0.574219 C 217.035156 0.574219 224.839844 8.394531 224.839844 18.011719 L 224.839844 161.839844 C 224.839844 171.457031 217.035156 179.28125 207.445312 179.28125 "/>
</g>
<path style=" stroke:none;fill-rule:nonzero;fill:rgb(21.569824%,38.42926%,79.998779%);fill-opacity:1;" d="M 31.746094 73.15625 C 32.613281 73.15625 33.378906 73.753906 33.582031 74.617188 C 35.726562 83.847656 43.835938 90.292969 53.300781 90.292969 C 62.761719 90.292969 70.871094 83.847656 73.019531 74.617188 C 73.234375 73.6875 74.105469 73.066406 75.054688 73.167969 C 76.152344 73.285156 77.410156 73.144531 79.128906 71.3125 C 80.003906 70.382812 80.472656 69.28125 80.449219 68.207031 C 80.390625 65.585938 78.226562 63.453125 75.613281 63.433594 C 75.542969 63.4375 75.472656 63.441406 75.4375 63.441406 C 74.945312 63.441406 74.472656 63.246094 74.121094 62.898438 C 73.757812 62.546875 73.554688 62.058594 73.554688 61.550781 L 73.554688 59.453125 C 73.554688 48.257812 64.46875 39.148438 53.300781 39.148438 C 42.132812 39.148438 33.042969 48.257812 33.042969 59.453125 L 33.042969 61.550781 C 33.042969 62.058594 32.839844 62.546875 32.480469 62.898438 C 32.117188 63.253906 31.632812 63.445312 31.125 63.441406 C 31.089844 63.441406 30.992188 63.433594 30.960938 63.433594 C 28.335938 63.433594 26.152344 65.621094 26.148438 68.316406 C 26.148438 69.410156 26.644531 70.511719 27.539062 71.421875 C 29.246094 73.148438 30.472656 73.28125 31.542969 73.167969 C 31.613281 73.160156 31.679688 73.15625 31.746094 73.15625 Z M 53.300781 94.074219 C 42.585938 94.074219 33.332031 87.101562 30.296875 76.941406 C 28.34375 76.757812 26.585938 75.828125 24.859375 74.078125 C 23.261719 72.457031 22.378906 70.410156 22.378906 68.3125 C 22.382812 64.136719 25.347656 60.644531 29.273438 59.832031 L 29.273438 59.453125 C 29.273438 46.175781 40.050781 35.371094 53.300781 35.371094 C 66.546875 35.371094 77.324219 46.175781 77.324219 59.453125 L 77.324219 59.835938 C 81.171875 60.640625 84.128906 64.050781 84.214844 68.125 C 84.261719 70.195312 83.429688 72.25 81.875 73.902344 C 80.121094 75.765625 78.320312 76.753906 76.300781 76.945312 C 73.269531 87.101562 64.015625 94.074219 53.300781 94.074219 "/>
<path style=" stroke:none;fill-rule:nonzero;fill:rgb(27.449036%,44.309998%,77.648926%);fill-opacity:1;" d="M 42.199219 71.328125 C 40.828125 71.328125 39.71875 70.214844 39.71875 68.839844 L 39.71875 64.691406 C 39.71875 63.316406 40.828125 62.203125 42.199219 62.203125 C 43.570312 62.203125 44.683594 63.316406 44.683594 64.691406 L 44.683594 68.839844 C 44.683594 70.214844 43.570312 71.328125 42.199219 71.328125 "/>
<path style=" stroke:none;fill-rule:nonzero;fill:rgb(27.449036%,44.309998%,77.648926%);fill-opacity:1;" d="M 65.574219 71.328125 C 64.203125 71.328125 63.09375 70.214844 63.09375 68.839844 L 63.09375 64.691406 C 63.09375 63.316406 64.203125 62.203125 65.574219 62.203125 C 66.945312 62.203125 68.058594 63.316406 68.058594 64.691406 L 68.058594 68.839844 C 68.058594 70.214844 66.945312 71.328125 65.574219 71.328125 "/>
<path style=" stroke:none;fill-rule:nonzero;fill:rgb(21.569824%,38.42926%,79.998779%);fill-opacity:1;" d="M 79.144531 64.460938 C 78.796875 64.460938 78.453125 64.367188 78.148438 64.175781 C 77.371094 63.691406 76.484375 63.433594 75.578125 63.433594 C 75.582031 63.4375 75.507812 63.441406 75.4375 63.441406 C 74.945312 63.441406 74.46875 63.246094 74.117188 62.898438 C 73.757812 62.542969 73.554688 62.058594 73.554688 61.550781 L 73.554688 59.453125 C 73.554688 58.417969 73.46875 57.351562 73.304688 56.289062 C 73.21875 55.746094 73.375 55.1875 73.734375 54.769531 C 74.09375 54.351562 74.617188 54.109375 75.167969 54.109375 L 79.144531 54.109375 C 80.183594 54.109375 81.03125 54.953125 81.03125 55.996094 L 81.03125 62.570312 C 81.03125 63.257812 80.65625 63.890625 80.058594 64.226562 C 79.773438 64.382812 79.460938 64.460938 79.144531 64.460938 "/>
<path style=" stroke:none;fill-rule:nonzero;fill:rgb(21.569824%,38.42926%,79.998779%);fill-opacity:1;" d="M 27.453125 64.460938 C 27.140625 64.460938 26.824219 64.382812 26.539062 64.226562 C 25.941406 63.890625 25.570312 63.257812 25.570312 62.570312 L 25.570312 55.996094 C 25.570312 54.953125 26.414062 54.109375 27.453125 54.109375 L 31.433594 54.109375 C 31.984375 54.109375 32.507812 54.351562 32.863281 54.769531 C 33.222656 55.1875 33.378906 55.746094 33.292969 56.289062 C 33.128906 57.351562 33.042969 58.417969 33.042969 59.453125 L 33.042969 61.550781 C 33.042969 62.058594 32.84375 62.542969 32.484375 62.898438 C 32.125 63.253906 31.640625 63.453125 31.132812 63.441406 C 31.097656 63.441406 30.996094 63.433594 30.960938 63.433594 C 30.117188 63.433594 29.226562 63.691406 28.453125 64.175781 C 28.148438 64.367188 27.800781 64.460938 27.453125 64.460938 "/>
<path style=" stroke:none;fill-rule:nonzero;fill:rgb(27.449036%,44.309998%,77.648926%);fill-opacity:1;" d="M 64.914062 27.40625 L 64.355469 27.40625 C 62.347656 27.40625 60.644531 28.675781 59.972656 30.453125 C 59.304688 28.675781 57.605469 27.40625 55.597656 27.40625 L 43.816406 27.40625 C 33.019531 27.40625 24.265625 36.183594 24.265625 47.007812 L 24.265625 54.421875 C 24.265625 55.292969 24.96875 55.996094 25.839844 55.996094 L 46.214844 55.996094 C 52.535156 55.996094 57.886719 51.816406 59.660156 46.0625 C 59.714844 51.558594 64.167969 55.996094 69.664062 55.996094 L 81.355469 55.996094 C 82.222656 55.996094 82.921875 55.296875 82.921875 54.425781 L 82.921875 45.460938 C 82.921875 35.492188 74.859375 27.40625 64.914062 27.40625 "/>
<path style=" stroke:none;fill-rule:nonzero;fill:rgb(21.569824%,38.42926%,79.998779%);fill-opacity:1;" d="M 26.148438 54.109375 L 46.214844 54.109375 C 52.9375 54.109375 58.40625 48.625 58.40625 41.886719 L 58.40625 32.113281 C 58.40625 30.558594 57.144531 29.296875 55.597656 29.296875 L 43.816406 29.296875 C 34.074219 29.296875 26.148438 37.242188 26.148438 47.007812 Z M 46.214844 57.886719 L 25.839844 57.886719 C 23.929688 57.886719 22.378906 56.332031 22.378906 54.421875 L 22.378906 47.007812 C 22.378906 35.160156 31.996094 25.519531 43.816406 25.519531 L 55.597656 25.519531 C 59.222656 25.519531 62.175781 28.476562 62.175781 32.113281 L 62.175781 41.886719 C 62.175781 50.710938 55.015625 57.886719 46.214844 57.886719 "/>
<path style=" stroke:none;fill-rule:nonzero;fill:rgb(21.569824%,38.42926%,79.998779%);fill-opacity:1;" d="M 81.21875 122.46875 L 86.21875 125.800781 C 90.976562 128.972656 97.425781 127.675781 100.589844 122.90625 L 114.898438 101.355469 L 100.378906 91.679688 L 92.175781 104.046875 C 91.597656 104.925781 90.707031 105.523438 89.675781 105.730469 C 88.648438 105.9375 87.597656 105.730469 86.722656 105.148438 L 81.140625 101.425781 C 81.191406 101.855469 81.21875 102.289062 81.21875 102.730469 Z M 91.9375 131.316406 C 89.25 131.316406 86.535156 130.550781 84.132812 128.949219 L 78.289062 125.054688 C 77.761719 124.703125 77.449219 124.113281 77.449219 123.480469 L 77.449219 102.730469 C 77.449219 100.488281 76.414062 98.425781 74.609375 97.070312 C 73.792969 96.457031 73.613281 95.300781 74.203125 94.46875 C 74.789062 93.632812 75.933594 93.417969 76.785156 93.984375 L 88.808594 102 C 88.875 102.046875 88.996094 102.019531 89.039062 101.953125 L 97.242188 89.585938 C 97.800781 88.746094 98.648438 88.171875 99.636719 87.972656 C 100.625 87.773438 101.628906 87.972656 102.46875 88.53125 L 116.984375 98.210938 C 117.824219 98.769531 118.394531 99.621094 118.59375 100.613281 C 118.792969 101.601562 118.59375 102.609375 118.035156 103.449219 L 103.726562 125 C 101.007812 129.097656 96.515625 131.316406 91.9375 131.316406 "/>
<path style=" stroke:none;fill-rule:nonzero;fill:rgb(21.569824%,38.42926%,79.998779%);fill-opacity:1;" d="M 74.875 96.871094 C 74.558594 96.871094 74.234375 96.789062 73.9375 96.621094 C 73.917969 96.609375 73.871094 96.582031 73.855469 96.570312 C 73.421875 96.300781 73.101562 95.859375 72.996094 95.359375 C 72.886719 94.859375 72.972656 94.328125 73.257812 93.902344 C 73.832031 93.035156 75 92.796875 75.867188 93.371094 L 75.917969 93.40625 C 76.765625 93.96875 77.015625 95.105469 76.480469 95.976562 C 76.125 96.550781 75.507812 96.871094 74.875 96.871094 "/>
<path style=" stroke:none;fill-rule:nonzero;fill:rgb(97.648621%,81.17981%,81.17981%);fill-opacity:1;" d="M 53.300781 92.183594 C 49.308594 92.183594 45.566406 91.121094 42.335938 89.265625 L 42.335938 98.371094 C 42.335938 100.011719 43.445312 101.339844 44.8125 101.339844 L 61.789062 101.339844 C 63.15625 101.339844 64.261719 100.011719 64.261719 98.371094 L 64.261719 89.265625 C 61.03125 91.121094 57.289062 92.183594 53.300781 92.183594 "/>
<path style=" stroke:none;fill-rule:nonzero;fill:rgb(21.569824%,38.42926%,79.998779%);fill-opacity:1;" d="M 44.222656 92.285156 L 44.222656 98.371094 C 44.222656 99.042969 44.601562 99.449219 44.8125 99.449219 L 61.789062 99.449219 C 61.996094 99.449219 62.378906 99.042969 62.378906 98.371094 L 62.378906 92.285156 C 56.640625 94.636719 49.964844 94.636719 44.222656 92.285156 Z M 61.789062 103.230469 L 44.8125 103.230469 C 42.40625 103.230469 40.449219 101.050781 40.449219 98.371094 L 40.449219 89.265625 C 40.449219 88.59375 40.808594 87.96875 41.390625 87.632812 C 41.972656 87.292969 42.6875 87.292969 43.269531 87.625 C 46.316406 89.371094 49.785156 90.292969 53.300781 90.292969 C 56.816406 90.292969 60.285156 89.371094 63.328125 87.625 C 63.910156 87.289062 64.628906 87.292969 65.210938 87.628906 C 65.789062 87.96875 66.148438 88.59375 66.148438 89.265625 L 66.148438 98.371094 C 66.148438 101.050781 64.195312 103.230469 61.789062 103.230469 "/>
<path style=" stroke:none;fill-rule:nonzero;fill:rgb(97.648621%,81.17981%,81.17981%);fill-opacity:1;" d="M 112.261719 97.359375 L 105.367188 92.707031 C 102.660156 90.878906 101.941406 87.195312 103.765625 84.480469 L 109.816406 75.472656 C 110.859375 73.917969 112.960938 73.503906 114.511719 74.550781 L 125.59375 82.03125 C 127.144531 83.078125 127.558594 85.183594 126.511719 86.738281 L 120.464844 95.75 C 118.640625 98.464844 114.96875 99.183594 112.261719 97.359375 "/>
<path style=" stroke:none;fill-rule:nonzero;fill:rgb(21.569824%,38.42926%,79.998779%);fill-opacity:1;" d="M 112.621094 75.863281 C 112.523438 75.863281 112.429688 75.871094 112.332031 75.890625 C 111.9375 75.96875 111.597656 76.191406 111.375 76.527344 L 105.324219 85.539062 C 104.085938 87.382812 104.578125 89.894531 106.417969 91.136719 L 113.3125 95.789062 C 114.203125 96.390625 115.273438 96.609375 116.328125 96.402344 C 117.386719 96.195312 118.296875 95.589844 118.898438 94.695312 L 124.949219 85.683594 C 125.171875 85.351562 125.253906 84.949219 125.175781 84.554688 C 125.097656 84.160156 124.875 83.820312 124.539062 83.597656 L 113.457031 76.117188 C 113.207031 75.949219 112.917969 75.863281 112.621094 75.863281 Z M 115.542969 100.257812 C 114.007812 100.257812 112.507812 99.800781 111.207031 98.925781 L 104.3125 94.273438 C 100.746094 91.867188 99.796875 87.003906 102.199219 83.425781 L 108.25 74.414062 C 109.035156 73.246094 110.226562 72.453125 111.609375 72.179688 C 112.988281 71.910156 114.394531 72.195312 115.558594 72.984375 L 126.644531 80.460938 C 127.8125 81.25 128.605469 82.445312 128.875 83.832031 C 129.144531 85.214844 128.859375 86.621094 128.074219 87.792969 L 122.023438 96.804688 C 120.863281 98.535156 119.097656 99.710938 117.050781 100.109375 C 116.550781 100.210938 116.042969 100.257812 115.542969 100.257812 "/>
<path style=" stroke:none;fill-rule:nonzero;fill:rgb(87.838745%,92.158508%,98.81897%);fill-opacity:1;" d="M 141.800781 47.683594 C 141.496094 47.503906 141.148438 47.40625 140.796875 47.40625 C 140.105469 47.40625 139.457031 47.777344 139.101562 48.375 L 111.921875 94.277344 C 111.652344 94.730469 111.578125 95.261719 111.707031 95.773438 C 111.835938 96.285156 112.160156 96.714844 112.609375 96.984375 C 112.914062 97.164062 113.261719 97.261719 113.617188 97.261719 C 114.308594 97.261719 114.957031 96.890625 115.3125 96.292969 L 142.488281 50.390625 C 143.042969 49.457031 142.734375 48.242188 141.800781 47.683594 "/>
<path style=" stroke:none;fill-rule:nonzero;fill:rgb(97.648621%,81.17981%,81.17981%);fill-opacity:1;" d="M 111.773438 78.820312 L 118 78.101562 L 119.539062 91.425781 C 119.601562 91.972656 119.210938 92.46875 118.667969 92.53125 C 115.773438 92.867188 113.152344 90.785156 112.816406 87.882812 L 111.773438 78.820312 "/>
<path style=" stroke:none;fill-rule:nonzero;fill:rgb(21.569824%,38.42926%,79.998779%);fill-opacity:1;" d="M 105.199219 89.832031 L 107.875 91.460938 L 110.859375 87.363281 L 110.738281 86.289062 C 110.730469 86.214844 110.726562 86.140625 110.726562 86.066406 C 110.726562 85.121094 111.433594 84.304688 112.390625 84.195312 C 113.425781 84.070312 114.363281 84.816406 114.480469 85.855469 L 114.691406 87.667969 C 114.792969 88.570312 115.242188 89.375 115.953125 89.941406 C 116.421875 90.3125 116.972656 90.550781 117.550781 90.640625 L 116.199219 78.9375 L 113.785156 76.339844 L 113.457031 76.117188 C 112.769531 75.65625 111.835938 75.839844 111.375 76.527344 L 105.324219 85.539062 C 104.464844 86.824219 104.425781 88.503906 105.199219 89.832031 Z M 108.375 95.863281 C 108.039062 95.863281 107.703125 95.773438 107.398438 95.589844 L 102.875 92.839844 C 102.65625 92.703125 102.46875 92.527344 102.320312 92.316406 C 100.449219 89.679688 100.398438 86.109375 102.199219 83.425781 L 108.25 74.414062 C 109.871094 72 113.148438 71.355469 115.558594 72.980469 L 116.070312 73.328125 C 116.1875 73.40625 116.296875 73.5 116.394531 73.605469 L 119.378906 76.8125 C 119.65625 77.105469 119.828125 77.484375 119.875 77.882812 L 121.410156 91.210938 C 121.5 91.976562 121.285156 92.730469 120.804688 93.335938 C 120.328125 93.9375 119.644531 94.320312 118.878906 94.40625 C 116.980469 94.628906 115.109375 94.09375 113.609375 92.902344 C 113.152344 92.535156 112.742188 92.121094 112.390625 91.667969 L 109.898438 95.089844 C 109.53125 95.59375 108.957031 95.863281 108.375 95.863281 "/>
<path style=" stroke:none;fill-rule:nonzero;fill:rgb(21.569824%,38.42926%,79.998779%);fill-opacity:1;" d="M 49.113281 76.65625 C 48.855469 76.65625 48.644531 76.867188 48.644531 77.128906 L 48.644531 79.492188 C 48.644531 80.246094 48.960938 80.964844 49.566406 81.574219 C 50.300781 82.316406 51.375 82.804688 52.59375 82.953125 C 52.863281 82.929688 53.496094 82.929688 55.234375 82.949219 C 56.398438 82.804688 57.476562 82.316406 58.210938 81.574219 C 58.804688 80.972656 59.132812 80.234375 59.132812 79.492188 L 59.132812 77.128906 C 59.132812 76.867188 58.921875 76.65625 58.660156 76.65625 Z M 52.585938 83.902344 C 52.566406 83.902344 52.550781 83.902344 52.53125 83.898438 C 51.082031 83.730469 49.789062 83.140625 48.894531 82.242188 C 48.125 81.460938 47.699219 80.484375 47.699219 79.492188 L 47.699219 77.128906 C 47.699219 76.347656 48.335938 75.710938 49.113281 75.710938 L 58.660156 75.710938 C 59.441406 75.710938 60.074219 76.347656 60.074219 77.128906 L 60.074219 79.492188 C 60.074219 80.484375 59.652344 81.460938 58.878906 82.238281 C 57.996094 83.128906 56.722656 83.714844 55.285156 83.890625 C 53.199219 83.871094 52.765625 83.886719 52.675781 83.894531 C 52.644531 83.898438 52.617188 83.902344 52.585938 83.902344 "/>
<g clip-path="url(#clip3)" clip-rule="nonzero">
<path style=" stroke:none;fill-rule:nonzero;fill:rgb(21.569824%,38.42926%,79.998779%);fill-opacity:1;" d="M 45.183594 211.378906 C 43.222656 211.378906 41.625 212.976562 41.625 214.941406 L 41.625 217.640625 C 41.625 219.605469 43.222656 221.203125 45.183594 221.203125 L 179.710938 221.203125 C 181.667969 221.203125 183.265625 219.605469 183.265625 217.640625 L 183.265625 214.941406 C 183.265625 212.976562 181.667969 211.378906 179.710938 211.378906 Z M 179.710938 224.984375 L 45.183594 224.984375 C 41.144531 224.984375 37.855469 221.6875 37.855469 217.640625 L 37.855469 214.941406 C 37.855469 210.894531 41.144531 207.597656 45.183594 207.597656 L 179.710938 207.597656 C 183.75 207.597656 187.035156 210.894531 187.035156 214.941406 L 187.035156 217.640625 C 187.035156 221.6875 183.75 224.984375 179.710938 224.984375 "/>
</g>
<path style=" stroke:none;fill-rule:nonzero;fill:rgb(21.569824%,38.42926%,79.998779%);fill-opacity:1;" d="M 61.53125 207.597656 L 163.359375 207.597656 L 156.464844 179.308594 L 68.425781 179.308594 Z M 165.761719 211.378906 L 59.128906 211.378906 C 58.550781 211.378906 58.003906 211.113281 57.648438 210.65625 C 57.289062 210.199219 57.160156 209.601562 57.296875 209.039062 L 65.117188 176.972656 C 65.324219 176.125 66.078125 175.53125 66.949219 175.53125 L 157.941406 175.53125 C 158.8125 175.53125 159.566406 176.125 159.773438 176.972656 L 167.59375 209.039062 C 167.730469 209.601562 167.601562 210.199219 167.242188 210.65625 C 166.886719 211.113281 166.339844 211.378906 165.761719 211.378906 "/>
<g clip-path="url(#clip4)" clip-rule="nonzero">
<path style=" stroke:none;fill-rule:nonzero;fill:rgb(21.569824%,38.42926%,79.998779%);fill-opacity:1;" d="M 45.183594 211.378906 C 43.222656 211.378906 41.625 212.976562 41.625 214.941406 L 41.625 217.640625 C 41.625 219.605469 43.222656 221.203125 45.183594 221.203125 L 179.710938 221.203125 C 181.667969 221.203125 183.265625 219.605469 183.265625 217.640625 L 183.265625 214.941406 C 183.265625 212.976562 181.667969 211.378906 179.710938 211.378906 Z M 179.710938 224.984375 L 45.183594 224.984375 C 41.144531 224.984375 37.855469 221.6875 37.855469 217.640625 L 37.855469 214.941406 C 37.855469 210.894531 41.144531 207.597656 45.183594 207.597656 L 179.710938 207.597656 C 183.75 207.597656 187.035156 210.894531 187.035156 214.941406 L 187.035156 217.640625 C 187.035156 221.6875 183.75 224.984375 179.710938 224.984375 "/>
</g>
<path style=" stroke:none;fill-rule:nonzero;fill:rgb(21.569824%,38.42926%,79.998779%);fill-opacity:1;" d="M 61.53125 207.597656 L 163.359375 207.597656 L 156.464844 179.308594 L 68.425781 179.308594 Z M 165.761719 211.378906 L 59.128906 211.378906 C 58.550781 211.378906 58.003906 211.113281 57.648438 210.65625 C 57.289062 210.199219 57.160156 209.601562 57.296875 209.039062 L 65.117188 176.972656 C 65.324219 176.125 66.078125 175.53125 66.949219 175.53125 L 157.941406 175.53125 C 158.8125 175.53125 159.566406 176.125 159.773438 176.972656 L 167.59375 209.039062 C 167.730469 209.601562 167.601562 210.199219 167.242188 210.65625 C 166.886719 211.113281 166.339844 211.378906 165.761719 211.378906 "/>
<path style=" stroke:none;fill-rule:nonzero;fill:rgb(21.569824%,38.42926%,79.998779%);fill-opacity:1;" d="M 19.382812 16.042969 C 17.214844 16.042969 15.453125 17.808594 15.453125 19.984375 L 15.453125 124.941406 C 15.453125 127.113281 17.214844 128.882812 19.382812 128.882812 L 205.507812 128.882812 C 207.675781 128.882812 209.4375 127.113281 209.4375 124.941406 L 209.4375 19.984375 C 209.4375 17.808594 207.675781 16.042969 205.507812 16.042969 Z M 205.507812 132.660156 L 19.382812 132.660156 C 15.136719 132.660156 11.683594 129.195312 11.683594 124.941406 L 11.683594 19.984375 C 11.683594 15.726562 15.136719 12.261719 19.382812 12.261719 L 205.507812 12.261719 C 209.753906 12.261719 213.207031 15.726562 213.207031 19.984375 L 213.207031 124.941406 C 213.207031 129.195312 209.753906 132.660156 205.507812 132.660156 "/>
<path style=" stroke:none;fill-rule:nonzero;fill:rgb(21.569824%,38.42926%,79.998779%);fill-opacity:1;" d="M 61.550781 46.316406 C 61.738281 50.636719 65.320312 54.109375 69.660156 54.109375 L 81.035156 54.109375 L 81.035156 45.460938 C 81.035156 36.546875 73.804688 29.296875 64.914062 29.296875 L 64.355469 29.296875 C 63.378906 29.296875 62.5 29.796875 61.992188 30.605469 C 62.113281 31.105469 62.175781 31.609375 62.175781 32.113281 L 62.175781 41.886719 C 62.175781 43.390625 61.964844 44.878906 61.550781 46.316406 Z M 81.355469 57.886719 L 69.660156 57.886719 C 63.171875 57.886719 57.839844 52.59375 57.777344 46.085938 C 57.773438 45.886719 57.804688 45.695312 57.859375 45.507812 C 58.222656 44.339844 58.40625 43.121094 58.40625 41.886719 L 58.40625 32.113281 C 58.40625 31.789062 58.339844 31.464844 58.210938 31.121094 C 58.046875 30.6875 58.046875 30.210938 58.210938 29.78125 C 59.179688 27.230469 61.644531 25.519531 64.355469 25.519531 L 64.914062 25.519531 C 75.882812 25.519531 84.804688 34.464844 84.804688 45.460938 L 84.804688 54.429688 C 84.804688 56.335938 83.257812 57.886719 81.355469 57.886719 "/>
</g>
</svg>
