<?xml version="1.0" standalone="no"?>
<!DOCTYPE svg PUBLIC "-//W3C//DTD SVG 20010904//EN"
 "http://www.w3.org/TR/2001/REC-SVG-20010904/DTD/svg10.dtd">
<svg version="1.0" xmlns="http://www.w3.org/2000/svg"
 width="120" height="120" viewBox="0 0 2000.000000 2000.000000"
 preserveAspectRatio="xMidYMid meet">

<g transform="translate(0.000000,2000.000000) scale(0.100000,-0.100000)"
fill="#23395d" stroke="none">
<path d="M9555 19679 c-1502 -71 -2961 -485 -4255 -1207 -2430 -1355 -4163
-3676 -4760 -6375 -445 -2011 -237 -4131 587 -6002 634 -1439 1621 -2717 2852
-3694 74 -59 106 -79 115 -72 7 6 23 32 35 58 20 41 54 72 240 218 l216 171
196 -261 c165 -218 212 -288 292 -437 53 -97 107 -194 120 -215 14 -21 77
-126 140 -233 l116 -195 90 -48 c50 -26 92 -47 95 -47 4 0 6 654 6 1454 l0
1453 -72 7 c-40 3 -316 19 -613 36 -646 36 -1175 69 -1193 76 -11 3 -12 18 -8
62 4 31 15 189 26 351 11 162 22 297 25 299 2 2 104 -3 227 -12 486 -34 1405
-86 1533 -86 l75 0 0 428 0 429 -157 7 c-355 15 -1613 93 -1620 100 -2 2 3
100 11 217 8 118 18 277 22 354 l7 140 -394 29 c-217 15 -418 30 -448 33 l-54
6 7 66 c3 36 15 179 26 316 11 138 23 270 26 294 l6 44 61 -6 c217 -22 302
-29 557 -47 2230 -157 4265 -230 6445 -230 1605 0 3039 37 4665 120 786 40
1962 119 2336 156 l61 7 6 -54 c13 -121 50 -659 46 -663 -5 -5 -550 -49 -767
-62 -62 -4 -114 -10 -116 -13 -3 -6 5 -147 29 -496 7 -115 13 -211 11 -212 -5
-6 -1121 -75 -1518 -94 l-258 -13 0 -428 0 -428 75 0 c132 0 1054 52 1528 86
125 9 229 15 232 13 2 -2 13 -148 24 -324 12 -176 22 -336 23 -355 l3 -35 -90
-7 c-183 -14 -753 -49 -1200 -73 -252 -14 -490 -28 -527 -32 l-68 -6 0 -1273
0 -1273 49 20 c26 11 86 42 132 67 l84 47 87 175 c49 96 127 250 175 342 l86
167 203 161 c112 88 209 167 217 174 11 12 40 -22 181 -210 93 -123 173 -228
180 -233 7 -6 57 29 156 111 1156 957 2083 2177 2685 3533 1294 2912 1072
6294 -592 9003 -1473 2399 -3917 4046 -6681 4501 -657 109 -1380 151 -2037
120z m-6579 -7460 c562 -54 949 -284 1157 -687 101 -195 145 -380 154 -652 11
-351 -43 -618 -179 -883 -208 -404 -567 -634 -1128 -722 -199 -32 -756 -30
-1037 2 l-53 6 0 1443 c0 1365 1 1443 18 1448 24 7 274 35 407 45 164 12 536
12 661 0z m8250 0 c562 -54 949 -284 1157 -687 101 -195 145 -380 154 -652 11
-351 -43 -618 -179 -883 -208 -404 -567 -634 -1128 -722 -199 -32 -756 -30
-1037 2 l-53 6 0 1443 c0 1365 1 1443 18 1448 24 7 274 35 407 45 164 12 536
12 661 0z m-6140 -44 c69 -43 104 -113 104 -207 0 -142 -90 -229 -236 -230
-168 -1 -272 147 -222 316 15 50 89 127 138 143 19 7 65 11 101 10 54 -2 76
-8 115 -32z m3420 0 c69 -43 104 -113 104 -207 0 -142 -90 -229 -236 -230
-168 -1 -272 147 -222 316 15 50 89 127 138 143 19 7 65 11 101 10 54 -2 76
-8 115 -32z m7272 9 c153 -76 167 -314 23 -409 -73 -49 -199 -49 -272 -1 -63
42 -93 97 -97 178 -6 90 15 145 73 196 77 68 182 82 273 36z m-8973 -778 c155
-42 316 -155 396 -278 42 -65 49 -61 49 30 0 31 3 94 7 140 l6 82 170 0 170 0
-7 -62 c-4 -35 -11 -508 -16 -1053 -8 -1072 -7 -1041 -66 -1250 -68 -241 -203
-411 -413 -519 -186 -95 -377 -132 -641 -123 -241 9 -413 47 -571 129 l-77 39
49 147 c26 81 50 146 54 145 3 -2 35 -18 73 -37 87 -43 200 -81 310 -103 118
-23 341 -23 437 1 239 58 393 224 445 476 16 75 20 134 19 280 0 175 -1 184
-16 160 -9 -14 -53 -61 -97 -105 -92 -92 -191 -149 -322 -187 -106 -31 -341
-33 -449 -4 -434 115 -709 547 -681 1071 17 320 117 572 305 768 121 127 302
227 471 263 85 18 313 12 395 -10z m7316 9 c506 -88 819 -498 819 -1072 0
-478 -207 -837 -587 -1015 -46 -22 -128 -51 -181 -65 -86 -24 -116 -27 -272
-27 -193 -1 -274 13 -417 73 -415 172 -654 639 -594 1160 60 512 369 862 836
945 106 19 292 20 396 1z m3440 0 c506 -88 819 -498 819 -1072 0 -478 -207
-837 -587 -1015 -46 -22 -128 -51 -181 -65 -86 -24 -116 -27 -272 -27 -193 -1
-274 13 -417 73 -415 172 -654 639 -594 1160 60 512 369 862 836 945 106 19
292 20 396 1z m-12411 -1085 l0 -1050 -190 0 -190 0 0 1050 0 1050 190 0 190
0 0 -1050z m3420 0 l0 -1050 -190 0 -190 0 0 1050 0 1050 190 0 190 0 0 -1050z
m7287 -52 c-4 -1191 -2 -1153 -58 -1340 -45 -154 -146 -305 -259 -390 -121
-91 -326 -162 -500 -175 l-86 -6 -17 134 c-23 177 -24 167 21 174 175 28 292
75 362 145 54 54 97 146 121 262 29 141 39 488 39 1451 l0 847 190 0 191 0 -4
-1102z"/>
<path d="M2535 11923 c-63 -4 -212 -22 -242 -30 l-23 -5 0 -1154 0 -1154 28
-7 c15 -5 153 -8 307 -8 307 0 376 8 547 65 389 130 621 401 710 830 25 124
35 412 19 544 -82 648 -554 970 -1346 919z"/>
<path d="M10785 11923 c-63 -4 -212 -22 -242 -30 l-23 -5 0 -1154 0 -1154 28
-7 c15 -5 153 -8 307 -8 307 0 376 8 547 65 389 130 621 401 710 830 25 124
35 412 19 544 -82 648 -554 970 -1346 919z"/>
<path d="M6565 11124 c-252 -39 -434 -222 -510 -510 -24 -94 -38 -241 -31
-345 29 -426 261 -684 616 -683 119 1 210 26 300 84 116 74 215 222 245 365
18 86 21 565 4 647 -16 76 -80 205 -133 264 -94 107 -229 170 -377 178 -46 2
-97 2 -114 0z"/>
<path d="M13795 11130 c-235 -50 -401 -221 -479 -490 -104 -365 -17 -764 214
-973 247 -223 628 -186 834 82 172 223 229 562 146 869 -70 257 -206 422 -406
493 -66 23 -241 34 -309 19z"/>
<path d="M17235 11130 c-235 -50 -401 -221 -479 -490 -104 -365 -17 -764 214
-973 247 -223 628 -186 834 82 172 223 229 562 146 869 -70 257 -206 422 -406
493 -66 23 -241 34 -309 19z"/>
<path d="M6717 5784 c-4 -4 -7 -197 -7 -429 l0 -423 83 -6 c196 -15 1312 -43
2053 -52 l551 -7 6 264 c4 145 7 339 7 430 l0 166 -527 7 c-727 9 -1861 37
-2073 51 -47 4 -89 3 -93 -1z"/>
<path d="M13290 5779 c-507 -20 -1790 -49 -2207 -49 l-223 0 0 -332 c0 -183 3
-378 7 -432 l6 -99 556 7 c730 9 1900 38 2054 52 l67 6 0 429 0 429 -37 -2
c-21 0 -121 -4 -223 -9z"/>
<path d="M6714 4201 c-7 -8 -4 -2771 4 -2771 4 0 32 37 62 83 67 100 215 250
293 296 154 91 258 107 360 57 71 -34 212 -138 367 -270 277 -236 367 -309
570 -459 392 -291 541 -421 588 -512 11 -22 35 -54 54 -71 51 -49 201 -119
401 -187 l182 -62 415 1 c399 0 625 9 922 39 l138 13 84 74 c46 40 114 89 152
108 38 19 103 62 144 94 101 81 327 308 546 551 99 110 211 226 249 259 123
103 231 140 330 113 28 -8 100 -28 161 -45 181 -51 206 -65 317 -185 82 -89
110 -112 171 -142 72 -36 73 -36 136 -25 35 6 91 22 124 34 l61 23 3 1494 2
1494 -237 -7 c-131 -3 -407 -11 -613 -17 -910 -26 -1499 -34 -2565 -34 -1218
0 -1659 7 -3183 51 -129 4 -236 5 -238 3z"/>
</g>
</svg>
