<?xml version="1.0" encoding="utf-8"?>
<!-- Generator: Adobe Illustrator 25.0.0, SVG Export Plug-In . SVG Version: 6.00 Build 0)  -->
<svg version="1.1" id="Layer_1" xmlns="http://www.w3.org/2000/svg" xmlns:xlink="http://www.w3.org/1999/xlink" x="0px" y="0px"
	 viewBox="0 0 31.4 14.5" style="enable-background:new 0 0 31.4 14.5;" xml:space="preserve" height="36" width="36">
<g transform="translate(0.000000,2000.000000) scale(0.100000,-0.100000)">
	<path d="M1,19998.8c-0.2-1.2-0.7-8.1-0.9-12.7l-0.1-2.3l6.2-0.3c3.4-0.2,6.1-0.4,6.1-0.4c0-0.1,1.4-0.2,3.1-0.3
		c1.7-0.1,3.3-0.2,3.6-0.2l0.5-0.1l-0.1-2.1c-0.1-1.2-0.2-3.2-0.3-4.5c-0.1-1.3-0.2-3.6-0.3-5c-0.1-1.4-0.2-2.6-0.3-2.7
		c-0.1-0.1-0.1-0.4-0.1-0.7c0-0.5,0.1-0.6,0.3-0.6c1.5,0,5.1-0.4,5.5-0.5c0.2-0.1,3.7-0.3,7.6-0.5s7.6-0.4,8-0.5s4.4-0.3,8.7-0.4
		c4.4-0.2,8.3-0.4,8.7-0.5l0.8-0.2v-9.1v-9.1h-0.5c-1.7,0-15.1,0.6-15.4,0.7c-0.1,0.1-2.2,0.2-4.6,0.3c-4.6,0.2-5.8,0.3-9,0.6
		c-2.1,0.2-11.1,0.7-11.2,0.6c-0.1-0.1-0.3-3.3-0.5-6.7c-0.1-1-0.2-1.9-0.3-2c-0.1-0.1-0.2-1.8-0.3-3.8l-0.1-3.6l0.7-0.2
		c0.4-0.1,3.9-0.4,7.7-0.5c3.9-0.2,7.1-0.4,7.1-0.4c0.1-0.1,3-0.3,6.7-0.4c3.6-0.2,7.5-0.4,8.6-0.5c3-0.2,8.3-0.5,9.8-0.5l1.3,0
		v-32.2v-32.2l1-0.4c0.5-0.2,1-0.5,1-0.5c0.1-0.1,0.5-0.3,1-0.4c0.8-0.3,2.6-1.2,3.1-1.5c0.1-0.1,0.5-0.2,0.9-0.4
		c0.4-0.1,1.1-0.4,1.5-0.7c0.4-0.2,0.9-0.4,1-0.4s0.4-0.1,0.6-0.3c0.2-0.2,0.9-0.5,1.4-0.6c0.5-0.2,1-0.4,1.1-0.4s0.6-0.3,1.2-0.4
		c0.6-0.2,1.2-0.4,1.3-0.5c0.1-0.1,0.7-0.4,1.3-0.6c0.6-0.2,1.1-0.4,1.2-0.5s0.7-0.3,1.4-0.5c0.7-0.2,1.4-0.5,1.4-0.5
		c0.1-0.1,0.5-0.3,1.1-0.5c0.5-0.2,1-0.4,1.1-0.5c0.1-0.1,0.4-0.2,0.8-0.3l0.7-0.1v36.8v36.8l3.9-0.1c2.1-0.1,5.3-0.2,7-0.3
		c25.5-1.2,103.9-1.2,128.4,0c1.6,0.1,4.8,0.2,7,0.3l4,0.1v-35.7v-35.7h0.4c0.3,0,0.4,0.1,0.4,0.1c0,0.1,0.5,0.3,1.1,0.5
		c0.6,0.2,1.2,0.4,1.3,0.6c0.1,0.1,0.7,0.4,1.3,0.6c0.6,0.2,1.1,0.4,1.2,0.4s0.6,0.3,1.1,0.5c0.6,0.2,1,0.4,1,0.4s0.4,0.3,1,0.5
		c0.6,0.2,1.2,0.5,1.4,0.6c0.2,0.1,0.7,0.3,1.1,0.5c0.4,0.1,0.8,0.3,0.9,0.4c0.4,0.3,3,1.6,3.5,1.7c0.3,0.1,0.5,0.2,0.5,0.3
		s0.5,0.3,1,0.6s1,0.5,1,0.6c0,0.1,0.1,0.1,0.2,0.1c0.1,0,1,0.4,1.9,0.9c0.9,0.5,2.1,1.1,2.7,1.3l0.9,0.5v30.7v30.7l1.3,0
		c1.5,0,6.6,0.3,9.5,0.5c1.1,0.1,5,0.3,8.6,0.5c3.6,0.2,6.6,0.4,6.7,0.4c0.1,0.1,3.3,0.3,7.1,0.4c3.9,0.2,7.3,0.4,7.7,0.5l0.7,0.2
		l-0.1,1.3c-0.1,0.8-0.2,3.3-0.3,5.7s-0.3,4.4-0.3,4.4c-0.1,0.1-0.2,1.1-0.2,2.3c-0.1,1.2-0.1,2.2-0.2,2.3
		c-0.1,0.1-9.1-0.4-11.2-0.6c-2.6-0.3-3.4-0.3-8.8-0.6c-2.6-0.1-4.7-0.3-4.8-0.3c-0.1-0.1-13.8-0.7-15.3-0.7c-0.3,0-0.3,0.6-0.3,9.2
		c0,8.7,0,9.2,0.3,9.3c0.2,0,4,0.2,8.4,0.4c4.5,0.2,8.6,0.4,9.2,0.5c0.6,0.1,4.3,0.3,8.2,0.5s7.3,0.4,7.5,0.5c0.3,0.1,1.6,0.3,3,0.4
		c1.4,0.1,2.6,0.2,2.6,0.2c0.1,0.1-0.1,3-0.5,7.5c-0.1,1.1-0.2,3.4-0.3,5.1l-0.1,3l0.5,0.1c0.3,0.1,1.9,0.1,3.6,0.2
		c1.7,0.1,3.1,0.2,3.2,0.3c0.1,0.1,10.3,0.7,11.7,0.7c0.4,0,0.4,0,0.4,2.9c0,1.6-0.1,3.6-0.2,4.4c-0.1,0.8-0.3,3-0.4,4.8
		c-0.1,1.8-0.2,3.4-0.3,3.7c-0.1,0.4-0.1,0.4-2.6,0.4c-1.4,0-3.4-0.1-4.4-0.2c-2.9-0.3-5.3-0.5-9.1-0.7c-1.9-0.1-3.7-0.3-3.9-0.4
		c-0.2-0.1-3.3-0.3-7-0.5c-3.7-0.2-7.1-0.4-7.6-0.4c-0.5-0.1-5.5-0.4-11.1-0.6c-5.6-0.3-10.5-0.5-10.8-0.6c-0.3-0.1-3.8-0.3-7.7-0.4
		c-3.9-0.1-7.5-0.3-8-0.4c-0.8-0.2-7.1-0.4-29.1-0.9c-3.7-0.1-7.4-0.2-8.3-0.3c-0.8-0.1-11.7-0.3-24-0.4c-18.4-0.2-26.7-0.2-45,0
		c-12.4,0.1-23.2,0.3-24,0.4c-0.8,0.1-4.6,0.2-8.3,0.3c-3.7,0.1-11.6,0.3-17.5,0.5c-5.9,0.1-11.1,0.4-11.6,0.4
		c-0.5,0.1-4.1,0.3-8,0.4c-3.9,0.1-7.3,0.3-7.4,0.3c-0.2,0.1-0.5,0.1-0.7,0.2c-0.2,0.1-5,0.3-10.5,0.5c-5.5,0.3-10.5,0.5-11,0.6
		c-0.5,0.1-3.9,0.3-7.6,0.4c-3.7,0.2-6.8,0.4-7,0.5c-0.2,0.1-2,0.2-4,0.4c-3.8,0.2-6,0.4-9,0.7c-1,0.1-2.9,0.2-4.3,0.2H1.2
		L1,19998.8z M97.7,19962.9c3.8-0.1,10.6-0.2,15.1-0.3c4.6-0.1,8.6-0.2,8.9-0.3c0.3-0.1,4.8-0.2,9.9-0.2l9.2,0l-0.1-9.3l-0.1-9.3
		l-10.4,0.1c-5.7,0-10.9,0.2-11.6,0.3c-0.7,0.1-5,0.2-9.5,0.3c-8.7,0.1-21.7,0.4-23.6,0.6c-0.6,0.1-1.8,0.1-2.5,0.2l-1.3,0.1v9.2
		v9.2l4.5-0.1C88.9,19963.1,93.9,19963,97.7,19962.9z M232.3,19954.1v-9.2l-1.4-0.1c-0.8-0.1-1.8-0.1-2.2-0.2
		c-0.4,0-4.5-0.1-9.1-0.3c-4.6-0.1-9.8-0.2-11.6-0.3c-1.8-0.1-5.2-0.1-7.6-0.1c-2.3,0-4.6-0.1-4.9-0.2c-0.4-0.1-5.5-0.2-11.4-0.3
		l-10.7-0.1v3.5c0,1.9-0.1,6.1-0.1,9.3l-0.1,5.9l9.4,0c5.3,0,9.6,0.1,10,0.2c0.3,0.1,2.1,0.2,3.9,0.2c3.3,0,16.1,0.3,26,0.5
		c2.9,0.1,6.2,0.2,7.5,0.2l2.3,0V19954.1z"/>
</g>
</svg>
